solid Default
  facet normal -6.123234e-17 -1.000000e+00 0.000000e+00
    outer loop
      vertex -1.348563e+01 -3.168492e+01 0.000000e+00
      vertex -1.348563e+01 -3.168492e+01 4.000000e+00
      vertex -2.948563e+01 -3.168492e+01 -3.918870e-15
    endloop
  endfacet
  facet normal -6.123234e-17 -1.000000e+00 0.000000e+00
    outer loop
      vertex -2.948563e+01 -3.168492e+01 -3.918870e-15
      vertex -1.348563e+01 -3.168492e+01 4.000000e+00
      vertex -2.948563e+01 -3.168492e+01 4.000000e+00
    endloop
  endfacet
  facet normal 1.000000e+00 -6.123234e-17 2.449294e-16
    outer loop
      vertex -1.348563e+01 -3.168492e+01 4.000000e+00
      vertex -1.348563e+01 -3.168492e+01 0.000000e+00
      vertex -1.348563e+01 3.315085e+00 0.000000e+00
    endloop
  endfacet
  facet normal 1.000000e+00 -6.123234e-17 2.449294e-16
    outer loop
      vertex -1.348563e+01 3.315085e+00 4.000000e+00
      vertex -1.348563e+01 -3.168492e+01 4.000000e+00
      vertex -1.348563e+01 3.315085e+00 0.000000e+00
    endloop
  endfacet
  facet normal 2.449294e-16 -1.499760e-32 -1.000000e+00
    outer loop
      vertex -1.723804e+01 -7.809915e+00 -9.190741e-16
      vertex -1.348563e+01 3.315085e+00 0.000000e+00
      vertex -1.673563e+01 -9.684915e+00 -7.960204e-16
    endloop
  endfacet
  facet normal 2.449294e-16 -1.499760e-32 -1.000000e+00
    outer loop
      vertex -2.423563e+01 -9.684915e+00 -2.632991e-15
      vertex -2.948563e+01 -3.168492e+01 -3.918870e-15
      vertex -2.948563e+01 3.315085e+00 -3.918870e-15
    endloop
  endfacet
  facet normal 2.449294e-16 -1.499760e-32 -1.000000e+00
    outer loop
      vertex -1.348563e+01 -3.168492e+01 0.000000e+00
      vertex -2.948563e+01 -3.168492e+01 -3.918870e-15
      vertex -2.048563e+01 -1.343492e+01 -1.714506e-15
    endloop
  endfacet
  facet normal 2.449294e-16 -1.499760e-32 -1.000000e+00
    outer loop
      vertex -1.348563e+01 -3.168492e+01 0.000000e+00
      vertex -2.048563e+01 -1.343492e+01 -1.714506e-15
      vertex -1.861063e+01 -1.293251e+01 -1.255263e-15
    endloop
  endfacet
  facet normal 2.449294e-16 -1.499760e-32 -1.000000e+00
    outer loop
      vertex -1.348563e+01 -3.168492e+01 0.000000e+00
      vertex -1.861063e+01 -1.293251e+01 -1.255263e-15
      vertex -1.723804e+01 -1.155992e+01 -9.190741e-16
    endloop
  endfacet
  facet normal 2.449294e-16 -1.499760e-32 -1.000000e+00
    outer loop
      vertex -1.348563e+01 -3.168492e+01 0.000000e+00
      vertex -1.723804e+01 -1.155992e+01 -9.190741e-16
      vertex -1.673563e+01 -9.684915e+00 -7.960204e-16
    endloop
  endfacet
  facet normal 2.449294e-16 -1.499760e-32 -1.000000e+00
    outer loop
      vertex -1.348563e+01 -3.168492e+01 0.000000e+00
      vertex -1.673563e+01 -9.684915e+00 -7.960204e-16
      vertex -1.348563e+01 3.315085e+00 0.000000e+00
    endloop
  endfacet
  facet normal 2.449294e-16 -1.499760e-32 -1.000000e+00
    outer loop
      vertex -1.861063e+01 -6.437321e+00 -1.255263e-15
      vertex -1.348563e+01 3.315085e+00 0.000000e+00
      vertex -1.723804e+01 -7.809915e+00 -9.190741e-16
    endloop
  endfacet
  facet normal 2.449294e-16 -1.499760e-32 -1.000000e+00
    outer loop
      vertex -1.348563e+01 3.315085e+00 0.000000e+00
      vertex -1.861063e+01 -6.437321e+00 -1.255263e-15
      vertex -2.948563e+01 3.315085e+00 -3.918870e-15
    endloop
  endfacet
  facet normal 2.449294e-16 -1.499760e-32 -1.000000e+00
    outer loop
      vertex -1.861063e+01 -6.437321e+00 -1.255263e-15
      vertex -2.048563e+01 -5.934915e+00 -1.714506e-15
      vertex -2.948563e+01 3.315085e+00 -3.918870e-15
    endloop
  endfacet
  facet normal 2.449294e-16 -1.499760e-32 -1.000000e+00
    outer loop
      vertex -2.236063e+01 -1.293251e+01 -2.173748e-15
      vertex -2.948563e+01 -3.168492e+01 -3.918870e-15
      vertex -2.373323e+01 -1.155992e+01 -2.509937e-15
    endloop
  endfacet
  facet normal 2.449294e-16 -1.499760e-32 -1.000000e+00
    outer loop
      vertex -2.048563e+01 -5.934915e+00 -1.714506e-15
      vertex -2.236063e+01 -6.437321e+00 -2.173748e-15
      vertex -2.948563e+01 3.315085e+00 -3.918870e-15
    endloop
  endfacet
  facet normal 2.449294e-16 -1.499760e-32 -1.000000e+00
    outer loop
      vertex -2.236063e+01 -6.437321e+00 -2.173748e-15
      vertex -2.373323e+01 -7.809915e+00 -2.509937e-15
      vertex -2.948563e+01 3.315085e+00 -3.918870e-15
    endloop
  endfacet
  facet normal 2.449294e-16 -1.499760e-32 -1.000000e+00
    outer loop
      vertex -2.373323e+01 -7.809915e+00 -2.509937e-15
      vertex -2.423563e+01 -9.684915e+00 -2.632991e-15
      vertex -2.948563e+01 3.315085e+00 -3.918870e-15
    endloop
  endfacet
  facet normal 2.449294e-16 -1.499760e-32 -1.000000e+00
    outer loop
      vertex -2.048563e+01 -1.343492e+01 -1.714506e-15
      vertex -2.948563e+01 -3.168492e+01 -3.918870e-15
      vertex -2.236063e+01 -1.293251e+01 -2.173748e-15
    endloop
  endfacet
  facet normal 2.449294e-16 -1.499760e-32 -1.000000e+00
    outer loop
      vertex -2.373323e+01 -1.155992e+01 -2.509937e-15
      vertex -2.948563e+01 -3.168492e+01 -3.918870e-15
      vertex -2.423563e+01 -9.684915e+00 -2.632991e-15
    endloop
  endfacet
  facet normal -1.000000e+00 6.123234e-17 -2.449294e-16
    outer loop
      vertex -2.948563e+01 -3.168492e+01 -3.918870e-15
      vertex -2.948563e+01 -3.168492e+01 4.000000e+00
      vertex -2.948563e+01 3.315085e+00 -3.918870e-15
    endloop
  endfacet
  facet normal -1.000000e+00 6.123234e-17 -2.449294e-16
    outer loop
      vertex -2.948563e+01 3.315085e+00 -3.918870e-15
      vertex -2.948563e+01 -3.168492e+01 4.000000e+00
      vertex -2.948563e+01 3.315085e+00 4.000000e+00
    endloop
  endfacet
  facet normal -2.449294e-16 1.499760e-32 1.000000e+00
    outer loop
      vertex -1.475527e+01 -1.015975e+01 4.000000e+00
      vertex -1.348563e+01 -3.168492e+01 4.000000e+00
      vertex -1.348563e+01 3.315085e+00 4.000000e+00
    endloop
  endfacet
  facet normal -2.449294e-16 1.499760e-32 1.000000e+00
    outer loop
      vertex -2.948563e+01 -3.168492e+01 4.000000e+00
      vertex -1.348563e+01 -3.168492e+01 4.000000e+00
      vertex -1.953921e+01 -1.535649e+01 4.000000e+00
    endloop
  endfacet
  facet normal -2.449294e-16 1.499760e-32 1.000000e+00
    outer loop
      vertex -2.948563e+01 -3.168492e+01 4.000000e+00
      vertex -1.953921e+01 -1.535649e+01 4.000000e+00
      vertex -2.143205e+01 -1.535649e+01 4.000000e+00
    endloop
  endfacet
  facet normal -2.449294e-16 1.499760e-32 1.000000e+00
    outer loop
      vertex -1.475527e+01 -1.015975e+01 4.000000e+00
      vertex -1.521993e+01 -1.199467e+01 4.000000e+00
      vertex -1.348563e+01 -3.168492e+01 4.000000e+00
    endloop
  endfacet
  facet normal -2.449294e-16 1.499760e-32 1.000000e+00
    outer loop
      vertex -2.471604e+01 -1.357928e+01 4.000000e+00
      vertex -2.948563e+01 -3.168492e+01 4.000000e+00
      vertex -2.322233e+01 -1.474189e+01 4.000000e+00
    endloop
  endfacet
  facet normal -2.449294e-16 1.499760e-32 1.000000e+00
    outer loop
      vertex -2.575133e+01 -1.199467e+01 4.000000e+00
      vertex -2.948563e+01 -3.168492e+01 4.000000e+00
      vertex -2.471604e+01 -1.357928e+01 4.000000e+00
    endloop
  endfacet
  facet normal -2.449294e-16 1.499760e-32 1.000000e+00
    outer loop
      vertex -2.605968e+01 -8.273373e+00 4.000000e+00
      vertex -2.529934e+01 -6.539963e+00 4.000000e+00
      vertex -2.948563e+01 3.315085e+00 4.000000e+00
    endloop
  endfacet
  facet normal -2.449294e-16 1.499760e-32 1.000000e+00
    outer loop
      vertex -2.621599e+01 -1.015975e+01 4.000000e+00
      vertex -2.948563e+01 -3.168492e+01 4.000000e+00
      vertex -2.575133e+01 -1.199467e+01 4.000000e+00
    endloop
  endfacet
  facet normal -2.449294e-16 1.499760e-32 1.000000e+00
    outer loop
      vertex -1.861861e+01 -4.246466e+00 4.000000e+00
      vertex -1.695391e+01 -5.147358e+00 4.000000e+00
      vertex -1.348563e+01 3.315085e+00 4.000000e+00
    endloop
  endfacet
  facet normal -2.449294e-16 1.499760e-32 1.000000e+00
    outer loop
      vertex -2.948563e+01 3.315085e+00 4.000000e+00
      vertex -2.948563e+01 -3.168492e+01 4.000000e+00
      vertex -2.621599e+01 -1.015975e+01 4.000000e+00
    endloop
  endfacet
  facet normal -2.449294e-16 1.499760e-32 1.000000e+00
    outer loop
      vertex -2.401735e+01 -5.147358e+00 4.000000e+00
      vertex -2.235265e+01 -4.246466e+00 4.000000e+00
      vertex -1.348563e+01 3.315085e+00 4.000000e+00
    endloop
  endfacet
  facet normal -2.449294e-16 1.499760e-32 1.000000e+00
    outer loop
      vertex -2.948563e+01 3.315085e+00 4.000000e+00
      vertex -2.401735e+01 -5.147358e+00 4.000000e+00
      vertex -1.348563e+01 3.315085e+00 4.000000e+00
    endloop
  endfacet
  facet normal -2.449294e-16 1.499760e-32 1.000000e+00
    outer loop
      vertex -2.948563e+01 3.315085e+00 4.000000e+00
      vertex -2.529934e+01 -6.539963e+00 4.000000e+00
      vertex -2.401735e+01 -5.147358e+00 4.000000e+00
    endloop
  endfacet
  facet normal -2.449294e-16 1.499760e-32 1.000000e+00
    outer loop
      vertex -2.235265e+01 -4.246466e+00 4.000000e+00
      vertex -2.048563e+01 -3.934915e+00 4.000000e+00
      vertex -1.348563e+01 3.315085e+00 4.000000e+00
    endloop
  endfacet
  facet normal -2.449294e-16 1.499760e-32 1.000000e+00
    outer loop
      vertex -2.048563e+01 -3.934915e+00 4.000000e+00
      vertex -1.861861e+01 -4.246466e+00 4.000000e+00
      vertex -1.348563e+01 3.315085e+00 4.000000e+00
    endloop
  endfacet
  facet normal -2.449294e-16 1.499760e-32 1.000000e+00
    outer loop
      vertex -1.567192e+01 -6.539963e+00 4.000000e+00
      vertex -1.491158e+01 -8.273373e+00 4.000000e+00
      vertex -1.348563e+01 3.315085e+00 4.000000e+00
    endloop
  endfacet
  facet normal -2.449294e-16 1.499760e-32 1.000000e+00
    outer loop
      vertex -1.491158e+01 -8.273373e+00 4.000000e+00
      vertex -1.475527e+01 -1.015975e+01 4.000000e+00
      vertex -1.348563e+01 3.315085e+00 4.000000e+00
    endloop
  endfacet
  facet normal -2.449294e-16 1.499760e-32 1.000000e+00
    outer loop
      vertex -1.625522e+01 -1.357928e+01 4.000000e+00
      vertex -1.348563e+01 -3.168492e+01 4.000000e+00
      vertex -1.521993e+01 -1.199467e+01 4.000000e+00
    endloop
  endfacet
  facet normal -2.449294e-16 1.499760e-32 1.000000e+00
    outer loop
      vertex -1.774893e+01 -1.474189e+01 4.000000e+00
      vertex -1.348563e+01 -3.168492e+01 4.000000e+00
      vertex -1.625522e+01 -1.357928e+01 4.000000e+00
    endloop
  endfacet
  facet normal -2.449294e-16 1.499760e-32 1.000000e+00
    outer loop
      vertex -1.953921e+01 -1.535649e+01 4.000000e+00
      vertex -1.348563e+01 -3.168492e+01 4.000000e+00
      vertex -1.774893e+01 -1.474189e+01 4.000000e+00
    endloop
  endfacet
  facet normal -2.449294e-16 1.499760e-32 1.000000e+00
    outer loop
      vertex -1.695391e+01 -5.147358e+00 4.000000e+00
      vertex -1.567192e+01 -6.539963e+00 4.000000e+00
      vertex -1.348563e+01 3.315085e+00 4.000000e+00
    endloop
  endfacet
  facet normal -2.449294e-16 1.499760e-32 1.000000e+00
    outer loop
      vertex -2.143205e+01 -1.535649e+01 4.000000e+00
      vertex -2.322233e+01 -1.474189e+01 4.000000e+00
      vertex -2.948563e+01 -3.168492e+01 4.000000e+00
    endloop
  endfacet
  facet normal -2.449294e-16 1.499760e-32 1.000000e+00
    outer loop
      vertex -2.621599e+01 -1.015975e+01 4.000000e+00
      vertex -2.605968e+01 -8.273373e+00 4.000000e+00
      vertex -2.948563e+01 3.315085e+00 4.000000e+00
    endloop
  endfacet
  facet normal 6.123234e-17 1.000000e+00 0.000000e+00
    outer loop
      vertex -1.348563e+01 3.315085e+00 4.000000e+00
      vertex -1.348563e+01 3.315085e+00 0.000000e+00
      vertex -2.948563e+01 3.315085e+00 -3.918870e-15
    endloop
  endfacet
  facet normal 6.123234e-17 1.000000e+00 0.000000e+00
    outer loop
      vertex -2.948563e+01 3.315085e+00 4.000000e+00
      vertex -1.348563e+01 3.315085e+00 4.000000e+00
      vertex -2.948563e+01 3.315085e+00 -3.918870e-15
    endloop
  endfacet
  facet normal -2.588190e-01 9.659258e-01 -6.339236e-17
    outer loop
      vertex -2.048563e+01 -1.343492e+01 1.400000e+01
      vertex -1.861063e+01 -1.293251e+01 1.400000e+01
      vertex -1.861063e+01 -1.293251e+01 -1.255263e-15
    endloop
  endfacet
  facet normal -2.588190e-01 9.659258e-01 -6.339236e-17
    outer loop
      vertex -2.048563e+01 -1.343492e+01 -1.714506e-15
      vertex -2.048563e+01 -1.343492e+01 1.400000e+01
      vertex -1.861063e+01 -1.293251e+01 -1.255263e-15
    endloop
  endfacet
  facet normal 2.588190e-01 9.659258e-01 6.339236e-17
    outer loop
      vertex -2.236063e+01 -1.293251e+01 -2.173748e-15
      vertex -2.236063e+01 -1.293251e+01 1.400000e+01
      vertex -2.048563e+01 -1.343492e+01 1.400000e+01
    endloop
  endfacet
  facet normal 2.588190e-01 9.659258e-01 6.339236e-17
    outer loop
      vertex -2.048563e+01 -1.343492e+01 -1.714506e-15
      vertex -2.236063e+01 -1.293251e+01 -2.173748e-15
      vertex -2.048563e+01 -1.343492e+01 1.400000e+01
    endloop
  endfacet
  facet normal 7.071068e-01 7.071068e-01 1.731912e-16
    outer loop
      vertex -2.373323e+01 -1.155992e+01 -2.509937e-15
      vertex -2.373323e+01 -1.155992e+01 1.400000e+01
      vertex -2.236063e+01 -1.293251e+01 1.400000e+01
    endloop
  endfacet
  facet normal 7.071068e-01 7.071068e-01 1.731912e-16
    outer loop
      vertex -2.236063e+01 -1.293251e+01 -2.173748e-15
      vertex -2.373323e+01 -1.155992e+01 -2.509937e-15
      vertex -2.236063e+01 -1.293251e+01 1.400000e+01
    endloop
  endfacet
  facet normal 9.659258e-01 2.588190e-01 2.365836e-16
    outer loop
      vertex -2.423563e+01 -9.684915e+00 -2.632991e-15
      vertex -2.423563e+01 -9.684915e+00 1.400000e+01
      vertex -2.373323e+01 -1.155992e+01 1.400000e+01
    endloop
  endfacet
  facet normal 9.659258e-01 2.588190e-01 2.365836e-16
    outer loop
      vertex -2.373323e+01 -1.155992e+01 -2.509937e-15
      vertex -2.423563e+01 -9.684915e+00 -2.632991e-15
      vertex -2.373323e+01 -1.155992e+01 1.400000e+01
    endloop
  endfacet
  facet normal 9.659258e-01 -2.588190e-01 2.365836e-16
    outer loop
      vertex -2.373323e+01 -7.809915e+00 -2.509937e-15
      vertex -2.373323e+01 -7.809915e+00 1.400000e+01
      vertex -2.423563e+01 -9.684915e+00 1.400000e+01
    endloop
  endfacet
  facet normal 9.659258e-01 -2.588190e-01 2.365836e-16
    outer loop
      vertex -2.423563e+01 -9.684915e+00 -2.632991e-15
      vertex -2.373323e+01 -7.809915e+00 -2.509937e-15
      vertex -2.423563e+01 -9.684915e+00 1.400000e+01
    endloop
  endfacet
  facet normal 7.071068e-01 -7.071068e-01 1.731912e-16
    outer loop
      vertex -2.236063e+01 -6.437321e+00 -2.173748e-15
      vertex -2.236063e+01 -6.437321e+00 1.400000e+01
      vertex -2.373323e+01 -7.809915e+00 1.400000e+01
    endloop
  endfacet
  facet normal 7.071068e-01 -7.071068e-01 1.731912e-16
    outer loop
      vertex -2.373323e+01 -7.809915e+00 -2.509937e-15
      vertex -2.236063e+01 -6.437321e+00 -2.173748e-15
      vertex -2.373323e+01 -7.809915e+00 1.400000e+01
    endloop
  endfacet
  facet normal 2.588190e-01 -9.659258e-01 6.339236e-17
    outer loop
      vertex -2.048563e+01 -5.934915e+00 1.400000e+01
      vertex -2.236063e+01 -6.437321e+00 1.400000e+01
      vertex -2.048563e+01 -5.934915e+00 -1.714506e-15
    endloop
  endfacet
  facet normal 2.588190e-01 -9.659258e-01 6.339236e-17
    outer loop
      vertex -2.048563e+01 -5.934915e+00 -1.714506e-15
      vertex -2.236063e+01 -6.437321e+00 1.400000e+01
      vertex -2.236063e+01 -6.437321e+00 -2.173748e-15
    endloop
  endfacet
  facet normal -2.588190e-01 -9.659258e-01 -6.339236e-17
    outer loop
      vertex -2.048563e+01 -5.934915e+00 1.400000e+01
      vertex -2.048563e+01 -5.934915e+00 -1.714506e-15
      vertex -1.861063e+01 -6.437321e+00 1.400000e+01
    endloop
  endfacet
  facet normal -2.588190e-01 -9.659258e-01 -6.339236e-17
    outer loop
      vertex -1.861063e+01 -6.437321e+00 1.400000e+01
      vertex -2.048563e+01 -5.934915e+00 -1.714506e-15
      vertex -1.861063e+01 -6.437321e+00 -1.255263e-15
    endloop
  endfacet
  facet normal -7.071068e-01 -7.071068e-01 -1.731912e-16
    outer loop
      vertex -1.861063e+01 -6.437321e+00 1.400000e+01
      vertex -1.861063e+01 -6.437321e+00 -1.255263e-15
      vertex -1.723804e+01 -7.809915e+00 1.400000e+01
    endloop
  endfacet
  facet normal -7.071068e-01 -7.071068e-01 -1.731912e-16
    outer loop
      vertex -1.723804e+01 -7.809915e+00 1.400000e+01
      vertex -1.861063e+01 -6.437321e+00 -1.255263e-15
      vertex -1.723804e+01 -7.809915e+00 -9.190741e-16
    endloop
  endfacet
  facet normal -9.659258e-01 -2.588190e-01 -2.365836e-16
    outer loop
      vertex -1.723804e+01 -7.809915e+00 1.400000e+01
      vertex -1.723804e+01 -7.809915e+00 -9.190741e-16
      vertex -1.673563e+01 -9.684915e+00 1.400000e+01
    endloop
  endfacet
  facet normal -9.659258e-01 -2.588190e-01 -2.365836e-16
    outer loop
      vertex -1.673563e+01 -9.684915e+00 1.400000e+01
      vertex -1.723804e+01 -7.809915e+00 -9.190741e-16
      vertex -1.673563e+01 -9.684915e+00 -7.960204e-16
    endloop
  endfacet
  facet normal -9.659258e-01 2.588190e-01 -2.365836e-16
    outer loop
      vertex -1.673563e+01 -9.684915e+00 1.400000e+01
      vertex -1.673563e+01 -9.684915e+00 -7.960204e-16
      vertex -1.723804e+01 -1.155992e+01 1.400000e+01
    endloop
  endfacet
  facet normal -9.659258e-01 2.588190e-01 -2.365836e-16
    outer loop
      vertex -1.723804e+01 -1.155992e+01 1.400000e+01
      vertex -1.673563e+01 -9.684915e+00 -7.960204e-16
      vertex -1.723804e+01 -1.155992e+01 -9.190741e-16
    endloop
  endfacet
  facet normal -7.071068e-01 7.071068e-01 -1.731912e-16
    outer loop
      vertex -1.723804e+01 -1.155992e+01 1.400000e+01
      vertex -1.723804e+01 -1.155992e+01 -9.190741e-16
      vertex -1.861063e+01 -1.293251e+01 1.400000e+01
    endloop
  endfacet
  facet normal -7.071068e-01 7.071068e-01 -1.731912e-16
    outer loop
      vertex -1.861063e+01 -1.293251e+01 1.400000e+01
      vertex -1.723804e+01 -1.155992e+01 -9.190741e-16
      vertex -1.861063e+01 -1.293251e+01 -1.255263e-15
    endloop
  endfacet
  facet normal -6.123234e-17 -1.000000e+00 0.000000e+00
    outer loop
      vertex -1.953921e+01 -1.535649e+01 4.000000e+00
      vertex -1.953921e+01 -1.535649e+01 1.400000e+01
      vertex -2.143205e+01 -1.535649e+01 4.000000e+00
    endloop
  endfacet
  facet normal -6.123234e-17 -1.000000e+00 0.000000e+00
    outer loop
      vertex -2.143205e+01 -1.535649e+01 4.000000e+00
      vertex -1.953921e+01 -1.535649e+01 1.400000e+01
      vertex -2.143205e+01 -1.535649e+01 1.400000e+01
    endloop
  endfacet
  facet normal 3.246991e-01 -9.458174e-01 7.952835e-17
    outer loop
      vertex -1.953921e+01 -1.535649e+01 4.000000e+00
      vertex -1.774893e+01 -1.474189e+01 4.000000e+00
      vertex -1.953921e+01 -1.535649e+01 1.400000e+01
    endloop
  endfacet
  facet normal 3.246991e-01 -9.458174e-01 7.952835e-17
    outer loop
      vertex -1.953921e+01 -1.535649e+01 1.400000e+01
      vertex -1.774893e+01 -1.474189e+01 4.000000e+00
      vertex -1.774893e+01 -1.474189e+01 1.400000e+01
    endloop
  endfacet
  facet normal 6.142131e-01 -7.891402e-01 1.504388e-16
    outer loop
      vertex -1.774893e+01 -1.474189e+01 4.000000e+00
      vertex -1.625522e+01 -1.357928e+01 4.000000e+00
      vertex -1.774893e+01 -1.474189e+01 1.400000e+01
    endloop
  endfacet
  facet normal 6.142131e-01 -7.891402e-01 1.504388e-16
    outer loop
      vertex -1.774893e+01 -1.474189e+01 1.400000e+01
      vertex -1.625522e+01 -1.357928e+01 4.000000e+00
      vertex -1.625522e+01 -1.357928e+01 1.400000e+01
    endloop
  endfacet
  facet normal 8.371660e-01 -5.469490e-01 2.050465e-16
    outer loop
      vertex -1.625522e+01 -1.357928e+01 1.400000e+01
      vertex -1.625522e+01 -1.357928e+01 4.000000e+00
      vertex -1.521993e+01 -1.199467e+01 4.000000e+00
    endloop
  endfacet
  facet normal 8.371660e-01 -5.469490e-01 2.050465e-16
    outer loop
      vertex -1.521993e+01 -1.199467e+01 1.400000e+01
      vertex -1.625522e+01 -1.357928e+01 1.400000e+01
      vertex -1.521993e+01 -1.199467e+01 4.000000e+00
    endloop
  endfacet
  facet normal 9.694003e-01 -2.454851e-01 2.374346e-16
    outer loop
      vertex -1.521993e+01 -1.199467e+01 1.400000e+01
      vertex -1.521993e+01 -1.199467e+01 4.000000e+00
      vertex -1.475527e+01 -1.015975e+01 4.000000e+00
    endloop
  endfacet
  facet normal 9.694003e-01 -2.454851e-01 2.374346e-16
    outer loop
      vertex -1.475527e+01 -1.015975e+01 1.400000e+01
      vertex -1.521993e+01 -1.199467e+01 1.400000e+01
      vertex -1.475527e+01 -1.015975e+01 4.000000e+00
    endloop
  endfacet
  facet normal 9.965845e-01 8.257896e-02 2.440928e-16
    outer loop
      vertex -1.475527e+01 -1.015975e+01 1.400000e+01
      vertex -1.475527e+01 -1.015975e+01 4.000000e+00
      vertex -1.491158e+01 -8.273373e+00 4.000000e+00
    endloop
  endfacet
  facet normal 9.965845e-01 8.257896e-02 2.440928e-16
    outer loop
      vertex -1.491158e+01 -8.273373e+00 1.400000e+01
      vertex -1.475527e+01 -1.015975e+01 1.400000e+01
      vertex -1.491158e+01 -8.273373e+00 4.000000e+00
    endloop
  endfacet
  facet normal 9.157731e-01 4.016961e-01 2.242997e-16
    outer loop
      vertex -1.491158e+01 -8.273373e+00 1.400000e+01
      vertex -1.491158e+01 -8.273373e+00 4.000000e+00
      vertex -1.567192e+01 -6.539963e+00 4.000000e+00
    endloop
  endfacet
  facet normal 9.157731e-01 4.016961e-01 2.242997e-16
    outer loop
      vertex -1.567192e+01 -6.539963e+00 1.400000e+01
      vertex -1.491158e+01 -8.273373e+00 1.400000e+01
      vertex -1.567192e+01 -6.539963e+00 4.000000e+00
    endloop
  endfacet
  facet normal 7.357237e-01 6.772818e-01 1.802003e-16
    outer loop
      vertex -1.567192e+01 -6.539963e+00 1.400000e+01
      vertex -1.567192e+01 -6.539963e+00 4.000000e+00
      vertex -1.695391e+01 -5.147358e+00 4.000000e+00
    endloop
  endfacet
  facet normal 7.357237e-01 6.772818e-01 1.802003e-16
    outer loop
      vertex -1.695391e+01 -5.147358e+00 1.400000e+01
      vertex -1.567192e+01 -6.539963e+00 1.400000e+01
      vertex -1.695391e+01 -5.147358e+00 4.000000e+00
    endloop
  endfacet
  facet normal 4.759470e-01 8.794740e-01 1.165734e-16
    outer loop
      vertex -1.695391e+01 -5.147358e+00 1.400000e+01
      vertex -1.695391e+01 -5.147358e+00 4.000000e+00
      vertex -1.861861e+01 -4.246466e+00 4.000000e+00
    endloop
  endfacet
  facet normal 4.759470e-01 8.794740e-01 1.165734e-16
    outer loop
      vertex -1.861861e+01 -4.246466e+00 1.400000e+01
      vertex -1.695391e+01 -5.147358e+00 1.400000e+01
      vertex -1.861861e+01 -4.246466e+00 4.000000e+00
    endloop
  endfacet
  facet normal 1.645950e-01 9.863613e-01 4.031416e-17
    outer loop
      vertex -1.861861e+01 -4.246466e+00 1.400000e+01
      vertex -1.861861e+01 -4.246466e+00 4.000000e+00
      vertex -2.048563e+01 -3.934915e+00 4.000000e+00
    endloop
  endfacet
  facet normal 1.645950e-01 9.863613e-01 4.031416e-17
    outer loop
      vertex -2.048563e+01 -3.934915e+00 1.400000e+01
      vertex -1.861861e+01 -4.246466e+00 1.400000e+01
      vertex -2.048563e+01 -3.934915e+00 4.000000e+00
    endloop
  endfacet
  facet normal -1.645950e-01 9.863613e-01 -4.031416e-17
    outer loop
      vertex -2.048563e+01 -3.934915e+00 4.000000e+00
      vertex -2.235265e+01 -4.246466e+00 4.000000e+00
      vertex -2.235265e+01 -4.246466e+00 1.400000e+01
    endloop
  endfacet
  facet normal -1.645950e-01 9.863613e-01 -4.031416e-17
    outer loop
      vertex -2.048563e+01 -3.934915e+00 1.400000e+01
      vertex -2.048563e+01 -3.934915e+00 4.000000e+00
      vertex -2.235265e+01 -4.246466e+00 1.400000e+01
    endloop
  endfacet
  facet normal -4.759470e-01 8.794740e-01 -1.165734e-16
    outer loop
      vertex -2.235265e+01 -4.246466e+00 4.000000e+00
      vertex -2.401735e+01 -5.147358e+00 4.000000e+00
      vertex -2.401735e+01 -5.147358e+00 1.400000e+01
    endloop
  endfacet
  facet normal -4.759470e-01 8.794740e-01 -1.165734e-16
    outer loop
      vertex -2.235265e+01 -4.246466e+00 1.400000e+01
      vertex -2.235265e+01 -4.246466e+00 4.000000e+00
      vertex -2.401735e+01 -5.147358e+00 1.400000e+01
    endloop
  endfacet
  facet normal -7.357237e-01 6.772818e-01 -1.802003e-16
    outer loop
      vertex -2.529934e+01 -6.539963e+00 4.000000e+00
      vertex -2.529934e+01 -6.539963e+00 1.400000e+01
      vertex -2.401735e+01 -5.147358e+00 4.000000e+00
    endloop
  endfacet
  facet normal -7.357237e-01 6.772818e-01 -1.802003e-16
    outer loop
      vertex -2.401735e+01 -5.147358e+00 4.000000e+00
      vertex -2.529934e+01 -6.539963e+00 1.400000e+01
      vertex -2.401735e+01 -5.147358e+00 1.400000e+01
    endloop
  endfacet
  facet normal -9.157731e-01 4.016961e-01 -2.242997e-16
    outer loop
      vertex -2.605968e+01 -8.273373e+00 4.000000e+00
      vertex -2.605968e+01 -8.273373e+00 1.400000e+01
      vertex -2.529934e+01 -6.539963e+00 4.000000e+00
    endloop
  endfacet
  facet normal -9.157731e-01 4.016961e-01 -2.242997e-16
    outer loop
      vertex -2.529934e+01 -6.539963e+00 4.000000e+00
      vertex -2.605968e+01 -8.273373e+00 1.400000e+01
      vertex -2.529934e+01 -6.539963e+00 1.400000e+01
    endloop
  endfacet
  facet normal -9.965845e-01 8.257896e-02 -2.440928e-16
    outer loop
      vertex -2.621599e+01 -1.015975e+01 4.000000e+00
      vertex -2.621599e+01 -1.015975e+01 1.400000e+01
      vertex -2.605968e+01 -8.273373e+00 4.000000e+00
    endloop
  endfacet
  facet normal -9.965845e-01 8.257896e-02 -2.440928e-16
    outer loop
      vertex -2.605968e+01 -8.273373e+00 4.000000e+00
      vertex -2.621599e+01 -1.015975e+01 1.400000e+01
      vertex -2.605968e+01 -8.273373e+00 1.400000e+01
    endloop
  endfacet
  facet normal -9.694003e-01 -2.454851e-01 -2.374346e-16
    outer loop
      vertex -2.575133e+01 -1.199467e+01 4.000000e+00
      vertex -2.575133e+01 -1.199467e+01 1.400000e+01
      vertex -2.621599e+01 -1.015975e+01 4.000000e+00
    endloop
  endfacet
  facet normal -9.694003e-01 -2.454851e-01 -2.374346e-16
    outer loop
      vertex -2.621599e+01 -1.015975e+01 4.000000e+00
      vertex -2.575133e+01 -1.199467e+01 1.400000e+01
      vertex -2.621599e+01 -1.015975e+01 1.400000e+01
    endloop
  endfacet
  facet normal -8.371660e-01 -5.469490e-01 -2.050465e-16
    outer loop
      vertex -2.471604e+01 -1.357928e+01 4.000000e+00
      vertex -2.471604e+01 -1.357928e+01 1.400000e+01
      vertex -2.575133e+01 -1.199467e+01 4.000000e+00
    endloop
  endfacet
  facet normal -8.371660e-01 -5.469490e-01 -2.050465e-16
    outer loop
      vertex -2.575133e+01 -1.199467e+01 4.000000e+00
      vertex -2.471604e+01 -1.357928e+01 1.400000e+01
      vertex -2.575133e+01 -1.199467e+01 1.400000e+01
    endloop
  endfacet
  facet normal -6.142131e-01 -7.891402e-01 -1.504388e-16
    outer loop
      vertex -2.322233e+01 -1.474189e+01 4.000000e+00
      vertex -2.322233e+01 -1.474189e+01 1.400000e+01
      vertex -2.471604e+01 -1.357928e+01 4.000000e+00
    endloop
  endfacet
  facet normal -6.142131e-01 -7.891402e-01 -1.504388e-16
    outer loop
      vertex -2.471604e+01 -1.357928e+01 4.000000e+00
      vertex -2.322233e+01 -1.474189e+01 1.400000e+01
      vertex -2.471604e+01 -1.357928e+01 1.400000e+01
    endloop
  endfacet
  facet normal -3.246991e-01 -9.458174e-01 -7.952835e-17
    outer loop
      vertex -2.143205e+01 -1.535649e+01 4.000000e+00
      vertex -2.143205e+01 -1.535649e+01 1.400000e+01
      vertex -2.322233e+01 -1.474189e+01 4.000000e+00
    endloop
  endfacet
  facet normal -3.246991e-01 -9.458174e-01 -7.952835e-17
    outer loop
      vertex -2.322233e+01 -1.474189e+01 4.000000e+00
      vertex -2.143205e+01 -1.535649e+01 1.400000e+01
      vertex -2.322233e+01 -1.474189e+01 1.400000e+01
    endloop
  endfacet
  facet normal -2.449294e-16 1.499760e-32 1.000000e+00
    outer loop
      vertex -2.143205e+01 -1.535649e+01 1.400000e+01
      vertex -1.953921e+01 -1.535649e+01 1.400000e+01
      vertex -1.774893e+01 -1.474189e+01 1.400000e+01
    endloop
  endfacet
  facet normal -2.449294e-16 1.499760e-32 1.000000e+00
    outer loop
      vertex -1.521993e+01 -1.199467e+01 1.400000e+01
      vertex -2.143205e+01 -1.535649e+01 1.400000e+01
      vertex -1.625522e+01 -1.357928e+01 1.400000e+01
    endloop
  endfacet
  facet normal -2.449294e-16 1.499760e-32 1.000000e+00
    outer loop
      vertex -1.625522e+01 -1.357928e+01 1.400000e+01
      vertex -2.143205e+01 -1.535649e+01 1.400000e+01
      vertex -1.774893e+01 -1.474189e+01 1.400000e+01
    endloop
  endfacet
  facet normal -2.449294e-16 1.499760e-32 1.000000e+00
    outer loop
      vertex -1.475527e+01 -1.015975e+01 1.400000e+01
      vertex -2.143205e+01 -1.535649e+01 1.400000e+01
      vertex -1.521993e+01 -1.199467e+01 1.400000e+01
    endloop
  endfacet
  facet normal -2.449294e-16 1.499760e-32 1.000000e+00
    outer loop
      vertex -1.861063e+01 -1.293251e+01 1.400000e+01
      vertex -2.143205e+01 -1.535649e+01 1.400000e+01
      vertex -1.475527e+01 -1.015975e+01 1.400000e+01
    endloop
  endfacet
  facet normal -2.449294e-16 1.499760e-32 1.000000e+00
    outer loop
      vertex -2.048563e+01 -5.934915e+00 1.400000e+01
      vertex -1.861063e+01 -6.437321e+00 1.400000e+01
      vertex -1.861861e+01 -4.246466e+00 1.400000e+01
    endloop
  endfacet
  facet normal -2.449294e-16 1.499760e-32 1.000000e+00
    outer loop
      vertex -2.236063e+01 -1.293251e+01 1.400000e+01
      vertex -2.373323e+01 -1.155992e+01 1.400000e+01
      vertex -2.143205e+01 -1.535649e+01 1.400000e+01
    endloop
  endfacet
  facet normal -2.449294e-16 1.499760e-32 1.000000e+00
    outer loop
      vertex -2.373323e+01 -7.809915e+00 1.400000e+01
      vertex -2.236063e+01 -6.437321e+00 1.400000e+01
      vertex -2.401735e+01 -5.147358e+00 1.400000e+01
    endloop
  endfacet
  facet normal -2.449294e-16 1.499760e-32 1.000000e+00
    outer loop
      vertex -2.423563e+01 -9.684915e+00 1.400000e+01
      vertex -2.373323e+01 -7.809915e+00 1.400000e+01
      vertex -2.529934e+01 -6.539963e+00 1.400000e+01
    endloop
  endfacet
  facet normal -2.449294e-16 1.499760e-32 1.000000e+00
    outer loop
      vertex -2.621599e+01 -1.015975e+01 1.400000e+01
      vertex -2.143205e+01 -1.535649e+01 1.400000e+01
      vertex -2.605968e+01 -8.273373e+00 1.400000e+01
    endloop
  endfacet
  facet normal -2.449294e-16 1.499760e-32 1.000000e+00
    outer loop
      vertex -2.575133e+01 -1.199467e+01 1.400000e+01
      vertex -2.143205e+01 -1.535649e+01 1.400000e+01
      vertex -2.621599e+01 -1.015975e+01 1.400000e+01
    endloop
  endfacet
  facet normal -2.449294e-16 1.499760e-32 1.000000e+00
    outer loop
      vertex -2.471604e+01 -1.357928e+01 1.400000e+01
      vertex -2.143205e+01 -1.535649e+01 1.400000e+01
      vertex -2.575133e+01 -1.199467e+01 1.400000e+01
    endloop
  endfacet
  facet normal -2.449294e-16 1.499760e-32 1.000000e+00
    outer loop
      vertex -2.322233e+01 -1.474189e+01 1.400000e+01
      vertex -2.143205e+01 -1.535649e+01 1.400000e+01
      vertex -2.471604e+01 -1.357928e+01 1.400000e+01
    endloop
  endfacet
  facet normal -2.449294e-16 1.499760e-32 1.000000e+00
    outer loop
      vertex -1.723804e+01 -1.155992e+01 1.400000e+01
      vertex -1.861063e+01 -1.293251e+01 1.400000e+01
      vertex -1.475527e+01 -1.015975e+01 1.400000e+01
    endloop
  endfacet
  facet normal -2.449294e-16 1.499760e-32 1.000000e+00
    outer loop
      vertex -2.236063e+01 -6.437321e+00 1.400000e+01
      vertex -2.048563e+01 -3.934915e+00 1.400000e+01
      vertex -2.235265e+01 -4.246466e+00 1.400000e+01
    endloop
  endfacet
  facet normal -2.449294e-16 1.499760e-32 1.000000e+00
    outer loop
      vertex -2.236063e+01 -6.437321e+00 1.400000e+01
      vertex -2.048563e+01 -5.934915e+00 1.400000e+01
      vertex -2.048563e+01 -3.934915e+00 1.400000e+01
    endloop
  endfacet
  facet normal -2.449294e-16 1.499760e-32 1.000000e+00
    outer loop
      vertex -2.605968e+01 -8.273373e+00 1.400000e+01
      vertex -2.373323e+01 -1.155992e+01 1.400000e+01
      vertex -2.529934e+01 -6.539963e+00 1.400000e+01
    endloop
  endfacet
  facet normal -2.449294e-16 1.499760e-32 1.000000e+00
    outer loop
      vertex -2.605968e+01 -8.273373e+00 1.400000e+01
      vertex -2.143205e+01 -1.535649e+01 1.400000e+01
      vertex -2.373323e+01 -1.155992e+01 1.400000e+01
    endloop
  endfacet
  facet normal -2.449294e-16 1.499760e-32 1.000000e+00
    outer loop
      vertex -2.373323e+01 -1.155992e+01 1.400000e+01
      vertex -2.423563e+01 -9.684915e+00 1.400000e+01
      vertex -2.529934e+01 -6.539963e+00 1.400000e+01
    endloop
  endfacet
  facet normal -2.449294e-16 1.499760e-32 1.000000e+00
    outer loop
      vertex -2.529934e+01 -6.539963e+00 1.400000e+01
      vertex -2.373323e+01 -7.809915e+00 1.400000e+01
      vertex -2.401735e+01 -5.147358e+00 1.400000e+01
    endloop
  endfacet
  facet normal -2.449294e-16 1.499760e-32 1.000000e+00
    outer loop
      vertex -2.401735e+01 -5.147358e+00 1.400000e+01
      vertex -2.236063e+01 -6.437321e+00 1.400000e+01
      vertex -2.235265e+01 -4.246466e+00 1.400000e+01
    endloop
  endfacet
  facet normal -2.449294e-16 1.499760e-32 1.000000e+00
    outer loop
      vertex -2.048563e+01 -3.934915e+00 1.400000e+01
      vertex -2.048563e+01 -5.934915e+00 1.400000e+01
      vertex -1.861861e+01 -4.246466e+00 1.400000e+01
    endloop
  endfacet
  facet normal -2.449294e-16 1.499760e-32 1.000000e+00
    outer loop
      vertex -1.861861e+01 -4.246466e+00 1.400000e+01
      vertex -1.861063e+01 -6.437321e+00 1.400000e+01
      vertex -1.695391e+01 -5.147358e+00 1.400000e+01
    endloop
  endfacet
  facet normal -2.449294e-16 1.499760e-32 1.000000e+00
    outer loop
      vertex -1.695391e+01 -5.147358e+00 1.400000e+01
      vertex -1.723804e+01 -7.809915e+00 1.400000e+01
      vertex -1.567192e+01 -6.539963e+00 1.400000e+01
    endloop
  endfacet
  facet normal -2.449294e-16 1.499760e-32 1.000000e+00
    outer loop
      vertex -1.567192e+01 -6.539963e+00 1.400000e+01
      vertex -1.673563e+01 -9.684915e+00 1.400000e+01
      vertex -1.491158e+01 -8.273373e+00 1.400000e+01
    endloop
  endfacet
  facet normal -2.449294e-16 1.499760e-32 1.000000e+00
    outer loop
      vertex -1.861063e+01 -6.437321e+00 1.400000e+01
      vertex -1.723804e+01 -7.809915e+00 1.400000e+01
      vertex -1.695391e+01 -5.147358e+00 1.400000e+01
    endloop
  endfacet
  facet normal -2.449294e-16 1.499760e-32 1.000000e+00
    outer loop
      vertex -1.491158e+01 -8.273373e+00 1.400000e+01
      vertex -1.723804e+01 -1.155992e+01 1.400000e+01
      vertex -1.475527e+01 -1.015975e+01 1.400000e+01
    endloop
  endfacet
  facet normal -2.449294e-16 1.499760e-32 1.000000e+00
    outer loop
      vertex -1.861063e+01 -1.293251e+01 1.400000e+01
      vertex -2.048563e+01 -1.343492e+01 1.400000e+01
      vertex -2.143205e+01 -1.535649e+01 1.400000e+01
    endloop
  endfacet
  facet normal -2.449294e-16 1.499760e-32 1.000000e+00
    outer loop
      vertex -1.673563e+01 -9.684915e+00 1.400000e+01
      vertex -1.723804e+01 -1.155992e+01 1.400000e+01
      vertex -1.491158e+01 -8.273373e+00 1.400000e+01
    endloop
  endfacet
  facet normal -2.449294e-16 1.499760e-32 1.000000e+00
    outer loop
      vertex -1.723804e+01 -7.809915e+00 1.400000e+01
      vertex -1.673563e+01 -9.684915e+00 1.400000e+01
      vertex -1.567192e+01 -6.539963e+00 1.400000e+01
    endloop
  endfacet
  facet normal -2.449294e-16 1.499760e-32 1.000000e+00
    outer loop
      vertex -2.048563e+01 -1.343492e+01 1.400000e+01
      vertex -2.236063e+01 -1.293251e+01 1.400000e+01
      vertex -2.143205e+01 -1.535649e+01 1.400000e+01
    endloop
  endfacet
endsolid Default
