solid Default
  facet normal -0.000000e+00 -0.000000e+00 -1.000000e+00
    outer loop
      vertex -9.000000e+00 -4.500000e+00 8.000000e+00
      vertex -9.000000e+00 3.500000e+00 8.000000e+00
      vertex -4.000000e+00 -4.500000e+00 8.000000e+00
    endloop
  endfacet
  facet normal NaN NaN NaN
    outer loop
      vertex -9.000000e+00 -4.500000e+00 8.000000e+00
      vertex -4.000000e+00 -4.500000e+00 8.000000e+00
      vertex -2.500000e+00 -4.500000e+00 8.000000e+00
    endloop
  endfacet
  facet normal -0.000000e+00 -0.000000e+00 -1.000000e+00
    outer loop
      vertex -4.000000e+00 -4.500000e+00 8.000000e+00
      vertex -9.000000e+00 3.500000e+00 8.000000e+00
      vertex -4.000000e+00 3.500000e+00 8.000000e+00
    endloop
  endfacet
  facet normal -7.327933e-01 0.000000e+00 6.804513e-01
    outer loop
      vertex -9.000000e+00 -4.500000e+00 8.000000e+00
      vertex -5.285714e+00 -4.500000e+00 1.200000e+01
      vertex -9.000000e+00 3.500000e+00 8.000000e+00
    endloop
  endfacet
  facet normal -7.327933e-01 0.000000e+00 6.804513e-01
    outer loop
      vertex -9.000000e+00 3.500000e+00 8.000000e+00
      vertex -5.285714e+00 -4.500000e+00 1.200000e+01
      vertex -5.285714e+00 3.500000e+00 1.200000e+01
    endloop
  endfacet
  facet normal -0.000000e+00 -1.000000e+00 -0.000000e+00
    outer loop
      vertex -4.000000e+00 -4.500000e+00 8.666667e+00
      vertex -9.000000e+00 -4.500000e+00 8.000000e+00
      vertex -2.500000e+00 -4.500000e+00 8.000000e+00
    endloop
  endfacet
  facet normal 0.000000e+00 -1.000000e+00 0.000000e+00
    outer loop
      vertex -4.000000e+00 -4.500000e+00 8.666667e+00
      vertex -4.000000e+00 -4.500000e+00 1.200000e+01
      vertex -5.285714e+00 -4.500000e+00 1.200000e+01
    endloop
  endfacet
  facet normal 0.000000e+00 -1.000000e+00 0.000000e+00
    outer loop
      vertex -5.285714e+00 -4.500000e+00 1.200000e+01
      vertex -9.000000e+00 -4.500000e+00 8.000000e+00
      vertex -4.000000e+00 -4.500000e+00 8.666667e+00
    endloop
  endfacet
  facet normal 0.000000e+00 -1.000000e+00 0.000000e+00
    outer loop
      vertex -2.500000e+00 -4.500000e+00 9.666667e+00
      vertex -4.000000e+00 -4.500000e+00 8.666667e+00
      vertex -2.500000e+00 -4.500000e+00 8.000000e+00
    endloop
  endfacet
  facet normal 0.000000e+00 -1.000000e+00 0.000000e+00
    outer loop
      vertex -4.000000e+00 -4.500000e+00 8.000000e+00
      vertex -4.000000e+00 -4.500000e+00 1.000000e+00
      vertex -1.500000e+00 -4.500000e+00 1.000000e+00
    endloop
  endfacet
  facet normal 0.000000e+00 -1.000000e+00 0.000000e+00
    outer loop
      vertex -2.500000e+00 -4.500000e+00 8.000000e+00
      vertex -4.000000e+00 -4.500000e+00 8.000000e+00
      vertex -1.500000e+00 -4.500000e+00 1.000000e+00
    endloop
  endfacet
  facet normal 0.000000e+00 -1.000000e+00 0.000000e+00
    outer loop
      vertex -4.000000e+00 -4.500000e+00 1.200000e+01
      vertex -4.000000e+00 -4.500000e+00 8.666667e+00
      vertex -1.500000e+00 -4.500000e+00 1.200000e+01
    endloop
  endfacet
  facet normal 0.000000e+00 -1.000000e+00 0.000000e+00
    outer loop
      vertex -1.500000e+00 -4.500000e+00 1.200000e+01
      vertex -2.500000e+00 -4.500000e+00 9.666667e+00
      vertex -1.500000e+00 -4.500000e+00 1.000000e+00
    endloop
  endfacet
  facet normal 0.000000e+00 -1.000000e+00 0.000000e+00
    outer loop
      vertex -2.500000e+00 -4.500000e+00 9.666667e+00
      vertex -2.500000e+00 -4.500000e+00 8.000000e+00
      vertex -1.500000e+00 -4.500000e+00 1.000000e+00
    endloop
  endfacet
  facet normal 0.000000e+00 -1.000000e+00 0.000000e+00
    outer loop
      vertex -4.000000e+00 -4.500000e+00 8.666667e+00
      vertex -2.500000e+00 -4.500000e+00 9.666667e+00
      vertex -1.500000e+00 -4.500000e+00 1.200000e+01
    endloop
  endfacet
  facet normal -1.000000e+00 -0.000000e+00 -0.000000e+00
    outer loop
      vertex -4.000000e+00 -4.500000e+00 1.000000e+00
      vertex -4.000000e+00 -4.500000e+00 8.000000e+00
      vertex -4.000000e+00 3.500000e+00 1.000000e+00
    endloop
  endfacet
  facet normal -1.000000e+00 0.000000e+00 0.000000e+00
    outer loop
      vertex -4.000000e+00 3.500000e+00 1.000000e+00
      vertex -4.000000e+00 -4.500000e+00 8.000000e+00
      vertex -4.000000e+00 3.500000e+00 8.000000e+00
    endloop
  endfacet
  facet normal NaN NaN NaN
    outer loop
      vertex -4.000000e+00 3.500000e+00 1.000000e+00
      vertex -4.000000e+00 3.500000e+00 8.000000e+00
      vertex -4.000000e+00 3.500000e+00 8.666667e+00
    endloop
  endfacet
  facet normal 0.000000e+00 1.000000e+00 0.000000e+00
    outer loop
      vertex -9.000000e+00 3.500000e+00 8.000000e+00
      vertex -5.285714e+00 3.500000e+00 1.200000e+01
      vertex -4.000000e+00 3.500000e+00 8.000000e+00
    endloop
  endfacet
  facet normal 0.000000e+00 1.000000e+00 0.000000e+00
    outer loop
      vertex -4.000000e+00 3.500000e+00 8.666667e+00
      vertex -5.285714e+00 3.500000e+00 1.200000e+01
      vertex -2.500000e+00 3.500000e+00 1.200000e+01
    endloop
  endfacet
  facet normal 0.000000e+00 1.000000e+00 0.000000e+00
    outer loop
      vertex -4.000000e+00 3.500000e+00 8.000000e+00
      vertex -5.285714e+00 3.500000e+00 1.200000e+01
      vertex -4.000000e+00 3.500000e+00 8.666667e+00
    endloop
  endfacet
  facet normal 0.000000e+00 1.000000e+00 0.000000e+00
    outer loop
      vertex -4.000000e+00 3.500000e+00 8.666667e+00
      vertex -2.500000e+00 3.500000e+00 1.200000e+01
      vertex -2.500000e+00 3.500000e+00 9.666667e+00
    endloop
  endfacet
  facet normal 0.000000e+00 0.000000e+00 1.000000e+00
    outer loop
      vertex -5.285714e+00 3.500000e+00 1.200000e+01
      vertex -5.285714e+00 -4.500000e+00 1.200000e+01
      vertex -4.000000e+00 -4.500000e+00 1.200000e+01
    endloop
  endfacet
  facet normal 0.000000e+00 0.000000e+00 1.000000e+00
    outer loop
      vertex -1.500000e+00 -4.500000e+00 1.200000e+01
      vertex -5.285714e+00 3.500000e+00 1.200000e+01
      vertex -4.000000e+00 -4.500000e+00 1.200000e+01
    endloop
  endfacet
  facet normal 0.000000e+00 0.000000e+00 1.000000e+00
    outer loop
      vertex -1.500000e+00 -4.500000e+00 1.200000e+01
      vertex -2.500000e+00 3.500000e+00 1.200000e+01
      vertex -5.285714e+00 3.500000e+00 1.200000e+01
    endloop
  endfacet
  facet normal 0.000000e+00 0.000000e+00 1.000000e+00
    outer loop
      vertex -1.500000e+00 -4.500000e+00 1.200000e+01
      vertex -1.500000e+00 3.500000e+00 1.200000e+01
      vertex -2.500000e+00 3.500000e+00 1.200000e+01
    endloop
  endfacet
  facet normal 1.000000e+00 0.000000e+00 0.000000e+00
    outer loop
      vertex -1.500000e+00 -4.500000e+00 1.200000e+01
      vertex -1.500000e+00 -4.500000e+00 1.000000e+00
      vertex -1.500000e+00 -1.750000e+00 1.000000e+00
    endloop
  endfacet
  facet normal 1.000000e+00 0.000000e+00 0.000000e+00
    outer loop
      vertex -1.500000e+00 7.500000e-01 7.500000e+00
      vertex -1.500000e+00 -4.500000e+00 1.200000e+01
      vertex -1.500000e+00 -1.750000e+00 7.500000e+00
    endloop
  endfacet
  facet normal 1.000000e+00 0.000000e+00 0.000000e+00
    outer loop
      vertex -1.500000e+00 -1.750000e+00 7.500000e+00
      vertex -1.500000e+00 -4.500000e+00 1.200000e+01
      vertex -1.500000e+00 -1.750000e+00 1.000000e+00
    endloop
  endfacet
  facet normal 1.000000e+00 0.000000e+00 0.000000e+00
    outer loop
      vertex -1.500000e+00 3.500000e+00 1.200000e+01
      vertex -1.500000e+00 -4.500000e+00 1.200000e+01
      vertex -1.500000e+00 7.500000e-01 7.500000e+00
    endloop
  endfacet
  facet normal 1.000000e+00 0.000000e+00 0.000000e+00
    outer loop
      vertex -1.500000e+00 3.500000e+00 1.000000e+00
      vertex -1.500000e+00 7.500000e-01 7.500000e+00
      vertex -1.500000e+00 7.500000e-01 1.000000e+00
    endloop
  endfacet
  facet normal 1.000000e+00 0.000000e+00 0.000000e+00
    outer loop
      vertex -1.500000e+00 3.500000e+00 1.200000e+01
      vertex -1.500000e+00 7.500000e-01 7.500000e+00
      vertex -1.500000e+00 3.500000e+00 1.000000e+00
    endloop
  endfacet
  facet normal 0.000000e+00 0.000000e+00 1.000000e+00
    outer loop
      vertex -4.000000e+00 -4.500000e+00 1.000000e+00
      vertex -5.000000e+00 -7.500000e+00 1.000000e+00
      vertex 9.000000e+00 -7.500000e+00 1.000000e+00
    endloop
  endfacet
  facet normal 0.000000e+00 0.000000e+00 1.000000e+00
    outer loop
      vertex 5.000000e+00 -1.750000e+00 1.000000e+00
      vertex -1.500000e+00 -1.750000e+00 1.000000e+00
      vertex 9.000000e+00 -7.500000e+00 1.000000e+00
    endloop
  endfacet
  facet normal 0.000000e+00 0.000000e+00 1.000000e+00
    outer loop
      vertex -1.500000e+00 -4.500000e+00 1.000000e+00
      vertex -4.000000e+00 -4.500000e+00 1.000000e+00
      vertex 9.000000e+00 -7.500000e+00 1.000000e+00
    endloop
  endfacet
  facet normal 0.000000e+00 0.000000e+00 1.000000e+00
    outer loop
      vertex -5.000000e+00 7.500000e+00 1.000000e+00
      vertex -5.000000e+00 -7.500000e+00 1.000000e+00
      vertex -4.000000e+00 -4.500000e+00 1.000000e+00
    endloop
  endfacet
  facet normal 0.000000e+00 0.000000e+00 1.000000e+00
    outer loop
      vertex -5.000000e+00 7.500000e+00 1.000000e+00
      vertex -4.000000e+00 -4.500000e+00 1.000000e+00
      vertex -4.000000e+00 3.500000e+00 1.000000e+00
    endloop
  endfacet
  facet normal 0.000000e+00 0.000000e+00 1.000000e+00
    outer loop
      vertex -5.000000e+00 7.500000e+00 1.000000e+00
      vertex -4.000000e+00 3.500000e+00 1.000000e+00
      vertex -1.500000e+00 3.500000e+00 1.000000e+00
    endloop
  endfacet
  facet normal 0.000000e+00 0.000000e+00 1.000000e+00
    outer loop
      vertex 9.000000e+00 7.500000e+00 1.000000e+00
      vertex 5.000000e+00 7.500000e-01 1.000000e+00
      vertex 9.000000e+00 -7.500000e+00 1.000000e+00
    endloop
  endfacet
  facet normal 0.000000e+00 0.000000e+00 1.000000e+00
    outer loop
      vertex 9.000000e+00 7.500000e+00 1.000000e+00
      vertex -5.000000e+00 7.500000e+00 1.000000e+00
      vertex 5.000000e+00 7.500000e-01 1.000000e+00
    endloop
  endfacet
  facet normal 0.000000e+00 0.000000e+00 1.000000e+00
    outer loop
      vertex 5.000000e+00 7.500000e-01 1.000000e+00
      vertex 5.000000e+00 -1.750000e+00 1.000000e+00
      vertex 9.000000e+00 -7.500000e+00 1.000000e+00
    endloop
  endfacet
  facet normal 0.000000e+00 0.000000e+00 1.000000e+00
    outer loop
      vertex -1.500000e+00 -1.750000e+00 1.000000e+00
      vertex -1.500000e+00 -4.500000e+00 1.000000e+00
      vertex 9.000000e+00 -7.500000e+00 1.000000e+00
    endloop
  endfacet
  facet normal 0.000000e+00 0.000000e+00 1.000000e+00
    outer loop
      vertex -1.500000e+00 3.500000e+00 1.000000e+00
      vertex 5.000000e+00 7.500000e-01 1.000000e+00
      vertex -5.000000e+00 7.500000e+00 1.000000e+00
    endloop
  endfacet
  facet normal 0.000000e+00 0.000000e+00 1.000000e+00
    outer loop
      vertex -1.500000e+00 7.500000e-01 1.000000e+00
      vertex 5.000000e+00 7.500000e-01 1.000000e+00
      vertex -1.500000e+00 3.500000e+00 1.000000e+00
    endloop
  endfacet
  facet normal 0.000000e+00 1.000000e+00 0.000000e+00
    outer loop
      vertex -4.000000e+00 3.500000e+00 1.000000e+00
      vertex -4.000000e+00 3.500000e+00 8.666667e+00
      vertex -1.500000e+00 3.500000e+00 1.000000e+00
    endloop
  endfacet
  facet normal 0.000000e+00 1.000000e+00 0.000000e+00
    outer loop
      vertex -1.500000e+00 3.500000e+00 1.000000e+00
      vertex -4.000000e+00 3.500000e+00 8.666667e+00
      vertex -2.500000e+00 3.500000e+00 9.666667e+00
    endloop
  endfacet
  facet normal 0.000000e+00 1.000000e+00 0.000000e+00
    outer loop
      vertex -1.500000e+00 3.500000e+00 1.000000e+00
      vertex -2.500000e+00 3.500000e+00 9.666667e+00
      vertex -2.500000e+00 3.500000e+00 1.200000e+01
    endloop
  endfacet
  facet normal 0.000000e+00 1.000000e+00 0.000000e+00
    outer loop
      vertex -1.500000e+00 3.500000e+00 1.000000e+00
      vertex -2.500000e+00 3.500000e+00 1.200000e+01
      vertex -1.500000e+00 3.500000e+00 1.200000e+01
    endloop
  endfacet
  facet normal 0.000000e+00 1.000000e+00 0.000000e+00
    outer loop
      vertex 5.000000e+00 7.500000e-01 1.000000e+00
      vertex -1.500000e+00 7.500000e-01 1.000000e+00
      vertex -1.500000e+00 7.500000e-01 7.500000e+00
    endloop
  endfacet
  facet normal 7.071068e-01 0.000000e+00 7.071068e-01
    outer loop
      vertex -1.500000e+00 7.500000e-01 7.500000e+00
      vertex -1.500000e+00 -1.750000e+00 7.500000e+00
      vertex 5.000000e+00 -1.750000e+00 1.000000e+00
    endloop
  endfacet
  facet normal 7.071068e-01 0.000000e+00 7.071068e-01
    outer loop
      vertex 5.000000e+00 7.500000e-01 1.000000e+00
      vertex -1.500000e+00 7.500000e-01 7.500000e+00
      vertex 5.000000e+00 -1.750000e+00 1.000000e+00
    endloop
  endfacet
  facet normal 0.000000e+00 -1.000000e+00 0.000000e+00
    outer loop
      vertex -1.500000e+00 -1.750000e+00 7.500000e+00
      vertex -1.500000e+00 -1.750000e+00 1.000000e+00
      vertex 5.000000e+00 -1.750000e+00 1.000000e+00
    endloop
  endfacet
  facet normal -1.000000e+00 -0.000000e+00 -0.000000e+00
    outer loop
      vertex -5.000000e+00 -7.500000e+00 0.000000e+00
      vertex -5.000000e+00 -7.500000e+00 1.000000e+00
      vertex -5.000000e+00 7.500000e+00 0.000000e+00
    endloop
  endfacet
  facet normal -1.000000e+00 0.000000e+00 0.000000e+00
    outer loop
      vertex -5.000000e+00 7.500000e+00 0.000000e+00
      vertex -5.000000e+00 -7.500000e+00 1.000000e+00
      vertex -5.000000e+00 7.500000e+00 1.000000e+00
    endloop
  endfacet
  facet normal 0.000000e+00 1.000000e+00 0.000000e+00
    outer loop
      vertex -5.000000e+00 7.500000e+00 0.000000e+00
      vertex -5.000000e+00 7.500000e+00 1.000000e+00
      vertex 9.000000e+00 7.500000e+00 0.000000e+00
    endloop
  endfacet
  facet normal 0.000000e+00 1.000000e+00 0.000000e+00
    outer loop
      vertex 9.000000e+00 7.500000e+00 0.000000e+00
      vertex -5.000000e+00 7.500000e+00 1.000000e+00
      vertex 9.000000e+00 7.500000e+00 1.000000e+00
    endloop
  endfacet
  facet normal 1.000000e+00 0.000000e+00 0.000000e+00
    outer loop
      vertex 9.000000e+00 -7.500000e+00 1.000000e+00
      vertex 9.000000e+00 -7.500000e+00 0.000000e+00
      vertex 9.000000e+00 7.500000e+00 0.000000e+00
    endloop
  endfacet
  facet normal 1.000000e+00 0.000000e+00 0.000000e+00
    outer loop
      vertex 9.000000e+00 7.500000e+00 1.000000e+00
      vertex 9.000000e+00 -7.500000e+00 1.000000e+00
      vertex 9.000000e+00 7.500000e+00 0.000000e+00
    endloop
  endfacet
  facet normal 0.000000e+00 -1.000000e+00 0.000000e+00
    outer loop
      vertex -5.000000e+00 -7.500000e+00 1.000000e+00
      vertex -5.000000e+00 -7.500000e+00 0.000000e+00
      vertex 9.000000e+00 -7.500000e+00 0.000000e+00
    endloop
  endfacet
  facet normal 0.000000e+00 -1.000000e+00 0.000000e+00
    outer loop
      vertex 9.000000e+00 -7.500000e+00 1.000000e+00
      vertex -5.000000e+00 -7.500000e+00 1.000000e+00
      vertex 9.000000e+00 -7.500000e+00 0.000000e+00
    endloop
  endfacet
  facet normal -0.000000e+00 -0.000000e+00 -1.000000e+00
    outer loop
      vertex -5.000000e+00 -7.500000e+00 0.000000e+00
      vertex -5.000000e+00 7.500000e+00 0.000000e+00
      vertex 9.000000e+00 -7.500000e+00 0.000000e+00
    endloop
  endfacet
  facet normal 0.000000e+00 0.000000e+00 -1.000000e+00
    outer loop
      vertex 9.000000e+00 -7.500000e+00 0.000000e+00
      vertex -5.000000e+00 7.500000e+00 0.000000e+00
      vertex 9.000000e+00 7.500000e+00 0.000000e+00
    endloop
  endfacet
endsolid Default
