solid Default
  facet normal -1.000000e+00 -0.000000e+00 -0.000000e+00
    outer loop
      vertex -1.895269e+01 -1.300000e+01 0.000000e+00
      vertex -1.895269e+01 -1.300000e+01 5.000000e+00
      vertex -1.895269e+01 1.500000e+00 0.000000e+00
    endloop
  endfacet
  facet normal -1.000000e+00 0.000000e+00 0.000000e+00
    outer loop
      vertex -1.895269e+01 1.500000e+00 0.000000e+00
      vertex -1.895269e+01 -1.300000e+01 5.000000e+00
      vertex -1.895269e+01 1.500000e+00 5.000000e+00
    endloop
  endfacet
  facet normal 0.000000e+00 -1.000000e+00 0.000000e+00
    outer loop
      vertex -1.895269e+01 -1.300000e+01 5.000000e+00
      vertex -1.895269e+01 -1.300000e+01 0.000000e+00
      vertex 4.047312e+00 -1.300000e+01 0.000000e+00
    endloop
  endfacet
  facet normal 0.000000e+00 -1.000000e+00 0.000000e+00
    outer loop
      vertex 4.047312e+00 -1.300000e+01 5.000000e+00
      vertex -1.895269e+01 -1.300000e+01 5.000000e+00
      vertex 4.047312e+00 -1.300000e+01 0.000000e+00
    endloop
  endfacet
  facet normal 0.000000e+00 0.000000e+00 -1.000000e+00
    outer loop
      vertex -9.970541e+00 -1.029165e+00 0.000000e+00
      vertex -1.895269e+01 1.500000e+00 0.000000e+00
      vertex 4.047312e+00 1.500000e+00 0.000000e+00
    endloop
  endfacet
  facet normal 0.000000e+00 0.000000e+00 -1.000000e+00
    outer loop
      vertex -1.895269e+01 -1.300000e+01 0.000000e+00
      vertex -1.895269e+01 1.500000e+00 0.000000e+00
      vertex -1.433646e+01 -4.042737e+00 0.000000e+00
    endloop
  endfacet
  facet normal 0.000000e+00 0.000000e+00 -1.000000e+00
    outer loop
      vertex -1.895269e+01 -1.300000e+01 0.000000e+00
      vertex -1.433646e+01 -4.042737e+00 0.000000e+00
      vertex -1.433646e+01 -5.957263e+00 0.000000e+00
    endloop
  endfacet
  facet normal 0.000000e+00 0.000000e+00 -1.000000e+00
    outer loop
      vertex -1.895269e+01 -1.300000e+01 0.000000e+00
      vertex -1.433646e+01 -5.957263e+00 0.000000e+00
      vertex -1.344673e+01 -7.652491e+00 0.000000e+00
    endloop
  endfacet
  facet normal 0.000000e+00 0.000000e+00 -1.000000e+00
    outer loop
      vertex -1.895269e+01 -1.300000e+01 0.000000e+00
      vertex -1.344673e+01 -7.652491e+00 0.000000e+00
      vertex -1.187111e+01 -8.740065e+00 0.000000e+00
    endloop
  endfacet
  facet normal 0.000000e+00 0.000000e+00 -1.000000e+00
    outer loop
      vertex -1.895269e+01 -1.300000e+01 0.000000e+00
      vertex -1.187111e+01 -8.740065e+00 0.000000e+00
      vertex 4.047312e+00 -1.300000e+01 0.000000e+00
    endloop
  endfacet
  facet normal 0.000000e+00 0.000000e+00 -1.000000e+00
    outer loop
      vertex -1.187111e+01 -8.740065e+00 0.000000e+00
      vertex -9.970541e+00 -8.970835e+00 0.000000e+00
      vertex 4.047312e+00 -1.300000e+01 0.000000e+00
    endloop
  endfacet
  facet normal 0.000000e+00 0.000000e+00 -1.000000e+00
    outer loop
      vertex -6.910864e+00 -6.858893e+00 0.000000e+00
      vertex 4.047312e+00 -1.300000e+01 0.000000e+00
      vertex -8.180429e+00 -8.291935e+00 0.000000e+00
    endloop
  endfacet
  facet normal 0.000000e+00 0.000000e+00 -1.000000e+00
    outer loop
      vertex -6.452688e+00 -5.000000e+00 0.000000e+00
      vertex 4.047312e+00 -1.300000e+01 0.000000e+00
      vertex -6.910864e+00 -6.858893e+00 0.000000e+00
    endloop
  endfacet
  facet normal 0.000000e+00 0.000000e+00 -1.000000e+00
    outer loop
      vertex -1.187111e+01 -1.259935e+00 0.000000e+00
      vertex -1.895269e+01 1.500000e+00 0.000000e+00
      vertex -9.970541e+00 -1.029165e+00 0.000000e+00
    endloop
  endfacet
  facet normal 0.000000e+00 0.000000e+00 -1.000000e+00
    outer loop
      vertex 4.047312e+00 -1.300000e+01 0.000000e+00
      vertex -6.452688e+00 -5.000000e+00 0.000000e+00
      vertex 4.047312e+00 1.500000e+00 0.000000e+00
    endloop
  endfacet
  facet normal 0.000000e+00 0.000000e+00 -1.000000e+00
    outer loop
      vertex -1.344673e+01 -2.347509e+00 0.000000e+00
      vertex -1.895269e+01 1.500000e+00 0.000000e+00
      vertex -1.187111e+01 -1.259935e+00 0.000000e+00
    endloop
  endfacet
  facet normal 0.000000e+00 0.000000e+00 -1.000000e+00
    outer loop
      vertex -6.452688e+00 -5.000000e+00 0.000000e+00
      vertex -6.910864e+00 -3.141107e+00 0.000000e+00
      vertex 4.047312e+00 1.500000e+00 0.000000e+00
    endloop
  endfacet
  facet normal 0.000000e+00 0.000000e+00 -1.000000e+00
    outer loop
      vertex -6.910864e+00 -3.141107e+00 0.000000e+00
      vertex -8.180429e+00 -1.708065e+00 0.000000e+00
      vertex 4.047312e+00 1.500000e+00 0.000000e+00
    endloop
  endfacet
  facet normal 0.000000e+00 0.000000e+00 -1.000000e+00
    outer loop
      vertex -8.180429e+00 -1.708065e+00 0.000000e+00
      vertex -9.970541e+00 -1.029165e+00 0.000000e+00
      vertex 4.047312e+00 1.500000e+00 0.000000e+00
    endloop
  endfacet
  facet normal 0.000000e+00 0.000000e+00 -1.000000e+00
    outer loop
      vertex -1.433646e+01 -4.042737e+00 0.000000e+00
      vertex -1.895269e+01 1.500000e+00 0.000000e+00
      vertex -1.344673e+01 -2.347509e+00 0.000000e+00
    endloop
  endfacet
  facet normal 0.000000e+00 0.000000e+00 -1.000000e+00
    outer loop
      vertex -8.180429e+00 -8.291935e+00 0.000000e+00
      vertex 4.047312e+00 -1.300000e+01 0.000000e+00
      vertex -9.970541e+00 -8.970835e+00 0.000000e+00
    endloop
  endfacet
  facet normal 0.000000e+00 1.000000e+00 0.000000e+00
    outer loop
      vertex 2.854874e+00 1.500000e+00 5.000000e+00
      vertex 1.525724e+01 1.500000e+00 2.031565e+01
      vertex 1.602662e+01 1.500000e+00 1.969262e+01
    endloop
  endfacet
  facet normal 0.000000e+00 1.000000e+00 0.000000e+00
    outer loop
      vertex 2.854874e+00 1.500000e+00 5.000000e+00
      vertex 1.602662e+01 1.500000e+00 1.969262e+01
      vertex 7.279064e+00 1.500000e+00 8.890296e+00
    endloop
  endfacet
  facet normal 0.000000e+00 1.000000e+00 0.000000e+00
    outer loop
      vertex 2.854874e+00 1.500000e+00 5.000000e+00
      vertex 7.279064e+00 1.500000e+00 8.890296e+00
      vertex 8.452555e+00 1.500000e+00 7.940022e+00
    endloop
  endfacet
  facet normal 0.000000e+00 1.000000e+00 0.000000e+00
    outer loop
      vertex 2.854874e+00 1.500000e+00 5.000000e+00
      vertex 8.452555e+00 1.500000e+00 7.940022e+00
      vertex 4.047312e+00 1.500000e+00 2.500000e+00
    endloop
  endfacet
  facet normal 0.000000e+00 1.000000e+00 0.000000e+00
    outer loop
      vertex 2.854874e+00 1.500000e+00 5.000000e+00
      vertex 4.047312e+00 1.500000e+00 2.500000e+00
      vertex -1.895269e+01 1.500000e+00 5.000000e+00
    endloop
  endfacet
  facet normal 0.000000e+00 1.000000e+00 0.000000e+00
    outer loop
      vertex 4.047312e+00 1.500000e+00 2.500000e+00
      vertex 4.047312e+00 1.500000e+00 0.000000e+00
      vertex -1.895269e+01 1.500000e+00 5.000000e+00
    endloop
  endfacet
  facet normal 0.000000e+00 1.000000e+00 0.000000e+00
    outer loop
      vertex 4.047312e+00 1.500000e+00 0.000000e+00
      vertex -1.895269e+01 1.500000e+00 0.000000e+00
      vertex -1.895269e+01 1.500000e+00 5.000000e+00
    endloop
  endfacet
  facet normal 0.000000e+00 0.000000e+00 1.000000e+00
    outer loop
      vertex -9.970541e+00 -8.970835e+00 5.000000e+00
      vertex -1.895269e+01 -1.300000e+01 5.000000e+00
      vertex 4.047312e+00 -1.300000e+01 5.000000e+00
    endloop
  endfacet
  facet normal 0.000000e+00 0.000000e+00 1.000000e+00
    outer loop
      vertex -6.910864e+00 -3.141107e+00 5.000000e+00
      vertex -6.452688e+00 -5.000000e+00 5.000000e+00
      vertex 2.854874e+00 -1.100000e+01 5.000000e+00
    endloop
  endfacet
  facet normal 0.000000e+00 0.000000e+00 1.000000e+00
    outer loop
      vertex 4.047312e+00 -1.100000e+01 5.000000e+00
      vertex 2.854874e+00 -1.100000e+01 5.000000e+00
      vertex 4.047312e+00 -1.300000e+01 5.000000e+00
    endloop
  endfacet
  facet normal 0.000000e+00 0.000000e+00 1.000000e+00
    outer loop
      vertex -1.895269e+01 1.500000e+00 5.000000e+00
      vertex -1.895269e+01 -1.300000e+01 5.000000e+00
      vertex -1.433646e+01 -5.957263e+00 5.000000e+00
    endloop
  endfacet
  facet normal 0.000000e+00 0.000000e+00 1.000000e+00
    outer loop
      vertex -8.180429e+00 -8.291935e+00 5.000000e+00
      vertex -9.970541e+00 -8.970835e+00 5.000000e+00
      vertex 4.047312e+00 -1.300000e+01 5.000000e+00
    endloop
  endfacet
  facet normal 0.000000e+00 0.000000e+00 1.000000e+00
    outer loop
      vertex -1.895269e+01 1.500000e+00 5.000000e+00
      vertex -1.433646e+01 -5.957263e+00 5.000000e+00
      vertex -1.433646e+01 -4.042737e+00 5.000000e+00
    endloop
  endfacet
  facet normal 0.000000e+00 0.000000e+00 1.000000e+00
    outer loop
      vertex -1.895269e+01 1.500000e+00 5.000000e+00
      vertex -1.433646e+01 -4.042737e+00 5.000000e+00
      vertex -1.344673e+01 -2.347509e+00 5.000000e+00
    endloop
  endfacet
  facet normal 0.000000e+00 0.000000e+00 1.000000e+00
    outer loop
      vertex -1.344673e+01 -2.347509e+00 5.000000e+00
      vertex -1.187111e+01 -1.259935e+00 5.000000e+00
      vertex -1.895269e+01 1.500000e+00 5.000000e+00
    endloop
  endfacet
  facet normal 0.000000e+00 0.000000e+00 1.000000e+00
    outer loop
      vertex 2.854874e+00 1.500000e+00 5.000000e+00
      vertex -1.895269e+01 1.500000e+00 5.000000e+00
      vertex -1.187111e+01 -1.259935e+00 5.000000e+00
    endloop
  endfacet
  facet normal 0.000000e+00 0.000000e+00 1.000000e+00
    outer loop
      vertex -6.910864e+00 -6.858893e+00 5.000000e+00
      vertex -8.180429e+00 -8.291935e+00 5.000000e+00
      vertex 4.047312e+00 -1.300000e+01 5.000000e+00
    endloop
  endfacet
  facet normal 0.000000e+00 0.000000e+00 1.000000e+00
    outer loop
      vertex 2.854874e+00 1.500000e+00 5.000000e+00
      vertex -1.187111e+01 -1.259935e+00 5.000000e+00
      vertex -9.970541e+00 -1.029165e+00 5.000000e+00
    endloop
  endfacet
  facet normal 0.000000e+00 0.000000e+00 1.000000e+00
    outer loop
      vertex -6.452688e+00 -5.000000e+00 5.000000e+00
      vertex 4.047312e+00 -1.300000e+01 5.000000e+00
      vertex 2.854874e+00 -1.100000e+01 5.000000e+00
    endloop
  endfacet
  facet normal 0.000000e+00 0.000000e+00 1.000000e+00
    outer loop
      vertex 2.854874e+00 1.500000e+00 5.000000e+00
      vertex -9.970541e+00 -1.029165e+00 5.000000e+00
      vertex -8.180429e+00 -1.708065e+00 5.000000e+00
    endloop
  endfacet
  facet normal 0.000000e+00 0.000000e+00 1.000000e+00
    outer loop
      vertex -1.187111e+01 -8.740065e+00 5.000000e+00
      vertex -1.895269e+01 -1.300000e+01 5.000000e+00
      vertex -9.970541e+00 -8.970835e+00 5.000000e+00
    endloop
  endfacet
  facet normal 0.000000e+00 0.000000e+00 1.000000e+00
    outer loop
      vertex -1.344673e+01 -7.652491e+00 5.000000e+00
      vertex -1.895269e+01 -1.300000e+01 5.000000e+00
      vertex -1.187111e+01 -8.740065e+00 5.000000e+00
    endloop
  endfacet
  facet normal 0.000000e+00 0.000000e+00 1.000000e+00
    outer loop
      vertex -1.433646e+01 -5.957263e+00 5.000000e+00
      vertex -1.895269e+01 -1.300000e+01 5.000000e+00
      vertex -1.344673e+01 -7.652491e+00 5.000000e+00
    endloop
  endfacet
  facet normal 0.000000e+00 0.000000e+00 1.000000e+00
    outer loop
      vertex -6.452688e+00 -5.000000e+00 5.000000e+00
      vertex -6.910864e+00 -6.858893e+00 5.000000e+00
      vertex 4.047312e+00 -1.300000e+01 5.000000e+00
    endloop
  endfacet
  facet normal 0.000000e+00 0.000000e+00 1.000000e+00
    outer loop
      vertex 2.854874e+00 -1.100000e+01 5.000000e+00
      vertex -8.180429e+00 -1.708065e+00 5.000000e+00
      vertex -6.910864e+00 -3.141107e+00 5.000000e+00
    endloop
  endfacet
  facet normal 0.000000e+00 0.000000e+00 1.000000e+00
    outer loop
      vertex 2.854874e+00 -1.100000e+01 5.000000e+00
      vertex 2.854874e+00 1.500000e+00 5.000000e+00
      vertex -8.180429e+00 -1.708065e+00 5.000000e+00
    endloop
  endfacet
  facet normal 1.000000e+00 0.000000e+00 0.000000e+00
    outer loop
      vertex 4.047312e+00 -1.100000e+01 2.500000e+00
      vertex 4.047312e+00 -1.300000e+01 0.000000e+00
      vertex 4.047312e+00 1.500000e+00 0.000000e+00
    endloop
  endfacet
  facet normal 1.000000e+00 0.000000e+00 0.000000e+00
    outer loop
      vertex 4.047312e+00 -1.100000e+01 2.500000e+00
      vertex 4.047312e+00 -1.100000e+01 5.000000e+00
      vertex 4.047312e+00 -1.300000e+01 5.000000e+00
    endloop
  endfacet
  facet normal 1.000000e+00 0.000000e+00 0.000000e+00
    outer loop
      vertex 4.047312e+00 -1.300000e+01 5.000000e+00
      vertex 4.047312e+00 -1.300000e+01 0.000000e+00
      vertex 4.047312e+00 -1.100000e+01 2.500000e+00
    endloop
  endfacet
  facet normal 1.000000e+00 0.000000e+00 0.000000e+00
    outer loop
      vertex 4.047312e+00 1.500000e+00 2.500000e+00
      vertex 4.047312e+00 -1.100000e+01 2.500000e+00
      vertex 4.047312e+00 1.500000e+00 0.000000e+00
    endloop
  endfacet
  facet normal 8.854561e-01 -4.647231e-01 0.000000e+00
    outer loop
      vertex -1.344673e+01 -2.347509e+00 0.000000e+00
      vertex -1.344673e+01 -2.347509e+00 5.000000e+00
      vertex -1.433646e+01 -4.042737e+00 5.000000e+00
    endloop
  endfacet
  facet normal 8.854561e-01 -4.647231e-01 0.000000e+00
    outer loop
      vertex -1.433646e+01 -4.042737e+00 0.000000e+00
      vertex -1.344673e+01 -2.347509e+00 0.000000e+00
      vertex -1.433646e+01 -4.042737e+00 5.000000e+00
    endloop
  endfacet
  facet normal 1.000000e+00 0.000000e+00 0.000000e+00
    outer loop
      vertex -1.433646e+01 -4.042737e+00 0.000000e+00
      vertex -1.433646e+01 -4.042737e+00 5.000000e+00
      vertex -1.433646e+01 -5.957263e+00 5.000000e+00
    endloop
  endfacet
  facet normal 1.000000e+00 0.000000e+00 0.000000e+00
    outer loop
      vertex -1.433646e+01 -5.957263e+00 0.000000e+00
      vertex -1.433646e+01 -4.042737e+00 0.000000e+00
      vertex -1.433646e+01 -5.957263e+00 5.000000e+00
    endloop
  endfacet
  facet normal 5.680649e-01 -8.229838e-01 0.000000e+00
    outer loop
      vertex -1.187111e+01 -1.259935e+00 0.000000e+00
      vertex -1.187111e+01 -1.259935e+00 5.000000e+00
      vertex -1.344673e+01 -2.347509e+00 5.000000e+00
    endloop
  endfacet
  facet normal 5.680649e-01 -8.229838e-01 0.000000e+00
    outer loop
      vertex -1.344673e+01 -2.347509e+00 0.000000e+00
      vertex -1.187111e+01 -1.259935e+00 0.000000e+00
      vertex -1.344673e+01 -2.347509e+00 5.000000e+00
    endloop
  endfacet
  facet normal 1.205360e-01 -9.927090e-01 0.000000e+00
    outer loop
      vertex -9.970541e+00 -1.029165e+00 0.000000e+00
      vertex -9.970541e+00 -1.029165e+00 5.000000e+00
      vertex -1.187111e+01 -1.259935e+00 5.000000e+00
    endloop
  endfacet
  facet normal 1.205360e-01 -9.927090e-01 0.000000e+00
    outer loop
      vertex -1.187111e+01 -1.259935e+00 0.000000e+00
      vertex -9.970541e+00 -1.029165e+00 0.000000e+00
      vertex -1.187111e+01 -1.259935e+00 5.000000e+00
    endloop
  endfacet
  facet normal -3.546051e-01 -9.350162e-01 -0.000000e+00
    outer loop
      vertex -8.180429e+00 -1.708065e+00 0.000000e+00
      vertex -8.180429e+00 -1.708065e+00 5.000000e+00
      vertex -9.970541e+00 -1.029165e+00 5.000000e+00
    endloop
  endfacet
  facet normal -3.546051e-01 -9.350162e-01 -0.000000e+00
    outer loop
      vertex -9.970541e+00 -1.029165e+00 0.000000e+00
      vertex -8.180429e+00 -1.708065e+00 0.000000e+00
      vertex -9.970541e+00 -1.029165e+00 5.000000e+00
    endloop
  endfacet
  facet normal -7.485107e-01 -6.631227e-01 0.000000e+00
    outer loop
      vertex -6.910864e+00 -3.141107e+00 5.000000e+00
      vertex -8.180429e+00 -1.708065e+00 5.000000e+00
      vertex -6.910864e+00 -3.141107e+00 0.000000e+00
    endloop
  endfacet
  facet normal -7.485107e-01 -6.631227e-01 0.000000e+00
    outer loop
      vertex -6.910864e+00 -3.141107e+00 0.000000e+00
      vertex -8.180429e+00 -1.708065e+00 5.000000e+00
      vertex -8.180429e+00 -1.708065e+00 0.000000e+00
    endloop
  endfacet
  facet normal -9.709417e-01 -2.393159e-01 0.000000e+00
    outer loop
      vertex -6.452688e+00 -5.000000e+00 5.000000e+00
      vertex -6.910864e+00 -3.141107e+00 5.000000e+00
      vertex -6.452688e+00 -5.000000e+00 0.000000e+00
    endloop
  endfacet
  facet normal -9.709417e-01 -2.393159e-01 0.000000e+00
    outer loop
      vertex -6.452688e+00 -5.000000e+00 0.000000e+00
      vertex -6.910864e+00 -3.141107e+00 5.000000e+00
      vertex -6.910864e+00 -3.141107e+00 0.000000e+00
    endloop
  endfacet
  facet normal -9.709417e-01 2.393159e-01 0.000000e+00
    outer loop
      vertex -6.452688e+00 -5.000000e+00 5.000000e+00
      vertex -6.452688e+00 -5.000000e+00 0.000000e+00
      vertex -6.910864e+00 -6.858893e+00 5.000000e+00
    endloop
  endfacet
  facet normal -9.709417e-01 2.393159e-01 0.000000e+00
    outer loop
      vertex -6.910864e+00 -6.858893e+00 5.000000e+00
      vertex -6.452688e+00 -5.000000e+00 0.000000e+00
      vertex -6.910864e+00 -6.858893e+00 0.000000e+00
    endloop
  endfacet
  facet normal -7.485107e-01 6.631227e-01 0.000000e+00
    outer loop
      vertex -6.910864e+00 -6.858893e+00 5.000000e+00
      vertex -6.910864e+00 -6.858893e+00 0.000000e+00
      vertex -8.180429e+00 -8.291935e+00 5.000000e+00
    endloop
  endfacet
  facet normal -7.485107e-01 6.631227e-01 0.000000e+00
    outer loop
      vertex -8.180429e+00 -8.291935e+00 5.000000e+00
      vertex -6.910864e+00 -6.858893e+00 0.000000e+00
      vertex -8.180429e+00 -8.291935e+00 0.000000e+00
    endloop
  endfacet
  facet normal -3.546051e-01 9.350162e-01 0.000000e+00
    outer loop
      vertex -8.180429e+00 -8.291935e+00 5.000000e+00
      vertex -8.180429e+00 -8.291935e+00 0.000000e+00
      vertex -9.970541e+00 -8.970835e+00 5.000000e+00
    endloop
  endfacet
  facet normal -3.546051e-01 9.350162e-01 0.000000e+00
    outer loop
      vertex -9.970541e+00 -8.970835e+00 5.000000e+00
      vertex -8.180429e+00 -8.291935e+00 0.000000e+00
      vertex -9.970541e+00 -8.970835e+00 0.000000e+00
    endloop
  endfacet
  facet normal 1.205360e-01 9.927090e-01 0.000000e+00
    outer loop
      vertex -9.970541e+00 -8.970835e+00 5.000000e+00
      vertex -9.970541e+00 -8.970835e+00 0.000000e+00
      vertex -1.187111e+01 -8.740065e+00 5.000000e+00
    endloop
  endfacet
  facet normal 1.205360e-01 9.927090e-01 0.000000e+00
    outer loop
      vertex -1.187111e+01 -8.740065e+00 5.000000e+00
      vertex -9.970541e+00 -8.970835e+00 0.000000e+00
      vertex -1.187111e+01 -8.740065e+00 0.000000e+00
    endloop
  endfacet
  facet normal 5.680649e-01 8.229838e-01 0.000000e+00
    outer loop
      vertex -1.187111e+01 -8.740065e+00 5.000000e+00
      vertex -1.187111e+01 -8.740065e+00 0.000000e+00
      vertex -1.344673e+01 -7.652491e+00 5.000000e+00
    endloop
  endfacet
  facet normal 5.680649e-01 8.229838e-01 0.000000e+00
    outer loop
      vertex -1.344673e+01 -7.652491e+00 5.000000e+00
      vertex -1.187111e+01 -8.740065e+00 0.000000e+00
      vertex -1.344673e+01 -7.652491e+00 0.000000e+00
    endloop
  endfacet
  facet normal 8.854561e-01 4.647231e-01 0.000000e+00
    outer loop
      vertex -1.433646e+01 -5.957263e+00 5.000000e+00
      vertex -1.344673e+01 -7.652491e+00 5.000000e+00
      vertex -1.344673e+01 -7.652491e+00 0.000000e+00
    endloop
  endfacet
  facet normal 8.854561e-01 4.647231e-01 0.000000e+00
    outer loop
      vertex -1.433646e+01 -5.957263e+00 0.000000e+00
      vertex -1.433646e+01 -5.957263e+00 5.000000e+00
      vertex -1.344673e+01 -7.652491e+00 0.000000e+00
    endloop
  endfacet
  facet normal 7.771462e-01 0.000000e+00 -6.293202e-01
    outer loop
      vertex 1.978032e+01 -1.100000e+01 2.192865e+01
      vertex 4.047312e+00 -1.100000e+01 2.500000e+00
      vertex 4.047312e+00 1.500000e+00 2.500000e+00
    endloop
  endfacet
  facet normal 7.771462e-01 0.000000e+00 -6.293202e-01
    outer loop
      vertex 8.452555e+00 1.650000e+01 7.940022e+00
      vertex 1.978032e+01 -1.100000e+01 2.192865e+01
      vertex 8.452555e+00 1.500000e+00 7.940022e+00
    endloop
  endfacet
  facet normal 7.771462e-01 0.000000e+00 -6.293202e-01
    outer loop
      vertex 8.452555e+00 1.500000e+00 7.940022e+00
      vertex 1.978032e+01 -1.100000e+01 2.192865e+01
      vertex 4.047312e+00 1.500000e+00 2.500000e+00
    endloop
  endfacet
  facet normal 7.771462e-01 0.000000e+00 -6.293202e-01
    outer loop
      vertex 4.047312e+00 2.900000e+01 2.500000e+00
      vertex 1.978032e+01 -1.100000e+01 2.192865e+01
      vertex 8.452555e+00 1.650000e+01 7.940022e+00
    endloop
  endfacet
  facet normal 7.771462e-01 0.000000e+00 -6.293202e-01
    outer loop
      vertex 4.047312e+00 2.900000e+01 2.500000e+00
      vertex 8.452555e+00 1.650000e+01 7.940022e+00
      vertex 4.047312e+00 1.650000e+01 2.500000e+00
    endloop
  endfacet
  facet normal 7.771462e-01 0.000000e+00 -6.293202e-01
    outer loop
      vertex 1.978032e+01 2.900000e+01 2.192865e+01
      vertex 1.978032e+01 -1.100000e+01 2.192865e+01
      vertex 4.047312e+00 2.900000e+01 2.500000e+00
    endloop
  endfacet
  facet normal -6.293202e-01 0.000000e+00 -7.771462e-01
    outer loop
      vertex 8.452555e+00 1.650000e+01 7.940022e+00
      vertex 8.452555e+00 1.500000e+00 7.940022e+00
      vertex 7.279064e+00 1.650000e+01 8.890296e+00
    endloop
  endfacet
  facet normal -6.293202e-01 0.000000e+00 -7.771462e-01
    outer loop
      vertex 7.279064e+00 1.650000e+01 8.890296e+00
      vertex 8.452555e+00 1.500000e+00 7.940022e+00
      vertex 7.279064e+00 1.500000e+00 8.890296e+00
    endloop
  endfacet
  facet normal -7.771462e-01 0.000000e+00 6.293202e-01
    outer loop
      vertex 1.602662e+01 1.650000e+01 1.969262e+01
      vertex 7.279064e+00 1.650000e+01 8.890296e+00
      vertex 1.602662e+01 1.500000e+00 1.969262e+01
    endloop
  endfacet
  facet normal -7.771462e-01 0.000000e+00 6.293202e-01
    outer loop
      vertex 1.602662e+01 1.500000e+00 1.969262e+01
      vertex 7.279064e+00 1.650000e+01 8.890296e+00
      vertex 7.279064e+00 1.500000e+00 8.890296e+00
    endloop
  endfacet
  facet normal -6.293202e-01 0.000000e+00 -7.771462e-01
    outer loop
      vertex 1.602662e+01 1.650000e+01 1.969262e+01
      vertex 1.602662e+01 1.500000e+00 1.969262e+01
      vertex 1.525724e+01 1.650000e+01 2.031565e+01
    endloop
  endfacet
  facet normal -6.293202e-01 0.000000e+00 -7.771462e-01
    outer loop
      vertex 1.525724e+01 1.650000e+01 2.031565e+01
      vertex 1.602662e+01 1.500000e+00 1.969262e+01
      vertex 1.525724e+01 1.500000e+00 2.031565e+01
    endloop
  endfacet
  facet normal -7.771462e-01 0.000000e+00 6.293202e-01
    outer loop
      vertex 2.854874e+00 -1.100000e+01 5.000000e+00
      vertex 1.763033e+01 -1.100000e+01 2.324617e+01
      vertex 2.854874e+00 1.500000e+00 5.000000e+00
    endloop
  endfacet
  facet normal -7.771462e-01 0.000000e+00 6.293202e-01
    outer loop
      vertex 1.525724e+01 1.650000e+01 2.031565e+01
      vertex 1.763033e+01 -1.100000e+01 2.324617e+01
      vertex 1.763033e+01 2.900000e+01 2.324617e+01
    endloop
  endfacet
  facet normal -7.771462e-01 0.000000e+00 6.293202e-01
    outer loop
      vertex 2.854874e+00 1.650000e+01 5.000000e+00
      vertex 1.763033e+01 2.900000e+01 2.324617e+01
      vertex 2.854874e+00 2.900000e+01 5.000000e+00
    endloop
  endfacet
  facet normal -7.771462e-01 0.000000e+00 6.293202e-01
    outer loop
      vertex 1.525724e+01 1.500000e+00 2.031565e+01
      vertex 1.763033e+01 -1.100000e+01 2.324617e+01
      vertex 1.525724e+01 1.650000e+01 2.031565e+01
    endloop
  endfacet
  facet normal -7.771462e-01 0.000000e+00 6.293202e-01
    outer loop
      vertex 2.854874e+00 1.500000e+00 5.000000e+00
      vertex 1.763033e+01 -1.100000e+01 2.324617e+01
      vertex 1.525724e+01 1.500000e+00 2.031565e+01
    endloop
  endfacet
  facet normal -7.771462e-01 0.000000e+00 6.293202e-01
    outer loop
      vertex 1.525724e+01 1.650000e+01 2.031565e+01
      vertex 1.763033e+01 2.900000e+01 2.324617e+01
      vertex 2.854874e+00 1.650000e+01 5.000000e+00
    endloop
  endfacet
  facet normal 0.000000e+00 -1.000000e+00 0.000000e+00
    outer loop
      vertex 1.763033e+01 -1.100000e+01 2.324617e+01
      vertex 2.854874e+00 -1.100000e+01 5.000000e+00
      vertex 4.047312e+00 -1.100000e+01 5.000000e+00
    endloop
  endfacet
  facet normal 0.000000e+00 -1.000000e+00 0.000000e+00
    outer loop
      vertex 4.047312e+00 -1.100000e+01 2.500000e+00
      vertex 1.763033e+01 -1.100000e+01 2.324617e+01
      vertex 4.047312e+00 -1.100000e+01 5.000000e+00
    endloop
  endfacet
  facet normal 0.000000e+00 -1.000000e+00 0.000000e+00
    outer loop
      vertex 4.047312e+00 -1.100000e+01 2.500000e+00
      vertex 1.978032e+01 -1.100000e+01 2.192865e+01
      vertex 1.763033e+01 -1.100000e+01 2.324617e+01
    endloop
  endfacet
  facet normal 0.000000e+00 -1.000000e+00 0.000000e+00
    outer loop
      vertex 1.978032e+01 -1.100000e+01 2.192865e+01
      vertex 2.295269e+01 -1.100000e+01 2.905390e+01
      vertex 1.763033e+01 -1.100000e+01 2.324617e+01
    endloop
  endfacet
  facet normal 0.000000e+00 -1.000000e+00 0.000000e+00
    outer loop
      vertex 2.295269e+01 -1.100000e+01 2.905390e+01
      vertex 2.021610e+01 -1.100000e+01 2.905390e+01
      vertex 1.763033e+01 -1.100000e+01 2.324617e+01
    endloop
  endfacet
  facet normal 9.135453e-01 0.000000e+00 -4.067371e-01
    outer loop
      vertex 2.295269e+01 -1.100000e+01 2.905390e+01
      vertex 1.978032e+01 -1.100000e+01 2.192865e+01
      vertex 1.978032e+01 2.900000e+01 2.192865e+01
    endloop
  endfacet
  facet normal 9.135453e-01 0.000000e+00 -4.067371e-01
    outer loop
      vertex 2.295269e+01 2.900000e+01 2.905390e+01
      vertex 2.295269e+01 -1.100000e+01 2.905390e+01
      vertex 1.978032e+01 2.900000e+01 2.192865e+01
    endloop
  endfacet
  facet normal 0.000000e+00 1.000000e+00 0.000000e+00
    outer loop
      vertex 2.854874e+00 2.900000e+01 5.000000e+00
      vertex 1.763033e+01 2.900000e+01 2.324617e+01
      vertex 4.047312e+00 2.900000e+01 5.000000e+00
    endloop
  endfacet
  facet normal 0.000000e+00 1.000000e+00 0.000000e+00
    outer loop
      vertex 2.295269e+01 2.900000e+01 2.905390e+01
      vertex 1.763033e+01 2.900000e+01 2.324617e+01
      vertex 2.021610e+01 2.900000e+01 2.905390e+01
    endloop
  endfacet
  facet normal 0.000000e+00 1.000000e+00 0.000000e+00
    outer loop
      vertex 4.047312e+00 2.900000e+01 5.000000e+00
      vertex 1.763033e+01 2.900000e+01 2.324617e+01
      vertex 2.295269e+01 2.900000e+01 2.905390e+01
    endloop
  endfacet
  facet normal 0.000000e+00 1.000000e+00 0.000000e+00
    outer loop
      vertex 4.047312e+00 2.900000e+01 5.000000e+00
      vertex 2.295269e+01 2.900000e+01 2.905390e+01
      vertex 1.978032e+01 2.900000e+01 2.192865e+01
    endloop
  endfacet
  facet normal 0.000000e+00 1.000000e+00 0.000000e+00
    outer loop
      vertex 4.047312e+00 2.900000e+01 5.000000e+00
      vertex 1.978032e+01 2.900000e+01 2.192865e+01
      vertex 4.047312e+00 2.900000e+01 2.500000e+00
    endloop
  endfacet
  facet normal 1.000000e+00 0.000000e+00 0.000000e+00
    outer loop
      vertex 4.047312e+00 1.650000e+01 2.500000e+00
      vertex 4.047312e+00 1.650000e+01 0.000000e+00
      vertex 4.047312e+00 3.100000e+01 0.000000e+00
    endloop
  endfacet
  facet normal 1.000000e+00 0.000000e+00 0.000000e+00
    outer loop
      vertex 4.047312e+00 2.900000e+01 2.500000e+00
      vertex 4.047312e+00 1.650000e+01 2.500000e+00
      vertex 4.047312e+00 3.100000e+01 0.000000e+00
    endloop
  endfacet
  facet normal 1.000000e+00 0.000000e+00 0.000000e+00
    outer loop
      vertex 4.047312e+00 3.100000e+01 5.000000e+00
      vertex 4.047312e+00 2.900000e+01 2.500000e+00
      vertex 4.047312e+00 3.100000e+01 0.000000e+00
    endloop
  endfacet
  facet normal 1.000000e+00 0.000000e+00 0.000000e+00
    outer loop
      vertex 4.047312e+00 2.900000e+01 5.000000e+00
      vertex 4.047312e+00 2.900000e+01 2.500000e+00
      vertex 4.047312e+00 3.100000e+01 5.000000e+00
    endloop
  endfacet
  facet normal 0.000000e+00 -1.000000e+00 0.000000e+00
    outer loop
      vertex 7.279064e+00 1.650000e+01 8.890296e+00
      vertex 4.047312e+00 1.650000e+01 2.500000e+00
      vertex 8.452555e+00 1.650000e+01 7.940022e+00
    endloop
  endfacet
  facet normal 0.000000e+00 -1.000000e+00 0.000000e+00
    outer loop
      vertex 2.854874e+00 1.650000e+01 5.000000e+00
      vertex 4.047312e+00 1.650000e+01 2.500000e+00
      vertex 7.279064e+00 1.650000e+01 8.890296e+00
    endloop
  endfacet
  facet normal 0.000000e+00 -1.000000e+00 0.000000e+00
    outer loop
      vertex 4.047312e+00 1.650000e+01 0.000000e+00
      vertex 4.047312e+00 1.650000e+01 2.500000e+00
      vertex 2.854874e+00 1.650000e+01 5.000000e+00
    endloop
  endfacet
  facet normal 0.000000e+00 -1.000000e+00 0.000000e+00
    outer loop
      vertex 1.525724e+01 1.650000e+01 2.031565e+01
      vertex 7.279064e+00 1.650000e+01 8.890296e+00
      vertex 1.602662e+01 1.650000e+01 1.969262e+01
    endloop
  endfacet
  facet normal 0.000000e+00 -1.000000e+00 0.000000e+00
    outer loop
      vertex 2.854874e+00 1.650000e+01 5.000000e+00
      vertex 7.279064e+00 1.650000e+01 8.890296e+00
      vertex 1.525724e+01 1.650000e+01 2.031565e+01
    endloop
  endfacet
  facet normal 0.000000e+00 -1.000000e+00 0.000000e+00
    outer loop
      vertex -1.895269e+01 1.650000e+01 5.000000e+00
      vertex 4.047312e+00 1.650000e+01 0.000000e+00
      vertex 2.854874e+00 1.650000e+01 5.000000e+00
    endloop
  endfacet
  facet normal -0.000000e+00 -1.000000e+00 -0.000000e+00
    outer loop
      vertex -1.895269e+01 1.650000e+01 0.000000e+00
      vertex 4.047312e+00 1.650000e+01 0.000000e+00
      vertex -1.895269e+01 1.650000e+01 5.000000e+00
    endloop
  endfacet
  facet normal 0.000000e+00 0.000000e+00 1.000000e+00
    outer loop
      vertex -9.970541e+00 1.902916e+01 5.000000e+00
      vertex -1.895269e+01 1.650000e+01 5.000000e+00
      vertex 2.854874e+00 1.650000e+01 5.000000e+00
    endloop
  endfacet
  facet normal 0.000000e+00 0.000000e+00 1.000000e+00
    outer loop
      vertex 4.047312e+00 2.900000e+01 5.000000e+00
      vertex -1.895269e+01 3.100000e+01 5.000000e+00
      vertex 2.854874e+00 2.900000e+01 5.000000e+00
    endloop
  endfacet
  facet normal 0.000000e+00 0.000000e+00 1.000000e+00
    outer loop
      vertex 4.047312e+00 3.100000e+01 5.000000e+00
      vertex -1.895269e+01 3.100000e+01 5.000000e+00
      vertex 4.047312e+00 2.900000e+01 5.000000e+00
    endloop
  endfacet
  facet normal 0.000000e+00 0.000000e+00 1.000000e+00
    outer loop
      vertex -9.970541e+00 1.902916e+01 5.000000e+00
      vertex -1.187111e+01 1.925993e+01 5.000000e+00
      vertex -1.895269e+01 1.650000e+01 5.000000e+00
    endloop
  endfacet
  facet normal 0.000000e+00 0.000000e+00 1.000000e+00
    outer loop
      vertex -1.895269e+01 3.100000e+01 5.000000e+00
      vertex -1.895269e+01 1.650000e+01 5.000000e+00
      vertex -1.433646e+01 2.204274e+01 5.000000e+00
    endloop
  endfacet
  facet normal 0.000000e+00 0.000000e+00 1.000000e+00
    outer loop
      vertex -1.895269e+01 3.100000e+01 5.000000e+00
      vertex -1.433646e+01 2.204274e+01 5.000000e+00
      vertex -1.433646e+01 2.395726e+01 5.000000e+00
    endloop
  endfacet
  facet normal 0.000000e+00 0.000000e+00 1.000000e+00
    outer loop
      vertex -6.910864e+00 2.485889e+01 5.000000e+00
      vertex -6.452688e+00 2.300000e+01 5.000000e+00
      vertex 2.854874e+00 1.650000e+01 5.000000e+00
    endloop
  endfacet
  facet normal 0.000000e+00 0.000000e+00 1.000000e+00
    outer loop
      vertex -1.895269e+01 3.100000e+01 5.000000e+00
      vertex -1.433646e+01 2.395726e+01 5.000000e+00
      vertex -1.344673e+01 2.565249e+01 5.000000e+00
    endloop
  endfacet
  facet normal 0.000000e+00 0.000000e+00 1.000000e+00
    outer loop
      vertex -6.910864e+00 2.114111e+01 5.000000e+00
      vertex -8.180429e+00 1.970807e+01 5.000000e+00
      vertex 2.854874e+00 1.650000e+01 5.000000e+00
    endloop
  endfacet
  facet normal 0.000000e+00 0.000000e+00 1.000000e+00
    outer loop
      vertex 2.854874e+00 2.900000e+01 5.000000e+00
      vertex -1.895269e+01 3.100000e+01 5.000000e+00
      vertex -1.187111e+01 2.674007e+01 5.000000e+00
    endloop
  endfacet
  facet normal 0.000000e+00 0.000000e+00 1.000000e+00
    outer loop
      vertex 2.854874e+00 2.900000e+01 5.000000e+00
      vertex -1.187111e+01 2.674007e+01 5.000000e+00
      vertex -9.970541e+00 2.697084e+01 5.000000e+00
    endloop
  endfacet
  facet normal 0.000000e+00 0.000000e+00 1.000000e+00
    outer loop
      vertex 2.854874e+00 2.900000e+01 5.000000e+00
      vertex -8.180429e+00 2.629193e+01 5.000000e+00
      vertex 2.854874e+00 1.650000e+01 5.000000e+00
    endloop
  endfacet
  facet normal 0.000000e+00 0.000000e+00 1.000000e+00
    outer loop
      vertex 2.854874e+00 2.900000e+01 5.000000e+00
      vertex -9.970541e+00 2.697084e+01 5.000000e+00
      vertex -8.180429e+00 2.629193e+01 5.000000e+00
    endloop
  endfacet
  facet normal 0.000000e+00 0.000000e+00 1.000000e+00
    outer loop
      vertex -8.180429e+00 2.629193e+01 5.000000e+00
      vertex -6.910864e+00 2.485889e+01 5.000000e+00
      vertex 2.854874e+00 1.650000e+01 5.000000e+00
    endloop
  endfacet
  facet normal 0.000000e+00 0.000000e+00 1.000000e+00
    outer loop
      vertex -8.180429e+00 1.970807e+01 5.000000e+00
      vertex -9.970541e+00 1.902916e+01 5.000000e+00
      vertex 2.854874e+00 1.650000e+01 5.000000e+00
    endloop
  endfacet
  facet normal 0.000000e+00 0.000000e+00 1.000000e+00
    outer loop
      vertex -1.344673e+01 2.034751e+01 5.000000e+00
      vertex -1.895269e+01 1.650000e+01 5.000000e+00
      vertex -1.187111e+01 1.925993e+01 5.000000e+00
    endloop
  endfacet
  facet normal 0.000000e+00 0.000000e+00 1.000000e+00
    outer loop
      vertex -1.433646e+01 2.204274e+01 5.000000e+00
      vertex -1.895269e+01 1.650000e+01 5.000000e+00
      vertex -1.344673e+01 2.034751e+01 5.000000e+00
    endloop
  endfacet
  facet normal 0.000000e+00 0.000000e+00 1.000000e+00
    outer loop
      vertex -1.344673e+01 2.565249e+01 5.000000e+00
      vertex -1.187111e+01 2.674007e+01 5.000000e+00
      vertex -1.895269e+01 3.100000e+01 5.000000e+00
    endloop
  endfacet
  facet normal 0.000000e+00 0.000000e+00 1.000000e+00
    outer loop
      vertex -6.452688e+00 2.300000e+01 5.000000e+00
      vertex -6.910864e+00 2.114111e+01 5.000000e+00
      vertex 2.854874e+00 1.650000e+01 5.000000e+00
    endloop
  endfacet
  facet normal -9.135453e-01 0.000000e+00 4.067371e-01
    outer loop
      vertex 1.763033e+01 -1.100000e+01 2.324617e+01
      vertex 2.021610e+01 -1.100000e+01 2.905390e+01
      vertex 1.763033e+01 2.900000e+01 2.324617e+01
    endloop
  endfacet
  facet normal -9.135453e-01 0.000000e+00 4.067371e-01
    outer loop
      vertex 1.763033e+01 2.900000e+01 2.324617e+01
      vertex 2.021610e+01 -1.100000e+01 2.905390e+01
      vertex 2.021610e+01 2.900000e+01 2.905390e+01
    endloop
  endfacet
  facet normal 0.000000e+00 0.000000e+00 1.000000e+00
    outer loop
      vertex 2.295269e+01 -1.100000e+01 2.905390e+01
      vertex 2.295269e+01 2.900000e+01 2.905390e+01
      vertex 2.021610e+01 2.900000e+01 2.905390e+01
    endloop
  endfacet
  facet normal 0.000000e+00 0.000000e+00 1.000000e+00
    outer loop
      vertex 2.021610e+01 -1.100000e+01 2.905390e+01
      vertex 2.295269e+01 -1.100000e+01 2.905390e+01
      vertex 2.021610e+01 2.900000e+01 2.905390e+01
    endloop
  endfacet
  facet normal 0.000000e+00 1.000000e+00 0.000000e+00
    outer loop
      vertex -1.895269e+01 3.100000e+01 0.000000e+00
      vertex -1.895269e+01 3.100000e+01 5.000000e+00
      vertex 4.047312e+00 3.100000e+01 0.000000e+00
    endloop
  endfacet
  facet normal 0.000000e+00 1.000000e+00 0.000000e+00
    outer loop
      vertex 4.047312e+00 3.100000e+01 0.000000e+00
      vertex -1.895269e+01 3.100000e+01 5.000000e+00
      vertex 4.047312e+00 3.100000e+01 5.000000e+00
    endloop
  endfacet
  facet normal 0.000000e+00 0.000000e+00 -1.000000e+00
    outer loop
      vertex -8.180429e+00 2.629193e+01 0.000000e+00
      vertex -1.895269e+01 3.100000e+01 0.000000e+00
      vertex 4.047312e+00 3.100000e+01 0.000000e+00
    endloop
  endfacet
  facet normal 0.000000e+00 0.000000e+00 -1.000000e+00
    outer loop
      vertex -1.895269e+01 1.650000e+01 0.000000e+00
      vertex -1.895269e+01 3.100000e+01 0.000000e+00
      vertex -1.433646e+01 2.395726e+01 0.000000e+00
    endloop
  endfacet
  facet normal 0.000000e+00 0.000000e+00 -1.000000e+00
    outer loop
      vertex -1.895269e+01 1.650000e+01 0.000000e+00
      vertex -1.433646e+01 2.395726e+01 0.000000e+00
      vertex -1.433646e+01 2.204274e+01 0.000000e+00
    endloop
  endfacet
  facet normal 0.000000e+00 0.000000e+00 -1.000000e+00
    outer loop
      vertex -1.895269e+01 1.650000e+01 0.000000e+00
      vertex -1.433646e+01 2.204274e+01 0.000000e+00
      vertex -1.344673e+01 2.034751e+01 0.000000e+00
    endloop
  endfacet
  facet normal 0.000000e+00 0.000000e+00 -1.000000e+00
    outer loop
      vertex -1.895269e+01 1.650000e+01 0.000000e+00
      vertex -1.344673e+01 2.034751e+01 0.000000e+00
      vertex -1.187111e+01 1.925993e+01 0.000000e+00
    endloop
  endfacet
  facet normal 0.000000e+00 0.000000e+00 -1.000000e+00
    outer loop
      vertex -1.895269e+01 1.650000e+01 0.000000e+00
      vertex -1.187111e+01 1.925993e+01 0.000000e+00
      vertex 4.047312e+00 1.650000e+01 0.000000e+00
    endloop
  endfacet
  facet normal 0.000000e+00 0.000000e+00 -1.000000e+00
    outer loop
      vertex -1.187111e+01 1.925993e+01 0.000000e+00
      vertex -9.970541e+00 1.902916e+01 0.000000e+00
      vertex 4.047312e+00 1.650000e+01 0.000000e+00
    endloop
  endfacet
  facet normal 0.000000e+00 0.000000e+00 -1.000000e+00
    outer loop
      vertex -6.910864e+00 2.114111e+01 0.000000e+00
      vertex 4.047312e+00 1.650000e+01 0.000000e+00
      vertex -8.180429e+00 1.970807e+01 0.000000e+00
    endloop
  endfacet
  facet normal 0.000000e+00 0.000000e+00 -1.000000e+00
    outer loop
      vertex -6.910864e+00 2.485889e+01 0.000000e+00
      vertex 4.047312e+00 1.650000e+01 0.000000e+00
      vertex -6.452688e+00 2.300000e+01 0.000000e+00
    endloop
  endfacet
  facet normal 0.000000e+00 0.000000e+00 -1.000000e+00
    outer loop
      vertex -6.910864e+00 2.114111e+01 0.000000e+00
      vertex -6.452688e+00 2.300000e+01 0.000000e+00
      vertex 4.047312e+00 1.650000e+01 0.000000e+00
    endloop
  endfacet
  facet normal 0.000000e+00 0.000000e+00 -1.000000e+00
    outer loop
      vertex -1.344673e+01 2.565249e+01 0.000000e+00
      vertex -1.895269e+01 3.100000e+01 0.000000e+00
      vertex -1.187111e+01 2.674007e+01 0.000000e+00
    endloop
  endfacet
  facet normal 0.000000e+00 0.000000e+00 -1.000000e+00
    outer loop
      vertex 4.047312e+00 1.650000e+01 0.000000e+00
      vertex -6.910864e+00 2.485889e+01 0.000000e+00
      vertex 4.047312e+00 3.100000e+01 0.000000e+00
    endloop
  endfacet
  facet normal -0.000000e+00 -0.000000e+00 -1.000000e+00
    outer loop
      vertex -9.970541e+00 2.697084e+01 0.000000e+00
      vertex -1.895269e+01 3.100000e+01 0.000000e+00
      vertex -8.180429e+00 2.629193e+01 0.000000e+00
    endloop
  endfacet
  facet normal 0.000000e+00 0.000000e+00 -1.000000e+00
    outer loop
      vertex -6.910864e+00 2.485889e+01 0.000000e+00
      vertex -8.180429e+00 2.629193e+01 0.000000e+00
      vertex 4.047312e+00 3.100000e+01 0.000000e+00
    endloop
  endfacet
  facet normal 0.000000e+00 0.000000e+00 -1.000000e+00
    outer loop
      vertex -1.187111e+01 2.674007e+01 0.000000e+00
      vertex -1.895269e+01 3.100000e+01 0.000000e+00
      vertex -9.970541e+00 2.697084e+01 0.000000e+00
    endloop
  endfacet
  facet normal 0.000000e+00 0.000000e+00 -1.000000e+00
    outer loop
      vertex -1.433646e+01 2.395726e+01 0.000000e+00
      vertex -1.895269e+01 3.100000e+01 0.000000e+00
      vertex -1.344673e+01 2.565249e+01 0.000000e+00
    endloop
  endfacet
  facet normal 0.000000e+00 0.000000e+00 -1.000000e+00
    outer loop
      vertex -8.180429e+00 1.970807e+01 0.000000e+00
      vertex 4.047312e+00 1.650000e+01 0.000000e+00
      vertex -9.970541e+00 1.902916e+01 0.000000e+00
    endloop
  endfacet
  facet normal -1.000000e+00 -0.000000e+00 -0.000000e+00
    outer loop
      vertex -1.895269e+01 1.650000e+01 0.000000e+00
      vertex -1.895269e+01 1.650000e+01 5.000000e+00
      vertex -1.895269e+01 3.100000e+01 0.000000e+00
    endloop
  endfacet
  facet normal -1.000000e+00 0.000000e+00 0.000000e+00
    outer loop
      vertex -1.895269e+01 3.100000e+01 0.000000e+00
      vertex -1.895269e+01 1.650000e+01 5.000000e+00
      vertex -1.895269e+01 3.100000e+01 5.000000e+00
    endloop
  endfacet
  facet normal 1.000000e+00 0.000000e+00 0.000000e+00
    outer loop
      vertex -1.433646e+01 2.395726e+01 0.000000e+00
      vertex -1.433646e+01 2.395726e+01 5.000000e+00
      vertex -1.433646e+01 2.204274e+01 5.000000e+00
    endloop
  endfacet
  facet normal 1.000000e+00 0.000000e+00 0.000000e+00
    outer loop
      vertex -1.433646e+01 2.204274e+01 0.000000e+00
      vertex -1.433646e+01 2.395726e+01 0.000000e+00
      vertex -1.433646e+01 2.204274e+01 5.000000e+00
    endloop
  endfacet
  facet normal 8.854561e-01 4.647231e-01 0.000000e+00
    outer loop
      vertex -1.433646e+01 2.204274e+01 5.000000e+00
      vertex -1.344673e+01 2.034751e+01 5.000000e+00
      vertex -1.344673e+01 2.034751e+01 0.000000e+00
    endloop
  endfacet
  facet normal 8.854561e-01 4.647231e-01 0.000000e+00
    outer loop
      vertex -1.433646e+01 2.204274e+01 0.000000e+00
      vertex -1.433646e+01 2.204274e+01 5.000000e+00
      vertex -1.344673e+01 2.034751e+01 0.000000e+00
    endloop
  endfacet
  facet normal 5.680649e-01 8.229838e-01 0.000000e+00
    outer loop
      vertex -1.187111e+01 1.925993e+01 5.000000e+00
      vertex -1.187111e+01 1.925993e+01 0.000000e+00
      vertex -1.344673e+01 2.034751e+01 5.000000e+00
    endloop
  endfacet
  facet normal 5.680649e-01 8.229838e-01 0.000000e+00
    outer loop
      vertex -1.344673e+01 2.034751e+01 5.000000e+00
      vertex -1.187111e+01 1.925993e+01 0.000000e+00
      vertex -1.344673e+01 2.034751e+01 0.000000e+00
    endloop
  endfacet
  facet normal 1.205360e-01 9.927090e-01 0.000000e+00
    outer loop
      vertex -9.970541e+00 1.902916e+01 5.000000e+00
      vertex -9.970541e+00 1.902916e+01 0.000000e+00
      vertex -1.187111e+01 1.925993e+01 5.000000e+00
    endloop
  endfacet
  facet normal 1.205360e-01 9.927090e-01 0.000000e+00
    outer loop
      vertex -1.187111e+01 1.925993e+01 5.000000e+00
      vertex -9.970541e+00 1.902916e+01 0.000000e+00
      vertex -1.187111e+01 1.925993e+01 0.000000e+00
    endloop
  endfacet
  facet normal -3.546051e-01 9.350162e-01 0.000000e+00
    outer loop
      vertex -8.180429e+00 1.970807e+01 5.000000e+00
      vertex -8.180429e+00 1.970807e+01 0.000000e+00
      vertex -9.970541e+00 1.902916e+01 5.000000e+00
    endloop
  endfacet
  facet normal -3.546051e-01 9.350162e-01 0.000000e+00
    outer loop
      vertex -9.970541e+00 1.902916e+01 5.000000e+00
      vertex -8.180429e+00 1.970807e+01 0.000000e+00
      vertex -9.970541e+00 1.902916e+01 0.000000e+00
    endloop
  endfacet
  facet normal -7.485107e-01 6.631227e-01 0.000000e+00
    outer loop
      vertex -6.910864e+00 2.114111e+01 5.000000e+00
      vertex -6.910864e+00 2.114111e+01 0.000000e+00
      vertex -8.180429e+00 1.970807e+01 5.000000e+00
    endloop
  endfacet
  facet normal -7.485107e-01 6.631227e-01 0.000000e+00
    outer loop
      vertex -8.180429e+00 1.970807e+01 5.000000e+00
      vertex -6.910864e+00 2.114111e+01 0.000000e+00
      vertex -8.180429e+00 1.970807e+01 0.000000e+00
    endloop
  endfacet
  facet normal -9.709417e-01 2.393159e-01 0.000000e+00
    outer loop
      vertex -6.452688e+00 2.300000e+01 5.000000e+00
      vertex -6.452688e+00 2.300000e+01 0.000000e+00
      vertex -6.910864e+00 2.114111e+01 5.000000e+00
    endloop
  endfacet
  facet normal -9.709417e-01 2.393159e-01 0.000000e+00
    outer loop
      vertex -6.910864e+00 2.114111e+01 5.000000e+00
      vertex -6.452688e+00 2.300000e+01 0.000000e+00
      vertex -6.910864e+00 2.114111e+01 0.000000e+00
    endloop
  endfacet
  facet normal -9.709417e-01 -2.393159e-01 0.000000e+00
    outer loop
      vertex -6.452688e+00 2.300000e+01 5.000000e+00
      vertex -6.910864e+00 2.485889e+01 5.000000e+00
      vertex -6.452688e+00 2.300000e+01 0.000000e+00
    endloop
  endfacet
  facet normal -9.709417e-01 -2.393159e-01 0.000000e+00
    outer loop
      vertex -6.452688e+00 2.300000e+01 0.000000e+00
      vertex -6.910864e+00 2.485889e+01 5.000000e+00
      vertex -6.910864e+00 2.485889e+01 0.000000e+00
    endloop
  endfacet
  facet normal -7.485107e-01 -6.631227e-01 0.000000e+00
    outer loop
      vertex -6.910864e+00 2.485889e+01 5.000000e+00
      vertex -8.180429e+00 2.629193e+01 5.000000e+00
      vertex -6.910864e+00 2.485889e+01 0.000000e+00
    endloop
  endfacet
  facet normal -7.485107e-01 -6.631227e-01 0.000000e+00
    outer loop
      vertex -6.910864e+00 2.485889e+01 0.000000e+00
      vertex -8.180429e+00 2.629193e+01 5.000000e+00
      vertex -8.180429e+00 2.629193e+01 0.000000e+00
    endloop
  endfacet
  facet normal -3.546051e-01 -9.350162e-01 -0.000000e+00
    outer loop
      vertex -8.180429e+00 2.629193e+01 0.000000e+00
      vertex -8.180429e+00 2.629193e+01 5.000000e+00
      vertex -9.970541e+00 2.697084e+01 5.000000e+00
    endloop
  endfacet
  facet normal -3.546051e-01 -9.350162e-01 -0.000000e+00
    outer loop
      vertex -9.970541e+00 2.697084e+01 0.000000e+00
      vertex -8.180429e+00 2.629193e+01 0.000000e+00
      vertex -9.970541e+00 2.697084e+01 5.000000e+00
    endloop
  endfacet
  facet normal 1.205360e-01 -9.927090e-01 0.000000e+00
    outer loop
      vertex -9.970541e+00 2.697084e+01 0.000000e+00
      vertex -9.970541e+00 2.697084e+01 5.000000e+00
      vertex -1.187111e+01 2.674007e+01 5.000000e+00
    endloop
  endfacet
  facet normal 1.205360e-01 -9.927090e-01 0.000000e+00
    outer loop
      vertex -1.187111e+01 2.674007e+01 0.000000e+00
      vertex -9.970541e+00 2.697084e+01 0.000000e+00
      vertex -1.187111e+01 2.674007e+01 5.000000e+00
    endloop
  endfacet
  facet normal 5.680649e-01 -8.229838e-01 0.000000e+00
    outer loop
      vertex -1.187111e+01 2.674007e+01 0.000000e+00
      vertex -1.187111e+01 2.674007e+01 5.000000e+00
      vertex -1.344673e+01 2.565249e+01 5.000000e+00
    endloop
  endfacet
  facet normal 5.680649e-01 -8.229838e-01 0.000000e+00
    outer loop
      vertex -1.344673e+01 2.565249e+01 0.000000e+00
      vertex -1.187111e+01 2.674007e+01 0.000000e+00
      vertex -1.344673e+01 2.565249e+01 5.000000e+00
    endloop
  endfacet
  facet normal 8.854561e-01 -4.647231e-01 0.000000e+00
    outer loop
      vertex -1.344673e+01 2.565249e+01 0.000000e+00
      vertex -1.344673e+01 2.565249e+01 5.000000e+00
      vertex -1.433646e+01 2.395726e+01 5.000000e+00
    endloop
  endfacet
  facet normal 8.854561e-01 -4.647231e-01 0.000000e+00
    outer loop
      vertex -1.433646e+01 2.395726e+01 0.000000e+00
      vertex -1.344673e+01 2.565249e+01 0.000000e+00
      vertex -1.433646e+01 2.395726e+01 5.000000e+00
    endloop
  endfacet
  facet normal -0.000000e+00 -0.000000e+00 -1.000000e+00
    outer loop
      vertex -2.295269e+01 -2.800000e+01 8.000000e+00
      vertex -2.295269e+01 -2.000000e+01 8.000000e+00
      vertex -1.795269e+01 -2.800000e+01 8.000000e+00
    endloop
  endfacet
  facet normal NaN NaN NaN
    outer loop
      vertex -2.295269e+01 -2.800000e+01 8.000000e+00
      vertex -1.795269e+01 -2.800000e+01 8.000000e+00
      vertex -1.645269e+01 -2.800000e+01 8.000000e+00
    endloop
  endfacet
  facet normal -0.000000e+00 -0.000000e+00 -1.000000e+00
    outer loop
      vertex -1.795269e+01 -2.800000e+01 8.000000e+00
      vertex -2.295269e+01 -2.000000e+01 8.000000e+00
      vertex -1.795269e+01 -2.000000e+01 8.000000e+00
    endloop
  endfacet
  facet normal -7.327933e-01 0.000000e+00 6.804513e-01
    outer loop
      vertex -2.295269e+01 -2.800000e+01 8.000000e+00
      vertex -1.923840e+01 -2.800000e+01 1.200000e+01
      vertex -2.295269e+01 -2.000000e+01 8.000000e+00
    endloop
  endfacet
  facet normal -7.327933e-01 0.000000e+00 6.804513e-01
    outer loop
      vertex -2.295269e+01 -2.000000e+01 8.000000e+00
      vertex -1.923840e+01 -2.800000e+01 1.200000e+01
      vertex -1.923840e+01 -2.000000e+01 1.200000e+01
    endloop
  endfacet
  facet normal -0.000000e+00 -1.000000e+00 -0.000000e+00
    outer loop
      vertex -1.795269e+01 -2.800000e+01 8.666667e+00
      vertex -2.295269e+01 -2.800000e+01 8.000000e+00
      vertex -1.645269e+01 -2.800000e+01 8.000000e+00
    endloop
  endfacet
  facet normal 0.000000e+00 -1.000000e+00 0.000000e+00
    outer loop
      vertex -1.795269e+01 -2.800000e+01 8.666667e+00
      vertex -1.795269e+01 -2.800000e+01 1.200000e+01
      vertex -1.923840e+01 -2.800000e+01 1.200000e+01
    endloop
  endfacet
  facet normal 0.000000e+00 -1.000000e+00 0.000000e+00
    outer loop
      vertex -1.923840e+01 -2.800000e+01 1.200000e+01
      vertex -2.295269e+01 -2.800000e+01 8.000000e+00
      vertex -1.795269e+01 -2.800000e+01 8.666667e+00
    endloop
  endfacet
  facet normal 0.000000e+00 -1.000000e+00 0.000000e+00
    outer loop
      vertex -1.645269e+01 -2.800000e+01 9.666667e+00
      vertex -1.795269e+01 -2.800000e+01 8.666667e+00
      vertex -1.645269e+01 -2.800000e+01 8.000000e+00
    endloop
  endfacet
  facet normal 0.000000e+00 -1.000000e+00 0.000000e+00
    outer loop
      vertex -1.795269e+01 -2.800000e+01 8.000000e+00
      vertex -1.795269e+01 -2.800000e+01 1.000000e+00
      vertex -1.545269e+01 -2.800000e+01 1.000000e+00
    endloop
  endfacet
  facet normal 0.000000e+00 -1.000000e+00 0.000000e+00
    outer loop
      vertex -1.645269e+01 -2.800000e+01 8.000000e+00
      vertex -1.795269e+01 -2.800000e+01 8.000000e+00
      vertex -1.545269e+01 -2.800000e+01 1.000000e+00
    endloop
  endfacet
  facet normal 0.000000e+00 -1.000000e+00 0.000000e+00
    outer loop
      vertex -1.795269e+01 -2.800000e+01 1.200000e+01
      vertex -1.795269e+01 -2.800000e+01 8.666667e+00
      vertex -1.545269e+01 -2.800000e+01 1.200000e+01
    endloop
  endfacet
  facet normal 0.000000e+00 -1.000000e+00 0.000000e+00
    outer loop
      vertex -1.545269e+01 -2.800000e+01 1.200000e+01
      vertex -1.645269e+01 -2.800000e+01 9.666667e+00
      vertex -1.545269e+01 -2.800000e+01 1.000000e+00
    endloop
  endfacet
  facet normal 0.000000e+00 -1.000000e+00 0.000000e+00
    outer loop
      vertex -1.645269e+01 -2.800000e+01 9.666667e+00
      vertex -1.645269e+01 -2.800000e+01 8.000000e+00
      vertex -1.545269e+01 -2.800000e+01 1.000000e+00
    endloop
  endfacet
  facet normal 0.000000e+00 -1.000000e+00 0.000000e+00
    outer loop
      vertex -1.795269e+01 -2.800000e+01 8.666667e+00
      vertex -1.645269e+01 -2.800000e+01 9.666667e+00
      vertex -1.545269e+01 -2.800000e+01 1.200000e+01
    endloop
  endfacet
  facet normal -1.000000e+00 -0.000000e+00 -0.000000e+00
    outer loop
      vertex -1.795269e+01 -2.800000e+01 1.000000e+00
      vertex -1.795269e+01 -2.800000e+01 8.000000e+00
      vertex -1.795269e+01 -2.000000e+01 1.000000e+00
    endloop
  endfacet
  facet normal -1.000000e+00 0.000000e+00 0.000000e+00
    outer loop
      vertex -1.795269e+01 -2.000000e+01 1.000000e+00
      vertex -1.795269e+01 -2.800000e+01 8.000000e+00
      vertex -1.795269e+01 -2.000000e+01 8.000000e+00
    endloop
  endfacet
  facet normal NaN NaN NaN
    outer loop
      vertex -1.795269e+01 -2.000000e+01 1.000000e+00
      vertex -1.795269e+01 -2.000000e+01 8.000000e+00
      vertex -1.795269e+01 -2.000000e+01 8.666667e+00
    endloop
  endfacet
  facet normal 0.000000e+00 1.000000e+00 0.000000e+00
    outer loop
      vertex -2.295269e+01 -2.000000e+01 8.000000e+00
      vertex -1.923840e+01 -2.000000e+01 1.200000e+01
      vertex -1.795269e+01 -2.000000e+01 8.000000e+00
    endloop
  endfacet
  facet normal 0.000000e+00 1.000000e+00 0.000000e+00
    outer loop
      vertex -1.795269e+01 -2.000000e+01 8.666667e+00
      vertex -1.923840e+01 -2.000000e+01 1.200000e+01
      vertex -1.645269e+01 -2.000000e+01 1.200000e+01
    endloop
  endfacet
  facet normal 0.000000e+00 1.000000e+00 0.000000e+00
    outer loop
      vertex -1.795269e+01 -2.000000e+01 8.000000e+00
      vertex -1.923840e+01 -2.000000e+01 1.200000e+01
      vertex -1.795269e+01 -2.000000e+01 8.666667e+00
    endloop
  endfacet
  facet normal 0.000000e+00 1.000000e+00 0.000000e+00
    outer loop
      vertex -1.795269e+01 -2.000000e+01 8.666667e+00
      vertex -1.645269e+01 -2.000000e+01 1.200000e+01
      vertex -1.645269e+01 -2.000000e+01 9.666667e+00
    endloop
  endfacet
  facet normal 0.000000e+00 0.000000e+00 1.000000e+00
    outer loop
      vertex -1.923840e+01 -2.000000e+01 1.200000e+01
      vertex -1.923840e+01 -2.800000e+01 1.200000e+01
      vertex -1.795269e+01 -2.800000e+01 1.200000e+01
    endloop
  endfacet
  facet normal 0.000000e+00 0.000000e+00 1.000000e+00
    outer loop
      vertex -1.545269e+01 -2.800000e+01 1.200000e+01
      vertex -1.923840e+01 -2.000000e+01 1.200000e+01
      vertex -1.795269e+01 -2.800000e+01 1.200000e+01
    endloop
  endfacet
  facet normal 0.000000e+00 0.000000e+00 1.000000e+00
    outer loop
      vertex -1.545269e+01 -2.800000e+01 1.200000e+01
      vertex -1.645269e+01 -2.000000e+01 1.200000e+01
      vertex -1.923840e+01 -2.000000e+01 1.200000e+01
    endloop
  endfacet
  facet normal 0.000000e+00 0.000000e+00 1.000000e+00
    outer loop
      vertex -1.545269e+01 -2.800000e+01 1.200000e+01
      vertex -1.545269e+01 -2.000000e+01 1.200000e+01
      vertex -1.645269e+01 -2.000000e+01 1.200000e+01
    endloop
  endfacet
  facet normal 1.000000e+00 0.000000e+00 0.000000e+00
    outer loop
      vertex -1.545269e+01 -2.800000e+01 1.200000e+01
      vertex -1.545269e+01 -2.800000e+01 1.000000e+00
      vertex -1.545269e+01 -2.525000e+01 1.000000e+00
    endloop
  endfacet
  facet normal 1.000000e+00 0.000000e+00 0.000000e+00
    outer loop
      vertex -1.545269e+01 -2.275000e+01 7.500000e+00
      vertex -1.545269e+01 -2.800000e+01 1.200000e+01
      vertex -1.545269e+01 -2.525000e+01 7.500000e+00
    endloop
  endfacet
  facet normal 1.000000e+00 0.000000e+00 0.000000e+00
    outer loop
      vertex -1.545269e+01 -2.525000e+01 7.500000e+00
      vertex -1.545269e+01 -2.800000e+01 1.200000e+01
      vertex -1.545269e+01 -2.525000e+01 1.000000e+00
    endloop
  endfacet
  facet normal 1.000000e+00 0.000000e+00 0.000000e+00
    outer loop
      vertex -1.545269e+01 -2.000000e+01 1.200000e+01
      vertex -1.545269e+01 -2.800000e+01 1.200000e+01
      vertex -1.545269e+01 -2.275000e+01 7.500000e+00
    endloop
  endfacet
  facet normal 1.000000e+00 0.000000e+00 0.000000e+00
    outer loop
      vertex -1.545269e+01 -2.000000e+01 1.000000e+00
      vertex -1.545269e+01 -2.275000e+01 7.500000e+00
      vertex -1.545269e+01 -2.275000e+01 1.000000e+00
    endloop
  endfacet
  facet normal 1.000000e+00 0.000000e+00 0.000000e+00
    outer loop
      vertex -1.545269e+01 -2.000000e+01 1.200000e+01
      vertex -1.545269e+01 -2.275000e+01 7.500000e+00
      vertex -1.545269e+01 -2.000000e+01 1.000000e+00
    endloop
  endfacet
  facet normal 0.000000e+00 0.000000e+00 1.000000e+00
    outer loop
      vertex -1.795269e+01 -2.800000e+01 1.000000e+00
      vertex -1.895269e+01 -3.100000e+01 1.000000e+00
      vertex -4.952688e+00 -3.100000e+01 1.000000e+00
    endloop
  endfacet
  facet normal 0.000000e+00 0.000000e+00 1.000000e+00
    outer loop
      vertex -8.952688e+00 -2.525000e+01 1.000000e+00
      vertex -1.545269e+01 -2.525000e+01 1.000000e+00
      vertex -4.952688e+00 -3.100000e+01 1.000000e+00
    endloop
  endfacet
  facet normal 0.000000e+00 0.000000e+00 1.000000e+00
    outer loop
      vertex -1.545269e+01 -2.800000e+01 1.000000e+00
      vertex -1.795269e+01 -2.800000e+01 1.000000e+00
      vertex -4.952688e+00 -3.100000e+01 1.000000e+00
    endloop
  endfacet
  facet normal 0.000000e+00 0.000000e+00 1.000000e+00
    outer loop
      vertex -1.895269e+01 -1.600000e+01 1.000000e+00
      vertex -1.895269e+01 -3.100000e+01 1.000000e+00
      vertex -1.795269e+01 -2.800000e+01 1.000000e+00
    endloop
  endfacet
  facet normal 0.000000e+00 0.000000e+00 1.000000e+00
    outer loop
      vertex -1.895269e+01 -1.600000e+01 1.000000e+00
      vertex -1.795269e+01 -2.800000e+01 1.000000e+00
      vertex -1.795269e+01 -2.000000e+01 1.000000e+00
    endloop
  endfacet
  facet normal 0.000000e+00 0.000000e+00 1.000000e+00
    outer loop
      vertex -1.895269e+01 -1.600000e+01 1.000000e+00
      vertex -1.795269e+01 -2.000000e+01 1.000000e+00
      vertex -1.545269e+01 -2.000000e+01 1.000000e+00
    endloop
  endfacet
  facet normal 0.000000e+00 0.000000e+00 1.000000e+00
    outer loop
      vertex -4.952688e+00 -1.600000e+01 1.000000e+00
      vertex -8.952688e+00 -2.275000e+01 1.000000e+00
      vertex -4.952688e+00 -3.100000e+01 1.000000e+00
    endloop
  endfacet
  facet normal 0.000000e+00 0.000000e+00 1.000000e+00
    outer loop
      vertex -4.952688e+00 -1.600000e+01 1.000000e+00
      vertex -1.895269e+01 -1.600000e+01 1.000000e+00
      vertex -8.952688e+00 -2.275000e+01 1.000000e+00
    endloop
  endfacet
  facet normal 0.000000e+00 0.000000e+00 1.000000e+00
    outer loop
      vertex -8.952688e+00 -2.275000e+01 1.000000e+00
      vertex -8.952688e+00 -2.525000e+01 1.000000e+00
      vertex -4.952688e+00 -3.100000e+01 1.000000e+00
    endloop
  endfacet
  facet normal 0.000000e+00 0.000000e+00 1.000000e+00
    outer loop
      vertex -1.545269e+01 -2.525000e+01 1.000000e+00
      vertex -1.545269e+01 -2.800000e+01 1.000000e+00
      vertex -4.952688e+00 -3.100000e+01 1.000000e+00
    endloop
  endfacet
  facet normal 0.000000e+00 0.000000e+00 1.000000e+00
    outer loop
      vertex -1.545269e+01 -2.000000e+01 1.000000e+00
      vertex -8.952688e+00 -2.275000e+01 1.000000e+00
      vertex -1.895269e+01 -1.600000e+01 1.000000e+00
    endloop
  endfacet
  facet normal 0.000000e+00 0.000000e+00 1.000000e+00
    outer loop
      vertex -1.545269e+01 -2.275000e+01 1.000000e+00
      vertex -8.952688e+00 -2.275000e+01 1.000000e+00
      vertex -1.545269e+01 -2.000000e+01 1.000000e+00
    endloop
  endfacet
  facet normal 0.000000e+00 1.000000e+00 0.000000e+00
    outer loop
      vertex -1.795269e+01 -2.000000e+01 1.000000e+00
      vertex -1.795269e+01 -2.000000e+01 8.666667e+00
      vertex -1.545269e+01 -2.000000e+01 1.000000e+00
    endloop
  endfacet
  facet normal 0.000000e+00 1.000000e+00 0.000000e+00
    outer loop
      vertex -1.545269e+01 -2.000000e+01 1.000000e+00
      vertex -1.795269e+01 -2.000000e+01 8.666667e+00
      vertex -1.645269e+01 -2.000000e+01 9.666667e+00
    endloop
  endfacet
  facet normal 0.000000e+00 1.000000e+00 0.000000e+00
    outer loop
      vertex -1.545269e+01 -2.000000e+01 1.000000e+00
      vertex -1.645269e+01 -2.000000e+01 9.666667e+00
      vertex -1.645269e+01 -2.000000e+01 1.200000e+01
    endloop
  endfacet
  facet normal 0.000000e+00 1.000000e+00 0.000000e+00
    outer loop
      vertex -1.545269e+01 -2.000000e+01 1.000000e+00
      vertex -1.645269e+01 -2.000000e+01 1.200000e+01
      vertex -1.545269e+01 -2.000000e+01 1.200000e+01
    endloop
  endfacet
  facet normal 0.000000e+00 1.000000e+00 0.000000e+00
    outer loop
      vertex -8.952688e+00 -2.275000e+01 1.000000e+00
      vertex -1.545269e+01 -2.275000e+01 1.000000e+00
      vertex -1.545269e+01 -2.275000e+01 7.500000e+00
    endloop
  endfacet
  facet normal 7.071068e-01 0.000000e+00 7.071068e-01
    outer loop
      vertex -1.545269e+01 -2.275000e+01 7.500000e+00
      vertex -1.545269e+01 -2.525000e+01 7.500000e+00
      vertex -8.952688e+00 -2.525000e+01 1.000000e+00
    endloop
  endfacet
  facet normal 7.071068e-01 0.000000e+00 7.071068e-01
    outer loop
      vertex -8.952688e+00 -2.275000e+01 1.000000e+00
      vertex -1.545269e+01 -2.275000e+01 7.500000e+00
      vertex -8.952688e+00 -2.525000e+01 1.000000e+00
    endloop
  endfacet
  facet normal 0.000000e+00 -1.000000e+00 0.000000e+00
    outer loop
      vertex -1.545269e+01 -2.525000e+01 7.500000e+00
      vertex -1.545269e+01 -2.525000e+01 1.000000e+00
      vertex -8.952688e+00 -2.525000e+01 1.000000e+00
    endloop
  endfacet
  facet normal -1.000000e+00 -0.000000e+00 -0.000000e+00
    outer loop
      vertex -1.895269e+01 -3.100000e+01 0.000000e+00
      vertex -1.895269e+01 -3.100000e+01 1.000000e+00
      vertex -1.895269e+01 -1.600000e+01 0.000000e+00
    endloop
  endfacet
  facet normal -1.000000e+00 0.000000e+00 0.000000e+00
    outer loop
      vertex -1.895269e+01 -1.600000e+01 0.000000e+00
      vertex -1.895269e+01 -3.100000e+01 1.000000e+00
      vertex -1.895269e+01 -1.600000e+01 1.000000e+00
    endloop
  endfacet
  facet normal 0.000000e+00 1.000000e+00 0.000000e+00
    outer loop
      vertex -1.895269e+01 -1.600000e+01 0.000000e+00
      vertex -1.895269e+01 -1.600000e+01 1.000000e+00
      vertex -4.952688e+00 -1.600000e+01 0.000000e+00
    endloop
  endfacet
  facet normal 0.000000e+00 1.000000e+00 0.000000e+00
    outer loop
      vertex -4.952688e+00 -1.600000e+01 0.000000e+00
      vertex -1.895269e+01 -1.600000e+01 1.000000e+00
      vertex -4.952688e+00 -1.600000e+01 1.000000e+00
    endloop
  endfacet
  facet normal 1.000000e+00 0.000000e+00 0.000000e+00
    outer loop
      vertex -4.952688e+00 -3.100000e+01 1.000000e+00
      vertex -4.952688e+00 -3.100000e+01 0.000000e+00
      vertex -4.952688e+00 -1.600000e+01 0.000000e+00
    endloop
  endfacet
  facet normal 1.000000e+00 0.000000e+00 0.000000e+00
    outer loop
      vertex -4.952688e+00 -1.600000e+01 1.000000e+00
      vertex -4.952688e+00 -3.100000e+01 1.000000e+00
      vertex -4.952688e+00 -1.600000e+01 0.000000e+00
    endloop
  endfacet
  facet normal 0.000000e+00 -1.000000e+00 0.000000e+00
    outer loop
      vertex -1.895269e+01 -3.100000e+01 1.000000e+00
      vertex -1.895269e+01 -3.100000e+01 0.000000e+00
      vertex -4.952688e+00 -3.100000e+01 0.000000e+00
    endloop
  endfacet
  facet normal 0.000000e+00 -1.000000e+00 0.000000e+00
    outer loop
      vertex -4.952688e+00 -3.100000e+01 1.000000e+00
      vertex -1.895269e+01 -3.100000e+01 1.000000e+00
      vertex -4.952688e+00 -3.100000e+01 0.000000e+00
    endloop
  endfacet
  facet normal -0.000000e+00 -0.000000e+00 -1.000000e+00
    outer loop
      vertex -1.895269e+01 -3.100000e+01 0.000000e+00
      vertex -1.895269e+01 -1.600000e+01 0.000000e+00
      vertex -4.952688e+00 -3.100000e+01 0.000000e+00
    endloop
  endfacet
  facet normal 0.000000e+00 0.000000e+00 -1.000000e+00
    outer loop
      vertex -4.952688e+00 -3.100000e+01 0.000000e+00
      vertex -1.895269e+01 -1.600000e+01 0.000000e+00
      vertex -4.952688e+00 -1.600000e+01 0.000000e+00
    endloop
  endfacet
endsolid Default
