solid Default
  facet normal -1.000000e+00 -0.000000e+00 -0.000000e+00
    outer loop
      vertex -9.452688e+00 -3.500000e+01 0.000000e+00
      vertex -9.452688e+00 -3.500000e+01 5.000000e+00
      vertex -9.452688e+00 -2.050000e+01 0.000000e+00
    endloop
  endfacet
  facet normal -1.000000e+00 0.000000e+00 0.000000e+00
    outer loop
      vertex -9.452688e+00 -2.050000e+01 0.000000e+00
      vertex -9.452688e+00 -3.500000e+01 5.000000e+00
      vertex -9.452688e+00 -2.050000e+01 5.000000e+00
    endloop
  endfacet
  facet normal 0.000000e+00 -1.000000e+00 0.000000e+00
    outer loop
      vertex -9.452688e+00 -3.500000e+01 5.000000e+00
      vertex -9.452688e+00 -3.500000e+01 0.000000e+00
      vertex 1.354731e+01 -3.500000e+01 0.000000e+00
    endloop
  endfacet
  facet normal 0.000000e+00 -1.000000e+00 0.000000e+00
    outer loop
      vertex 1.354731e+01 -3.500000e+01 5.000000e+00
      vertex -9.452688e+00 -3.500000e+01 5.000000e+00
      vertex 1.354731e+01 -3.500000e+01 0.000000e+00
    endloop
  endfacet
  facet normal 0.000000e+00 0.000000e+00 -1.000000e+00
    outer loop
      vertex -4.705410e-01 -2.302917e+01 0.000000e+00
      vertex -9.452688e+00 -2.050000e+01 0.000000e+00
      vertex 1.354731e+01 -2.050000e+01 0.000000e+00
    endloop
  endfacet
  facet normal 0.000000e+00 0.000000e+00 -1.000000e+00
    outer loop
      vertex -9.452688e+00 -3.500000e+01 0.000000e+00
      vertex -9.452688e+00 -2.050000e+01 0.000000e+00
      vertex -4.836455e+00 -2.604274e+01 0.000000e+00
    endloop
  endfacet
  facet normal 0.000000e+00 0.000000e+00 -1.000000e+00
    outer loop
      vertex -9.452688e+00 -3.500000e+01 0.000000e+00
      vertex -4.836455e+00 -2.604274e+01 0.000000e+00
      vertex -4.836455e+00 -2.795726e+01 0.000000e+00
    endloop
  endfacet
  facet normal 0.000000e+00 0.000000e+00 -1.000000e+00
    outer loop
      vertex -9.452688e+00 -3.500000e+01 0.000000e+00
      vertex -4.836455e+00 -2.795726e+01 0.000000e+00
      vertex -3.946731e+00 -2.965249e+01 0.000000e+00
    endloop
  endfacet
  facet normal 0.000000e+00 0.000000e+00 -1.000000e+00
    outer loop
      vertex -9.452688e+00 -3.500000e+01 0.000000e+00
      vertex -3.946731e+00 -2.965249e+01 0.000000e+00
      vertex -2.371108e+00 -3.074007e+01 0.000000e+00
    endloop
  endfacet
  facet normal 0.000000e+00 0.000000e+00 -1.000000e+00
    outer loop
      vertex -9.452688e+00 -3.500000e+01 0.000000e+00
      vertex -2.371108e+00 -3.074007e+01 0.000000e+00
      vertex 1.354731e+01 -3.500000e+01 0.000000e+00
    endloop
  endfacet
  facet normal 0.000000e+00 0.000000e+00 -1.000000e+00
    outer loop
      vertex -2.371108e+00 -3.074007e+01 0.000000e+00
      vertex -4.705410e-01 -3.097084e+01 0.000000e+00
      vertex 1.354731e+01 -3.500000e+01 0.000000e+00
    endloop
  endfacet
  facet normal 0.000000e+00 0.000000e+00 -1.000000e+00
    outer loop
      vertex 2.589136e+00 -2.885889e+01 0.000000e+00
      vertex 1.354731e+01 -3.500000e+01 0.000000e+00
      vertex 1.319571e+00 -3.029193e+01 0.000000e+00
    endloop
  endfacet
  facet normal 0.000000e+00 0.000000e+00 -1.000000e+00
    outer loop
      vertex 3.047312e+00 -2.700000e+01 0.000000e+00
      vertex 1.354731e+01 -3.500000e+01 0.000000e+00
      vertex 2.589136e+00 -2.885889e+01 0.000000e+00
    endloop
  endfacet
  facet normal 0.000000e+00 0.000000e+00 -1.000000e+00
    outer loop
      vertex -2.371108e+00 -2.325994e+01 0.000000e+00
      vertex -9.452688e+00 -2.050000e+01 0.000000e+00
      vertex -4.705410e-01 -2.302917e+01 0.000000e+00
    endloop
  endfacet
  facet normal 0.000000e+00 0.000000e+00 -1.000000e+00
    outer loop
      vertex 1.354731e+01 -3.500000e+01 0.000000e+00
      vertex 3.047312e+00 -2.700000e+01 0.000000e+00
      vertex 1.354731e+01 -2.050000e+01 0.000000e+00
    endloop
  endfacet
  facet normal 0.000000e+00 0.000000e+00 -1.000000e+00
    outer loop
      vertex -3.946731e+00 -2.434751e+01 0.000000e+00
      vertex -9.452688e+00 -2.050000e+01 0.000000e+00
      vertex -2.371108e+00 -2.325994e+01 0.000000e+00
    endloop
  endfacet
  facet normal 0.000000e+00 0.000000e+00 -1.000000e+00
    outer loop
      vertex 3.047312e+00 -2.700000e+01 0.000000e+00
      vertex 2.589136e+00 -2.514111e+01 0.000000e+00
      vertex 1.354731e+01 -2.050000e+01 0.000000e+00
    endloop
  endfacet
  facet normal 0.000000e+00 0.000000e+00 -1.000000e+00
    outer loop
      vertex 2.589136e+00 -2.514111e+01 0.000000e+00
      vertex 1.319571e+00 -2.370807e+01 0.000000e+00
      vertex 1.354731e+01 -2.050000e+01 0.000000e+00
    endloop
  endfacet
  facet normal 0.000000e+00 0.000000e+00 -1.000000e+00
    outer loop
      vertex 1.319571e+00 -2.370807e+01 0.000000e+00
      vertex -4.705410e-01 -2.302917e+01 0.000000e+00
      vertex 1.354731e+01 -2.050000e+01 0.000000e+00
    endloop
  endfacet
  facet normal 0.000000e+00 0.000000e+00 -1.000000e+00
    outer loop
      vertex -4.836455e+00 -2.604274e+01 0.000000e+00
      vertex -9.452688e+00 -2.050000e+01 0.000000e+00
      vertex -3.946731e+00 -2.434751e+01 0.000000e+00
    endloop
  endfacet
  facet normal 0.000000e+00 0.000000e+00 -1.000000e+00
    outer loop
      vertex 1.319571e+00 -3.029193e+01 0.000000e+00
      vertex 1.354731e+01 -3.500000e+01 0.000000e+00
      vertex -4.705410e-01 -3.097084e+01 0.000000e+00
    endloop
  endfacet
  facet normal 0.000000e+00 1.000000e+00 0.000000e+00
    outer loop
      vertex 1.235487e+01 -2.050000e+01 5.000000e+00
      vertex 2.475724e+01 -2.050000e+01 2.031565e+01
      vertex 2.552662e+01 -2.050000e+01 1.969262e+01
    endloop
  endfacet
  facet normal 0.000000e+00 1.000000e+00 0.000000e+00
    outer loop
      vertex 1.235487e+01 -2.050000e+01 5.000000e+00
      vertex 2.552662e+01 -2.050000e+01 1.969262e+01
      vertex 1.677906e+01 -2.050000e+01 8.890296e+00
    endloop
  endfacet
  facet normal 0.000000e+00 1.000000e+00 0.000000e+00
    outer loop
      vertex 1.235487e+01 -2.050000e+01 5.000000e+00
      vertex 1.677906e+01 -2.050000e+01 8.890296e+00
      vertex 1.795255e+01 -2.050000e+01 7.940022e+00
    endloop
  endfacet
  facet normal 0.000000e+00 1.000000e+00 0.000000e+00
    outer loop
      vertex 1.235487e+01 -2.050000e+01 5.000000e+00
      vertex 1.795255e+01 -2.050000e+01 7.940022e+00
      vertex 1.354731e+01 -2.050000e+01 2.500000e+00
    endloop
  endfacet
  facet normal 0.000000e+00 1.000000e+00 0.000000e+00
    outer loop
      vertex 1.235487e+01 -2.050000e+01 5.000000e+00
      vertex 1.354731e+01 -2.050000e+01 2.500000e+00
      vertex -9.452688e+00 -2.050000e+01 5.000000e+00
    endloop
  endfacet
  facet normal 0.000000e+00 1.000000e+00 0.000000e+00
    outer loop
      vertex 1.354731e+01 -2.050000e+01 2.500000e+00
      vertex 1.354731e+01 -2.050000e+01 0.000000e+00
      vertex -9.452688e+00 -2.050000e+01 5.000000e+00
    endloop
  endfacet
  facet normal 0.000000e+00 1.000000e+00 0.000000e+00
    outer loop
      vertex 1.354731e+01 -2.050000e+01 0.000000e+00
      vertex -9.452688e+00 -2.050000e+01 0.000000e+00
      vertex -9.452688e+00 -2.050000e+01 5.000000e+00
    endloop
  endfacet
  facet normal 0.000000e+00 0.000000e+00 1.000000e+00
    outer loop
      vertex -4.705410e-01 -3.097084e+01 5.000000e+00
      vertex -9.452688e+00 -3.500000e+01 5.000000e+00
      vertex 1.354731e+01 -3.500000e+01 5.000000e+00
    endloop
  endfacet
  facet normal 0.000000e+00 0.000000e+00 1.000000e+00
    outer loop
      vertex 2.589136e+00 -2.514111e+01 5.000000e+00
      vertex 3.047312e+00 -2.700000e+01 5.000000e+00
      vertex 1.235487e+01 -3.300000e+01 5.000000e+00
    endloop
  endfacet
  facet normal 0.000000e+00 0.000000e+00 1.000000e+00
    outer loop
      vertex 1.354731e+01 -3.300000e+01 5.000000e+00
      vertex 1.235487e+01 -3.300000e+01 5.000000e+00
      vertex 1.354731e+01 -3.500000e+01 5.000000e+00
    endloop
  endfacet
  facet normal 0.000000e+00 0.000000e+00 1.000000e+00
    outer loop
      vertex -9.452688e+00 -2.050000e+01 5.000000e+00
      vertex -9.452688e+00 -3.500000e+01 5.000000e+00
      vertex -4.836455e+00 -2.795726e+01 5.000000e+00
    endloop
  endfacet
  facet normal 0.000000e+00 0.000000e+00 1.000000e+00
    outer loop
      vertex 1.319571e+00 -3.029193e+01 5.000000e+00
      vertex -4.705410e-01 -3.097084e+01 5.000000e+00
      vertex 1.354731e+01 -3.500000e+01 5.000000e+00
    endloop
  endfacet
  facet normal 0.000000e+00 0.000000e+00 1.000000e+00
    outer loop
      vertex -9.452688e+00 -2.050000e+01 5.000000e+00
      vertex -4.836455e+00 -2.795726e+01 5.000000e+00
      vertex -4.836455e+00 -2.604274e+01 5.000000e+00
    endloop
  endfacet
  facet normal 0.000000e+00 0.000000e+00 1.000000e+00
    outer loop
      vertex -9.452688e+00 -2.050000e+01 5.000000e+00
      vertex -4.836455e+00 -2.604274e+01 5.000000e+00
      vertex -3.946731e+00 -2.434751e+01 5.000000e+00
    endloop
  endfacet
  facet normal 0.000000e+00 0.000000e+00 1.000000e+00
    outer loop
      vertex -3.946731e+00 -2.434751e+01 5.000000e+00
      vertex -2.371108e+00 -2.325994e+01 5.000000e+00
      vertex -9.452688e+00 -2.050000e+01 5.000000e+00
    endloop
  endfacet
  facet normal 0.000000e+00 0.000000e+00 1.000000e+00
    outer loop
      vertex 1.235487e+01 -2.050000e+01 5.000000e+00
      vertex -9.452688e+00 -2.050000e+01 5.000000e+00
      vertex -2.371108e+00 -2.325994e+01 5.000000e+00
    endloop
  endfacet
  facet normal 0.000000e+00 0.000000e+00 1.000000e+00
    outer loop
      vertex 2.589136e+00 -2.885889e+01 5.000000e+00
      vertex 1.319571e+00 -3.029193e+01 5.000000e+00
      vertex 1.354731e+01 -3.500000e+01 5.000000e+00
    endloop
  endfacet
  facet normal 0.000000e+00 0.000000e+00 1.000000e+00
    outer loop
      vertex 1.235487e+01 -2.050000e+01 5.000000e+00
      vertex -2.371108e+00 -2.325994e+01 5.000000e+00
      vertex -4.705410e-01 -2.302917e+01 5.000000e+00
    endloop
  endfacet
  facet normal 0.000000e+00 0.000000e+00 1.000000e+00
    outer loop
      vertex 3.047312e+00 -2.700000e+01 5.000000e+00
      vertex 1.354731e+01 -3.500000e+01 5.000000e+00
      vertex 1.235487e+01 -3.300000e+01 5.000000e+00
    endloop
  endfacet
  facet normal 0.000000e+00 0.000000e+00 1.000000e+00
    outer loop
      vertex 1.235487e+01 -2.050000e+01 5.000000e+00
      vertex -4.705410e-01 -2.302917e+01 5.000000e+00
      vertex 1.319571e+00 -2.370807e+01 5.000000e+00
    endloop
  endfacet
  facet normal 0.000000e+00 0.000000e+00 1.000000e+00
    outer loop
      vertex -2.371108e+00 -3.074007e+01 5.000000e+00
      vertex -9.452688e+00 -3.500000e+01 5.000000e+00
      vertex -4.705410e-01 -3.097084e+01 5.000000e+00
    endloop
  endfacet
  facet normal 0.000000e+00 0.000000e+00 1.000000e+00
    outer loop
      vertex -3.946731e+00 -2.965249e+01 5.000000e+00
      vertex -9.452688e+00 -3.500000e+01 5.000000e+00
      vertex -2.371108e+00 -3.074007e+01 5.000000e+00
    endloop
  endfacet
  facet normal 0.000000e+00 0.000000e+00 1.000000e+00
    outer loop
      vertex -4.836455e+00 -2.795726e+01 5.000000e+00
      vertex -9.452688e+00 -3.500000e+01 5.000000e+00
      vertex -3.946731e+00 -2.965249e+01 5.000000e+00
    endloop
  endfacet
  facet normal 0.000000e+00 0.000000e+00 1.000000e+00
    outer loop
      vertex 3.047312e+00 -2.700000e+01 5.000000e+00
      vertex 2.589136e+00 -2.885889e+01 5.000000e+00
      vertex 1.354731e+01 -3.500000e+01 5.000000e+00
    endloop
  endfacet
  facet normal 0.000000e+00 0.000000e+00 1.000000e+00
    outer loop
      vertex 1.235487e+01 -3.300000e+01 5.000000e+00
      vertex 1.319571e+00 -2.370807e+01 5.000000e+00
      vertex 2.589136e+00 -2.514111e+01 5.000000e+00
    endloop
  endfacet
  facet normal 0.000000e+00 0.000000e+00 1.000000e+00
    outer loop
      vertex 1.235487e+01 -3.300000e+01 5.000000e+00
      vertex 1.235487e+01 -2.050000e+01 5.000000e+00
      vertex 1.319571e+00 -2.370807e+01 5.000000e+00
    endloop
  endfacet
  facet normal 1.000000e+00 0.000000e+00 0.000000e+00
    outer loop
      vertex 1.354731e+01 -3.300000e+01 2.500000e+00
      vertex 1.354731e+01 -3.500000e+01 0.000000e+00
      vertex 1.354731e+01 -2.050000e+01 0.000000e+00
    endloop
  endfacet
  facet normal 1.000000e+00 0.000000e+00 0.000000e+00
    outer loop
      vertex 1.354731e+01 -3.300000e+01 2.500000e+00
      vertex 1.354731e+01 -3.300000e+01 5.000000e+00
      vertex 1.354731e+01 -3.500000e+01 5.000000e+00
    endloop
  endfacet
  facet normal 1.000000e+00 0.000000e+00 0.000000e+00
    outer loop
      vertex 1.354731e+01 -3.500000e+01 5.000000e+00
      vertex 1.354731e+01 -3.500000e+01 0.000000e+00
      vertex 1.354731e+01 -3.300000e+01 2.500000e+00
    endloop
  endfacet
  facet normal 1.000000e+00 0.000000e+00 0.000000e+00
    outer loop
      vertex 1.354731e+01 -2.050000e+01 2.500000e+00
      vertex 1.354731e+01 -3.300000e+01 2.500000e+00
      vertex 1.354731e+01 -2.050000e+01 0.000000e+00
    endloop
  endfacet
  facet normal 8.854561e-01 -4.647231e-01 0.000000e+00
    outer loop
      vertex -3.946731e+00 -2.434751e+01 0.000000e+00
      vertex -3.946731e+00 -2.434751e+01 5.000000e+00
      vertex -4.836455e+00 -2.604274e+01 5.000000e+00
    endloop
  endfacet
  facet normal 8.854561e-01 -4.647231e-01 0.000000e+00
    outer loop
      vertex -4.836455e+00 -2.604274e+01 0.000000e+00
      vertex -3.946731e+00 -2.434751e+01 0.000000e+00
      vertex -4.836455e+00 -2.604274e+01 5.000000e+00
    endloop
  endfacet
  facet normal 1.000000e+00 0.000000e+00 0.000000e+00
    outer loop
      vertex -4.836455e+00 -2.604274e+01 0.000000e+00
      vertex -4.836455e+00 -2.604274e+01 5.000000e+00
      vertex -4.836455e+00 -2.795726e+01 5.000000e+00
    endloop
  endfacet
  facet normal 1.000000e+00 0.000000e+00 0.000000e+00
    outer loop
      vertex -4.836455e+00 -2.795726e+01 0.000000e+00
      vertex -4.836455e+00 -2.604274e+01 0.000000e+00
      vertex -4.836455e+00 -2.795726e+01 5.000000e+00
    endloop
  endfacet
  facet normal 5.680649e-01 -8.229838e-01 0.000000e+00
    outer loop
      vertex -2.371108e+00 -2.325994e+01 0.000000e+00
      vertex -2.371108e+00 -2.325994e+01 5.000000e+00
      vertex -3.946731e+00 -2.434751e+01 5.000000e+00
    endloop
  endfacet
  facet normal 5.680649e-01 -8.229838e-01 0.000000e+00
    outer loop
      vertex -3.946731e+00 -2.434751e+01 0.000000e+00
      vertex -2.371108e+00 -2.325994e+01 0.000000e+00
      vertex -3.946731e+00 -2.434751e+01 5.000000e+00
    endloop
  endfacet
  facet normal 1.205360e-01 -9.927090e-01 0.000000e+00
    outer loop
      vertex -4.705410e-01 -2.302917e+01 0.000000e+00
      vertex -4.705410e-01 -2.302917e+01 5.000000e+00
      vertex -2.371108e+00 -2.325994e+01 5.000000e+00
    endloop
  endfacet
  facet normal 1.205360e-01 -9.927090e-01 0.000000e+00
    outer loop
      vertex -2.371108e+00 -2.325994e+01 0.000000e+00
      vertex -4.705410e-01 -2.302917e+01 0.000000e+00
      vertex -2.371108e+00 -2.325994e+01 5.000000e+00
    endloop
  endfacet
  facet normal -3.546051e-01 -9.350162e-01 -0.000000e+00
    outer loop
      vertex 1.319571e+00 -2.370807e+01 0.000000e+00
      vertex 1.319571e+00 -2.370807e+01 5.000000e+00
      vertex -4.705410e-01 -2.302917e+01 5.000000e+00
    endloop
  endfacet
  facet normal -3.546051e-01 -9.350162e-01 -0.000000e+00
    outer loop
      vertex -4.705410e-01 -2.302917e+01 0.000000e+00
      vertex 1.319571e+00 -2.370807e+01 0.000000e+00
      vertex -4.705410e-01 -2.302917e+01 5.000000e+00
    endloop
  endfacet
  facet normal -7.485107e-01 -6.631227e-01 0.000000e+00
    outer loop
      vertex 2.589136e+00 -2.514111e+01 5.000000e+00
      vertex 1.319571e+00 -2.370807e+01 5.000000e+00
      vertex 2.589136e+00 -2.514111e+01 0.000000e+00
    endloop
  endfacet
  facet normal -7.485107e-01 -6.631227e-01 0.000000e+00
    outer loop
      vertex 2.589136e+00 -2.514111e+01 0.000000e+00
      vertex 1.319571e+00 -2.370807e+01 5.000000e+00
      vertex 1.319571e+00 -2.370807e+01 0.000000e+00
    endloop
  endfacet
  facet normal -9.709417e-01 -2.393159e-01 0.000000e+00
    outer loop
      vertex 3.047312e+00 -2.700000e+01 5.000000e+00
      vertex 2.589136e+00 -2.514111e+01 5.000000e+00
      vertex 3.047312e+00 -2.700000e+01 0.000000e+00
    endloop
  endfacet
  facet normal -9.709417e-01 -2.393159e-01 0.000000e+00
    outer loop
      vertex 3.047312e+00 -2.700000e+01 0.000000e+00
      vertex 2.589136e+00 -2.514111e+01 5.000000e+00
      vertex 2.589136e+00 -2.514111e+01 0.000000e+00
    endloop
  endfacet
  facet normal -9.709417e-01 2.393159e-01 0.000000e+00
    outer loop
      vertex 3.047312e+00 -2.700000e+01 5.000000e+00
      vertex 3.047312e+00 -2.700000e+01 0.000000e+00
      vertex 2.589136e+00 -2.885889e+01 5.000000e+00
    endloop
  endfacet
  facet normal -9.709417e-01 2.393159e-01 0.000000e+00
    outer loop
      vertex 2.589136e+00 -2.885889e+01 5.000000e+00
      vertex 3.047312e+00 -2.700000e+01 0.000000e+00
      vertex 2.589136e+00 -2.885889e+01 0.000000e+00
    endloop
  endfacet
  facet normal -7.485107e-01 6.631227e-01 0.000000e+00
    outer loop
      vertex 2.589136e+00 -2.885889e+01 5.000000e+00
      vertex 2.589136e+00 -2.885889e+01 0.000000e+00
      vertex 1.319571e+00 -3.029193e+01 5.000000e+00
    endloop
  endfacet
  facet normal -7.485107e-01 6.631227e-01 0.000000e+00
    outer loop
      vertex 1.319571e+00 -3.029193e+01 5.000000e+00
      vertex 2.589136e+00 -2.885889e+01 0.000000e+00
      vertex 1.319571e+00 -3.029193e+01 0.000000e+00
    endloop
  endfacet
  facet normal -3.546051e-01 9.350162e-01 0.000000e+00
    outer loop
      vertex 1.319571e+00 -3.029193e+01 5.000000e+00
      vertex 1.319571e+00 -3.029193e+01 0.000000e+00
      vertex -4.705410e-01 -3.097084e+01 5.000000e+00
    endloop
  endfacet
  facet normal -3.546051e-01 9.350162e-01 0.000000e+00
    outer loop
      vertex -4.705410e-01 -3.097084e+01 5.000000e+00
      vertex 1.319571e+00 -3.029193e+01 0.000000e+00
      vertex -4.705410e-01 -3.097084e+01 0.000000e+00
    endloop
  endfacet
  facet normal 1.205360e-01 9.927090e-01 0.000000e+00
    outer loop
      vertex -4.705410e-01 -3.097084e+01 5.000000e+00
      vertex -4.705410e-01 -3.097084e+01 0.000000e+00
      vertex -2.371108e+00 -3.074007e+01 5.000000e+00
    endloop
  endfacet
  facet normal 1.205360e-01 9.927090e-01 0.000000e+00
    outer loop
      vertex -2.371108e+00 -3.074007e+01 5.000000e+00
      vertex -4.705410e-01 -3.097084e+01 0.000000e+00
      vertex -2.371108e+00 -3.074007e+01 0.000000e+00
    endloop
  endfacet
  facet normal 5.680649e-01 8.229838e-01 0.000000e+00
    outer loop
      vertex -2.371108e+00 -3.074007e+01 5.000000e+00
      vertex -2.371108e+00 -3.074007e+01 0.000000e+00
      vertex -3.946731e+00 -2.965249e+01 5.000000e+00
    endloop
  endfacet
  facet normal 5.680649e-01 8.229838e-01 0.000000e+00
    outer loop
      vertex -3.946731e+00 -2.965249e+01 5.000000e+00
      vertex -2.371108e+00 -3.074007e+01 0.000000e+00
      vertex -3.946731e+00 -2.965249e+01 0.000000e+00
    endloop
  endfacet
  facet normal 8.854561e-01 4.647231e-01 0.000000e+00
    outer loop
      vertex -4.836455e+00 -2.795726e+01 5.000000e+00
      vertex -3.946731e+00 -2.965249e+01 5.000000e+00
      vertex -3.946731e+00 -2.965249e+01 0.000000e+00
    endloop
  endfacet
  facet normal 8.854561e-01 4.647231e-01 0.000000e+00
    outer loop
      vertex -4.836455e+00 -2.795726e+01 0.000000e+00
      vertex -4.836455e+00 -2.795726e+01 5.000000e+00
      vertex -3.946731e+00 -2.965249e+01 0.000000e+00
    endloop
  endfacet
  facet normal 7.771462e-01 0.000000e+00 -6.293202e-01
    outer loop
      vertex 2.928032e+01 -3.300000e+01 2.192865e+01
      vertex 1.354731e+01 -3.300000e+01 2.500000e+00
      vertex 1.354731e+01 -2.050000e+01 2.500000e+00
    endloop
  endfacet
  facet normal 7.771462e-01 0.000000e+00 -6.293202e-01
    outer loop
      vertex 1.795255e+01 -5.500000e+00 7.940022e+00
      vertex 2.928032e+01 -3.300000e+01 2.192865e+01
      vertex 1.795255e+01 -2.050000e+01 7.940022e+00
    endloop
  endfacet
  facet normal 7.771462e-01 0.000000e+00 -6.293202e-01
    outer loop
      vertex 1.795255e+01 -2.050000e+01 7.940022e+00
      vertex 2.928032e+01 -3.300000e+01 2.192865e+01
      vertex 1.354731e+01 -2.050000e+01 2.500000e+00
    endloop
  endfacet
  facet normal 7.771462e-01 0.000000e+00 -6.293202e-01
    outer loop
      vertex 1.354731e+01 7.000000e+00 2.500000e+00
      vertex 2.928032e+01 -3.300000e+01 2.192865e+01
      vertex 1.795255e+01 -5.500000e+00 7.940022e+00
    endloop
  endfacet
  facet normal 7.771462e-01 0.000000e+00 -6.293202e-01
    outer loop
      vertex 1.354731e+01 7.000000e+00 2.500000e+00
      vertex 1.795255e+01 -5.500000e+00 7.940022e+00
      vertex 1.354731e+01 -5.500000e+00 2.500000e+00
    endloop
  endfacet
  facet normal 7.771462e-01 0.000000e+00 -6.293202e-01
    outer loop
      vertex 2.928032e+01 7.000000e+00 2.192865e+01
      vertex 2.928032e+01 -3.300000e+01 2.192865e+01
      vertex 1.354731e+01 7.000000e+00 2.500000e+00
    endloop
  endfacet
  facet normal -6.293202e-01 0.000000e+00 -7.771462e-01
    outer loop
      vertex 1.795255e+01 -5.500000e+00 7.940022e+00
      vertex 1.795255e+01 -2.050000e+01 7.940022e+00
      vertex 1.677906e+01 -5.500000e+00 8.890296e+00
    endloop
  endfacet
  facet normal -6.293202e-01 0.000000e+00 -7.771462e-01
    outer loop
      vertex 1.677906e+01 -5.500000e+00 8.890296e+00
      vertex 1.795255e+01 -2.050000e+01 7.940022e+00
      vertex 1.677906e+01 -2.050000e+01 8.890296e+00
    endloop
  endfacet
  facet normal -7.771462e-01 0.000000e+00 6.293202e-01
    outer loop
      vertex 2.552662e+01 -5.500000e+00 1.969262e+01
      vertex 1.677906e+01 -5.500000e+00 8.890296e+00
      vertex 2.552662e+01 -2.050000e+01 1.969262e+01
    endloop
  endfacet
  facet normal -7.771462e-01 0.000000e+00 6.293202e-01
    outer loop
      vertex 2.552662e+01 -2.050000e+01 1.969262e+01
      vertex 1.677906e+01 -5.500000e+00 8.890296e+00
      vertex 1.677906e+01 -2.050000e+01 8.890296e+00
    endloop
  endfacet
  facet normal -6.293202e-01 0.000000e+00 -7.771462e-01
    outer loop
      vertex 2.552662e+01 -5.500000e+00 1.969262e+01
      vertex 2.552662e+01 -2.050000e+01 1.969262e+01
      vertex 2.475724e+01 -5.500000e+00 2.031565e+01
    endloop
  endfacet
  facet normal -6.293202e-01 0.000000e+00 -7.771462e-01
    outer loop
      vertex 2.475724e+01 -5.500000e+00 2.031565e+01
      vertex 2.552662e+01 -2.050000e+01 1.969262e+01
      vertex 2.475724e+01 -2.050000e+01 2.031565e+01
    endloop
  endfacet
  facet normal -7.771462e-01 0.000000e+00 6.293202e-01
    outer loop
      vertex 1.235487e+01 -3.300000e+01 5.000000e+00
      vertex 2.713033e+01 -3.300000e+01 2.324617e+01
      vertex 1.235487e+01 -2.050000e+01 5.000000e+00
    endloop
  endfacet
  facet normal -7.771462e-01 0.000000e+00 6.293202e-01
    outer loop
      vertex 2.475724e+01 -5.500000e+00 2.031565e+01
      vertex 2.713033e+01 -3.300000e+01 2.324617e+01
      vertex 2.713033e+01 7.000000e+00 2.324617e+01
    endloop
  endfacet
  facet normal -7.771462e-01 0.000000e+00 6.293202e-01
    outer loop
      vertex 1.235487e+01 -5.500000e+00 5.000000e+00
      vertex 2.713033e+01 7.000000e+00 2.324617e+01
      vertex 1.235487e+01 7.000000e+00 5.000000e+00
    endloop
  endfacet
  facet normal -7.771462e-01 0.000000e+00 6.293202e-01
    outer loop
      vertex 2.475724e+01 -2.050000e+01 2.031565e+01
      vertex 2.713033e+01 -3.300000e+01 2.324617e+01
      vertex 2.475724e+01 -5.500000e+00 2.031565e+01
    endloop
  endfacet
  facet normal -7.771462e-01 0.000000e+00 6.293202e-01
    outer loop
      vertex 1.235487e+01 -2.050000e+01 5.000000e+00
      vertex 2.713033e+01 -3.300000e+01 2.324617e+01
      vertex 2.475724e+01 -2.050000e+01 2.031565e+01
    endloop
  endfacet
  facet normal -7.771462e-01 0.000000e+00 6.293202e-01
    outer loop
      vertex 2.475724e+01 -5.500000e+00 2.031565e+01
      vertex 2.713033e+01 7.000000e+00 2.324617e+01
      vertex 1.235487e+01 -5.500000e+00 5.000000e+00
    endloop
  endfacet
  facet normal 0.000000e+00 -1.000000e+00 0.000000e+00
    outer loop
      vertex 2.713033e+01 -3.300000e+01 2.324617e+01
      vertex 1.235487e+01 -3.300000e+01 5.000000e+00
      vertex 1.354731e+01 -3.300000e+01 5.000000e+00
    endloop
  endfacet
  facet normal 0.000000e+00 -1.000000e+00 0.000000e+00
    outer loop
      vertex 1.354731e+01 -3.300000e+01 2.500000e+00
      vertex 2.713033e+01 -3.300000e+01 2.324617e+01
      vertex 1.354731e+01 -3.300000e+01 5.000000e+00
    endloop
  endfacet
  facet normal 0.000000e+00 -1.000000e+00 0.000000e+00
    outer loop
      vertex 1.354731e+01 -3.300000e+01 2.500000e+00
      vertex 2.928032e+01 -3.300000e+01 2.192865e+01
      vertex 2.713033e+01 -3.300000e+01 2.324617e+01
    endloop
  endfacet
  facet normal 0.000000e+00 -1.000000e+00 0.000000e+00
    outer loop
      vertex 2.928032e+01 -3.300000e+01 2.192865e+01
      vertex 3.245269e+01 -3.300000e+01 2.905390e+01
      vertex 2.713033e+01 -3.300000e+01 2.324617e+01
    endloop
  endfacet
  facet normal 0.000000e+00 -1.000000e+00 0.000000e+00
    outer loop
      vertex 3.245269e+01 -3.300000e+01 2.905390e+01
      vertex 2.971610e+01 -3.300000e+01 2.905390e+01
      vertex 2.713033e+01 -3.300000e+01 2.324617e+01
    endloop
  endfacet
  facet normal 9.135453e-01 0.000000e+00 -4.067371e-01
    outer loop
      vertex 3.245269e+01 -3.300000e+01 2.905390e+01
      vertex 2.928032e+01 -3.300000e+01 2.192865e+01
      vertex 2.928032e+01 7.000000e+00 2.192865e+01
    endloop
  endfacet
  facet normal 9.135453e-01 0.000000e+00 -4.067371e-01
    outer loop
      vertex 3.245269e+01 7.000000e+00 2.905390e+01
      vertex 3.245269e+01 -3.300000e+01 2.905390e+01
      vertex 2.928032e+01 7.000000e+00 2.192865e+01
    endloop
  endfacet
  facet normal 0.000000e+00 1.000000e+00 0.000000e+00
    outer loop
      vertex 1.235487e+01 7.000000e+00 5.000000e+00
      vertex 2.713033e+01 7.000000e+00 2.324617e+01
      vertex 1.354731e+01 7.000000e+00 5.000000e+00
    endloop
  endfacet
  facet normal 0.000000e+00 1.000000e+00 0.000000e+00
    outer loop
      vertex 3.245269e+01 7.000000e+00 2.905390e+01
      vertex 2.713033e+01 7.000000e+00 2.324617e+01
      vertex 2.971610e+01 7.000000e+00 2.905390e+01
    endloop
  endfacet
  facet normal 0.000000e+00 1.000000e+00 0.000000e+00
    outer loop
      vertex 1.354731e+01 7.000000e+00 5.000000e+00
      vertex 2.713033e+01 7.000000e+00 2.324617e+01
      vertex 3.245269e+01 7.000000e+00 2.905390e+01
    endloop
  endfacet
  facet normal 0.000000e+00 1.000000e+00 0.000000e+00
    outer loop
      vertex 1.354731e+01 7.000000e+00 5.000000e+00
      vertex 3.245269e+01 7.000000e+00 2.905390e+01
      vertex 2.928032e+01 7.000000e+00 2.192865e+01
    endloop
  endfacet
  facet normal 0.000000e+00 1.000000e+00 0.000000e+00
    outer loop
      vertex 1.354731e+01 7.000000e+00 5.000000e+00
      vertex 2.928032e+01 7.000000e+00 2.192865e+01
      vertex 1.354731e+01 7.000000e+00 2.500000e+00
    endloop
  endfacet
  facet normal 1.000000e+00 0.000000e+00 0.000000e+00
    outer loop
      vertex 1.354731e+01 -5.500000e+00 2.500000e+00
      vertex 1.354731e+01 -5.500000e+00 0.000000e+00
      vertex 1.354731e+01 9.000000e+00 0.000000e+00
    endloop
  endfacet
  facet normal 1.000000e+00 0.000000e+00 0.000000e+00
    outer loop
      vertex 1.354731e+01 7.000000e+00 2.500000e+00
      vertex 1.354731e+01 -5.500000e+00 2.500000e+00
      vertex 1.354731e+01 9.000000e+00 0.000000e+00
    endloop
  endfacet
  facet normal 1.000000e+00 0.000000e+00 0.000000e+00
    outer loop
      vertex 1.354731e+01 9.000000e+00 5.000000e+00
      vertex 1.354731e+01 7.000000e+00 2.500000e+00
      vertex 1.354731e+01 9.000000e+00 0.000000e+00
    endloop
  endfacet
  facet normal 1.000000e+00 0.000000e+00 0.000000e+00
    outer loop
      vertex 1.354731e+01 7.000000e+00 5.000000e+00
      vertex 1.354731e+01 7.000000e+00 2.500000e+00
      vertex 1.354731e+01 9.000000e+00 5.000000e+00
    endloop
  endfacet
  facet normal 0.000000e+00 -1.000000e+00 0.000000e+00
    outer loop
      vertex 1.677906e+01 -5.500000e+00 8.890296e+00
      vertex 1.354731e+01 -5.500000e+00 2.500000e+00
      vertex 1.795255e+01 -5.500000e+00 7.940022e+00
    endloop
  endfacet
  facet normal 0.000000e+00 -1.000000e+00 0.000000e+00
    outer loop
      vertex 1.235487e+01 -5.500000e+00 5.000000e+00
      vertex 1.354731e+01 -5.500000e+00 2.500000e+00
      vertex 1.677906e+01 -5.500000e+00 8.890296e+00
    endloop
  endfacet
  facet normal 0.000000e+00 -1.000000e+00 0.000000e+00
    outer loop
      vertex 1.354731e+01 -5.500000e+00 0.000000e+00
      vertex 1.354731e+01 -5.500000e+00 2.500000e+00
      vertex 1.235487e+01 -5.500000e+00 5.000000e+00
    endloop
  endfacet
  facet normal 0.000000e+00 -1.000000e+00 0.000000e+00
    outer loop
      vertex 2.475724e+01 -5.500000e+00 2.031565e+01
      vertex 1.677906e+01 -5.500000e+00 8.890296e+00
      vertex 2.552662e+01 -5.500000e+00 1.969262e+01
    endloop
  endfacet
  facet normal 0.000000e+00 -1.000000e+00 0.000000e+00
    outer loop
      vertex 1.235487e+01 -5.500000e+00 5.000000e+00
      vertex 1.677906e+01 -5.500000e+00 8.890296e+00
      vertex 2.475724e+01 -5.500000e+00 2.031565e+01
    endloop
  endfacet
  facet normal 0.000000e+00 -1.000000e+00 0.000000e+00
    outer loop
      vertex -9.452688e+00 -5.500000e+00 5.000000e+00
      vertex 1.354731e+01 -5.500000e+00 0.000000e+00
      vertex 1.235487e+01 -5.500000e+00 5.000000e+00
    endloop
  endfacet
  facet normal -0.000000e+00 -1.000000e+00 -0.000000e+00
    outer loop
      vertex -9.452688e+00 -5.500000e+00 0.000000e+00
      vertex 1.354731e+01 -5.500000e+00 0.000000e+00
      vertex -9.452688e+00 -5.500000e+00 5.000000e+00
    endloop
  endfacet
  facet normal 0.000000e+00 0.000000e+00 1.000000e+00
    outer loop
      vertex -4.705410e-01 -2.970837e+00 5.000000e+00
      vertex -9.452688e+00 -5.500000e+00 5.000000e+00
      vertex 1.235487e+01 -5.500000e+00 5.000000e+00
    endloop
  endfacet
  facet normal 0.000000e+00 0.000000e+00 1.000000e+00
    outer loop
      vertex 1.354731e+01 7.000000e+00 5.000000e+00
      vertex -9.452688e+00 9.000000e+00 5.000000e+00
      vertex 1.235487e+01 7.000000e+00 5.000000e+00
    endloop
  endfacet
  facet normal 0.000000e+00 0.000000e+00 1.000000e+00
    outer loop
      vertex 1.354731e+01 9.000000e+00 5.000000e+00
      vertex -9.452688e+00 9.000000e+00 5.000000e+00
      vertex 1.354731e+01 7.000000e+00 5.000000e+00
    endloop
  endfacet
  facet normal 0.000000e+00 0.000000e+00 1.000000e+00
    outer loop
      vertex -4.705410e-01 -2.970837e+00 5.000000e+00
      vertex -2.371108e+00 -2.740067e+00 5.000000e+00
      vertex -9.452688e+00 -5.500000e+00 5.000000e+00
    endloop
  endfacet
  facet normal 0.000000e+00 0.000000e+00 1.000000e+00
    outer loop
      vertex -9.452688e+00 9.000000e+00 5.000000e+00
      vertex -9.452688e+00 -5.500000e+00 5.000000e+00
      vertex -4.836455e+00 4.273605e-02 5.000000e+00
    endloop
  endfacet
  facet normal 0.000000e+00 0.000000e+00 1.000000e+00
    outer loop
      vertex -9.452688e+00 9.000000e+00 5.000000e+00
      vertex -4.836455e+00 4.273605e-02 5.000000e+00
      vertex -4.836455e+00 1.957264e+00 5.000000e+00
    endloop
  endfacet
  facet normal 0.000000e+00 0.000000e+00 1.000000e+00
    outer loop
      vertex 2.589136e+00 2.858894e+00 5.000000e+00
      vertex 3.047312e+00 1.000000e+00 5.000000e+00
      vertex 1.235487e+01 -5.500000e+00 5.000000e+00
    endloop
  endfacet
  facet normal 0.000000e+00 0.000000e+00 1.000000e+00
    outer loop
      vertex -9.452688e+00 9.000000e+00 5.000000e+00
      vertex -4.836455e+00 1.957264e+00 5.000000e+00
      vertex -3.946731e+00 3.652493e+00 5.000000e+00
    endloop
  endfacet
  facet normal 0.000000e+00 0.000000e+00 1.000000e+00
    outer loop
      vertex 2.589136e+00 -8.588943e-01 5.000000e+00
      vertex 1.319571e+00 -2.291935e+00 5.000000e+00
      vertex 1.235487e+01 -5.500000e+00 5.000000e+00
    endloop
  endfacet
  facet normal 0.000000e+00 0.000000e+00 1.000000e+00
    outer loop
      vertex 1.235487e+01 7.000000e+00 5.000000e+00
      vertex -9.452688e+00 9.000000e+00 5.000000e+00
      vertex -2.371108e+00 4.740067e+00 5.000000e+00
    endloop
  endfacet
  facet normal 0.000000e+00 0.000000e+00 1.000000e+00
    outer loop
      vertex 1.235487e+01 7.000000e+00 5.000000e+00
      vertex -2.371108e+00 4.740067e+00 5.000000e+00
      vertex -4.705410e-01 4.970837e+00 5.000000e+00
    endloop
  endfacet
  facet normal 0.000000e+00 0.000000e+00 1.000000e+00
    outer loop
      vertex 1.235487e+01 7.000000e+00 5.000000e+00
      vertex 1.319571e+00 4.291935e+00 5.000000e+00
      vertex 1.235487e+01 -5.500000e+00 5.000000e+00
    endloop
  endfacet
  facet normal 0.000000e+00 0.000000e+00 1.000000e+00
    outer loop
      vertex 1.235487e+01 7.000000e+00 5.000000e+00
      vertex -4.705410e-01 4.970837e+00 5.000000e+00
      vertex 1.319571e+00 4.291935e+00 5.000000e+00
    endloop
  endfacet
  facet normal 0.000000e+00 0.000000e+00 1.000000e+00
    outer loop
      vertex 1.319571e+00 4.291935e+00 5.000000e+00
      vertex 2.589136e+00 2.858894e+00 5.000000e+00
      vertex 1.235487e+01 -5.500000e+00 5.000000e+00
    endloop
  endfacet
  facet normal 0.000000e+00 0.000000e+00 1.000000e+00
    outer loop
      vertex 1.319571e+00 -2.291935e+00 5.000000e+00
      vertex -4.705410e-01 -2.970837e+00 5.000000e+00
      vertex 1.235487e+01 -5.500000e+00 5.000000e+00
    endloop
  endfacet
  facet normal 0.000000e+00 0.000000e+00 1.000000e+00
    outer loop
      vertex -3.946731e+00 -1.652493e+00 5.000000e+00
      vertex -9.452688e+00 -5.500000e+00 5.000000e+00
      vertex -2.371108e+00 -2.740067e+00 5.000000e+00
    endloop
  endfacet
  facet normal 0.000000e+00 0.000000e+00 1.000000e+00
    outer loop
      vertex -4.836455e+00 4.273605e-02 5.000000e+00
      vertex -9.452688e+00 -5.500000e+00 5.000000e+00
      vertex -3.946731e+00 -1.652493e+00 5.000000e+00
    endloop
  endfacet
  facet normal 0.000000e+00 0.000000e+00 1.000000e+00
    outer loop
      vertex -3.946731e+00 3.652493e+00 5.000000e+00
      vertex -2.371108e+00 4.740067e+00 5.000000e+00
      vertex -9.452688e+00 9.000000e+00 5.000000e+00
    endloop
  endfacet
  facet normal 0.000000e+00 0.000000e+00 1.000000e+00
    outer loop
      vertex 3.047312e+00 1.000000e+00 5.000000e+00
      vertex 2.589136e+00 -8.588943e-01 5.000000e+00
      vertex 1.235487e+01 -5.500000e+00 5.000000e+00
    endloop
  endfacet
  facet normal -9.135453e-01 0.000000e+00 4.067371e-01
    outer loop
      vertex 2.713033e+01 -3.300000e+01 2.324617e+01
      vertex 2.971610e+01 -3.300000e+01 2.905390e+01
      vertex 2.713033e+01 7.000000e+00 2.324617e+01
    endloop
  endfacet
  facet normal -9.135453e-01 0.000000e+00 4.067371e-01
    outer loop
      vertex 2.713033e+01 7.000000e+00 2.324617e+01
      vertex 2.971610e+01 -3.300000e+01 2.905390e+01
      vertex 2.971610e+01 7.000000e+00 2.905390e+01
    endloop
  endfacet
  facet normal 0.000000e+00 0.000000e+00 1.000000e+00
    outer loop
      vertex 3.245269e+01 -3.300000e+01 2.905390e+01
      vertex 3.245269e+01 7.000000e+00 2.905390e+01
      vertex 2.971610e+01 7.000000e+00 2.905390e+01
    endloop
  endfacet
  facet normal 0.000000e+00 0.000000e+00 1.000000e+00
    outer loop
      vertex 2.971610e+01 -3.300000e+01 2.905390e+01
      vertex 3.245269e+01 -3.300000e+01 2.905390e+01
      vertex 2.971610e+01 7.000000e+00 2.905390e+01
    endloop
  endfacet
  facet normal 0.000000e+00 1.000000e+00 0.000000e+00
    outer loop
      vertex -9.452688e+00 9.000000e+00 0.000000e+00
      vertex -9.452688e+00 9.000000e+00 5.000000e+00
      vertex 1.354731e+01 9.000000e+00 0.000000e+00
    endloop
  endfacet
  facet normal 0.000000e+00 1.000000e+00 0.000000e+00
    outer loop
      vertex 1.354731e+01 9.000000e+00 0.000000e+00
      vertex -9.452688e+00 9.000000e+00 5.000000e+00
      vertex 1.354731e+01 9.000000e+00 5.000000e+00
    endloop
  endfacet
  facet normal 0.000000e+00 0.000000e+00 -1.000000e+00
    outer loop
      vertex 1.319571e+00 4.291935e+00 0.000000e+00
      vertex -9.452688e+00 9.000000e+00 0.000000e+00
      vertex 1.354731e+01 9.000000e+00 0.000000e+00
    endloop
  endfacet
  facet normal 0.000000e+00 0.000000e+00 -1.000000e+00
    outer loop
      vertex -9.452688e+00 -5.500000e+00 0.000000e+00
      vertex -9.452688e+00 9.000000e+00 0.000000e+00
      vertex -4.836455e+00 1.957264e+00 0.000000e+00
    endloop
  endfacet
  facet normal 0.000000e+00 0.000000e+00 -1.000000e+00
    outer loop
      vertex -9.452688e+00 -5.500000e+00 0.000000e+00
      vertex -4.836455e+00 1.957264e+00 0.000000e+00
      vertex -4.836455e+00 4.273605e-02 0.000000e+00
    endloop
  endfacet
  facet normal 0.000000e+00 0.000000e+00 -1.000000e+00
    outer loop
      vertex -9.452688e+00 -5.500000e+00 0.000000e+00
      vertex -4.836455e+00 4.273605e-02 0.000000e+00
      vertex -3.946731e+00 -1.652493e+00 0.000000e+00
    endloop
  endfacet
  facet normal 0.000000e+00 0.000000e+00 -1.000000e+00
    outer loop
      vertex -9.452688e+00 -5.500000e+00 0.000000e+00
      vertex -3.946731e+00 -1.652493e+00 0.000000e+00
      vertex -2.371108e+00 -2.740067e+00 0.000000e+00
    endloop
  endfacet
  facet normal 0.000000e+00 0.000000e+00 -1.000000e+00
    outer loop
      vertex -9.452688e+00 -5.500000e+00 0.000000e+00
      vertex -2.371108e+00 -2.740067e+00 0.000000e+00
      vertex 1.354731e+01 -5.500000e+00 0.000000e+00
    endloop
  endfacet
  facet normal 0.000000e+00 0.000000e+00 -1.000000e+00
    outer loop
      vertex -2.371108e+00 -2.740067e+00 0.000000e+00
      vertex -4.705410e-01 -2.970837e+00 0.000000e+00
      vertex 1.354731e+01 -5.500000e+00 0.000000e+00
    endloop
  endfacet
  facet normal 0.000000e+00 0.000000e+00 -1.000000e+00
    outer loop
      vertex 2.589136e+00 -8.588943e-01 0.000000e+00
      vertex 1.354731e+01 -5.500000e+00 0.000000e+00
      vertex 1.319571e+00 -2.291935e+00 0.000000e+00
    endloop
  endfacet
  facet normal 0.000000e+00 0.000000e+00 -1.000000e+00
    outer loop
      vertex 2.589136e+00 2.858894e+00 0.000000e+00
      vertex 1.354731e+01 -5.500000e+00 0.000000e+00
      vertex 3.047312e+00 1.000000e+00 0.000000e+00
    endloop
  endfacet
  facet normal 0.000000e+00 0.000000e+00 -1.000000e+00
    outer loop
      vertex 2.589136e+00 -8.588943e-01 0.000000e+00
      vertex 3.047312e+00 1.000000e+00 0.000000e+00
      vertex 1.354731e+01 -5.500000e+00 0.000000e+00
    endloop
  endfacet
  facet normal 0.000000e+00 0.000000e+00 -1.000000e+00
    outer loop
      vertex -3.946731e+00 3.652493e+00 0.000000e+00
      vertex -9.452688e+00 9.000000e+00 0.000000e+00
      vertex -2.371108e+00 4.740067e+00 0.000000e+00
    endloop
  endfacet
  facet normal 0.000000e+00 0.000000e+00 -1.000000e+00
    outer loop
      vertex 1.354731e+01 -5.500000e+00 0.000000e+00
      vertex 2.589136e+00 2.858894e+00 0.000000e+00
      vertex 1.354731e+01 9.000000e+00 0.000000e+00
    endloop
  endfacet
  facet normal -0.000000e+00 -0.000000e+00 -1.000000e+00
    outer loop
      vertex -4.705410e-01 4.970837e+00 0.000000e+00
      vertex -9.452688e+00 9.000000e+00 0.000000e+00
      vertex 1.319571e+00 4.291935e+00 0.000000e+00
    endloop
  endfacet
  facet normal 0.000000e+00 0.000000e+00 -1.000000e+00
    outer loop
      vertex 2.589136e+00 2.858894e+00 0.000000e+00
      vertex 1.319571e+00 4.291935e+00 0.000000e+00
      vertex 1.354731e+01 9.000000e+00 0.000000e+00
    endloop
  endfacet
  facet normal 0.000000e+00 0.000000e+00 -1.000000e+00
    outer loop
      vertex -2.371108e+00 4.740067e+00 0.000000e+00
      vertex -9.452688e+00 9.000000e+00 0.000000e+00
      vertex -4.705410e-01 4.970837e+00 0.000000e+00
    endloop
  endfacet
  facet normal 0.000000e+00 0.000000e+00 -1.000000e+00
    outer loop
      vertex -4.836455e+00 1.957264e+00 0.000000e+00
      vertex -9.452688e+00 9.000000e+00 0.000000e+00
      vertex -3.946731e+00 3.652493e+00 0.000000e+00
    endloop
  endfacet
  facet normal 0.000000e+00 0.000000e+00 -1.000000e+00
    outer loop
      vertex 1.319571e+00 -2.291935e+00 0.000000e+00
      vertex 1.354731e+01 -5.500000e+00 0.000000e+00
      vertex -4.705410e-01 -2.970837e+00 0.000000e+00
    endloop
  endfacet
  facet normal -1.000000e+00 -0.000000e+00 -0.000000e+00
    outer loop
      vertex -9.452688e+00 -5.500000e+00 0.000000e+00
      vertex -9.452688e+00 -5.500000e+00 5.000000e+00
      vertex -9.452688e+00 9.000000e+00 0.000000e+00
    endloop
  endfacet
  facet normal -1.000000e+00 0.000000e+00 0.000000e+00
    outer loop
      vertex -9.452688e+00 9.000000e+00 0.000000e+00
      vertex -9.452688e+00 -5.500000e+00 5.000000e+00
      vertex -9.452688e+00 9.000000e+00 5.000000e+00
    endloop
  endfacet
  facet normal 1.000000e+00 0.000000e+00 0.000000e+00
    outer loop
      vertex -4.836455e+00 1.957264e+00 0.000000e+00
      vertex -4.836455e+00 1.957264e+00 5.000000e+00
      vertex -4.836455e+00 4.273605e-02 5.000000e+00
    endloop
  endfacet
  facet normal 1.000000e+00 0.000000e+00 0.000000e+00
    outer loop
      vertex -4.836455e+00 4.273605e-02 0.000000e+00
      vertex -4.836455e+00 1.957264e+00 0.000000e+00
      vertex -4.836455e+00 4.273605e-02 5.000000e+00
    endloop
  endfacet
  facet normal 8.854561e-01 4.647231e-01 0.000000e+00
    outer loop
      vertex -4.836455e+00 4.273605e-02 5.000000e+00
      vertex -3.946731e+00 -1.652493e+00 5.000000e+00
      vertex -3.946731e+00 -1.652493e+00 0.000000e+00
    endloop
  endfacet
  facet normal 8.854561e-01 4.647231e-01 0.000000e+00
    outer loop
      vertex -4.836455e+00 4.273605e-02 0.000000e+00
      vertex -4.836455e+00 4.273605e-02 5.000000e+00
      vertex -3.946731e+00 -1.652493e+00 0.000000e+00
    endloop
  endfacet
  facet normal 5.680649e-01 8.229838e-01 0.000000e+00
    outer loop
      vertex -2.371108e+00 -2.740067e+00 5.000000e+00
      vertex -2.371108e+00 -2.740067e+00 0.000000e+00
      vertex -3.946731e+00 -1.652493e+00 5.000000e+00
    endloop
  endfacet
  facet normal 5.680649e-01 8.229838e-01 0.000000e+00
    outer loop
      vertex -3.946731e+00 -1.652493e+00 5.000000e+00
      vertex -2.371108e+00 -2.740067e+00 0.000000e+00
      vertex -3.946731e+00 -1.652493e+00 0.000000e+00
    endloop
  endfacet
  facet normal 1.205360e-01 9.927090e-01 0.000000e+00
    outer loop
      vertex -4.705410e-01 -2.970837e+00 5.000000e+00
      vertex -4.705410e-01 -2.970837e+00 0.000000e+00
      vertex -2.371108e+00 -2.740067e+00 5.000000e+00
    endloop
  endfacet
  facet normal 1.205360e-01 9.927090e-01 0.000000e+00
    outer loop
      vertex -2.371108e+00 -2.740067e+00 5.000000e+00
      vertex -4.705410e-01 -2.970837e+00 0.000000e+00
      vertex -2.371108e+00 -2.740067e+00 0.000000e+00
    endloop
  endfacet
  facet normal -3.546051e-01 9.350162e-01 0.000000e+00
    outer loop
      vertex 1.319571e+00 -2.291935e+00 5.000000e+00
      vertex 1.319571e+00 -2.291935e+00 0.000000e+00
      vertex -4.705410e-01 -2.970837e+00 5.000000e+00
    endloop
  endfacet
  facet normal -3.546051e-01 9.350162e-01 0.000000e+00
    outer loop
      vertex -4.705410e-01 -2.970837e+00 5.000000e+00
      vertex 1.319571e+00 -2.291935e+00 0.000000e+00
      vertex -4.705410e-01 -2.970837e+00 0.000000e+00
    endloop
  endfacet
  facet normal -7.485107e-01 6.631227e-01 0.000000e+00
    outer loop
      vertex 2.589136e+00 -8.588943e-01 5.000000e+00
      vertex 2.589136e+00 -8.588943e-01 0.000000e+00
      vertex 1.319571e+00 -2.291935e+00 5.000000e+00
    endloop
  endfacet
  facet normal -7.485107e-01 6.631227e-01 0.000000e+00
    outer loop
      vertex 1.319571e+00 -2.291935e+00 5.000000e+00
      vertex 2.589136e+00 -8.588943e-01 0.000000e+00
      vertex 1.319571e+00 -2.291935e+00 0.000000e+00
    endloop
  endfacet
  facet normal -9.709417e-01 2.393159e-01 0.000000e+00
    outer loop
      vertex 3.047312e+00 1.000000e+00 5.000000e+00
      vertex 3.047312e+00 1.000000e+00 0.000000e+00
      vertex 2.589136e+00 -8.588943e-01 5.000000e+00
    endloop
  endfacet
  facet normal -9.709417e-01 2.393159e-01 0.000000e+00
    outer loop
      vertex 2.589136e+00 -8.588943e-01 5.000000e+00
      vertex 3.047312e+00 1.000000e+00 0.000000e+00
      vertex 2.589136e+00 -8.588943e-01 0.000000e+00
    endloop
  endfacet
  facet normal -9.709417e-01 -2.393159e-01 0.000000e+00
    outer loop
      vertex 3.047312e+00 1.000000e+00 5.000000e+00
      vertex 2.589136e+00 2.858894e+00 5.000000e+00
      vertex 3.047312e+00 1.000000e+00 0.000000e+00
    endloop
  endfacet
  facet normal -9.709417e-01 -2.393159e-01 0.000000e+00
    outer loop
      vertex 3.047312e+00 1.000000e+00 0.000000e+00
      vertex 2.589136e+00 2.858894e+00 5.000000e+00
      vertex 2.589136e+00 2.858894e+00 0.000000e+00
    endloop
  endfacet
  facet normal -7.485107e-01 -6.631227e-01 0.000000e+00
    outer loop
      vertex 2.589136e+00 2.858894e+00 5.000000e+00
      vertex 1.319571e+00 4.291935e+00 5.000000e+00
      vertex 2.589136e+00 2.858894e+00 0.000000e+00
    endloop
  endfacet
  facet normal -7.485107e-01 -6.631227e-01 0.000000e+00
    outer loop
      vertex 2.589136e+00 2.858894e+00 0.000000e+00
      vertex 1.319571e+00 4.291935e+00 5.000000e+00
      vertex 1.319571e+00 4.291935e+00 0.000000e+00
    endloop
  endfacet
  facet normal -3.546051e-01 -9.350162e-01 -0.000000e+00
    outer loop
      vertex 1.319571e+00 4.291935e+00 0.000000e+00
      vertex 1.319571e+00 4.291935e+00 5.000000e+00
      vertex -4.705410e-01 4.970837e+00 5.000000e+00
    endloop
  endfacet
  facet normal -3.546051e-01 -9.350162e-01 -0.000000e+00
    outer loop
      vertex -4.705410e-01 4.970837e+00 0.000000e+00
      vertex 1.319571e+00 4.291935e+00 0.000000e+00
      vertex -4.705410e-01 4.970837e+00 5.000000e+00
    endloop
  endfacet
  facet normal 1.205360e-01 -9.927090e-01 0.000000e+00
    outer loop
      vertex -4.705410e-01 4.970837e+00 0.000000e+00
      vertex -4.705410e-01 4.970837e+00 5.000000e+00
      vertex -2.371108e+00 4.740067e+00 5.000000e+00
    endloop
  endfacet
  facet normal 1.205360e-01 -9.927090e-01 0.000000e+00
    outer loop
      vertex -2.371108e+00 4.740067e+00 0.000000e+00
      vertex -4.705410e-01 4.970837e+00 0.000000e+00
      vertex -2.371108e+00 4.740067e+00 5.000000e+00
    endloop
  endfacet
  facet normal 5.680649e-01 -8.229838e-01 0.000000e+00
    outer loop
      vertex -2.371108e+00 4.740067e+00 0.000000e+00
      vertex -2.371108e+00 4.740067e+00 5.000000e+00
      vertex -3.946731e+00 3.652493e+00 5.000000e+00
    endloop
  endfacet
  facet normal 5.680649e-01 -8.229838e-01 0.000000e+00
    outer loop
      vertex -3.946731e+00 3.652493e+00 0.000000e+00
      vertex -2.371108e+00 4.740067e+00 0.000000e+00
      vertex -3.946731e+00 3.652493e+00 5.000000e+00
    endloop
  endfacet
  facet normal 8.854561e-01 -4.647231e-01 0.000000e+00
    outer loop
      vertex -3.946731e+00 3.652493e+00 0.000000e+00
      vertex -3.946731e+00 3.652493e+00 5.000000e+00
      vertex -4.836455e+00 1.957264e+00 5.000000e+00
    endloop
  endfacet
  facet normal 8.854561e-01 -4.647231e-01 0.000000e+00
    outer loop
      vertex -4.836455e+00 1.957264e+00 0.000000e+00
      vertex -3.946731e+00 3.652493e+00 0.000000e+00
      vertex -4.836455e+00 1.957264e+00 5.000000e+00
    endloop
  endfacet
  facet normal -1.000000e+00 0.000000e+00 0.000000e+00
    outer loop
      vertex -3.245269e+01 -3.150000e+01 5.000000e+00
      vertex -3.245269e+01 -3.150000e+01 2.500000e+00
      vertex -3.245269e+01 -3.500000e+01 5.000000e+00
    endloop
  endfacet
  facet normal -1.000000e+00 0.000000e+00 0.000000e+00
    outer loop
      vertex -3.245269e+01 -3.500000e+01 0.000000e+00
      vertex -3.245269e+01 -3.150000e+01 2.500000e+00
      vertex -3.245269e+01 3.500000e+01 0.000000e+00
    endloop
  endfacet
  facet normal -1.000000e+00 0.000000e+00 0.000000e+00
    outer loop
      vertex -3.245269e+01 3.500000e+01 5.000000e+00
      vertex -3.245269e+01 3.150000e+01 2.500000e+00
      vertex -3.245269e+01 3.150000e+01 5.000000e+00
    endloop
  endfacet
  facet normal -1.000000e+00 0.000000e+00 0.000000e+00
    outer loop
      vertex -3.245269e+01 3.500000e+01 0.000000e+00
      vertex -3.245269e+01 3.150000e+01 2.500000e+00
      vertex -3.245269e+01 3.500000e+01 5.000000e+00
    endloop
  endfacet
  facet normal -1.000000e+00 0.000000e+00 0.000000e+00
    outer loop
      vertex -3.245269e+01 -3.150000e+01 2.500000e+00
      vertex -3.245269e+01 3.150000e+01 2.500000e+00
      vertex -3.245269e+01 3.500000e+01 0.000000e+00
    endloop
  endfacet
  facet normal -1.000000e+00 0.000000e+00 0.000000e+00
    outer loop
      vertex -3.245269e+01 -3.500000e+01 5.000000e+00
      vertex -3.245269e+01 -3.150000e+01 2.500000e+00
      vertex -3.245269e+01 -3.500000e+01 0.000000e+00
    endloop
  endfacet
  facet normal 0.000000e+00 -1.000000e+00 0.000000e+00
    outer loop
      vertex -3.245269e+01 -3.500000e+01 5.000000e+00
      vertex -3.245269e+01 -3.500000e+01 0.000000e+00
      vertex -2.245269e+01 -3.500000e+01 0.000000e+00
    endloop
  endfacet
  facet normal 0.000000e+00 -1.000000e+00 0.000000e+00
    outer loop
      vertex -2.245269e+01 -3.500000e+01 5.000000e+00
      vertex -3.245269e+01 -3.500000e+01 5.000000e+00
      vertex -2.245269e+01 -3.500000e+01 0.000000e+00
    endloop
  endfacet
  facet normal 0.000000e+00 0.000000e+00 -1.000000e+00
    outer loop
      vertex -2.802334e+01 2.000000e+01 0.000000e+00
      vertex -2.245269e+01 -3.500000e+01 0.000000e+00
      vertex -2.802334e+01 -2.000000e+01 0.000000e+00
    endloop
  endfacet
  facet normal 0.000000e+00 0.000000e+00 -1.000000e+00
    outer loop
      vertex -2.802334e+01 2.000000e+01 0.000000e+00
      vertex -3.245269e+01 3.500000e+01 0.000000e+00
      vertex -2.245269e+01 3.500000e+01 0.000000e+00
    endloop
  endfacet
  facet normal 0.000000e+00 0.000000e+00 -1.000000e+00
    outer loop
      vertex -2.245269e+01 -3.500000e+01 0.000000e+00
      vertex -2.245269e+01 3.500000e+01 0.000000e+00
      vertex -1.986450e+01 3.465926e+01 0.000000e+00
    endloop
  endfacet
  facet normal 0.000000e+00 0.000000e+00 -1.000000e+00
    outer loop
      vertex -2.245269e+01 -3.500000e+01 0.000000e+00
      vertex -1.986450e+01 3.465926e+01 0.000000e+00
      vertex -1.745269e+01 3.366026e+01 0.000000e+00
    endloop
  endfacet
  facet normal 0.000000e+00 0.000000e+00 -1.000000e+00
    outer loop
      vertex -2.245269e+01 -3.500000e+01 0.000000e+00
      vertex -1.745269e+01 3.366026e+01 0.000000e+00
      vertex -1.538162e+01 3.207107e+01 0.000000e+00
    endloop
  endfacet
  facet normal 0.000000e+00 0.000000e+00 -1.000000e+00
    outer loop
      vertex -2.245269e+01 -3.500000e+01 0.000000e+00
      vertex -1.538162e+01 3.207107e+01 0.000000e+00
      vertex -1.379243e+01 3.000000e+01 0.000000e+00
    endloop
  endfacet
  facet normal 0.000000e+00 0.000000e+00 -1.000000e+00
    outer loop
      vertex -2.245269e+01 -3.500000e+01 0.000000e+00
      vertex -1.379243e+01 3.000000e+01 0.000000e+00
      vertex -1.279343e+01 2.758819e+01 0.000000e+00
    endloop
  endfacet
  facet normal 0.000000e+00 0.000000e+00 -1.000000e+00
    outer loop
      vertex -2.245269e+01 -3.500000e+01 0.000000e+00
      vertex -1.279343e+01 2.758819e+01 0.000000e+00
      vertex -1.245269e+01 2.500000e+01 0.000000e+00
    endloop
  endfacet
  facet normal 0.000000e+00 0.000000e+00 -1.000000e+00
    outer loop
      vertex -2.245269e+01 -3.500000e+01 0.000000e+00
      vertex -1.245269e+01 2.500000e+01 0.000000e+00
      vertex -1.245269e+01 -2.500000e+01 0.000000e+00
    endloop
  endfacet
  facet normal 0.000000e+00 0.000000e+00 -1.000000e+00
    outer loop
      vertex -2.245269e+01 -3.500000e+01 0.000000e+00
      vertex -1.245269e+01 -2.500000e+01 0.000000e+00
      vertex -1.279343e+01 -2.758819e+01 0.000000e+00
    endloop
  endfacet
  facet normal 0.000000e+00 0.000000e+00 -1.000000e+00
    outer loop
      vertex -2.245269e+01 -3.500000e+01 0.000000e+00
      vertex -1.279343e+01 -2.758819e+01 0.000000e+00
      vertex -1.379243e+01 -3.000000e+01 0.000000e+00
    endloop
  endfacet
  facet normal 0.000000e+00 0.000000e+00 -1.000000e+00
    outer loop
      vertex -2.245269e+01 -3.500000e+01 0.000000e+00
      vertex -1.379243e+01 -3.000000e+01 0.000000e+00
      vertex -1.538162e+01 -3.207107e+01 0.000000e+00
    endloop
  endfacet
  facet normal 0.000000e+00 0.000000e+00 -1.000000e+00
    outer loop
      vertex -2.245269e+01 -3.500000e+01 0.000000e+00
      vertex -1.538162e+01 -3.207107e+01 0.000000e+00
      vertex -1.745269e+01 -3.366025e+01 0.000000e+00
    endloop
  endfacet
  facet normal 0.000000e+00 0.000000e+00 -1.000000e+00
    outer loop
      vertex -2.245269e+01 -3.500000e+01 0.000000e+00
      vertex -1.745269e+01 -3.366025e+01 0.000000e+00
      vertex -1.986450e+01 -3.465926e+01 0.000000e+00
    endloop
  endfacet
  facet normal 0.000000e+00 0.000000e+00 -1.000000e+00
    outer loop
      vertex -3.245269e+01 -3.500000e+01 0.000000e+00
      vertex -3.245269e+01 3.500000e+01 0.000000e+00
      vertex -3.124023e+01 2.000000e+01 0.000000e+00
    endloop
  endfacet
  facet normal 0.000000e+00 0.000000e+00 -1.000000e+00
    outer loop
      vertex -3.245269e+01 -3.500000e+01 0.000000e+00
      vertex -3.124023e+01 2.000000e+01 0.000000e+00
      vertex -3.124023e+01 -2.000000e+01 0.000000e+00
    endloop
  endfacet
  facet normal 0.000000e+00 0.000000e+00 -1.000000e+00
    outer loop
      vertex -3.245269e+01 -3.500000e+01 0.000000e+00
      vertex -3.124023e+01 -2.000000e+01 0.000000e+00
      vertex -2.245269e+01 -3.500000e+01 0.000000e+00
    endloop
  endfacet
  facet normal 0.000000e+00 0.000000e+00 -1.000000e+00
    outer loop
      vertex -3.124023e+01 -2.000000e+01 0.000000e+00
      vertex -2.802334e+01 -2.000000e+01 0.000000e+00
      vertex -2.245269e+01 -3.500000e+01 0.000000e+00
    endloop
  endfacet
  facet normal 0.000000e+00 0.000000e+00 -1.000000e+00
    outer loop
      vertex -2.245269e+01 -3.500000e+01 0.000000e+00
      vertex -2.802334e+01 2.000000e+01 0.000000e+00
      vertex -2.245269e+01 3.500000e+01 0.000000e+00
    endloop
  endfacet
  facet normal -0.000000e+00 -0.000000e+00 -1.000000e+00
    outer loop
      vertex -3.124023e+01 2.000000e+01 0.000000e+00
      vertex -3.245269e+01 3.500000e+01 0.000000e+00
      vertex -2.802334e+01 2.000000e+01 0.000000e+00
    endloop
  endfacet
  facet normal 0.000000e+00 0.000000e+00 1.000000e+00
    outer loop
      vertex -3.245269e+01 -3.150000e+01 5.000000e+00
      vertex -3.245269e+01 -3.500000e+01 5.000000e+00
      vertex -2.245269e+01 -3.500000e+01 5.000000e+00
    endloop
  endfacet
  facet normal 0.000000e+00 0.000000e+00 1.000000e+00
    outer loop
      vertex -1.745269e+01 -3.366025e+01 5.000000e+00
      vertex -3.245269e+01 -3.150000e+01 5.000000e+00
      vertex -1.986450e+01 -3.465926e+01 5.000000e+00
    endloop
  endfacet
  facet normal 0.000000e+00 0.000000e+00 1.000000e+00
    outer loop
      vertex -1.986450e+01 -3.465926e+01 5.000000e+00
      vertex -3.245269e+01 -3.150000e+01 5.000000e+00
      vertex -2.245269e+01 -3.500000e+01 5.000000e+00
    endloop
  endfacet
  facet normal 0.000000e+00 0.000000e+00 1.000000e+00
    outer loop
      vertex -1.538162e+01 -3.207107e+01 5.000000e+00
      vertex -3.245269e+01 -3.150000e+01 5.000000e+00
      vertex -1.745269e+01 -3.366025e+01 5.000000e+00
    endloop
  endfacet
  facet normal 0.000000e+00 0.000000e+00 1.000000e+00
    outer loop
      vertex -2.545269e+01 -3.150000e+01 5.000000e+00
      vertex -3.245269e+01 -3.150000e+01 5.000000e+00
      vertex -1.538162e+01 -3.207107e+01 5.000000e+00
    endloop
  endfacet
  facet normal 0.000000e+00 0.000000e+00 1.000000e+00
    outer loop
      vertex -2.095269e+01 -3.029423e+01 5.000000e+00
      vertex -2.312332e+01 -3.119333e+01 5.000000e+00
      vertex -1.379243e+01 -3.000000e+01 5.000000e+00
    endloop
  endfacet
  facet normal 0.000000e+00 0.000000e+00 1.000000e+00
    outer loop
      vertex -1.765846e+01 -2.700000e+01 5.000000e+00
      vertex -1.908873e+01 -2.886396e+01 5.000000e+00
      vertex -1.279343e+01 -2.758819e+01 5.000000e+00
    endloop
  endfacet
  facet normal 0.000000e+00 0.000000e+00 1.000000e+00
    outer loop
      vertex -1.675936e+01 -2.482937e+01 5.000000e+00
      vertex -1.765846e+01 -2.700000e+01 5.000000e+00
      vertex -1.245269e+01 -2.500000e+01 5.000000e+00
    endloop
  endfacet
  facet normal 0.000000e+00 0.000000e+00 1.000000e+00
    outer loop
      vertex -1.645269e+01 2.250000e+01 5.000000e+00
      vertex -1.279343e+01 2.758819e+01 5.000000e+00
      vertex -1.379243e+01 3.000000e+01 5.000000e+00
    endloop
  endfacet
  facet normal 0.000000e+00 0.000000e+00 1.000000e+00
    outer loop
      vertex -1.765846e+01 2.700000e+01 5.000000e+00
      vertex -1.675936e+01 2.482937e+01 5.000000e+00
      vertex -1.538162e+01 3.207107e+01 5.000000e+00
    endloop
  endfacet
  facet normal 0.000000e+00 0.000000e+00 1.000000e+00
    outer loop
      vertex -1.908873e+01 2.886396e+01 5.000000e+00
      vertex -1.765846e+01 2.700000e+01 5.000000e+00
      vertex -1.745269e+01 3.366026e+01 5.000000e+00
    endloop
  endfacet
  facet normal 0.000000e+00 0.000000e+00 1.000000e+00
    outer loop
      vertex -2.095269e+01 3.029423e+01 5.000000e+00
      vertex -1.908873e+01 2.886396e+01 5.000000e+00
      vertex -1.986450e+01 3.465926e+01 5.000000e+00
    endloop
  endfacet
  facet normal 0.000000e+00 0.000000e+00 1.000000e+00
    outer loop
      vertex -3.245269e+01 3.500000e+01 5.000000e+00
      vertex -3.245269e+01 3.150000e+01 5.000000e+00
      vertex -2.245269e+01 3.500000e+01 5.000000e+00
    endloop
  endfacet
  facet normal 0.000000e+00 0.000000e+00 1.000000e+00
    outer loop
      vertex -3.245269e+01 3.150000e+01 5.000000e+00
      vertex -2.545269e+01 3.150000e+01 5.000000e+00
      vertex -2.245269e+01 3.500000e+01 5.000000e+00
    endloop
  endfacet
  facet normal 0.000000e+00 0.000000e+00 1.000000e+00
    outer loop
      vertex -2.545269e+01 3.150000e+01 5.000000e+00
      vertex -2.312332e+01 3.119333e+01 5.000000e+00
      vertex -2.245269e+01 3.500000e+01 5.000000e+00
    endloop
  endfacet
  facet normal 0.000000e+00 0.000000e+00 1.000000e+00
    outer loop
      vertex -2.245269e+01 3.500000e+01 5.000000e+00
      vertex -2.095269e+01 3.029423e+01 5.000000e+00
      vertex -1.986450e+01 3.465926e+01 5.000000e+00
    endloop
  endfacet
  facet normal 0.000000e+00 0.000000e+00 1.000000e+00
    outer loop
      vertex -1.986450e+01 3.465926e+01 5.000000e+00
      vertex -1.908873e+01 2.886396e+01 5.000000e+00
      vertex -1.745269e+01 3.366026e+01 5.000000e+00
    endloop
  endfacet
  facet normal 0.000000e+00 0.000000e+00 1.000000e+00
    outer loop
      vertex -1.745269e+01 3.366026e+01 5.000000e+00
      vertex -1.765846e+01 2.700000e+01 5.000000e+00
      vertex -1.538162e+01 3.207107e+01 5.000000e+00
    endloop
  endfacet
  facet normal 0.000000e+00 0.000000e+00 1.000000e+00
    outer loop
      vertex -1.538162e+01 3.207107e+01 5.000000e+00
      vertex -1.675936e+01 2.482937e+01 5.000000e+00
      vertex -1.379243e+01 3.000000e+01 5.000000e+00
    endloop
  endfacet
  facet normal 0.000000e+00 0.000000e+00 1.000000e+00
    outer loop
      vertex -1.675936e+01 2.482937e+01 5.000000e+00
      vertex -1.645269e+01 2.250000e+01 5.000000e+00
      vertex -1.379243e+01 3.000000e+01 5.000000e+00
    endloop
  endfacet
  facet normal 0.000000e+00 0.000000e+00 1.000000e+00
    outer loop
      vertex -1.245269e+01 2.500000e+01 5.000000e+00
      vertex -1.645269e+01 -2.250000e+01 5.000000e+00
      vertex -1.245269e+01 -2.500000e+01 5.000000e+00
    endloop
  endfacet
  facet normal 0.000000e+00 0.000000e+00 1.000000e+00
    outer loop
      vertex -1.645269e+01 -2.250000e+01 5.000000e+00
      vertex -1.675936e+01 -2.482937e+01 5.000000e+00
      vertex -1.245269e+01 -2.500000e+01 5.000000e+00
    endloop
  endfacet
  facet normal 0.000000e+00 0.000000e+00 1.000000e+00
    outer loop
      vertex -1.245269e+01 -2.500000e+01 5.000000e+00
      vertex -1.765846e+01 -2.700000e+01 5.000000e+00
      vertex -1.279343e+01 -2.758819e+01 5.000000e+00
    endloop
  endfacet
  facet normal 0.000000e+00 0.000000e+00 1.000000e+00
    outer loop
      vertex -1.279343e+01 -2.758819e+01 5.000000e+00
      vertex -1.908873e+01 -2.886396e+01 5.000000e+00
      vertex -1.379243e+01 -3.000000e+01 5.000000e+00
    endloop
  endfacet
  facet normal 0.000000e+00 0.000000e+00 1.000000e+00
    outer loop
      vertex -1.908873e+01 -2.886396e+01 5.000000e+00
      vertex -2.095269e+01 -3.029423e+01 5.000000e+00
      vertex -1.379243e+01 -3.000000e+01 5.000000e+00
    endloop
  endfacet
  facet normal 0.000000e+00 0.000000e+00 1.000000e+00
    outer loop
      vertex -1.379243e+01 -3.000000e+01 5.000000e+00
      vertex -2.312332e+01 -3.119333e+01 5.000000e+00
      vertex -1.538162e+01 -3.207107e+01 5.000000e+00
    endloop
  endfacet
  facet normal 0.000000e+00 0.000000e+00 1.000000e+00
    outer loop
      vertex -2.312332e+01 -3.119333e+01 5.000000e+00
      vertex -2.545269e+01 -3.150000e+01 5.000000e+00
      vertex -1.538162e+01 -3.207107e+01 5.000000e+00
    endloop
  endfacet
  facet normal 0.000000e+00 0.000000e+00 1.000000e+00
    outer loop
      vertex -2.312332e+01 3.119333e+01 5.000000e+00
      vertex -2.095269e+01 3.029423e+01 5.000000e+00
      vertex -2.245269e+01 3.500000e+01 5.000000e+00
    endloop
  endfacet
  facet normal 0.000000e+00 0.000000e+00 1.000000e+00
    outer loop
      vertex -1.645269e+01 2.250000e+01 5.000000e+00
      vertex -1.245269e+01 2.500000e+01 5.000000e+00
      vertex -1.279343e+01 2.758819e+01 5.000000e+00
    endloop
  endfacet
  facet normal 0.000000e+00 0.000000e+00 1.000000e+00
    outer loop
      vertex -1.645269e+01 2.250000e+01 5.000000e+00
      vertex -1.645269e+01 -2.250000e+01 5.000000e+00
      vertex -1.245269e+01 2.500000e+01 5.000000e+00
    endloop
  endfacet
  facet normal 0.000000e+00 1.000000e+00 0.000000e+00
    outer loop
      vertex -3.245269e+01 3.500000e+01 0.000000e+00
      vertex -3.245269e+01 3.500000e+01 5.000000e+00
      vertex -2.245269e+01 3.500000e+01 0.000000e+00
    endloop
  endfacet
  facet normal 0.000000e+00 1.000000e+00 0.000000e+00
    outer loop
      vertex -2.245269e+01 3.500000e+01 0.000000e+00
      vertex -3.245269e+01 3.500000e+01 5.000000e+00
      vertex -2.245269e+01 3.500000e+01 5.000000e+00
    endloop
  endfacet
  facet normal 0.000000e+00 -1.000000e+00 0.000000e+00
    outer loop
      vertex -2.545269e+01 3.150000e+01 2.500000e+00
      vertex -2.545269e+01 3.150000e+01 5.000000e+00
      vertex -3.245269e+01 3.150000e+01 5.000000e+00
    endloop
  endfacet
  facet normal -0.000000e+00 -1.000000e+00 -0.000000e+00
    outer loop
      vertex -3.245269e+01 3.150000e+01 2.500000e+00
      vertex -2.545269e+01 3.150000e+01 2.500000e+00
      vertex -3.245269e+01 3.150000e+01 5.000000e+00
    endloop
  endfacet
  facet normal 0.000000e+00 0.000000e+00 1.000000e+00
    outer loop
      vertex -2.545269e+01 -3.150000e+01 2.500000e+00
      vertex -2.312332e+01 -3.119333e+01 2.500000e+00
      vertex -2.095269e+01 -3.029423e+01 2.500000e+00
    endloop
  endfacet
  facet normal 0.000000e+00 0.000000e+00 1.000000e+00
    outer loop
      vertex -1.765846e+01 -2.700000e+01 2.500000e+00
      vertex -2.545269e+01 -3.150000e+01 2.500000e+00
      vertex -1.908873e+01 -2.886396e+01 2.500000e+00
    endloop
  endfacet
  facet normal 0.000000e+00 0.000000e+00 1.000000e+00
    outer loop
      vertex -1.908873e+01 -2.886396e+01 2.500000e+00
      vertex -2.545269e+01 -3.150000e+01 2.500000e+00
      vertex -2.095269e+01 -3.029423e+01 2.500000e+00
    endloop
  endfacet
  facet normal 0.000000e+00 0.000000e+00 1.000000e+00
    outer loop
      vertex -1.675936e+01 -2.482937e+01 2.500000e+00
      vertex -2.545269e+01 -3.150000e+01 2.500000e+00
      vertex -1.765846e+01 -2.700000e+01 2.500000e+00
    endloop
  endfacet
  facet normal 0.000000e+00 0.000000e+00 1.000000e+00
    outer loop
      vertex -1.645269e+01 -2.250000e+01 2.500000e+00
      vertex -2.545269e+01 -3.150000e+01 2.500000e+00
      vertex -1.675936e+01 -2.482937e+01 2.500000e+00
    endloop
  endfacet
  facet normal 0.000000e+00 0.000000e+00 1.000000e+00
    outer loop
      vertex -1.645269e+01 2.250000e+01 2.500000e+00
      vertex -2.545269e+01 -3.150000e+01 2.500000e+00
      vertex -1.645269e+01 -2.250000e+01 2.500000e+00
    endloop
  endfacet
  facet normal 0.000000e+00 0.000000e+00 1.000000e+00
    outer loop
      vertex -1.675936e+01 2.482937e+01 2.500000e+00
      vertex -2.545269e+01 -3.150000e+01 2.500000e+00
      vertex -1.645269e+01 2.250000e+01 2.500000e+00
    endloop
  endfacet
  facet normal 0.000000e+00 0.000000e+00 1.000000e+00
    outer loop
      vertex -1.765846e+01 2.700000e+01 2.500000e+00
      vertex -2.545269e+01 -3.150000e+01 2.500000e+00
      vertex -1.675936e+01 2.482937e+01 2.500000e+00
    endloop
  endfacet
  facet normal 0.000000e+00 0.000000e+00 1.000000e+00
    outer loop
      vertex -1.908873e+01 2.886396e+01 2.500000e+00
      vertex -2.545269e+01 -3.150000e+01 2.500000e+00
      vertex -1.765846e+01 2.700000e+01 2.500000e+00
    endloop
  endfacet
  facet normal 0.000000e+00 0.000000e+00 1.000000e+00
    outer loop
      vertex -2.095269e+01 3.029423e+01 2.500000e+00
      vertex -2.545269e+01 -3.150000e+01 2.500000e+00
      vertex -1.908873e+01 2.886396e+01 2.500000e+00
    endloop
  endfacet
  facet normal 0.000000e+00 0.000000e+00 1.000000e+00
    outer loop
      vertex -2.312332e+01 3.119333e+01 2.500000e+00
      vertex -2.545269e+01 -3.150000e+01 2.500000e+00
      vertex -2.095269e+01 3.029423e+01 2.500000e+00
    endloop
  endfacet
  facet normal 0.000000e+00 0.000000e+00 1.000000e+00
    outer loop
      vertex -2.545269e+01 3.150000e+01 2.500000e+00
      vertex -2.545269e+01 -3.150000e+01 2.500000e+00
      vertex -2.312332e+01 3.119333e+01 2.500000e+00
    endloop
  endfacet
  facet normal 0.000000e+00 0.000000e+00 1.000000e+00
    outer loop
      vertex -2.599888e+01 2.000000e+01 2.500000e+00
      vertex -2.545269e+01 -3.150000e+01 2.500000e+00
      vertex -2.545269e+01 3.150000e+01 2.500000e+00
    endloop
  endfacet
  facet normal 0.000000e+00 0.000000e+00 1.000000e+00
    outer loop
      vertex -2.599888e+01 -2.000000e+01 2.500000e+00
      vertex -2.921577e+01 -2.000000e+01 2.500000e+00
      vertex -2.545269e+01 -3.150000e+01 2.500000e+00
    endloop
  endfacet
  facet normal 0.000000e+00 0.000000e+00 1.000000e+00
    outer loop
      vertex -3.245269e+01 3.150000e+01 2.500000e+00
      vertex -2.921577e+01 2.000000e+01 2.500000e+00
      vertex -2.545269e+01 3.150000e+01 2.500000e+00
    endloop
  endfacet
  facet normal 0.000000e+00 0.000000e+00 1.000000e+00
    outer loop
      vertex -2.921577e+01 2.000000e+01 2.500000e+00
      vertex -2.599888e+01 2.000000e+01 2.500000e+00
      vertex -2.545269e+01 3.150000e+01 2.500000e+00
    endloop
  endfacet
  facet normal 0.000000e+00 0.000000e+00 1.000000e+00
    outer loop
      vertex -2.599888e+01 -2.000000e+01 2.500000e+00
      vertex -2.545269e+01 -3.150000e+01 2.500000e+00
      vertex -2.599888e+01 2.000000e+01 2.500000e+00
    endloop
  endfacet
  facet normal 0.000000e+00 0.000000e+00 1.000000e+00
    outer loop
      vertex -3.245269e+01 -3.150000e+01 2.500000e+00
      vertex -2.921577e+01 -2.000000e+01 2.500000e+00
      vertex -3.245269e+01 3.150000e+01 2.500000e+00
    endloop
  endfacet
  facet normal 0.000000e+00 0.000000e+00 1.000000e+00
    outer loop
      vertex -3.245269e+01 -3.150000e+01 2.500000e+00
      vertex -2.545269e+01 -3.150000e+01 2.500000e+00
      vertex -2.921577e+01 -2.000000e+01 2.500000e+00
    endloop
  endfacet
  facet normal 0.000000e+00 0.000000e+00 1.000000e+00
    outer loop
      vertex -2.921577e+01 -2.000000e+01 2.500000e+00
      vertex -2.921577e+01 2.000000e+01 2.500000e+00
      vertex -3.245269e+01 3.150000e+01 2.500000e+00
    endloop
  endfacet
  facet normal 0.000000e+00 1.000000e+00 0.000000e+00
    outer loop
      vertex -2.545269e+01 -3.150000e+01 5.000000e+00
      vertex -2.545269e+01 -3.150000e+01 2.500000e+00
      vertex -3.245269e+01 -3.150000e+01 5.000000e+00
    endloop
  endfacet
  facet normal 0.000000e+00 1.000000e+00 0.000000e+00
    outer loop
      vertex -3.245269e+01 -3.150000e+01 5.000000e+00
      vertex -2.545269e+01 -3.150000e+01 2.500000e+00
      vertex -3.245269e+01 -3.150000e+01 2.500000e+00
    endloop
  endfacet
  facet normal 1.305260e-01 -9.914449e-01 0.000000e+00
    outer loop
      vertex -2.245269e+01 -3.500000e+01 5.000000e+00
      vertex -2.245269e+01 -3.500000e+01 0.000000e+00
      vertex -1.986450e+01 -3.465926e+01 0.000000e+00
    endloop
  endfacet
  facet normal 1.305260e-01 -9.914449e-01 0.000000e+00
    outer loop
      vertex -1.986450e+01 -3.465926e+01 5.000000e+00
      vertex -2.245269e+01 -3.500000e+01 5.000000e+00
      vertex -1.986450e+01 -3.465926e+01 0.000000e+00
    endloop
  endfacet
  facet normal 3.826829e-01 -9.238797e-01 0.000000e+00
    outer loop
      vertex -1.986450e+01 -3.465926e+01 5.000000e+00
      vertex -1.986450e+01 -3.465926e+01 0.000000e+00
      vertex -1.745269e+01 -3.366025e+01 0.000000e+00
    endloop
  endfacet
  facet normal 3.826829e-01 -9.238797e-01 0.000000e+00
    outer loop
      vertex -1.745269e+01 -3.366025e+01 5.000000e+00
      vertex -1.986450e+01 -3.465926e+01 5.000000e+00
      vertex -1.745269e+01 -3.366025e+01 0.000000e+00
    endloop
  endfacet
  facet normal 6.087613e-01 -7.933534e-01 0.000000e+00
    outer loop
      vertex -1.745269e+01 -3.366025e+01 5.000000e+00
      vertex -1.745269e+01 -3.366025e+01 0.000000e+00
      vertex -1.538162e+01 -3.207107e+01 0.000000e+00
    endloop
  endfacet
  facet normal 6.087613e-01 -7.933534e-01 0.000000e+00
    outer loop
      vertex -1.538162e+01 -3.207107e+01 5.000000e+00
      vertex -1.745269e+01 -3.366025e+01 5.000000e+00
      vertex -1.538162e+01 -3.207107e+01 0.000000e+00
    endloop
  endfacet
  facet normal 7.933534e-01 -6.087613e-01 0.000000e+00
    outer loop
      vertex -1.538162e+01 -3.207107e+01 5.000000e+00
      vertex -1.538162e+01 -3.207107e+01 0.000000e+00
      vertex -1.379243e+01 -3.000000e+01 0.000000e+00
    endloop
  endfacet
  facet normal 7.933534e-01 -6.087613e-01 0.000000e+00
    outer loop
      vertex -1.379243e+01 -3.000000e+01 5.000000e+00
      vertex -1.538162e+01 -3.207107e+01 5.000000e+00
      vertex -1.379243e+01 -3.000000e+01 0.000000e+00
    endloop
  endfacet
  facet normal 9.238797e-01 -3.826829e-01 0.000000e+00
    outer loop
      vertex -1.379243e+01 -3.000000e+01 5.000000e+00
      vertex -1.379243e+01 -3.000000e+01 0.000000e+00
      vertex -1.279343e+01 -2.758819e+01 0.000000e+00
    endloop
  endfacet
  facet normal 9.238797e-01 -3.826829e-01 0.000000e+00
    outer loop
      vertex -1.279343e+01 -2.758819e+01 5.000000e+00
      vertex -1.379243e+01 -3.000000e+01 5.000000e+00
      vertex -1.279343e+01 -2.758819e+01 0.000000e+00
    endloop
  endfacet
  facet normal 9.914449e-01 -1.305260e-01 0.000000e+00
    outer loop
      vertex -1.279343e+01 -2.758819e+01 5.000000e+00
      vertex -1.279343e+01 -2.758819e+01 0.000000e+00
      vertex -1.245269e+01 -2.500000e+01 0.000000e+00
    endloop
  endfacet
  facet normal 9.914449e-01 -1.305260e-01 0.000000e+00
    outer loop
      vertex -1.245269e+01 -2.500000e+01 5.000000e+00
      vertex -1.279343e+01 -2.758819e+01 5.000000e+00
      vertex -1.245269e+01 -2.500000e+01 0.000000e+00
    endloop
  endfacet
  facet normal 1.000000e+00 0.000000e+00 0.000000e+00
    outer loop
      vertex -1.245269e+01 -2.500000e+01 5.000000e+00
      vertex -1.245269e+01 -2.500000e+01 0.000000e+00
      vertex -1.245269e+01 2.500000e+01 0.000000e+00
    endloop
  endfacet
  facet normal 1.000000e+00 0.000000e+00 0.000000e+00
    outer loop
      vertex -1.245269e+01 2.500000e+01 5.000000e+00
      vertex -1.245269e+01 -2.500000e+01 5.000000e+00
      vertex -1.245269e+01 2.500000e+01 0.000000e+00
    endloop
  endfacet
  facet normal 9.914449e-01 1.305260e-01 0.000000e+00
    outer loop
      vertex -1.245269e+01 2.500000e+01 0.000000e+00
      vertex -1.279343e+01 2.758819e+01 0.000000e+00
      vertex -1.279343e+01 2.758819e+01 5.000000e+00
    endloop
  endfacet
  facet normal 9.914449e-01 1.305260e-01 0.000000e+00
    outer loop
      vertex -1.245269e+01 2.500000e+01 5.000000e+00
      vertex -1.245269e+01 2.500000e+01 0.000000e+00
      vertex -1.279343e+01 2.758819e+01 5.000000e+00
    endloop
  endfacet
  facet normal 9.238797e-01 3.826829e-01 0.000000e+00
    outer loop
      vertex -1.279343e+01 2.758819e+01 0.000000e+00
      vertex -1.379243e+01 3.000000e+01 0.000000e+00
      vertex -1.379243e+01 3.000000e+01 5.000000e+00
    endloop
  endfacet
  facet normal 9.238797e-01 3.826829e-01 0.000000e+00
    outer loop
      vertex -1.279343e+01 2.758819e+01 5.000000e+00
      vertex -1.279343e+01 2.758819e+01 0.000000e+00
      vertex -1.379243e+01 3.000000e+01 5.000000e+00
    endloop
  endfacet
  facet normal 7.933534e-01 6.087613e-01 0.000000e+00
    outer loop
      vertex -1.379243e+01 3.000000e+01 0.000000e+00
      vertex -1.538162e+01 3.207107e+01 0.000000e+00
      vertex -1.538162e+01 3.207107e+01 5.000000e+00
    endloop
  endfacet
  facet normal 7.933534e-01 6.087613e-01 0.000000e+00
    outer loop
      vertex -1.379243e+01 3.000000e+01 5.000000e+00
      vertex -1.379243e+01 3.000000e+01 0.000000e+00
      vertex -1.538162e+01 3.207107e+01 5.000000e+00
    endloop
  endfacet
  facet normal 6.087613e-01 7.933534e-01 0.000000e+00
    outer loop
      vertex -1.745269e+01 3.366026e+01 0.000000e+00
      vertex -1.745269e+01 3.366026e+01 5.000000e+00
      vertex -1.538162e+01 3.207107e+01 0.000000e+00
    endloop
  endfacet
  facet normal 6.087613e-01 7.933534e-01 0.000000e+00
    outer loop
      vertex -1.538162e+01 3.207107e+01 0.000000e+00
      vertex -1.745269e+01 3.366026e+01 5.000000e+00
      vertex -1.538162e+01 3.207107e+01 5.000000e+00
    endloop
  endfacet
  facet normal 3.826829e-01 9.238797e-01 0.000000e+00
    outer loop
      vertex -1.986450e+01 3.465926e+01 0.000000e+00
      vertex -1.986450e+01 3.465926e+01 5.000000e+00
      vertex -1.745269e+01 3.366026e+01 0.000000e+00
    endloop
  endfacet
  facet normal 3.826829e-01 9.238797e-01 0.000000e+00
    outer loop
      vertex -1.745269e+01 3.366026e+01 0.000000e+00
      vertex -1.986450e+01 3.465926e+01 5.000000e+00
      vertex -1.745269e+01 3.366026e+01 5.000000e+00
    endloop
  endfacet
  facet normal 1.305260e-01 9.914449e-01 0.000000e+00
    outer loop
      vertex -2.245269e+01 3.500000e+01 0.000000e+00
      vertex -2.245269e+01 3.500000e+01 5.000000e+00
      vertex -1.986450e+01 3.465926e+01 0.000000e+00
    endloop
  endfacet
  facet normal 1.305260e-01 9.914449e-01 0.000000e+00
    outer loop
      vertex -1.986450e+01 3.465926e+01 0.000000e+00
      vertex -2.245269e+01 3.500000e+01 5.000000e+00
      vertex -1.986450e+01 3.465926e+01 5.000000e+00
    endloop
  endfacet
  facet normal 0.000000e+00 -1.000000e+00 0.000000e+00
    outer loop
      vertex -2.802334e+01 2.000000e+01 0.000000e+00
      vertex -2.599888e+01 2.000000e+01 2.500000e+00
      vertex -2.921577e+01 2.000000e+01 2.500000e+00
    endloop
  endfacet
  facet normal 0.000000e+00 -1.000000e+00 0.000000e+00
    outer loop
      vertex -3.124023e+01 2.000000e+01 0.000000e+00
      vertex -2.802334e+01 2.000000e+01 0.000000e+00
      vertex -2.921577e+01 2.000000e+01 2.500000e+00
    endloop
  endfacet
  facet normal 7.771462e-01 0.000000e+00 -6.293202e-01
    outer loop
      vertex -3.124023e+01 2.000000e+01 0.000000e+00
      vertex -2.921577e+01 2.000000e+01 2.500000e+00
      vertex -2.921577e+01 -2.000000e+01 2.500000e+00
    endloop
  endfacet
  facet normal 7.771462e-01 0.000000e+00 -6.293202e-01
    outer loop
      vertex -3.124023e+01 -2.000000e+01 0.000000e+00
      vertex -3.124023e+01 2.000000e+01 0.000000e+00
      vertex -2.921577e+01 -2.000000e+01 2.500000e+00
    endloop
  endfacet
  facet normal -7.771462e-01 0.000000e+00 6.293202e-01
    outer loop
      vertex -2.599888e+01 2.000000e+01 2.500000e+00
      vertex -2.802334e+01 2.000000e+01 0.000000e+00
      vertex -2.599888e+01 -2.000000e+01 2.500000e+00
    endloop
  endfacet
  facet normal -7.771462e-01 0.000000e+00 6.293202e-01
    outer loop
      vertex -2.599888e+01 -2.000000e+01 2.500000e+00
      vertex -2.802334e+01 2.000000e+01 0.000000e+00
      vertex -2.802334e+01 -2.000000e+01 0.000000e+00
    endloop
  endfacet
  facet normal 0.000000e+00 1.000000e+00 0.000000e+00
    outer loop
      vertex -2.599888e+01 -2.000000e+01 2.500000e+00
      vertex -2.802334e+01 -2.000000e+01 0.000000e+00
      vertex -2.921577e+01 -2.000000e+01 2.500000e+00
    endloop
  endfacet
  facet normal 0.000000e+00 1.000000e+00 0.000000e+00
    outer loop
      vertex -2.921577e+01 -2.000000e+01 2.500000e+00
      vertex -2.802334e+01 -2.000000e+01 0.000000e+00
      vertex -3.124023e+01 -2.000000e+01 0.000000e+00
    endloop
  endfacet
  facet normal -1.305260e-01 9.914449e-01 0.000000e+00
    outer loop
      vertex -2.312332e+01 -3.119333e+01 5.000000e+00
      vertex -2.312332e+01 -3.119333e+01 2.500000e+00
      vertex -2.545269e+01 -3.150000e+01 5.000000e+00
    endloop
  endfacet
  facet normal -1.305260e-01 9.914449e-01 0.000000e+00
    outer loop
      vertex -2.545269e+01 -3.150000e+01 5.000000e+00
      vertex -2.312332e+01 -3.119333e+01 2.500000e+00
      vertex -2.545269e+01 -3.150000e+01 2.500000e+00
    endloop
  endfacet
  facet normal -3.826829e-01 9.238797e-01 0.000000e+00
    outer loop
      vertex -2.095269e+01 -3.029423e+01 5.000000e+00
      vertex -2.095269e+01 -3.029423e+01 2.500000e+00
      vertex -2.312332e+01 -3.119333e+01 5.000000e+00
    endloop
  endfacet
  facet normal -3.826829e-01 9.238797e-01 0.000000e+00
    outer loop
      vertex -2.312332e+01 -3.119333e+01 5.000000e+00
      vertex -2.095269e+01 -3.029423e+01 2.500000e+00
      vertex -2.312332e+01 -3.119333e+01 2.500000e+00
    endloop
  endfacet
  facet normal -6.087613e-01 7.933534e-01 0.000000e+00
    outer loop
      vertex -1.908873e+01 -2.886396e+01 5.000000e+00
      vertex -1.908873e+01 -2.886396e+01 2.500000e+00
      vertex -2.095269e+01 -3.029423e+01 5.000000e+00
    endloop
  endfacet
  facet normal -6.087613e-01 7.933534e-01 0.000000e+00
    outer loop
      vertex -2.095269e+01 -3.029423e+01 5.000000e+00
      vertex -1.908873e+01 -2.886396e+01 2.500000e+00
      vertex -2.095269e+01 -3.029423e+01 2.500000e+00
    endloop
  endfacet
  facet normal -7.933534e-01 6.087613e-01 0.000000e+00
    outer loop
      vertex -1.765846e+01 -2.700000e+01 5.000000e+00
      vertex -1.765846e+01 -2.700000e+01 2.500000e+00
      vertex -1.908873e+01 -2.886396e+01 5.000000e+00
    endloop
  endfacet
  facet normal -7.933534e-01 6.087613e-01 0.000000e+00
    outer loop
      vertex -1.908873e+01 -2.886396e+01 5.000000e+00
      vertex -1.765846e+01 -2.700000e+01 2.500000e+00
      vertex -1.908873e+01 -2.886396e+01 2.500000e+00
    endloop
  endfacet
  facet normal -9.238797e-01 3.826829e-01 0.000000e+00
    outer loop
      vertex -1.675936e+01 -2.482937e+01 5.000000e+00
      vertex -1.675936e+01 -2.482937e+01 2.500000e+00
      vertex -1.765846e+01 -2.700000e+01 5.000000e+00
    endloop
  endfacet
  facet normal -9.238797e-01 3.826829e-01 0.000000e+00
    outer loop
      vertex -1.765846e+01 -2.700000e+01 5.000000e+00
      vertex -1.675936e+01 -2.482937e+01 2.500000e+00
      vertex -1.765846e+01 -2.700000e+01 2.500000e+00
    endloop
  endfacet
  facet normal -9.914449e-01 1.305260e-01 0.000000e+00
    outer loop
      vertex -1.645269e+01 -2.250000e+01 5.000000e+00
      vertex -1.645269e+01 -2.250000e+01 2.500000e+00
      vertex -1.675936e+01 -2.482937e+01 5.000000e+00
    endloop
  endfacet
  facet normal -9.914449e-01 1.305260e-01 0.000000e+00
    outer loop
      vertex -1.675936e+01 -2.482937e+01 5.000000e+00
      vertex -1.645269e+01 -2.250000e+01 2.500000e+00
      vertex -1.675936e+01 -2.482937e+01 2.500000e+00
    endloop
  endfacet
  facet normal -1.000000e+00 0.000000e+00 0.000000e+00
    outer loop
      vertex -1.645269e+01 2.250000e+01 5.000000e+00
      vertex -1.645269e+01 2.250000e+01 2.500000e+00
      vertex -1.645269e+01 -2.250000e+01 5.000000e+00
    endloop
  endfacet
  facet normal -1.000000e+00 0.000000e+00 0.000000e+00
    outer loop
      vertex -1.645269e+01 -2.250000e+01 5.000000e+00
      vertex -1.645269e+01 2.250000e+01 2.500000e+00
      vertex -1.645269e+01 -2.250000e+01 2.500000e+00
    endloop
  endfacet
  facet normal -9.914449e-01 -1.305260e-01 0.000000e+00
    outer loop
      vertex -1.645269e+01 2.250000e+01 5.000000e+00
      vertex -1.675936e+01 2.482937e+01 5.000000e+00
      vertex -1.645269e+01 2.250000e+01 2.500000e+00
    endloop
  endfacet
  facet normal -9.914449e-01 -1.305260e-01 0.000000e+00
    outer loop
      vertex -1.645269e+01 2.250000e+01 2.500000e+00
      vertex -1.675936e+01 2.482937e+01 5.000000e+00
      vertex -1.675936e+01 2.482937e+01 2.500000e+00
    endloop
  endfacet
  facet normal -9.238797e-01 -3.826829e-01 0.000000e+00
    outer loop
      vertex -1.675936e+01 2.482937e+01 5.000000e+00
      vertex -1.765846e+01 2.700000e+01 5.000000e+00
      vertex -1.675936e+01 2.482937e+01 2.500000e+00
    endloop
  endfacet
  facet normal -9.238797e-01 -3.826829e-01 0.000000e+00
    outer loop
      vertex -1.675936e+01 2.482937e+01 2.500000e+00
      vertex -1.765846e+01 2.700000e+01 5.000000e+00
      vertex -1.765846e+01 2.700000e+01 2.500000e+00
    endloop
  endfacet
  facet normal -7.933534e-01 -6.087613e-01 0.000000e+00
    outer loop
      vertex -1.765846e+01 2.700000e+01 5.000000e+00
      vertex -1.908873e+01 2.886396e+01 5.000000e+00
      vertex -1.765846e+01 2.700000e+01 2.500000e+00
    endloop
  endfacet
  facet normal -7.933534e-01 -6.087613e-01 0.000000e+00
    outer loop
      vertex -1.765846e+01 2.700000e+01 2.500000e+00
      vertex -1.908873e+01 2.886396e+01 5.000000e+00
      vertex -1.908873e+01 2.886396e+01 2.500000e+00
    endloop
  endfacet
  facet normal -6.087613e-01 -7.933534e-01 -0.000000e+00
    outer loop
      vertex -1.908873e+01 2.886396e+01 2.500000e+00
      vertex -1.908873e+01 2.886396e+01 5.000000e+00
      vertex -2.095269e+01 3.029423e+01 5.000000e+00
    endloop
  endfacet
  facet normal -6.087613e-01 -7.933534e-01 -0.000000e+00
    outer loop
      vertex -2.095269e+01 3.029423e+01 2.500000e+00
      vertex -1.908873e+01 2.886396e+01 2.500000e+00
      vertex -2.095269e+01 3.029423e+01 5.000000e+00
    endloop
  endfacet
  facet normal -3.826829e-01 -9.238797e-01 -0.000000e+00
    outer loop
      vertex -2.095269e+01 3.029423e+01 2.500000e+00
      vertex -2.095269e+01 3.029423e+01 5.000000e+00
      vertex -2.312332e+01 3.119333e+01 5.000000e+00
    endloop
  endfacet
  facet normal -3.826829e-01 -9.238797e-01 -0.000000e+00
    outer loop
      vertex -2.312332e+01 3.119333e+01 2.500000e+00
      vertex -2.095269e+01 3.029423e+01 2.500000e+00
      vertex -2.312332e+01 3.119333e+01 5.000000e+00
    endloop
  endfacet
  facet normal -1.305260e-01 -9.914449e-01 -0.000000e+00
    outer loop
      vertex -2.312332e+01 3.119333e+01 2.500000e+00
      vertex -2.312332e+01 3.119333e+01 5.000000e+00
      vertex -2.545269e+01 3.150000e+01 5.000000e+00
    endloop
  endfacet
  facet normal -1.305260e-01 -9.914449e-01 -0.000000e+00
    outer loop
      vertex -2.545269e+01 3.150000e+01 2.500000e+00
      vertex -2.312332e+01 3.119333e+01 2.500000e+00
      vertex -2.545269e+01 3.150000e+01 5.000000e+00
    endloop
  endfacet
endsolid Default
