solid Default
  facet normal -1.000000e+00 -0.000000e+00 -0.000000e+00
    outer loop
      vertex -2.095269e+01 -2.200000e+01 0.000000e+00
      vertex -2.095269e+01 -2.200000e+01 5.000000e+00
      vertex -2.095269e+01 -7.500000e+00 0.000000e+00
    endloop
  endfacet
  facet normal -1.000000e+00 0.000000e+00 0.000000e+00
    outer loop
      vertex -2.095269e+01 -7.500000e+00 0.000000e+00
      vertex -2.095269e+01 -2.200000e+01 5.000000e+00
      vertex -2.095269e+01 -7.500000e+00 5.000000e+00
    endloop
  endfacet
  facet normal 0.000000e+00 -1.000000e+00 0.000000e+00
    outer loop
      vertex -2.095269e+01 -2.200000e+01 5.000000e+00
      vertex -2.095269e+01 -2.200000e+01 0.000000e+00
      vertex 2.047312e+00 -2.200000e+01 0.000000e+00
    endloop
  endfacet
  facet normal 0.000000e+00 -1.000000e+00 0.000000e+00
    outer loop
      vertex 2.047312e+00 -2.200000e+01 5.000000e+00
      vertex -2.095269e+01 -2.200000e+01 5.000000e+00
      vertex 2.047312e+00 -2.200000e+01 0.000000e+00
    endloop
  endfacet
  facet normal 0.000000e+00 0.000000e+00 -1.000000e+00
    outer loop
      vertex -1.197054e+01 -1.002917e+01 0.000000e+00
      vertex -2.095269e+01 -7.500000e+00 0.000000e+00
      vertex 2.047312e+00 -7.500000e+00 0.000000e+00
    endloop
  endfacet
  facet normal 0.000000e+00 0.000000e+00 -1.000000e+00
    outer loop
      vertex -2.095269e+01 -2.200000e+01 0.000000e+00
      vertex -2.095269e+01 -7.500000e+00 0.000000e+00
      vertex -1.633646e+01 -1.304274e+01 0.000000e+00
    endloop
  endfacet
  facet normal 0.000000e+00 0.000000e+00 -1.000000e+00
    outer loop
      vertex -2.095269e+01 -2.200000e+01 0.000000e+00
      vertex -1.633646e+01 -1.304274e+01 0.000000e+00
      vertex -1.633646e+01 -1.495726e+01 0.000000e+00
    endloop
  endfacet
  facet normal 0.000000e+00 0.000000e+00 -1.000000e+00
    outer loop
      vertex -2.095269e+01 -2.200000e+01 0.000000e+00
      vertex -1.633646e+01 -1.495726e+01 0.000000e+00
      vertex -1.544673e+01 -1.665249e+01 0.000000e+00
    endloop
  endfacet
  facet normal 0.000000e+00 0.000000e+00 -1.000000e+00
    outer loop
      vertex -2.095269e+01 -2.200000e+01 0.000000e+00
      vertex -1.544673e+01 -1.665249e+01 0.000000e+00
      vertex -1.387111e+01 -1.774007e+01 0.000000e+00
    endloop
  endfacet
  facet normal 0.000000e+00 0.000000e+00 -1.000000e+00
    outer loop
      vertex -2.095269e+01 -2.200000e+01 0.000000e+00
      vertex -1.387111e+01 -1.774007e+01 0.000000e+00
      vertex 2.047312e+00 -2.200000e+01 0.000000e+00
    endloop
  endfacet
  facet normal 0.000000e+00 0.000000e+00 -1.000000e+00
    outer loop
      vertex -1.387111e+01 -1.774007e+01 0.000000e+00
      vertex -1.197054e+01 -1.797084e+01 0.000000e+00
      vertex 2.047312e+00 -2.200000e+01 0.000000e+00
    endloop
  endfacet
  facet normal 0.000000e+00 0.000000e+00 -1.000000e+00
    outer loop
      vertex -8.910864e+00 -1.585889e+01 0.000000e+00
      vertex 2.047312e+00 -2.200000e+01 0.000000e+00
      vertex -1.018043e+01 -1.729193e+01 0.000000e+00
    endloop
  endfacet
  facet normal 0.000000e+00 0.000000e+00 -1.000000e+00
    outer loop
      vertex -8.452688e+00 -1.400000e+01 0.000000e+00
      vertex 2.047312e+00 -2.200000e+01 0.000000e+00
      vertex -8.910864e+00 -1.585889e+01 0.000000e+00
    endloop
  endfacet
  facet normal 0.000000e+00 0.000000e+00 -1.000000e+00
    outer loop
      vertex -1.387111e+01 -1.025994e+01 0.000000e+00
      vertex -2.095269e+01 -7.500000e+00 0.000000e+00
      vertex -1.197054e+01 -1.002917e+01 0.000000e+00
    endloop
  endfacet
  facet normal 0.000000e+00 0.000000e+00 -1.000000e+00
    outer loop
      vertex 2.047312e+00 -2.200000e+01 0.000000e+00
      vertex -8.452688e+00 -1.400000e+01 0.000000e+00
      vertex 2.047312e+00 -7.500000e+00 0.000000e+00
    endloop
  endfacet
  facet normal 0.000000e+00 0.000000e+00 -1.000000e+00
    outer loop
      vertex -1.544673e+01 -1.134751e+01 0.000000e+00
      vertex -2.095269e+01 -7.500000e+00 0.000000e+00
      vertex -1.387111e+01 -1.025994e+01 0.000000e+00
    endloop
  endfacet
  facet normal 0.000000e+00 0.000000e+00 -1.000000e+00
    outer loop
      vertex -8.452688e+00 -1.400000e+01 0.000000e+00
      vertex -8.910864e+00 -1.214111e+01 0.000000e+00
      vertex 2.047312e+00 -7.500000e+00 0.000000e+00
    endloop
  endfacet
  facet normal 0.000000e+00 0.000000e+00 -1.000000e+00
    outer loop
      vertex -8.910864e+00 -1.214111e+01 0.000000e+00
      vertex -1.018043e+01 -1.070807e+01 0.000000e+00
      vertex 2.047312e+00 -7.500000e+00 0.000000e+00
    endloop
  endfacet
  facet normal 0.000000e+00 0.000000e+00 -1.000000e+00
    outer loop
      vertex -1.018043e+01 -1.070807e+01 0.000000e+00
      vertex -1.197054e+01 -1.002917e+01 0.000000e+00
      vertex 2.047312e+00 -7.500000e+00 0.000000e+00
    endloop
  endfacet
  facet normal 0.000000e+00 0.000000e+00 -1.000000e+00
    outer loop
      vertex -1.633646e+01 -1.304274e+01 0.000000e+00
      vertex -2.095269e+01 -7.500000e+00 0.000000e+00
      vertex -1.544673e+01 -1.134751e+01 0.000000e+00
    endloop
  endfacet
  facet normal 0.000000e+00 0.000000e+00 -1.000000e+00
    outer loop
      vertex -1.018043e+01 -1.729193e+01 0.000000e+00
      vertex 2.047312e+00 -2.200000e+01 0.000000e+00
      vertex -1.197054e+01 -1.797084e+01 0.000000e+00
    endloop
  endfacet
  facet normal 0.000000e+00 1.000000e+00 0.000000e+00
    outer loop
      vertex 8.548737e-01 -7.500000e+00 5.000000e+00
      vertex 1.325724e+01 -7.500000e+00 2.031565e+01
      vertex 1.402662e+01 -7.500000e+00 1.969262e+01
    endloop
  endfacet
  facet normal 0.000000e+00 1.000000e+00 0.000000e+00
    outer loop
      vertex 8.548737e-01 -7.500000e+00 5.000000e+00
      vertex 1.402662e+01 -7.500000e+00 1.969262e+01
      vertex 5.279064e+00 -7.500000e+00 8.890296e+00
    endloop
  endfacet
  facet normal 0.000000e+00 1.000000e+00 0.000000e+00
    outer loop
      vertex 8.548737e-01 -7.500000e+00 5.000000e+00
      vertex 5.279064e+00 -7.500000e+00 8.890296e+00
      vertex 6.452555e+00 -7.500000e+00 7.940022e+00
    endloop
  endfacet
  facet normal 0.000000e+00 1.000000e+00 0.000000e+00
    outer loop
      vertex 8.548737e-01 -7.500000e+00 5.000000e+00
      vertex 6.452555e+00 -7.500000e+00 7.940022e+00
      vertex 2.047312e+00 -7.500000e+00 2.500000e+00
    endloop
  endfacet
  facet normal 0.000000e+00 1.000000e+00 0.000000e+00
    outer loop
      vertex 8.548737e-01 -7.500000e+00 5.000000e+00
      vertex 2.047312e+00 -7.500000e+00 2.500000e+00
      vertex -2.095269e+01 -7.500000e+00 5.000000e+00
    endloop
  endfacet
  facet normal 0.000000e+00 1.000000e+00 0.000000e+00
    outer loop
      vertex 2.047312e+00 -7.500000e+00 2.500000e+00
      vertex 2.047312e+00 -7.500000e+00 0.000000e+00
      vertex -2.095269e+01 -7.500000e+00 5.000000e+00
    endloop
  endfacet
  facet normal 0.000000e+00 1.000000e+00 0.000000e+00
    outer loop
      vertex 2.047312e+00 -7.500000e+00 0.000000e+00
      vertex -2.095269e+01 -7.500000e+00 0.000000e+00
      vertex -2.095269e+01 -7.500000e+00 5.000000e+00
    endloop
  endfacet
  facet normal 0.000000e+00 0.000000e+00 1.000000e+00
    outer loop
      vertex -1.197054e+01 -1.797084e+01 5.000000e+00
      vertex -2.095269e+01 -2.200000e+01 5.000000e+00
      vertex 2.047312e+00 -2.200000e+01 5.000000e+00
    endloop
  endfacet
  facet normal 0.000000e+00 0.000000e+00 1.000000e+00
    outer loop
      vertex -8.910864e+00 -1.214111e+01 5.000000e+00
      vertex -8.452688e+00 -1.400000e+01 5.000000e+00
      vertex 8.548737e-01 -2.000000e+01 5.000000e+00
    endloop
  endfacet
  facet normal 0.000000e+00 0.000000e+00 1.000000e+00
    outer loop
      vertex 2.047312e+00 -2.000000e+01 5.000000e+00
      vertex 8.548737e-01 -2.000000e+01 5.000000e+00
      vertex 2.047312e+00 -2.200000e+01 5.000000e+00
    endloop
  endfacet
  facet normal 0.000000e+00 0.000000e+00 1.000000e+00
    outer loop
      vertex -2.095269e+01 -7.500000e+00 5.000000e+00
      vertex -2.095269e+01 -2.200000e+01 5.000000e+00
      vertex -1.633646e+01 -1.495726e+01 5.000000e+00
    endloop
  endfacet
  facet normal 0.000000e+00 0.000000e+00 1.000000e+00
    outer loop
      vertex -1.018043e+01 -1.729193e+01 5.000000e+00
      vertex -1.197054e+01 -1.797084e+01 5.000000e+00
      vertex 2.047312e+00 -2.200000e+01 5.000000e+00
    endloop
  endfacet
  facet normal 0.000000e+00 0.000000e+00 1.000000e+00
    outer loop
      vertex -2.095269e+01 -7.500000e+00 5.000000e+00
      vertex -1.633646e+01 -1.495726e+01 5.000000e+00
      vertex -1.633646e+01 -1.304274e+01 5.000000e+00
    endloop
  endfacet
  facet normal 0.000000e+00 0.000000e+00 1.000000e+00
    outer loop
      vertex -2.095269e+01 -7.500000e+00 5.000000e+00
      vertex -1.633646e+01 -1.304274e+01 5.000000e+00
      vertex -1.544673e+01 -1.134751e+01 5.000000e+00
    endloop
  endfacet
  facet normal 0.000000e+00 0.000000e+00 1.000000e+00
    outer loop
      vertex -1.544673e+01 -1.134751e+01 5.000000e+00
      vertex -1.387111e+01 -1.025994e+01 5.000000e+00
      vertex -2.095269e+01 -7.500000e+00 5.000000e+00
    endloop
  endfacet
  facet normal 0.000000e+00 0.000000e+00 1.000000e+00
    outer loop
      vertex 8.548737e-01 -7.500000e+00 5.000000e+00
      vertex -2.095269e+01 -7.500000e+00 5.000000e+00
      vertex -1.387111e+01 -1.025994e+01 5.000000e+00
    endloop
  endfacet
  facet normal 0.000000e+00 0.000000e+00 1.000000e+00
    outer loop
      vertex -8.910864e+00 -1.585889e+01 5.000000e+00
      vertex -1.018043e+01 -1.729193e+01 5.000000e+00
      vertex 2.047312e+00 -2.200000e+01 5.000000e+00
    endloop
  endfacet
  facet normal 0.000000e+00 0.000000e+00 1.000000e+00
    outer loop
      vertex 8.548737e-01 -7.500000e+00 5.000000e+00
      vertex -1.387111e+01 -1.025994e+01 5.000000e+00
      vertex -1.197054e+01 -1.002917e+01 5.000000e+00
    endloop
  endfacet
  facet normal 0.000000e+00 0.000000e+00 1.000000e+00
    outer loop
      vertex -8.452688e+00 -1.400000e+01 5.000000e+00
      vertex 2.047312e+00 -2.200000e+01 5.000000e+00
      vertex 8.548737e-01 -2.000000e+01 5.000000e+00
    endloop
  endfacet
  facet normal 0.000000e+00 0.000000e+00 1.000000e+00
    outer loop
      vertex 8.548737e-01 -7.500000e+00 5.000000e+00
      vertex -1.197054e+01 -1.002917e+01 5.000000e+00
      vertex -1.018043e+01 -1.070807e+01 5.000000e+00
    endloop
  endfacet
  facet normal 0.000000e+00 0.000000e+00 1.000000e+00
    outer loop
      vertex -1.387111e+01 -1.774007e+01 5.000000e+00
      vertex -2.095269e+01 -2.200000e+01 5.000000e+00
      vertex -1.197054e+01 -1.797084e+01 5.000000e+00
    endloop
  endfacet
  facet normal 0.000000e+00 0.000000e+00 1.000000e+00
    outer loop
      vertex -1.544673e+01 -1.665249e+01 5.000000e+00
      vertex -2.095269e+01 -2.200000e+01 5.000000e+00
      vertex -1.387111e+01 -1.774007e+01 5.000000e+00
    endloop
  endfacet
  facet normal 0.000000e+00 0.000000e+00 1.000000e+00
    outer loop
      vertex -1.633646e+01 -1.495726e+01 5.000000e+00
      vertex -2.095269e+01 -2.200000e+01 5.000000e+00
      vertex -1.544673e+01 -1.665249e+01 5.000000e+00
    endloop
  endfacet
  facet normal 0.000000e+00 0.000000e+00 1.000000e+00
    outer loop
      vertex -8.452688e+00 -1.400000e+01 5.000000e+00
      vertex -8.910864e+00 -1.585889e+01 5.000000e+00
      vertex 2.047312e+00 -2.200000e+01 5.000000e+00
    endloop
  endfacet
  facet normal 0.000000e+00 0.000000e+00 1.000000e+00
    outer loop
      vertex 8.548737e-01 -2.000000e+01 5.000000e+00
      vertex -1.018043e+01 -1.070807e+01 5.000000e+00
      vertex -8.910864e+00 -1.214111e+01 5.000000e+00
    endloop
  endfacet
  facet normal 0.000000e+00 0.000000e+00 1.000000e+00
    outer loop
      vertex 8.548737e-01 -2.000000e+01 5.000000e+00
      vertex 8.548737e-01 -7.500000e+00 5.000000e+00
      vertex -1.018043e+01 -1.070807e+01 5.000000e+00
    endloop
  endfacet
  facet normal 1.000000e+00 0.000000e+00 0.000000e+00
    outer loop
      vertex 2.047312e+00 -2.000000e+01 2.500000e+00
      vertex 2.047312e+00 -2.200000e+01 0.000000e+00
      vertex 2.047312e+00 -7.500000e+00 0.000000e+00
    endloop
  endfacet
  facet normal 1.000000e+00 0.000000e+00 0.000000e+00
    outer loop
      vertex 2.047312e+00 -2.000000e+01 2.500000e+00
      vertex 2.047312e+00 -2.000000e+01 5.000000e+00
      vertex 2.047312e+00 -2.200000e+01 5.000000e+00
    endloop
  endfacet
  facet normal 1.000000e+00 0.000000e+00 0.000000e+00
    outer loop
      vertex 2.047312e+00 -2.200000e+01 5.000000e+00
      vertex 2.047312e+00 -2.200000e+01 0.000000e+00
      vertex 2.047312e+00 -2.000000e+01 2.500000e+00
    endloop
  endfacet
  facet normal 1.000000e+00 0.000000e+00 0.000000e+00
    outer loop
      vertex 2.047312e+00 -7.500000e+00 2.500000e+00
      vertex 2.047312e+00 -2.000000e+01 2.500000e+00
      vertex 2.047312e+00 -7.500000e+00 0.000000e+00
    endloop
  endfacet
  facet normal 8.854561e-01 -4.647231e-01 0.000000e+00
    outer loop
      vertex -1.544673e+01 -1.134751e+01 0.000000e+00
      vertex -1.544673e+01 -1.134751e+01 5.000000e+00
      vertex -1.633646e+01 -1.304274e+01 5.000000e+00
    endloop
  endfacet
  facet normal 8.854561e-01 -4.647231e-01 0.000000e+00
    outer loop
      vertex -1.633646e+01 -1.304274e+01 0.000000e+00
      vertex -1.544673e+01 -1.134751e+01 0.000000e+00
      vertex -1.633646e+01 -1.304274e+01 5.000000e+00
    endloop
  endfacet
  facet normal 1.000000e+00 0.000000e+00 0.000000e+00
    outer loop
      vertex -1.633646e+01 -1.304274e+01 0.000000e+00
      vertex -1.633646e+01 -1.304274e+01 5.000000e+00
      vertex -1.633646e+01 -1.495726e+01 5.000000e+00
    endloop
  endfacet
  facet normal 1.000000e+00 0.000000e+00 0.000000e+00
    outer loop
      vertex -1.633646e+01 -1.495726e+01 0.000000e+00
      vertex -1.633646e+01 -1.304274e+01 0.000000e+00
      vertex -1.633646e+01 -1.495726e+01 5.000000e+00
    endloop
  endfacet
  facet normal 5.680649e-01 -8.229838e-01 0.000000e+00
    outer loop
      vertex -1.387111e+01 -1.025994e+01 0.000000e+00
      vertex -1.387111e+01 -1.025994e+01 5.000000e+00
      vertex -1.544673e+01 -1.134751e+01 5.000000e+00
    endloop
  endfacet
  facet normal 5.680649e-01 -8.229838e-01 0.000000e+00
    outer loop
      vertex -1.544673e+01 -1.134751e+01 0.000000e+00
      vertex -1.387111e+01 -1.025994e+01 0.000000e+00
      vertex -1.544673e+01 -1.134751e+01 5.000000e+00
    endloop
  endfacet
  facet normal 1.205360e-01 -9.927090e-01 0.000000e+00
    outer loop
      vertex -1.197054e+01 -1.002917e+01 0.000000e+00
      vertex -1.197054e+01 -1.002917e+01 5.000000e+00
      vertex -1.387111e+01 -1.025994e+01 5.000000e+00
    endloop
  endfacet
  facet normal 1.205360e-01 -9.927090e-01 0.000000e+00
    outer loop
      vertex -1.387111e+01 -1.025994e+01 0.000000e+00
      vertex -1.197054e+01 -1.002917e+01 0.000000e+00
      vertex -1.387111e+01 -1.025994e+01 5.000000e+00
    endloop
  endfacet
  facet normal -3.546051e-01 -9.350162e-01 -0.000000e+00
    outer loop
      vertex -1.018043e+01 -1.070807e+01 0.000000e+00
      vertex -1.018043e+01 -1.070807e+01 5.000000e+00
      vertex -1.197054e+01 -1.002917e+01 5.000000e+00
    endloop
  endfacet
  facet normal -3.546051e-01 -9.350162e-01 -0.000000e+00
    outer loop
      vertex -1.197054e+01 -1.002917e+01 0.000000e+00
      vertex -1.018043e+01 -1.070807e+01 0.000000e+00
      vertex -1.197054e+01 -1.002917e+01 5.000000e+00
    endloop
  endfacet
  facet normal -7.485107e-01 -6.631227e-01 0.000000e+00
    outer loop
      vertex -8.910864e+00 -1.214111e+01 5.000000e+00
      vertex -1.018043e+01 -1.070807e+01 5.000000e+00
      vertex -8.910864e+00 -1.214111e+01 0.000000e+00
    endloop
  endfacet
  facet normal -7.485107e-01 -6.631227e-01 0.000000e+00
    outer loop
      vertex -8.910864e+00 -1.214111e+01 0.000000e+00
      vertex -1.018043e+01 -1.070807e+01 5.000000e+00
      vertex -1.018043e+01 -1.070807e+01 0.000000e+00
    endloop
  endfacet
  facet normal -9.709417e-01 -2.393159e-01 0.000000e+00
    outer loop
      vertex -8.452688e+00 -1.400000e+01 5.000000e+00
      vertex -8.910864e+00 -1.214111e+01 5.000000e+00
      vertex -8.452688e+00 -1.400000e+01 0.000000e+00
    endloop
  endfacet
  facet normal -9.709417e-01 -2.393159e-01 0.000000e+00
    outer loop
      vertex -8.452688e+00 -1.400000e+01 0.000000e+00
      vertex -8.910864e+00 -1.214111e+01 5.000000e+00
      vertex -8.910864e+00 -1.214111e+01 0.000000e+00
    endloop
  endfacet
  facet normal -9.709417e-01 2.393159e-01 0.000000e+00
    outer loop
      vertex -8.452688e+00 -1.400000e+01 5.000000e+00
      vertex -8.452688e+00 -1.400000e+01 0.000000e+00
      vertex -8.910864e+00 -1.585889e+01 5.000000e+00
    endloop
  endfacet
  facet normal -9.709417e-01 2.393159e-01 0.000000e+00
    outer loop
      vertex -8.910864e+00 -1.585889e+01 5.000000e+00
      vertex -8.452688e+00 -1.400000e+01 0.000000e+00
      vertex -8.910864e+00 -1.585889e+01 0.000000e+00
    endloop
  endfacet
  facet normal -7.485107e-01 6.631227e-01 0.000000e+00
    outer loop
      vertex -8.910864e+00 -1.585889e+01 5.000000e+00
      vertex -8.910864e+00 -1.585889e+01 0.000000e+00
      vertex -1.018043e+01 -1.729193e+01 5.000000e+00
    endloop
  endfacet
  facet normal -7.485107e-01 6.631227e-01 0.000000e+00
    outer loop
      vertex -1.018043e+01 -1.729193e+01 5.000000e+00
      vertex -8.910864e+00 -1.585889e+01 0.000000e+00
      vertex -1.018043e+01 -1.729193e+01 0.000000e+00
    endloop
  endfacet
  facet normal -3.546051e-01 9.350162e-01 0.000000e+00
    outer loop
      vertex -1.018043e+01 -1.729193e+01 5.000000e+00
      vertex -1.018043e+01 -1.729193e+01 0.000000e+00
      vertex -1.197054e+01 -1.797084e+01 5.000000e+00
    endloop
  endfacet
  facet normal -3.546051e-01 9.350162e-01 0.000000e+00
    outer loop
      vertex -1.197054e+01 -1.797084e+01 5.000000e+00
      vertex -1.018043e+01 -1.729193e+01 0.000000e+00
      vertex -1.197054e+01 -1.797084e+01 0.000000e+00
    endloop
  endfacet
  facet normal 1.205360e-01 9.927090e-01 0.000000e+00
    outer loop
      vertex -1.197054e+01 -1.797084e+01 5.000000e+00
      vertex -1.197054e+01 -1.797084e+01 0.000000e+00
      vertex -1.387111e+01 -1.774007e+01 5.000000e+00
    endloop
  endfacet
  facet normal 1.205360e-01 9.927090e-01 0.000000e+00
    outer loop
      vertex -1.387111e+01 -1.774007e+01 5.000000e+00
      vertex -1.197054e+01 -1.797084e+01 0.000000e+00
      vertex -1.387111e+01 -1.774007e+01 0.000000e+00
    endloop
  endfacet
  facet normal 5.680649e-01 8.229838e-01 0.000000e+00
    outer loop
      vertex -1.387111e+01 -1.774007e+01 5.000000e+00
      vertex -1.387111e+01 -1.774007e+01 0.000000e+00
      vertex -1.544673e+01 -1.665249e+01 5.000000e+00
    endloop
  endfacet
  facet normal 5.680649e-01 8.229838e-01 0.000000e+00
    outer loop
      vertex -1.544673e+01 -1.665249e+01 5.000000e+00
      vertex -1.387111e+01 -1.774007e+01 0.000000e+00
      vertex -1.544673e+01 -1.665249e+01 0.000000e+00
    endloop
  endfacet
  facet normal 8.854561e-01 4.647231e-01 0.000000e+00
    outer loop
      vertex -1.633646e+01 -1.495726e+01 5.000000e+00
      vertex -1.544673e+01 -1.665249e+01 5.000000e+00
      vertex -1.544673e+01 -1.665249e+01 0.000000e+00
    endloop
  endfacet
  facet normal 8.854561e-01 4.647231e-01 0.000000e+00
    outer loop
      vertex -1.633646e+01 -1.495726e+01 0.000000e+00
      vertex -1.633646e+01 -1.495726e+01 5.000000e+00
      vertex -1.544673e+01 -1.665249e+01 0.000000e+00
    endloop
  endfacet
  facet normal 7.771462e-01 0.000000e+00 -6.293202e-01
    outer loop
      vertex 1.778032e+01 -2.000000e+01 2.192865e+01
      vertex 2.047312e+00 -2.000000e+01 2.500000e+00
      vertex 2.047312e+00 -7.500000e+00 2.500000e+00
    endloop
  endfacet
  facet normal 7.771462e-01 0.000000e+00 -6.293202e-01
    outer loop
      vertex 6.452555e+00 7.500000e+00 7.940022e+00
      vertex 1.778032e+01 -2.000000e+01 2.192865e+01
      vertex 6.452555e+00 -7.500000e+00 7.940022e+00
    endloop
  endfacet
  facet normal 7.771462e-01 0.000000e+00 -6.293202e-01
    outer loop
      vertex 6.452555e+00 -7.500000e+00 7.940022e+00
      vertex 1.778032e+01 -2.000000e+01 2.192865e+01
      vertex 2.047312e+00 -7.500000e+00 2.500000e+00
    endloop
  endfacet
  facet normal 7.771462e-01 0.000000e+00 -6.293202e-01
    outer loop
      vertex 2.047312e+00 2.000000e+01 2.500000e+00
      vertex 1.778032e+01 -2.000000e+01 2.192865e+01
      vertex 6.452555e+00 7.500000e+00 7.940022e+00
    endloop
  endfacet
  facet normal 7.771462e-01 0.000000e+00 -6.293202e-01
    outer loop
      vertex 2.047312e+00 2.000000e+01 2.500000e+00
      vertex 6.452555e+00 7.500000e+00 7.940022e+00
      vertex 2.047312e+00 7.500000e+00 2.500000e+00
    endloop
  endfacet
  facet normal 7.771462e-01 0.000000e+00 -6.293202e-01
    outer loop
      vertex 1.778032e+01 2.000000e+01 2.192865e+01
      vertex 1.778032e+01 -2.000000e+01 2.192865e+01
      vertex 2.047312e+00 2.000000e+01 2.500000e+00
    endloop
  endfacet
  facet normal -6.293202e-01 0.000000e+00 -7.771462e-01
    outer loop
      vertex 6.452555e+00 7.500000e+00 7.940022e+00
      vertex 6.452555e+00 -7.500000e+00 7.940022e+00
      vertex 5.279064e+00 7.500000e+00 8.890296e+00
    endloop
  endfacet
  facet normal -6.293202e-01 0.000000e+00 -7.771462e-01
    outer loop
      vertex 5.279064e+00 7.500000e+00 8.890296e+00
      vertex 6.452555e+00 -7.500000e+00 7.940022e+00
      vertex 5.279064e+00 -7.500000e+00 8.890296e+00
    endloop
  endfacet
  facet normal -7.771462e-01 0.000000e+00 6.293202e-01
    outer loop
      vertex 1.402662e+01 7.500000e+00 1.969262e+01
      vertex 5.279064e+00 7.500000e+00 8.890296e+00
      vertex 1.402662e+01 -7.500000e+00 1.969262e+01
    endloop
  endfacet
  facet normal -7.771462e-01 0.000000e+00 6.293202e-01
    outer loop
      vertex 1.402662e+01 -7.500000e+00 1.969262e+01
      vertex 5.279064e+00 7.500000e+00 8.890296e+00
      vertex 5.279064e+00 -7.500000e+00 8.890296e+00
    endloop
  endfacet
  facet normal -6.293202e-01 0.000000e+00 -7.771462e-01
    outer loop
      vertex 1.402662e+01 7.500000e+00 1.969262e+01
      vertex 1.402662e+01 -7.500000e+00 1.969262e+01
      vertex 1.325724e+01 7.500000e+00 2.031565e+01
    endloop
  endfacet
  facet normal -6.293202e-01 0.000000e+00 -7.771462e-01
    outer loop
      vertex 1.325724e+01 7.500000e+00 2.031565e+01
      vertex 1.402662e+01 -7.500000e+00 1.969262e+01
      vertex 1.325724e+01 -7.500000e+00 2.031565e+01
    endloop
  endfacet
  facet normal -7.771462e-01 0.000000e+00 6.293202e-01
    outer loop
      vertex 8.548737e-01 -2.000000e+01 5.000000e+00
      vertex 1.563033e+01 -2.000000e+01 2.324617e+01
      vertex 8.548737e-01 -7.500000e+00 5.000000e+00
    endloop
  endfacet
  facet normal -7.771462e-01 0.000000e+00 6.293202e-01
    outer loop
      vertex 1.325724e+01 7.500000e+00 2.031565e+01
      vertex 1.563033e+01 -2.000000e+01 2.324617e+01
      vertex 1.563033e+01 2.000000e+01 2.324617e+01
    endloop
  endfacet
  facet normal -7.771462e-01 0.000000e+00 6.293202e-01
    outer loop
      vertex 8.548737e-01 7.500000e+00 5.000000e+00
      vertex 1.563033e+01 2.000000e+01 2.324617e+01
      vertex 8.548737e-01 2.000000e+01 5.000000e+00
    endloop
  endfacet
  facet normal -7.771462e-01 0.000000e+00 6.293202e-01
    outer loop
      vertex 1.325724e+01 -7.500000e+00 2.031565e+01
      vertex 1.563033e+01 -2.000000e+01 2.324617e+01
      vertex 1.325724e+01 7.500000e+00 2.031565e+01
    endloop
  endfacet
  facet normal -7.771462e-01 0.000000e+00 6.293202e-01
    outer loop
      vertex 8.548737e-01 -7.500000e+00 5.000000e+00
      vertex 1.563033e+01 -2.000000e+01 2.324617e+01
      vertex 1.325724e+01 -7.500000e+00 2.031565e+01
    endloop
  endfacet
  facet normal -7.771462e-01 0.000000e+00 6.293202e-01
    outer loop
      vertex 1.325724e+01 7.500000e+00 2.031565e+01
      vertex 1.563033e+01 2.000000e+01 2.324617e+01
      vertex 8.548737e-01 7.500000e+00 5.000000e+00
    endloop
  endfacet
  facet normal 0.000000e+00 -1.000000e+00 0.000000e+00
    outer loop
      vertex 1.563033e+01 -2.000000e+01 2.324617e+01
      vertex 8.548737e-01 -2.000000e+01 5.000000e+00
      vertex 2.047312e+00 -2.000000e+01 5.000000e+00
    endloop
  endfacet
  facet normal 0.000000e+00 -1.000000e+00 0.000000e+00
    outer loop
      vertex 2.047312e+00 -2.000000e+01 2.500000e+00
      vertex 1.563033e+01 -2.000000e+01 2.324617e+01
      vertex 2.047312e+00 -2.000000e+01 5.000000e+00
    endloop
  endfacet
  facet normal 0.000000e+00 -1.000000e+00 0.000000e+00
    outer loop
      vertex 2.047312e+00 -2.000000e+01 2.500000e+00
      vertex 1.778032e+01 -2.000000e+01 2.192865e+01
      vertex 1.563033e+01 -2.000000e+01 2.324617e+01
    endloop
  endfacet
  facet normal 0.000000e+00 -1.000000e+00 0.000000e+00
    outer loop
      vertex 1.778032e+01 -2.000000e+01 2.192865e+01
      vertex 2.095269e+01 -2.000000e+01 2.905390e+01
      vertex 1.563033e+01 -2.000000e+01 2.324617e+01
    endloop
  endfacet
  facet normal 0.000000e+00 -1.000000e+00 0.000000e+00
    outer loop
      vertex 2.095269e+01 -2.000000e+01 2.905390e+01
      vertex 1.821610e+01 -2.000000e+01 2.905390e+01
      vertex 1.563033e+01 -2.000000e+01 2.324617e+01
    endloop
  endfacet
  facet normal 9.135453e-01 0.000000e+00 -4.067371e-01
    outer loop
      vertex 2.095269e+01 -2.000000e+01 2.905390e+01
      vertex 1.778032e+01 -2.000000e+01 2.192865e+01
      vertex 1.778032e+01 2.000000e+01 2.192865e+01
    endloop
  endfacet
  facet normal 9.135453e-01 0.000000e+00 -4.067371e-01
    outer loop
      vertex 2.095269e+01 2.000000e+01 2.905390e+01
      vertex 2.095269e+01 -2.000000e+01 2.905390e+01
      vertex 1.778032e+01 2.000000e+01 2.192865e+01
    endloop
  endfacet
  facet normal 0.000000e+00 1.000000e+00 0.000000e+00
    outer loop
      vertex 8.548737e-01 2.000000e+01 5.000000e+00
      vertex 1.563033e+01 2.000000e+01 2.324617e+01
      vertex 2.047312e+00 2.000000e+01 5.000000e+00
    endloop
  endfacet
  facet normal 0.000000e+00 1.000000e+00 0.000000e+00
    outer loop
      vertex 2.095269e+01 2.000000e+01 2.905390e+01
      vertex 1.563033e+01 2.000000e+01 2.324617e+01
      vertex 1.821610e+01 2.000000e+01 2.905390e+01
    endloop
  endfacet
  facet normal 0.000000e+00 1.000000e+00 0.000000e+00
    outer loop
      vertex 2.047312e+00 2.000000e+01 5.000000e+00
      vertex 1.563033e+01 2.000000e+01 2.324617e+01
      vertex 2.095269e+01 2.000000e+01 2.905390e+01
    endloop
  endfacet
  facet normal 0.000000e+00 1.000000e+00 0.000000e+00
    outer loop
      vertex 2.047312e+00 2.000000e+01 5.000000e+00
      vertex 2.095269e+01 2.000000e+01 2.905390e+01
      vertex 1.778032e+01 2.000000e+01 2.192865e+01
    endloop
  endfacet
  facet normal 0.000000e+00 1.000000e+00 0.000000e+00
    outer loop
      vertex 2.047312e+00 2.000000e+01 5.000000e+00
      vertex 1.778032e+01 2.000000e+01 2.192865e+01
      vertex 2.047312e+00 2.000000e+01 2.500000e+00
    endloop
  endfacet
  facet normal 1.000000e+00 0.000000e+00 0.000000e+00
    outer loop
      vertex 2.047312e+00 7.500000e+00 2.500000e+00
      vertex 2.047312e+00 7.500000e+00 0.000000e+00
      vertex 2.047312e+00 2.200000e+01 0.000000e+00
    endloop
  endfacet
  facet normal 1.000000e+00 0.000000e+00 0.000000e+00
    outer loop
      vertex 2.047312e+00 2.000000e+01 2.500000e+00
      vertex 2.047312e+00 7.500000e+00 2.500000e+00
      vertex 2.047312e+00 2.200000e+01 0.000000e+00
    endloop
  endfacet
  facet normal 1.000000e+00 0.000000e+00 0.000000e+00
    outer loop
      vertex 2.047312e+00 2.200000e+01 5.000000e+00
      vertex 2.047312e+00 2.000000e+01 2.500000e+00
      vertex 2.047312e+00 2.200000e+01 0.000000e+00
    endloop
  endfacet
  facet normal 1.000000e+00 0.000000e+00 0.000000e+00
    outer loop
      vertex 2.047312e+00 2.000000e+01 5.000000e+00
      vertex 2.047312e+00 2.000000e+01 2.500000e+00
      vertex 2.047312e+00 2.200000e+01 5.000000e+00
    endloop
  endfacet
  facet normal 0.000000e+00 -1.000000e+00 0.000000e+00
    outer loop
      vertex 5.279064e+00 7.500000e+00 8.890296e+00
      vertex 2.047312e+00 7.500000e+00 2.500000e+00
      vertex 6.452555e+00 7.500000e+00 7.940022e+00
    endloop
  endfacet
  facet normal 0.000000e+00 -1.000000e+00 0.000000e+00
    outer loop
      vertex 8.548737e-01 7.500000e+00 5.000000e+00
      vertex 2.047312e+00 7.500000e+00 2.500000e+00
      vertex 5.279064e+00 7.500000e+00 8.890296e+00
    endloop
  endfacet
  facet normal 0.000000e+00 -1.000000e+00 0.000000e+00
    outer loop
      vertex 2.047312e+00 7.500000e+00 0.000000e+00
      vertex 2.047312e+00 7.500000e+00 2.500000e+00
      vertex 8.548737e-01 7.500000e+00 5.000000e+00
    endloop
  endfacet
  facet normal 0.000000e+00 -1.000000e+00 0.000000e+00
    outer loop
      vertex 1.325724e+01 7.500000e+00 2.031565e+01
      vertex 5.279064e+00 7.500000e+00 8.890296e+00
      vertex 1.402662e+01 7.500000e+00 1.969262e+01
    endloop
  endfacet
  facet normal 0.000000e+00 -1.000000e+00 0.000000e+00
    outer loop
      vertex 8.548737e-01 7.500000e+00 5.000000e+00
      vertex 5.279064e+00 7.500000e+00 8.890296e+00
      vertex 1.325724e+01 7.500000e+00 2.031565e+01
    endloop
  endfacet
  facet normal 0.000000e+00 -1.000000e+00 0.000000e+00
    outer loop
      vertex -2.095269e+01 7.500000e+00 5.000000e+00
      vertex 2.047312e+00 7.500000e+00 0.000000e+00
      vertex 8.548737e-01 7.500000e+00 5.000000e+00
    endloop
  endfacet
  facet normal -0.000000e+00 -1.000000e+00 -0.000000e+00
    outer loop
      vertex -2.095269e+01 7.500000e+00 0.000000e+00
      vertex 2.047312e+00 7.500000e+00 0.000000e+00
      vertex -2.095269e+01 7.500000e+00 5.000000e+00
    endloop
  endfacet
  facet normal 0.000000e+00 0.000000e+00 1.000000e+00
    outer loop
      vertex -1.197054e+01 1.002916e+01 5.000000e+00
      vertex -2.095269e+01 7.500000e+00 5.000000e+00
      vertex 8.548737e-01 7.500000e+00 5.000000e+00
    endloop
  endfacet
  facet normal 0.000000e+00 0.000000e+00 1.000000e+00
    outer loop
      vertex 2.047312e+00 2.000000e+01 5.000000e+00
      vertex -2.095269e+01 2.200000e+01 5.000000e+00
      vertex 8.548737e-01 2.000000e+01 5.000000e+00
    endloop
  endfacet
  facet normal 0.000000e+00 0.000000e+00 1.000000e+00
    outer loop
      vertex 2.047312e+00 2.200000e+01 5.000000e+00
      vertex -2.095269e+01 2.200000e+01 5.000000e+00
      vertex 2.047312e+00 2.000000e+01 5.000000e+00
    endloop
  endfacet
  facet normal 0.000000e+00 0.000000e+00 1.000000e+00
    outer loop
      vertex -1.197054e+01 1.002916e+01 5.000000e+00
      vertex -1.387111e+01 1.025993e+01 5.000000e+00
      vertex -2.095269e+01 7.500000e+00 5.000000e+00
    endloop
  endfacet
  facet normal 0.000000e+00 0.000000e+00 1.000000e+00
    outer loop
      vertex -2.095269e+01 2.200000e+01 5.000000e+00
      vertex -2.095269e+01 7.500000e+00 5.000000e+00
      vertex -1.633646e+01 1.304274e+01 5.000000e+00
    endloop
  endfacet
  facet normal 0.000000e+00 0.000000e+00 1.000000e+00
    outer loop
      vertex -2.095269e+01 2.200000e+01 5.000000e+00
      vertex -1.633646e+01 1.304274e+01 5.000000e+00
      vertex -1.633646e+01 1.495726e+01 5.000000e+00
    endloop
  endfacet
  facet normal 0.000000e+00 0.000000e+00 1.000000e+00
    outer loop
      vertex -8.910864e+00 1.585889e+01 5.000000e+00
      vertex -8.452688e+00 1.400000e+01 5.000000e+00
      vertex 8.548737e-01 7.500000e+00 5.000000e+00
    endloop
  endfacet
  facet normal 0.000000e+00 0.000000e+00 1.000000e+00
    outer loop
      vertex -2.095269e+01 2.200000e+01 5.000000e+00
      vertex -1.633646e+01 1.495726e+01 5.000000e+00
      vertex -1.544673e+01 1.665249e+01 5.000000e+00
    endloop
  endfacet
  facet normal 0.000000e+00 0.000000e+00 1.000000e+00
    outer loop
      vertex -8.910864e+00 1.214111e+01 5.000000e+00
      vertex -1.018043e+01 1.070807e+01 5.000000e+00
      vertex 8.548737e-01 7.500000e+00 5.000000e+00
    endloop
  endfacet
  facet normal 0.000000e+00 0.000000e+00 1.000000e+00
    outer loop
      vertex 8.548737e-01 2.000000e+01 5.000000e+00
      vertex -2.095269e+01 2.200000e+01 5.000000e+00
      vertex -1.387111e+01 1.774007e+01 5.000000e+00
    endloop
  endfacet
  facet normal 0.000000e+00 0.000000e+00 1.000000e+00
    outer loop
      vertex 8.548737e-01 2.000000e+01 5.000000e+00
      vertex -1.387111e+01 1.774007e+01 5.000000e+00
      vertex -1.197054e+01 1.797084e+01 5.000000e+00
    endloop
  endfacet
  facet normal 0.000000e+00 0.000000e+00 1.000000e+00
    outer loop
      vertex 8.548737e-01 2.000000e+01 5.000000e+00
      vertex -1.018043e+01 1.729193e+01 5.000000e+00
      vertex 8.548737e-01 7.500000e+00 5.000000e+00
    endloop
  endfacet
  facet normal 0.000000e+00 0.000000e+00 1.000000e+00
    outer loop
      vertex 8.548737e-01 2.000000e+01 5.000000e+00
      vertex -1.197054e+01 1.797084e+01 5.000000e+00
      vertex -1.018043e+01 1.729193e+01 5.000000e+00
    endloop
  endfacet
  facet normal 0.000000e+00 0.000000e+00 1.000000e+00
    outer loop
      vertex -1.018043e+01 1.729193e+01 5.000000e+00
      vertex -8.910864e+00 1.585889e+01 5.000000e+00
      vertex 8.548737e-01 7.500000e+00 5.000000e+00
    endloop
  endfacet
  facet normal 0.000000e+00 0.000000e+00 1.000000e+00
    outer loop
      vertex -1.018043e+01 1.070807e+01 5.000000e+00
      vertex -1.197054e+01 1.002916e+01 5.000000e+00
      vertex 8.548737e-01 7.500000e+00 5.000000e+00
    endloop
  endfacet
  facet normal 0.000000e+00 0.000000e+00 1.000000e+00
    outer loop
      vertex -1.544673e+01 1.134751e+01 5.000000e+00
      vertex -2.095269e+01 7.500000e+00 5.000000e+00
      vertex -1.387111e+01 1.025993e+01 5.000000e+00
    endloop
  endfacet
  facet normal 0.000000e+00 0.000000e+00 1.000000e+00
    outer loop
      vertex -1.633646e+01 1.304274e+01 5.000000e+00
      vertex -2.095269e+01 7.500000e+00 5.000000e+00
      vertex -1.544673e+01 1.134751e+01 5.000000e+00
    endloop
  endfacet
  facet normal 0.000000e+00 0.000000e+00 1.000000e+00
    outer loop
      vertex -1.544673e+01 1.665249e+01 5.000000e+00
      vertex -1.387111e+01 1.774007e+01 5.000000e+00
      vertex -2.095269e+01 2.200000e+01 5.000000e+00
    endloop
  endfacet
  facet normal 0.000000e+00 0.000000e+00 1.000000e+00
    outer loop
      vertex -8.452688e+00 1.400000e+01 5.000000e+00
      vertex -8.910864e+00 1.214111e+01 5.000000e+00
      vertex 8.548737e-01 7.500000e+00 5.000000e+00
    endloop
  endfacet
  facet normal -9.135453e-01 0.000000e+00 4.067371e-01
    outer loop
      vertex 1.563033e+01 -2.000000e+01 2.324617e+01
      vertex 1.821610e+01 -2.000000e+01 2.905390e+01
      vertex 1.563033e+01 2.000000e+01 2.324617e+01
    endloop
  endfacet
  facet normal -9.135453e-01 0.000000e+00 4.067371e-01
    outer loop
      vertex 1.563033e+01 2.000000e+01 2.324617e+01
      vertex 1.821610e+01 -2.000000e+01 2.905390e+01
      vertex 1.821610e+01 2.000000e+01 2.905390e+01
    endloop
  endfacet
  facet normal 0.000000e+00 0.000000e+00 1.000000e+00
    outer loop
      vertex 2.095269e+01 -2.000000e+01 2.905390e+01
      vertex 2.095269e+01 2.000000e+01 2.905390e+01
      vertex 1.821610e+01 2.000000e+01 2.905390e+01
    endloop
  endfacet
  facet normal 0.000000e+00 0.000000e+00 1.000000e+00
    outer loop
      vertex 1.821610e+01 -2.000000e+01 2.905390e+01
      vertex 2.095269e+01 -2.000000e+01 2.905390e+01
      vertex 1.821610e+01 2.000000e+01 2.905390e+01
    endloop
  endfacet
  facet normal 0.000000e+00 1.000000e+00 0.000000e+00
    outer loop
      vertex -2.095269e+01 2.200000e+01 0.000000e+00
      vertex -2.095269e+01 2.200000e+01 5.000000e+00
      vertex 2.047312e+00 2.200000e+01 0.000000e+00
    endloop
  endfacet
  facet normal 0.000000e+00 1.000000e+00 0.000000e+00
    outer loop
      vertex 2.047312e+00 2.200000e+01 0.000000e+00
      vertex -2.095269e+01 2.200000e+01 5.000000e+00
      vertex 2.047312e+00 2.200000e+01 5.000000e+00
    endloop
  endfacet
  facet normal 0.000000e+00 0.000000e+00 -1.000000e+00
    outer loop
      vertex -1.018043e+01 1.729193e+01 0.000000e+00
      vertex -2.095269e+01 2.200000e+01 0.000000e+00
      vertex 2.047312e+00 2.200000e+01 0.000000e+00
    endloop
  endfacet
  facet normal 0.000000e+00 0.000000e+00 -1.000000e+00
    outer loop
      vertex -2.095269e+01 7.500000e+00 0.000000e+00
      vertex -2.095269e+01 2.200000e+01 0.000000e+00
      vertex -1.633646e+01 1.495726e+01 0.000000e+00
    endloop
  endfacet
  facet normal 0.000000e+00 0.000000e+00 -1.000000e+00
    outer loop
      vertex -2.095269e+01 7.500000e+00 0.000000e+00
      vertex -1.633646e+01 1.495726e+01 0.000000e+00
      vertex -1.633646e+01 1.304274e+01 0.000000e+00
    endloop
  endfacet
  facet normal 0.000000e+00 0.000000e+00 -1.000000e+00
    outer loop
      vertex -2.095269e+01 7.500000e+00 0.000000e+00
      vertex -1.633646e+01 1.304274e+01 0.000000e+00
      vertex -1.544673e+01 1.134751e+01 0.000000e+00
    endloop
  endfacet
  facet normal 0.000000e+00 0.000000e+00 -1.000000e+00
    outer loop
      vertex -2.095269e+01 7.500000e+00 0.000000e+00
      vertex -1.544673e+01 1.134751e+01 0.000000e+00
      vertex -1.387111e+01 1.025993e+01 0.000000e+00
    endloop
  endfacet
  facet normal 0.000000e+00 0.000000e+00 -1.000000e+00
    outer loop
      vertex -2.095269e+01 7.500000e+00 0.000000e+00
      vertex -1.387111e+01 1.025993e+01 0.000000e+00
      vertex 2.047312e+00 7.500000e+00 0.000000e+00
    endloop
  endfacet
  facet normal 0.000000e+00 0.000000e+00 -1.000000e+00
    outer loop
      vertex -1.387111e+01 1.025993e+01 0.000000e+00
      vertex -1.197054e+01 1.002916e+01 0.000000e+00
      vertex 2.047312e+00 7.500000e+00 0.000000e+00
    endloop
  endfacet
  facet normal 0.000000e+00 0.000000e+00 -1.000000e+00
    outer loop
      vertex -8.910864e+00 1.214111e+01 0.000000e+00
      vertex 2.047312e+00 7.500000e+00 0.000000e+00
      vertex -1.018043e+01 1.070807e+01 0.000000e+00
    endloop
  endfacet
  facet normal 0.000000e+00 0.000000e+00 -1.000000e+00
    outer loop
      vertex -8.910864e+00 1.585889e+01 0.000000e+00
      vertex 2.047312e+00 7.500000e+00 0.000000e+00
      vertex -8.452688e+00 1.400000e+01 0.000000e+00
    endloop
  endfacet
  facet normal 0.000000e+00 0.000000e+00 -1.000000e+00
    outer loop
      vertex -8.910864e+00 1.214111e+01 0.000000e+00
      vertex -8.452688e+00 1.400000e+01 0.000000e+00
      vertex 2.047312e+00 7.500000e+00 0.000000e+00
    endloop
  endfacet
  facet normal 0.000000e+00 0.000000e+00 -1.000000e+00
    outer loop
      vertex -1.544673e+01 1.665249e+01 0.000000e+00
      vertex -2.095269e+01 2.200000e+01 0.000000e+00
      vertex -1.387111e+01 1.774007e+01 0.000000e+00
    endloop
  endfacet
  facet normal 0.000000e+00 0.000000e+00 -1.000000e+00
    outer loop
      vertex 2.047312e+00 7.500000e+00 0.000000e+00
      vertex -8.910864e+00 1.585889e+01 0.000000e+00
      vertex 2.047312e+00 2.200000e+01 0.000000e+00
    endloop
  endfacet
  facet normal -0.000000e+00 -0.000000e+00 -1.000000e+00
    outer loop
      vertex -1.197054e+01 1.797084e+01 0.000000e+00
      vertex -2.095269e+01 2.200000e+01 0.000000e+00
      vertex -1.018043e+01 1.729193e+01 0.000000e+00
    endloop
  endfacet
  facet normal 0.000000e+00 0.000000e+00 -1.000000e+00
    outer loop
      vertex -8.910864e+00 1.585889e+01 0.000000e+00
      vertex -1.018043e+01 1.729193e+01 0.000000e+00
      vertex 2.047312e+00 2.200000e+01 0.000000e+00
    endloop
  endfacet
  facet normal 0.000000e+00 0.000000e+00 -1.000000e+00
    outer loop
      vertex -1.387111e+01 1.774007e+01 0.000000e+00
      vertex -2.095269e+01 2.200000e+01 0.000000e+00
      vertex -1.197054e+01 1.797084e+01 0.000000e+00
    endloop
  endfacet
  facet normal 0.000000e+00 0.000000e+00 -1.000000e+00
    outer loop
      vertex -1.633646e+01 1.495726e+01 0.000000e+00
      vertex -2.095269e+01 2.200000e+01 0.000000e+00
      vertex -1.544673e+01 1.665249e+01 0.000000e+00
    endloop
  endfacet
  facet normal 0.000000e+00 0.000000e+00 -1.000000e+00
    outer loop
      vertex -1.018043e+01 1.070807e+01 0.000000e+00
      vertex 2.047312e+00 7.500000e+00 0.000000e+00
      vertex -1.197054e+01 1.002916e+01 0.000000e+00
    endloop
  endfacet
  facet normal -1.000000e+00 -0.000000e+00 -0.000000e+00
    outer loop
      vertex -2.095269e+01 7.500000e+00 0.000000e+00
      vertex -2.095269e+01 7.500000e+00 5.000000e+00
      vertex -2.095269e+01 2.200000e+01 0.000000e+00
    endloop
  endfacet
  facet normal -1.000000e+00 0.000000e+00 0.000000e+00
    outer loop
      vertex -2.095269e+01 2.200000e+01 0.000000e+00
      vertex -2.095269e+01 7.500000e+00 5.000000e+00
      vertex -2.095269e+01 2.200000e+01 5.000000e+00
    endloop
  endfacet
  facet normal 1.000000e+00 0.000000e+00 0.000000e+00
    outer loop
      vertex -1.633646e+01 1.495726e+01 0.000000e+00
      vertex -1.633646e+01 1.495726e+01 5.000000e+00
      vertex -1.633646e+01 1.304274e+01 5.000000e+00
    endloop
  endfacet
  facet normal 1.000000e+00 0.000000e+00 0.000000e+00
    outer loop
      vertex -1.633646e+01 1.304274e+01 0.000000e+00
      vertex -1.633646e+01 1.495726e+01 0.000000e+00
      vertex -1.633646e+01 1.304274e+01 5.000000e+00
    endloop
  endfacet
  facet normal 8.854561e-01 4.647231e-01 0.000000e+00
    outer loop
      vertex -1.633646e+01 1.304274e+01 5.000000e+00
      vertex -1.544673e+01 1.134751e+01 5.000000e+00
      vertex -1.544673e+01 1.134751e+01 0.000000e+00
    endloop
  endfacet
  facet normal 8.854561e-01 4.647231e-01 0.000000e+00
    outer loop
      vertex -1.633646e+01 1.304274e+01 0.000000e+00
      vertex -1.633646e+01 1.304274e+01 5.000000e+00
      vertex -1.544673e+01 1.134751e+01 0.000000e+00
    endloop
  endfacet
  facet normal 5.680649e-01 8.229838e-01 0.000000e+00
    outer loop
      vertex -1.387111e+01 1.025993e+01 5.000000e+00
      vertex -1.387111e+01 1.025993e+01 0.000000e+00
      vertex -1.544673e+01 1.134751e+01 5.000000e+00
    endloop
  endfacet
  facet normal 5.680649e-01 8.229838e-01 0.000000e+00
    outer loop
      vertex -1.544673e+01 1.134751e+01 5.000000e+00
      vertex -1.387111e+01 1.025993e+01 0.000000e+00
      vertex -1.544673e+01 1.134751e+01 0.000000e+00
    endloop
  endfacet
  facet normal 1.205360e-01 9.927090e-01 0.000000e+00
    outer loop
      vertex -1.197054e+01 1.002916e+01 5.000000e+00
      vertex -1.197054e+01 1.002916e+01 0.000000e+00
      vertex -1.387111e+01 1.025993e+01 5.000000e+00
    endloop
  endfacet
  facet normal 1.205360e-01 9.927090e-01 0.000000e+00
    outer loop
      vertex -1.387111e+01 1.025993e+01 5.000000e+00
      vertex -1.197054e+01 1.002916e+01 0.000000e+00
      vertex -1.387111e+01 1.025993e+01 0.000000e+00
    endloop
  endfacet
  facet normal -3.546051e-01 9.350162e-01 0.000000e+00
    outer loop
      vertex -1.018043e+01 1.070807e+01 5.000000e+00
      vertex -1.018043e+01 1.070807e+01 0.000000e+00
      vertex -1.197054e+01 1.002916e+01 5.000000e+00
    endloop
  endfacet
  facet normal -3.546051e-01 9.350162e-01 0.000000e+00
    outer loop
      vertex -1.197054e+01 1.002916e+01 5.000000e+00
      vertex -1.018043e+01 1.070807e+01 0.000000e+00
      vertex -1.197054e+01 1.002916e+01 0.000000e+00
    endloop
  endfacet
  facet normal -7.485107e-01 6.631227e-01 0.000000e+00
    outer loop
      vertex -8.910864e+00 1.214111e+01 5.000000e+00
      vertex -8.910864e+00 1.214111e+01 0.000000e+00
      vertex -1.018043e+01 1.070807e+01 5.000000e+00
    endloop
  endfacet
  facet normal -7.485107e-01 6.631227e-01 0.000000e+00
    outer loop
      vertex -1.018043e+01 1.070807e+01 5.000000e+00
      vertex -8.910864e+00 1.214111e+01 0.000000e+00
      vertex -1.018043e+01 1.070807e+01 0.000000e+00
    endloop
  endfacet
  facet normal -9.709417e-01 2.393159e-01 0.000000e+00
    outer loop
      vertex -8.452688e+00 1.400000e+01 5.000000e+00
      vertex -8.452688e+00 1.400000e+01 0.000000e+00
      vertex -8.910864e+00 1.214111e+01 5.000000e+00
    endloop
  endfacet
  facet normal -9.709417e-01 2.393159e-01 0.000000e+00
    outer loop
      vertex -8.910864e+00 1.214111e+01 5.000000e+00
      vertex -8.452688e+00 1.400000e+01 0.000000e+00
      vertex -8.910864e+00 1.214111e+01 0.000000e+00
    endloop
  endfacet
  facet normal -9.709417e-01 -2.393159e-01 0.000000e+00
    outer loop
      vertex -8.452688e+00 1.400000e+01 5.000000e+00
      vertex -8.910864e+00 1.585889e+01 5.000000e+00
      vertex -8.452688e+00 1.400000e+01 0.000000e+00
    endloop
  endfacet
  facet normal -9.709417e-01 -2.393159e-01 0.000000e+00
    outer loop
      vertex -8.452688e+00 1.400000e+01 0.000000e+00
      vertex -8.910864e+00 1.585889e+01 5.000000e+00
      vertex -8.910864e+00 1.585889e+01 0.000000e+00
    endloop
  endfacet
  facet normal -7.485107e-01 -6.631227e-01 0.000000e+00
    outer loop
      vertex -8.910864e+00 1.585889e+01 5.000000e+00
      vertex -1.018043e+01 1.729193e+01 5.000000e+00
      vertex -8.910864e+00 1.585889e+01 0.000000e+00
    endloop
  endfacet
  facet normal -7.485107e-01 -6.631227e-01 0.000000e+00
    outer loop
      vertex -8.910864e+00 1.585889e+01 0.000000e+00
      vertex -1.018043e+01 1.729193e+01 5.000000e+00
      vertex -1.018043e+01 1.729193e+01 0.000000e+00
    endloop
  endfacet
  facet normal -3.546051e-01 -9.350162e-01 -0.000000e+00
    outer loop
      vertex -1.018043e+01 1.729193e+01 0.000000e+00
      vertex -1.018043e+01 1.729193e+01 5.000000e+00
      vertex -1.197054e+01 1.797084e+01 5.000000e+00
    endloop
  endfacet
  facet normal -3.546051e-01 -9.350162e-01 -0.000000e+00
    outer loop
      vertex -1.197054e+01 1.797084e+01 0.000000e+00
      vertex -1.018043e+01 1.729193e+01 0.000000e+00
      vertex -1.197054e+01 1.797084e+01 5.000000e+00
    endloop
  endfacet
  facet normal 1.205360e-01 -9.927090e-01 0.000000e+00
    outer loop
      vertex -1.197054e+01 1.797084e+01 0.000000e+00
      vertex -1.197054e+01 1.797084e+01 5.000000e+00
      vertex -1.387111e+01 1.774007e+01 5.000000e+00
    endloop
  endfacet
  facet normal 1.205360e-01 -9.927090e-01 0.000000e+00
    outer loop
      vertex -1.387111e+01 1.774007e+01 0.000000e+00
      vertex -1.197054e+01 1.797084e+01 0.000000e+00
      vertex -1.387111e+01 1.774007e+01 5.000000e+00
    endloop
  endfacet
  facet normal 5.680649e-01 -8.229838e-01 0.000000e+00
    outer loop
      vertex -1.387111e+01 1.774007e+01 0.000000e+00
      vertex -1.387111e+01 1.774007e+01 5.000000e+00
      vertex -1.544673e+01 1.665249e+01 5.000000e+00
    endloop
  endfacet
  facet normal 5.680649e-01 -8.229838e-01 0.000000e+00
    outer loop
      vertex -1.544673e+01 1.665249e+01 0.000000e+00
      vertex -1.387111e+01 1.774007e+01 0.000000e+00
      vertex -1.544673e+01 1.665249e+01 5.000000e+00
    endloop
  endfacet
  facet normal 8.854561e-01 -4.647231e-01 0.000000e+00
    outer loop
      vertex -1.544673e+01 1.665249e+01 0.000000e+00
      vertex -1.544673e+01 1.665249e+01 5.000000e+00
      vertex -1.633646e+01 1.495726e+01 5.000000e+00
    endloop
  endfacet
  facet normal 8.854561e-01 -4.647231e-01 0.000000e+00
    outer loop
      vertex -1.633646e+01 1.495726e+01 0.000000e+00
      vertex -1.544673e+01 1.665249e+01 0.000000e+00
      vertex -1.633646e+01 1.495726e+01 5.000000e+00
    endloop
  endfacet
endsolid Default
