solid Default
  facet normal 7.071068e-01 -7.071068e-01 8.659561e-17
    outer loop
      vertex 8.485282e+00 -7.750000e+00 3.000000e+00
      vertex 7.021070e+00 -9.214214e+00 3.000000e+00
      vertex 8.485282e+00 -7.750000e+00 1.776357e-15
    endloop
  endfacet
  facet normal 7.071068e-01 -7.071068e-01 8.659561e-17
    outer loop
      vertex 8.485282e+00 -7.750000e+00 1.776357e-15
      vertex 7.021070e+00 -9.214214e+00 3.000000e+00
      vertex 7.021070e+00 -9.214214e+00 1.500000e+00
    endloop
  endfacet
  facet normal 7.071068e-01 -7.071068e-01 8.659561e-17
    outer loop
      vertex 8.485282e+00 -7.750000e+00 1.776357e-15
      vertex 7.021070e+00 -9.214214e+00 1.500000e+00
      vertex 9.536743e-07 -1.623528e+01 1.500000e+00
    endloop
  endfacet
  facet normal 7.071068e-01 -7.071068e-01 8.659561e-17
    outer loop
      vertex 8.485282e+00 -7.750000e+00 1.776357e-15
      vertex 9.536743e-07 -1.623528e+01 1.500000e+00
      vertex 9.536743e-07 -1.623528e+01 8.881784e-16
    endloop
  endfacet
  facet normal -1.224647e-16 0.000000e+00 1.000000e+00
    outer loop
      vertex 8.485282e+00 -7.750000e+00 3.000000e+00
      vertex 5.000001e+00 -4.264721e+00 3.000000e+00
      vertex 7.021070e+00 -9.214214e+00 3.000000e+00
    endloop
  endfacet
  facet normal -1.224647e-16 0.000000e+00 1.000000e+00
    outer loop
      vertex 7.021070e+00 -9.214214e+00 3.000000e+00
      vertex 5.000001e+00 -4.264721e+00 3.000000e+00
      vertex 9.536743e-07 2.264717e+00 3.000000e+00
    endloop
  endfacet
  facet normal -1.224647e-16 0.000000e+00 1.000000e+00
    outer loop
      vertex 6.985282e+00 9.250000e+00 3.000000e+00
      vertex 5.000001e+00 4.264717e+00 3.000000e+00
      vertex 8.485282e+00 7.750000e+00 3.000000e+00
    endloop
  endfacet
  facet normal -1.224647e-16 0.000000e+00 1.000000e+00
    outer loop
      vertex 9.536743e-07 2.264717e+00 3.000000e+00
      vertex 5.000001e+00 4.264717e+00 3.000000e+00
      vertex 6.985282e+00 9.250000e+00 3.000000e+00
    endloop
  endfacet
  facet normal -1.224647e-16 0.000000e+00 1.000000e+00
    outer loop
      vertex 5.000001e+00 -4.264721e+00 3.000000e+00
      vertex 5.000001e+00 4.264717e+00 3.000000e+00
      vertex 9.536743e-07 2.264717e+00 3.000000e+00
    endloop
  endfacet
  facet normal -1.224647e-16 0.000000e+00 1.000000e+00
    outer loop
      vertex 7.021070e+00 -9.214214e+00 3.000000e+00
      vertex 9.536743e-07 2.264717e+00 3.000000e+00
      vertex -6.985282e+00 9.250000e+00 3.000000e+00
    endloop
  endfacet
  facet normal -1.224647e-16 0.000000e+00 1.000000e+00
    outer loop
      vertex -4.999999e+00 4.264717e+00 3.000000e+00
      vertex -6.985282e+00 9.250000e+00 3.000000e+00
      vertex -8.485282e+00 7.750000e+00 3.000000e+00
    endloop
  endfacet
  facet normal -1.224647e-16 0.000000e+00 1.000000e+00
    outer loop
      vertex 7.021070e+00 -9.214214e+00 3.000000e+00
      vertex -6.985282e+00 9.250000e+00 3.000000e+00
      vertex -4.999999e+00 4.264717e+00 3.000000e+00
    endloop
  endfacet
  facet normal -1.224647e-16 0.000000e+00 1.000000e+00
    outer loop
      vertex 9.536743e-07 -2.193146e+00 3.000000e+00
      vertex -4.999999e+00 -4.264721e+00 3.000000e+00
      vertex -8.485282e+00 -7.750000e+00 3.000000e+00
    endloop
  endfacet
  facet normal -1.224647e-16 0.000000e+00 1.000000e+00
    outer loop
      vertex 9.536743e-07 -2.193146e+00 3.000000e+00
      vertex -8.485282e+00 -7.750000e+00 3.000000e+00
      vertex -7.021068e+00 -9.214214e+00 3.000000e+00
    endloop
  endfacet
  facet normal -1.224647e-16 0.000000e+00 1.000000e+00
    outer loop
      vertex 9.536743e-07 -2.193146e+00 3.000000e+00
      vertex 7.021070e+00 -9.214214e+00 3.000000e+00
      vertex -4.999999e+00 4.264717e+00 3.000000e+00
    endloop
  endfacet
  facet normal -1.224647e-16 0.000000e+00 1.000000e+00
    outer loop
      vertex -4.999999e+00 -4.264721e+00 3.000000e+00
      vertex 9.536743e-07 -2.193146e+00 3.000000e+00
      vertex -4.999999e+00 4.264717e+00 3.000000e+00
    endloop
  endfacet
  facet normal 7.071068e-01 7.071068e-01 8.659561e-17
    outer loop
      vertex 8.485282e+00 -7.750000e+00 3.000000e+00
      vertex 8.485282e+00 -7.750000e+00 1.776357e-15
      vertex 5.000001e+00 -4.264721e+00 3.000000e+00
    endloop
  endfacet
  facet normal 7.071068e-01 7.071068e-01 8.659561e-17
    outer loop
      vertex 5.000001e+00 -4.264721e+00 3.000000e+00
      vertex 8.485282e+00 -7.750000e+00 1.776357e-15
      vertex 5.000001e+00 -4.264721e+00 1.332268e-15
    endloop
  endfacet
  facet normal 1.224647e-16 0.000000e+00 -1.000000e+00
    outer loop
      vertex 5.000001e+00 -4.264721e+00 1.332268e-15
      vertex 8.485282e+00 -7.750000e+00 1.776357e-15
      vertex 9.536743e-07 -1.623528e+01 8.881784e-16
    endloop
  endfacet
  facet normal 1.224647e-16 0.000000e+00 -1.000000e+00
    outer loop
      vertex -4.999999e+00 -4.264721e+00 4.440892e-16
      vertex 5.000001e+00 -4.264721e+00 1.332268e-15
      vertex -8.485282e+00 -7.750000e+00 0.000000e+00
    endloop
  endfacet
  facet normal 1.224647e-16 0.000000e+00 -1.000000e+00
    outer loop
      vertex -8.485282e+00 -7.750000e+00 0.000000e+00
      vertex 5.000001e+00 -4.264721e+00 1.332268e-15
      vertex 9.536743e-07 -1.623528e+01 8.881784e-16
    endloop
  endfacet
  facet normal 1.224647e-16 0.000000e+00 -1.000000e+00
    outer loop
      vertex -4.999999e+00 4.264717e+00 4.440892e-16
      vertex 5.000001e+00 -4.264721e+00 1.332268e-15
      vertex -4.999999e+00 -4.264721e+00 4.440892e-16
    endloop
  endfacet
  facet normal 1.224647e-16 0.000000e+00 -1.000000e+00
    outer loop
      vertex -8.485282e+00 7.750000e+00 0.000000e+00
      vertex 5.000001e+00 -4.264721e+00 1.332268e-15
      vertex -4.999999e+00 4.264717e+00 4.440892e-16
    endloop
  endfacet
  facet normal 1.224647e-16 0.000000e+00 -1.000000e+00
    outer loop
      vertex 9.536743e-07 1.623528e+01 8.881784e-16
      vertex 5.000001e+00 -4.264721e+00 1.332268e-15
      vertex -8.485282e+00 7.750000e+00 0.000000e+00
    endloop
  endfacet
  facet normal 1.224647e-16 0.000000e+00 -1.000000e+00
    outer loop
      vertex 8.485282e+00 7.750000e+00 1.776357e-15
      vertex 5.000001e+00 4.264717e+00 1.332268e-15
      vertex 9.536743e-07 1.623528e+01 8.881784e-16
    endloop
  endfacet
  facet normal 1.224647e-16 0.000000e+00 -1.000000e+00
    outer loop
      vertex 5.000001e+00 4.264717e+00 1.332268e-15
      vertex 5.000001e+00 -4.264721e+00 1.332268e-15
      vertex 9.536743e-07 1.623528e+01 8.881784e-16
    endloop
  endfacet
  facet normal -7.071068e-01 -7.071068e-01 -8.659561e-17
    outer loop
      vertex 9.536743e-07 -1.623528e+01 8.881784e-16
      vertex 9.536743e-07 -1.623528e+01 1.500000e+00
      vertex -7.021068e+00 -9.214214e+00 1.500000e+00
    endloop
  endfacet
  facet normal -7.071068e-01 -7.071068e-01 -8.659561e-17
    outer loop
      vertex -8.485282e+00 -7.750000e+00 0.000000e+00
      vertex 9.536743e-07 -1.623528e+01 8.881784e-16
      vertex -7.021068e+00 -9.214214e+00 1.500000e+00
    endloop
  endfacet
  facet normal -7.071068e-01 -7.071068e-01 -8.659561e-17
    outer loop
      vertex -7.021068e+00 -9.214214e+00 3.000000e+00
      vertex -8.485282e+00 -7.750000e+00 3.000000e+00
      vertex -7.021068e+00 -9.214214e+00 1.500000e+00
    endloop
  endfacet
  facet normal -7.071068e-01 -7.071068e-01 -8.659561e-17
    outer loop
      vertex -8.485282e+00 -7.750000e+00 3.000000e+00
      vertex -8.485282e+00 -7.750000e+00 0.000000e+00
      vertex -7.021068e+00 -9.214214e+00 1.500000e+00
    endloop
  endfacet
  facet normal -1.224647e-16 0.000000e+00 1.000000e+00
    outer loop
      vertex -7.021068e+00 -9.214214e+00 1.500000e+00
      vertex 9.536743e-07 -1.623528e+01 1.500000e+00
      vertex 9.536743e-07 -2.193146e+00 1.500000e+00
    endloop
  endfacet
  facet normal -1.224647e-16 0.000000e+00 1.000000e+00
    outer loop
      vertex 9.536743e-07 -2.193146e+00 1.500000e+00
      vertex 9.536743e-07 -1.623528e+01 1.500000e+00
      vertex 7.021070e+00 -9.214214e+00 1.500000e+00
    endloop
  endfacet
  facet normal -7.071068e-01 -7.071068e-01 -8.659561e-17
    outer loop
      vertex 9.536743e-07 -2.193146e+00 3.000000e+00
      vertex 9.536743e-07 -2.193146e+00 1.500000e+00
      vertex 7.021070e+00 -9.214214e+00 1.500000e+00
    endloop
  endfacet
  facet normal -7.071068e-01 -7.071068e-01 -8.659561e-17
    outer loop
      vertex 7.021070e+00 -9.214214e+00 3.000000e+00
      vertex 9.536743e-07 -2.193146e+00 3.000000e+00
      vertex 7.021070e+00 -9.214214e+00 1.500000e+00
    endloop
  endfacet
  facet normal 7.071068e-01 -7.071068e-01 8.659561e-17
    outer loop
      vertex -7.021068e+00 -9.214214e+00 1.500000e+00
      vertex 9.536743e-07 -2.193146e+00 1.500000e+00
      vertex -7.021068e+00 -9.214214e+00 3.000000e+00
    endloop
  endfacet
  facet normal 7.071068e-01 -7.071068e-01 8.659561e-17
    outer loop
      vertex -7.021068e+00 -9.214214e+00 3.000000e+00
      vertex 9.536743e-07 -2.193146e+00 1.500000e+00
      vertex 9.536743e-07 -2.193146e+00 3.000000e+00
    endloop
  endfacet
  facet normal -7.071068e-01 7.071068e-01 -8.659561e-17
    outer loop
      vertex -8.485282e+00 -7.750000e+00 3.000000e+00
      vertex -4.999999e+00 -4.264721e+00 3.000000e+00
      vertex -4.999999e+00 -4.264721e+00 4.440892e-16
    endloop
  endfacet
  facet normal -7.071068e-01 7.071068e-01 -8.659561e-17
    outer loop
      vertex -8.485282e+00 -7.750000e+00 0.000000e+00
      vertex -8.485282e+00 -7.750000e+00 3.000000e+00
      vertex -4.999999e+00 -4.264721e+00 4.440892e-16
    endloop
  endfacet
  facet normal -1.000000e+00 0.000000e+00 -1.224647e-16
    outer loop
      vertex -4.999999e+00 -4.264721e+00 4.440892e-16
      vertex -4.999999e+00 -4.264721e+00 3.000000e+00
      vertex -4.999999e+00 4.264717e+00 3.000000e+00
    endloop
  endfacet
  facet normal -1.000000e+00 0.000000e+00 -1.224647e-16
    outer loop
      vertex -4.999999e+00 4.264717e+00 4.440892e-16
      vertex -4.999999e+00 -4.264721e+00 4.440892e-16
      vertex -4.999999e+00 4.264717e+00 3.000000e+00
    endloop
  endfacet
  facet normal -7.071068e-01 -7.071068e-01 -8.659561e-17
    outer loop
      vertex -4.999999e+00 4.264717e+00 4.440892e-16
      vertex -4.999999e+00 4.264717e+00 3.000000e+00
      vertex -8.485282e+00 7.750000e+00 3.000000e+00
    endloop
  endfacet
  facet normal -7.071068e-01 -7.071068e-01 -8.659561e-17
    outer loop
      vertex -8.485282e+00 7.750000e+00 0.000000e+00
      vertex -4.999999e+00 4.264717e+00 4.440892e-16
      vertex -8.485282e+00 7.750000e+00 3.000000e+00
    endloop
  endfacet
  facet normal -7.071068e-01 7.071068e-01 -8.659561e-17
    outer loop
      vertex -6.985282e+00 9.250000e+00 1.500000e+00
      vertex 9.536743e-07 1.623528e+01 1.500000e+00
      vertex 9.536743e-07 1.623528e+01 8.881784e-16
    endloop
  endfacet
  facet normal -7.071068e-01 7.071068e-01 -8.659561e-17
    outer loop
      vertex -8.485282e+00 7.750000e+00 3.000000e+00
      vertex -6.985282e+00 9.250000e+00 1.500000e+00
      vertex -8.485282e+00 7.750000e+00 0.000000e+00
    endloop
  endfacet
  facet normal -7.071068e-01 7.071068e-01 -8.659561e-17
    outer loop
      vertex -8.485282e+00 7.750000e+00 0.000000e+00
      vertex -6.985282e+00 9.250000e+00 1.500000e+00
      vertex 9.536743e-07 1.623528e+01 8.881784e-16
    endloop
  endfacet
  facet normal -7.071068e-01 7.071068e-01 -8.659561e-17
    outer loop
      vertex -6.985282e+00 9.250000e+00 3.000000e+00
      vertex -6.985282e+00 9.250000e+00 1.500000e+00
      vertex -8.485282e+00 7.750000e+00 3.000000e+00
    endloop
  endfacet
  facet normal 7.071068e-01 7.071068e-01 8.659561e-17
    outer loop
      vertex -6.985282e+00 9.250000e+00 1.500000e+00
      vertex -6.985282e+00 9.250000e+00 3.000000e+00
      vertex 9.536743e-07 2.264717e+00 1.500000e+00
    endloop
  endfacet
  facet normal 7.071068e-01 7.071068e-01 8.659561e-17
    outer loop
      vertex 9.536743e-07 2.264717e+00 1.500000e+00
      vertex -6.985282e+00 9.250000e+00 3.000000e+00
      vertex 9.536743e-07 2.264717e+00 3.000000e+00
    endloop
  endfacet
  facet normal -7.071068e-01 7.071068e-01 -8.659561e-17
    outer loop
      vertex 6.985282e+00 9.250000e+00 1.500000e+00
      vertex 9.536743e-07 2.264717e+00 1.500000e+00
      vertex 9.536743e-07 2.264717e+00 3.000000e+00
    endloop
  endfacet
  facet normal -7.071068e-01 7.071068e-01 -8.659561e-17
    outer loop
      vertex 6.985282e+00 9.250000e+00 3.000000e+00
      vertex 6.985282e+00 9.250000e+00 1.500000e+00
      vertex 9.536743e-07 2.264717e+00 3.000000e+00
    endloop
  endfacet
  facet normal 7.071068e-01 7.071068e-01 8.659561e-17
    outer loop
      vertex 8.485282e+00 7.750000e+00 3.000000e+00
      vertex 8.485282e+00 7.750000e+00 1.776357e-15
      vertex 6.985282e+00 9.250000e+00 3.000000e+00
    endloop
  endfacet
  facet normal 7.071068e-01 7.071068e-01 8.659561e-17
    outer loop
      vertex 6.985282e+00 9.250000e+00 1.500000e+00
      vertex 8.485282e+00 7.750000e+00 1.776357e-15
      vertex 9.536743e-07 1.623528e+01 8.881784e-16
    endloop
  endfacet
  facet normal 7.071068e-01 7.071068e-01 8.659561e-17
    outer loop
      vertex 6.985282e+00 9.250000e+00 3.000000e+00
      vertex 8.485282e+00 7.750000e+00 1.776357e-15
      vertex 6.985282e+00 9.250000e+00 1.500000e+00
    endloop
  endfacet
  facet normal 7.071068e-01 7.071068e-01 8.659561e-17
    outer loop
      vertex 6.985282e+00 9.250000e+00 1.500000e+00
      vertex 9.536743e-07 1.623528e+01 8.881784e-16
      vertex 9.536743e-07 1.623528e+01 1.500000e+00
    endloop
  endfacet
  facet normal 7.071068e-01 -7.071068e-01 8.659561e-17
    outer loop
      vertex 8.485282e+00 7.750000e+00 3.000000e+00
      vertex 5.000001e+00 4.264717e+00 3.000000e+00
      vertex 8.485282e+00 7.750000e+00 1.776357e-15
    endloop
  endfacet
  facet normal 7.071068e-01 -7.071068e-01 8.659561e-17
    outer loop
      vertex 8.485282e+00 7.750000e+00 1.776357e-15
      vertex 5.000001e+00 4.264717e+00 3.000000e+00
      vertex 5.000001e+00 4.264717e+00 1.332268e-15
    endloop
  endfacet
  facet normal 1.000000e+00 -0.000000e+00 1.224647e-16
    outer loop
      vertex 5.000001e+00 -4.264721e+00 3.000000e+00
      vertex 5.000001e+00 -4.264721e+00 1.332268e-15
      vertex 5.000001e+00 4.264717e+00 3.000000e+00
    endloop
  endfacet
  facet normal 1.000000e+00 0.000000e+00 1.224647e-16
    outer loop
      vertex 5.000001e+00 4.264717e+00 3.000000e+00
      vertex 5.000001e+00 -4.264721e+00 1.332268e-15
      vertex 5.000001e+00 4.264717e+00 1.332268e-15
    endloop
  endfacet
  facet normal -1.224647e-16 0.000000e+00 1.000000e+00
    outer loop
      vertex -6.985282e+00 9.250000e+00 1.500000e+00
      vertex 9.536743e-07 2.264717e+00 1.500000e+00
      vertex 9.536743e-07 1.623528e+01 1.500000e+00
    endloop
  endfacet
  facet normal -1.224647e-16 0.000000e+00 1.000000e+00
    outer loop
      vertex 9.536743e-07 1.623528e+01 1.500000e+00
      vertex 9.536743e-07 2.264717e+00 1.500000e+00
      vertex 6.985282e+00 9.250000e+00 1.500000e+00
    endloop
  endfacet
endsolid Default
