solid Default
  facet normal 1.000000e+00 -1.224647e-16 -0.000000e+00
    outer loop
      vertex 4.750000e+01 -5.100000e+01 0.000000e+00
      vertex 4.750000e+01 -4.800000e+01 1.836970e-16
      vertex 4.750000e+01 -5.100000e+01 3.000000e+01
    endloop
  endfacet
  facet normal 1.000000e+00 -1.224647e-16 0.000000e+00
    outer loop
      vertex 4.750000e+01 -4.800000e+01 1.000000e+00
      vertex 4.750000e+01 -4.800000e+01 1.836970e-16
      vertex 4.750000e+01 -3.600000e+01 9.184851e-16
    endloop
  endfacet
  facet normal 1.000000e+00 -1.224647e-16 0.000000e+00
    outer loop
      vertex 4.750000e+01 -5.100000e+01 3.000000e+01
      vertex 4.750000e+01 -4.800000e+01 1.836970e-16
      vertex 4.750000e+01 -4.800000e+01 1.000000e+00
    endloop
  endfacet
  facet normal 1.000000e+00 -1.224647e-16 0.000000e+00
    outer loop
      vertex 4.750000e+01 -4.800000e+01 3.000000e+01
      vertex 4.750000e+01 -5.100000e+01 3.000000e+01
      vertex 4.750000e+01 -4.800000e+01 1.000000e+00
    endloop
  endfacet
  facet normal 1.000000e+00 -1.224647e-16 0.000000e+00
    outer loop
      vertex 4.750000e+01 -4.800000e+01 1.000000e+00
      vertex 4.750000e+01 -3.600000e+01 9.184851e-16
      vertex 4.750000e+01 -3.600000e+01 1.000000e+00
    endloop
  endfacet
  facet normal 7.498799e-33 6.123234e-17 -1.000000e+00
    outer loop
      vertex 4.750000e+01 -4.800000e+01 1.836970e-16
      vertex 4.750000e+01 -5.100000e+01 0.000000e+00
      vertex -4.750000e+01 -5.100000e+01 0.000000e+00
    endloop
  endfacet
  facet normal 7.498799e-33 6.123234e-17 -1.000000e+00
    outer loop
      vertex -3.927739e+01 -4.800000e+01 1.836970e-16
      vertex -1.232367e+01 -4.800000e+01 1.836970e-16
      vertex -4.750000e+01 -5.100000e+01 0.000000e+00
    endloop
  endfacet
  facet normal 7.498799e-33 6.123234e-17 -1.000000e+00
    outer loop
      vertex -4.232367e+01 -4.800000e+01 1.836970e-16
      vertex -3.927739e+01 -4.800000e+01 1.836970e-16
      vertex -4.750000e+01 -5.100000e+01 0.000000e+00
    endloop
  endfacet
  facet normal 7.498799e-33 6.123234e-17 -1.000000e+00
    outer loop
      vertex -4.750000e+01 -4.800000e+01 1.836970e-16
      vertex -4.232367e+01 -4.800000e+01 1.836970e-16
      vertex -4.750000e+01 -5.100000e+01 0.000000e+00
    endloop
  endfacet
  facet normal 7.498799e-33 6.123234e-17 -1.000000e+00
    outer loop
      vertex 7.000008e-01 8.500000e+00 3.643324e-15
      vertex 7.000008e-01 -4.000000e+00 2.877920e-15
      vertex 6.850815e-01 8.500000e+00 3.643324e-15
    endloop
  endfacet
  facet normal 7.498799e-33 6.123234e-17 -1.000000e+00
    outer loop
      vertex 7.000008e-01 -4.000000e+00 2.877920e-15
      vertex -2.299999e+00 -8.429237e+00 2.606707e-15
      vertex -4.565285e+00 -4.000000e+00 2.877920e-15
    endloop
  endfacet
  facet normal 7.498799e-33 6.123234e-17 -1.000000e+00
    outer loop
      vertex -3.430000e+01 -4.000000e+00 2.877920e-15
      vertex -3.430000e+01 -2.000000e+01 1.898203e-15
      vertex -3.730000e+01 -4.000000e+00 2.877920e-15
    endloop
  endfacet
  facet normal 7.498799e-33 6.123234e-17 -1.000000e+00
    outer loop
      vertex 7.000008e-01 -4.000000e+00 2.877920e-15
      vertex 7.000008e-01 -4.800000e+01 1.836970e-16
      vertex -2.299999e+00 -8.429237e+00 2.606707e-15
    endloop
  endfacet
  facet normal 7.498799e-33 6.123234e-17 -1.000000e+00
    outer loop
      vertex -3.730000e+01 -4.000000e+00 2.877920e-15
      vertex -3.730000e+01 8.000000e+00 3.612708e-15
      vertex -3.430000e+01 -4.000000e+00 2.877920e-15
    endloop
  endfacet
  facet normal 7.498799e-33 6.123234e-17 -1.000000e+00
    outer loop
      vertex -3.730000e+01 -1.950933e+01 1.928247e-15
      vertex -3.730000e+01 -4.000000e+00 2.877920e-15
      vertex -3.430000e+01 -2.000000e+01 1.898203e-15
    endloop
  endfacet
  facet normal 7.498799e-33 6.123234e-17 -1.000000e+00
    outer loop
      vertex -2.299999e+00 -4.800000e+01 1.836970e-16
      vertex -2.299999e+00 -8.429237e+00 2.606707e-15
      vertex 7.000008e-01 -4.800000e+01 1.836970e-16
    endloop
  endfacet
  facet normal 7.498799e-33 6.123234e-17 -1.000000e+00
    outer loop
      vertex -3.730000e+01 -1.950933e+01 1.928247e-15
      vertex -3.430000e+01 -2.000000e+01 1.898203e-15
      vertex -3.434024e+01 -2.000000e+01 1.898203e-15
    endloop
  endfacet
  facet normal 7.498799e-33 6.123234e-17 -1.000000e+00
    outer loop
      vertex -3.730000e+01 -1.950933e+01 1.928247e-15
      vertex -3.927739e+01 -4.800000e+01 1.836970e-16
      vertex -4.232367e+01 -4.800000e+01 1.836970e-16
    endloop
  endfacet
  facet normal 7.498799e-33 6.123234e-17 -1.000000e+00
    outer loop
      vertex -1.232367e+01 -4.800000e+01 1.836970e-16
      vertex -9.277393e+00 -4.800000e+01 1.836970e-16
      vertex -4.750000e+01 -5.100000e+01 0.000000e+00
    endloop
  endfacet
  facet normal 7.498799e-33 6.123234e-17 -1.000000e+00
    outer loop
      vertex 7.000008e-01 -4.800000e+01 1.836970e-16
      vertex 2.267633e+01 -4.800000e+01 1.836970e-16
      vertex -4.750000e+01 -5.100000e+01 0.000000e+00
    endloop
  endfacet
  facet normal 7.498799e-33 6.123234e-17 -1.000000e+00
    outer loop
      vertex 3.941251e+01 -4.800000e+01 1.836970e-16
      vertex 3.487255e+01 3.891937e+00 3.361162e-15
      vertex 4.242397e+01 -4.800000e+01 1.836970e-16
    endloop
  endfacet
  facet normal 7.498799e-33 6.123234e-17 -1.000000e+00
    outer loop
      vertex 2.487793e+00 3.600000e+01 5.327214e-15
      vertex 4.864819e+00 4.948077e+01 6.152673e-15
      vertex 5.534073e+00 3.600000e+01 5.327214e-15
    endloop
  endfacet
  facet normal 7.498799e-33 6.123234e-17 -1.000000e+00
    outer loop
      vertex -4.565285e+00 -4.000000e+00 2.877920e-15
      vertex 2.487793e+00 3.600000e+01 5.327214e-15
      vertex 6.850815e-01 8.500000e+00 3.643324e-15
    endloop
  endfacet
  facet normal 7.498799e-33 6.123234e-17 -1.000000e+00
    outer loop
      vertex -4.565285e+00 -4.000000e+00 2.877920e-15
      vertex 6.850815e-01 8.500000e+00 3.643324e-15
      vertex 7.000008e-01 -4.000000e+00 2.877920e-15
    endloop
  endfacet
  facet normal 7.498799e-33 6.123234e-17 -1.000000e+00
    outer loop
      vertex -2.299999e+00 -4.800000e+01 1.836970e-16
      vertex 7.000008e-01 -4.800000e+01 1.836970e-16
      vertex -4.750000e+01 -5.100000e+01 0.000000e+00
    endloop
  endfacet
  facet normal 7.498799e-33 6.123234e-17 -1.000000e+00
    outer loop
      vertex 2.267633e+01 -4.800000e+01 1.836970e-16
      vertex 2.572261e+01 -4.800000e+01 1.836970e-16
      vertex -4.750000e+01 -5.100000e+01 0.000000e+00
    endloop
  endfacet
  facet normal 7.498799e-33 6.123234e-17 -1.000000e+00
    outer loop
      vertex 4.242397e+01 -4.800000e+01 1.836970e-16
      vertex 4.750000e+01 -4.800000e+01 1.836970e-16
      vertex -4.750000e+01 -5.100000e+01 0.000000e+00
    endloop
  endfacet
  facet normal 7.498799e-33 6.123234e-17 -1.000000e+00
    outer loop
      vertex 3.691062e+01 1.501793e+01 4.042432e-15
      vertex 3.487255e+01 3.891937e+00 3.361162e-15
      vertex 3.683317e+01 1.501115e+01 4.042017e-15
    endloop
  endfacet
  facet normal 7.498799e-33 6.123234e-17 -1.000000e+00
    outer loop
      vertex 3.691062e+01 1.501793e+01 4.042432e-15
      vertex 4.242397e+01 -4.800000e+01 1.836970e-16
      vertex 3.487255e+01 3.891937e+00 3.361162e-15
    endloop
  endfacet
  facet normal 7.498799e-33 6.123234e-17 -1.000000e+00
    outer loop
      vertex 3.748779e+01 3.600000e+01 5.327214e-15
      vertex 3.986482e+01 4.948077e+01 6.152673e-15
      vertex 4.053407e+01 3.600000e+01 5.327214e-15
    endloop
  endfacet
  facet normal 7.498799e-33 6.123234e-17 -1.000000e+00
    outer loop
      vertex 3.941251e+01 -4.800000e+01 1.836970e-16
      vertex 4.242397e+01 -4.800000e+01 1.836970e-16
      vertex -4.750000e+01 -5.100000e+01 0.000000e+00
    endloop
  endfacet
  facet normal 7.498799e-33 6.123234e-17 -1.000000e+00
    outer loop
      vertex 2.572261e+01 -4.800000e+01 1.836970e-16
      vertex 3.941251e+01 -4.800000e+01 1.836970e-16
      vertex -4.750000e+01 -5.100000e+01 0.000000e+00
    endloop
  endfacet
  facet normal 7.498799e-33 6.123234e-17 -1.000000e+00
    outer loop
      vertex 4.053407e+01 3.600000e+01 5.327214e-15
      vertex 3.683317e+01 1.501115e+01 4.042017e-15
      vertex 3.748779e+01 3.600000e+01 5.327214e-15
    endloop
  endfacet
  facet normal 7.498799e-33 6.123234e-17 -1.000000e+00
    outer loop
      vertex 4.281924e+01 4.895983e+01 6.120774e-15
      vertex 4.053407e+01 3.600000e+01 5.327214e-15
      vertex 3.986482e+01 4.948077e+01 6.152673e-15
    endloop
  endfacet
  facet normal 7.498799e-33 6.123234e-17 -1.000000e+00
    outer loop
      vertex -9.277393e+00 -4.800000e+01 1.836970e-16
      vertex -2.299999e+00 -4.800000e+01 1.836970e-16
      vertex -4.750000e+01 -5.100000e+01 0.000000e+00
    endloop
  endfacet
  facet normal 7.498799e-33 6.123234e-17 -1.000000e+00
    outer loop
      vertex 7.819241e+00 4.895983e+01 6.120774e-15
      vertex 5.534073e+00 3.600000e+01 5.327214e-15
      vertex 4.864819e+00 4.948077e+01 6.152673e-15
    endloop
  endfacet
  facet normal 7.498799e-33 6.123234e-17 -1.000000e+00
    outer loop
      vertex 5.534073e+00 3.600000e+01 5.327214e-15
      vertex 6.850815e-01 8.500000e+00 3.643324e-15
      vertex 2.487793e+00 3.600000e+01 5.327214e-15
    endloop
  endfacet
  facet normal 7.498799e-33 6.123234e-17 -1.000000e+00
    outer loop
      vertex -3.430000e+01 8.000000e+00 3.612708e-15
      vertex -3.430000e+01 -4.000000e+00 2.877920e-15
      vertex -3.730000e+01 8.000000e+00 3.612708e-15
    endloop
  endfacet
  facet normal 7.498799e-33 6.123234e-17 -1.000000e+00
    outer loop
      vertex 2.267633e+01 -4.800000e+01 1.836970e-16
      vertex 3.487255e+01 3.891937e+00 3.361162e-15
      vertex 2.572261e+01 -4.800000e+01 1.836970e-16
    endloop
  endfacet
  facet normal 7.498799e-33 6.123234e-17 -1.000000e+00
    outer loop
      vertex 2.267633e+01 -4.800000e+01 1.836970e-16
      vertex 3.683317e+01 1.501115e+01 4.042017e-15
      vertex 3.487255e+01 3.891937e+00 3.361162e-15
    endloop
  endfacet
  facet normal 7.498799e-33 6.123234e-17 -1.000000e+00
    outer loop
      vertex 2.267633e+01 -4.800000e+01 1.836970e-16
      vertex 3.748779e+01 3.600000e+01 5.327214e-15
      vertex 3.683317e+01 1.501115e+01 4.042017e-15
    endloop
  endfacet
  facet normal 7.498799e-33 6.123234e-17 -1.000000e+00
    outer loop
      vertex -3.434024e+01 -2.000000e+01 1.898203e-15
      vertex -3.927739e+01 -4.800000e+01 1.836970e-16
      vertex -3.730000e+01 -1.950933e+01 1.928247e-15
    endloop
  endfacet
  facet normal 7.498799e-33 6.123234e-17 -1.000000e+00
    outer loop
      vertex -1.232367e+01 -4.800000e+01 1.836970e-16
      vertex -2.299999e+00 -8.429237e+00 2.606707e-15
      vertex -9.277393e+00 -4.800000e+01 1.836970e-16
    endloop
  endfacet
  facet normal 7.498799e-33 6.123234e-17 -1.000000e+00
    outer loop
      vertex -1.232367e+01 -4.800000e+01 1.836970e-16
      vertex -4.565285e+00 -4.000000e+00 2.877920e-15
      vertex -2.299999e+00 -8.429237e+00 2.606707e-15
    endloop
  endfacet
  facet normal -1.224647e-16 -1.000000e+00 -6.123234e-17
    outer loop
      vertex 4.750000e+01 -5.100000e+01 0.000000e+00
      vertex 4.750000e+01 -5.100000e+01 3.000000e+01
      vertex -4.750000e+01 -5.100000e+01 0.000000e+00
    endloop
  endfacet
  facet normal -1.224647e-16 -1.000000e+00 -6.123234e-17
    outer loop
      vertex -4.750000e+01 -5.100000e+01 0.000000e+00
      vertex 4.750000e+01 -5.100000e+01 3.000000e+01
      vertex -4.750000e+01 -5.100000e+01 3.000000e+01
    endloop
  endfacet
  facet normal -7.498799e-33 -6.123234e-17 1.000000e+00
    outer loop
      vertex -4.000000e+01 -4.825000e+01 3.000000e+01
      vertex -4.750000e+01 -5.100000e+01 3.000000e+01
      vertex 4.050000e+01 -4.825000e+01 3.000000e+01
    endloop
  endfacet
  facet normal -7.498799e-33 -6.123234e-17 1.000000e+00
    outer loop
      vertex 4.050000e+01 -4.825000e+01 3.000000e+01
      vertex 4.242397e+01 -4.800000e+01 3.000000e+01
      vertex 3.691062e+01 1.501793e+01 3.000000e+01
    endloop
  endfacet
  facet normal -7.498799e-33 -6.123234e-17 1.000000e+00
    outer loop
      vertex 4.050000e+01 -4.825000e+01 3.000000e+01
      vertex 3.691062e+01 1.501793e+01 3.000000e+01
      vertex 3.500000e+01 9.750000e+00 3.000000e+01
    endloop
  endfacet
  facet normal -7.498799e-33 -6.123234e-17 1.000000e+00
    outer loop
      vertex 4.050000e+01 -4.825000e+01 3.000000e+01
      vertex 4.750000e+01 -4.800000e+01 3.000000e+01
      vertex 4.242397e+01 -4.800000e+01 3.000000e+01
    endloop
  endfacet
  facet normal -7.498799e-33 -6.123234e-17 1.000000e+00
    outer loop
      vertex -4.000000e+01 -4.425000e+01 3.000000e+01
      vertex -4.232367e+01 -4.800000e+01 3.000000e+01
      vertex -4.000000e+01 -4.825000e+01 3.000000e+01
    endloop
  endfacet
  facet normal -7.498799e-33 -6.123234e-17 1.000000e+00
    outer loop
      vertex 3.500000e+01 9.750000e+00 3.000000e+01
      vertex 2.268349e+01 -4.795936e+01 3.000000e+01
      vertex 2.353075e+01 -4.809492e+01 3.000000e+01
    endloop
  endfacet
  facet normal -7.498799e-33 -6.123234e-17 1.000000e+00
    outer loop
      vertex 4.750000e+01 -5.100000e+01 3.000000e+01
      vertex 4.750000e+01 -4.800000e+01 3.000000e+01
      vertex 4.050000e+01 -4.825000e+01 3.000000e+01
    endloop
  endfacet
  facet normal -7.498799e-33 -6.123234e-17 1.000000e+00
    outer loop
      vertex 4.750000e+01 -5.100000e+01 3.000000e+01
      vertex 4.050000e+01 -4.825000e+01 3.000000e+01
      vertex -4.750000e+01 -5.100000e+01 3.000000e+01
    endloop
  endfacet
  facet normal -7.498799e-33 -6.123234e-17 1.000000e+00
    outer loop
      vertex -4.750000e+01 -4.800000e+01 3.000000e+01
      vertex -4.750000e+01 -5.100000e+01 3.000000e+01
      vertex -4.232367e+01 -4.800000e+01 3.000000e+01
    endloop
  endfacet
  facet normal -7.498799e-33 -6.123234e-17 1.000000e+00
    outer loop
      vertex -3.430000e+01 8.000000e+00 3.000000e+01
      vertex -3.434024e+01 -2.000000e+01 3.000000e+01
      vertex -3.430000e+01 -2.000000e+01 3.000000e+01
    endloop
  endfacet
  facet normal -7.498799e-33 -6.123234e-17 1.000000e+00
    outer loop
      vertex -3.730000e+01 -1.950933e+01 3.000000e+01
      vertex -3.430000e+01 8.000000e+00 3.000000e+01
      vertex -3.730000e+01 8.000000e+00 3.000000e+01
    endloop
  endfacet
  facet normal -7.498799e-33 -6.123234e-17 1.000000e+00
    outer loop
      vertex -4.232367e+01 -4.800000e+01 3.000000e+01
      vertex -4.000000e+01 -4.425000e+01 3.000000e+01
      vertex -3.434024e+01 -2.000000e+01 3.000000e+01
    endloop
  endfacet
  facet normal -7.498799e-33 -6.123234e-17 1.000000e+00
    outer loop
      vertex -4.232367e+01 -4.800000e+01 3.000000e+01
      vertex -3.434024e+01 -2.000000e+01 3.000000e+01
      vertex -3.730000e+01 -1.950933e+01 3.000000e+01
    endloop
  endfacet
  facet normal -7.498799e-33 -6.123234e-17 1.000000e+00
    outer loop
      vertex -3.434024e+01 -2.000000e+01 3.000000e+01
      vertex -3.430000e+01 8.000000e+00 3.000000e+01
      vertex -3.730000e+01 -1.950933e+01 3.000000e+01
    endloop
  endfacet
  facet normal -7.498799e-33 -6.123234e-17 1.000000e+00
    outer loop
      vertex -4.750000e+01 -5.100000e+01 3.000000e+01
      vertex -4.000000e+01 -4.825000e+01 3.000000e+01
      vertex -4.232367e+01 -4.800000e+01 3.000000e+01
    endloop
  endfacet
  facet normal -7.498799e-33 -6.123234e-17 1.000000e+00
    outer loop
      vertex 3.500000e+01 9.750000e+00 3.000000e+01
      vertex 3.691062e+01 1.501793e+01 3.000000e+01
      vertex 3.683317e+01 1.501115e+01 3.000000e+01
    endloop
  endfacet
  facet normal -7.498799e-33 -6.123234e-17 1.000000e+00
    outer loop
      vertex 3.500000e+01 9.750000e+00 3.000000e+01
      vertex 3.683317e+01 1.501115e+01 3.000000e+01
      vertex 4.281924e+01 4.895983e+01 3.000000e+01
    endloop
  endfacet
  facet normal -7.498799e-33 -6.123234e-17 1.000000e+00
    outer loop
      vertex 2.268349e+01 -4.795936e+01 3.000000e+01
      vertex 3.500000e+01 9.750000e+00 3.000000e+01
      vertex 4.281924e+01 4.895983e+01 3.000000e+01
    endloop
  endfacet
  facet normal -7.498799e-33 -6.123234e-17 1.000000e+00
    outer loop
      vertex 2.268349e+01 -4.795936e+01 3.000000e+01
      vertex 4.281924e+01 4.895983e+01 3.000000e+01
      vertex 3.986482e+01 4.948077e+01 3.000000e+01
    endloop
  endfacet
  facet normal -7.498799e-33 -6.123234e-17 1.000000e+00
    outer loop
      vertex -3.434024e+01 -2.000000e+01 3.000000e+01
      vertex -4.000000e+01 -4.425000e+01 3.000000e+01
      vertex -3.864848e+01 -4.443326e+01 3.000000e+01
    endloop
  endfacet
  facet normal 1.224647e-16 1.000000e+00 6.123234e-17
    outer loop
      vertex 4.750000e+01 -4.800000e+01 3.000000e+01
      vertex 4.750000e+01 -4.800000e+01 1.000000e+00
      vertex 4.242397e+01 -4.800000e+01 1.000000e+00
    endloop
  endfacet
  facet normal 1.224647e-16 1.000000e+00 6.123234e-17
    outer loop
      vertex 4.242397e+01 -4.800000e+01 3.000000e+01
      vertex 4.750000e+01 -4.800000e+01 3.000000e+01
      vertex 4.242397e+01 -4.800000e+01 1.000000e+00
    endloop
  endfacet
  facet normal -7.498799e-33 -6.123234e-17 1.000000e+00
    outer loop
      vertex 4.750000e+01 -4.800000e+01 1.000000e+00
      vertex 4.750000e+01 -3.600000e+01 1.000000e+00
      vertex 4.242397e+01 -4.800000e+01 1.000000e+00
    endloop
  endfacet
  facet normal -7.498799e-33 -6.123234e-17 1.000000e+00
    outer loop
      vertex 4.242397e+01 -4.800000e+01 1.000000e+00
      vertex 4.750000e+01 -3.600000e+01 1.000000e+00
      vertex 4.137411e+01 -3.600000e+01 1.000000e+00
    endloop
  endfacet
  facet normal 1.224647e-16 1.000000e+00 6.123234e-17
    outer loop
      vertex 4.750000e+01 -3.600000e+01 1.000000e+00
      vertex 4.750000e+01 -3.600000e+01 9.184851e-16
      vertex 4.137411e+01 -3.600000e+01 9.184851e-16
    endloop
  endfacet
  facet normal 1.224647e-16 1.000000e+00 6.123234e-17
    outer loop
      vertex 4.137411e+01 -3.600000e+01 1.000000e+00
      vertex 4.750000e+01 -3.600000e+01 1.000000e+00
      vertex 4.137411e+01 -3.600000e+01 9.184851e-16
    endloop
  endfacet
  facet normal 7.498799e-33 6.123234e-17 -1.000000e+00
    outer loop
      vertex 4.750000e+01 -3.600000e+01 9.184851e-16
      vertex 4.750000e+01 -4.800000e+01 1.836970e-16
      vertex 4.242397e+01 -4.800000e+01 1.836970e-16
    endloop
  endfacet
  facet normal 7.498799e-33 6.123234e-17 -1.000000e+00
    outer loop
      vertex 4.137411e+01 -3.600000e+01 9.184851e-16
      vertex 4.750000e+01 -3.600000e+01 9.184851e-16
      vertex 4.242397e+01 -4.800000e+01 1.836970e-16
    endloop
  endfacet
  facet normal 9.961947e-01 8.715597e-02 5.336764e-18
    outer loop
      vertex 4.137411e+01 -3.600000e+01 1.000000e+00
      vertex 3.691062e+01 1.501793e+01 4.042432e-15
      vertex 3.691062e+01 1.501793e+01 3.000000e+01
    endloop
  endfacet
  facet normal 9.961947e-01 8.715597e-02 5.336764e-18
    outer loop
      vertex 4.242397e+01 -4.800000e+01 1.000000e+00
      vertex 3.691062e+01 1.501793e+01 3.000000e+01
      vertex 4.242397e+01 -4.800000e+01 3.000000e+01
    endloop
  endfacet
  facet normal 9.961947e-01 8.715597e-02 5.336764e-18
    outer loop
      vertex 4.137411e+01 -3.600000e+01 9.184851e-16
      vertex 3.691062e+01 1.501793e+01 4.042432e-15
      vertex 4.137411e+01 -3.600000e+01 1.000000e+00
    endloop
  endfacet
  facet normal -7.498799e-33 -6.123234e-17 1.000000e+00
    outer loop
      vertex 4.242397e+01 -4.800000e+01 1.836970e-16
      vertex 3.691062e+01 1.501793e+01 4.042432e-15
      vertex 4.137411e+01 -3.600000e+01 9.184851e-16
    endloop
  endfacet
  facet normal 9.961947e-01 8.715597e-02 5.336764e-18
    outer loop
      vertex 4.137411e+01 -3.600000e+01 1.000000e+00
      vertex 3.691062e+01 1.501793e+01 3.000000e+01
      vertex 4.242397e+01 -4.800000e+01 1.000000e+00
    endloop
  endfacet
  facet normal -8.715597e-02 9.961947e-01 6.099933e-17
    outer loop
      vertex 3.691062e+01 1.501793e+01 3.000000e+01
      vertex 3.691062e+01 1.501793e+01 4.042432e-15
      vertex 3.683317e+01 1.501115e+01 4.042017e-15
    endloop
  endfacet
  facet normal -8.715597e-02 9.961947e-01 6.099933e-17
    outer loop
      vertex 3.683317e+01 1.501115e+01 3.000000e+01
      vertex 3.691062e+01 1.501793e+01 3.000000e+01
      vertex 3.683317e+01 1.501115e+01 4.042017e-15
    endloop
  endfacet
  facet normal 9.848078e-01 -1.736480e-01 -1.063287e-17
    outer loop
      vertex 4.281924e+01 4.895983e+01 1.000000e+00
      vertex 4.281924e+01 4.895983e+01 3.000000e+01
      vertex 4.053407e+01 3.600000e+01 1.000000e+00
    endloop
  endfacet
  facet normal 9.848078e-01 -1.736480e-01 -1.063287e-17
    outer loop
      vertex 4.053407e+01 3.600000e+01 1.000000e+00
      vertex 4.281924e+01 4.895983e+01 3.000000e+01
      vertex 3.683317e+01 1.501115e+01 3.000000e+01
    endloop
  endfacet
  facet normal 9.848078e-01 -1.736480e-01 -1.063287e-17
    outer loop
      vertex 4.053407e+01 3.600000e+01 1.000000e+00
      vertex 3.683317e+01 1.501115e+01 3.000000e+01
      vertex 3.683317e+01 1.501115e+01 4.042017e-15
    endloop
  endfacet
  facet normal 9.848078e-01 -1.736480e-01 -1.063287e-17
    outer loop
      vertex 4.053407e+01 3.600000e+01 1.000000e+00
      vertex 3.683317e+01 1.501115e+01 4.042017e-15
      vertex 4.053407e+01 3.600000e+01 5.327214e-15
    endloop
  endfacet
  facet normal 7.498799e-33 6.123234e-17 -1.000000e+00
    outer loop
      vertex 4.750000e+01 5.100000e+01 6.245699e-15
      vertex 4.750000e+01 3.600000e+01 5.327214e-15
      vertex 4.053407e+01 3.600000e+01 5.327214e-15
    endloop
  endfacet
  facet normal 7.498799e-33 6.123234e-17 -1.000000e+00
    outer loop
      vertex 3.986482e+01 4.948077e+01 6.152673e-15
      vertex 4.750000e+01 5.100000e+01 6.245699e-15
      vertex 4.281924e+01 4.895983e+01 6.120774e-15
    endloop
  endfacet
  facet normal 7.498799e-33 6.123234e-17 -1.000000e+00
    outer loop
      vertex 4.281924e+01 4.895983e+01 6.120774e-15
      vertex 4.750000e+01 5.100000e+01 6.245699e-15
      vertex 4.053407e+01 3.600000e+01 5.327214e-15
    endloop
  endfacet
  facet normal 7.498799e-33 6.123234e-17 -1.000000e+00
    outer loop
      vertex 7.819241e+00 4.895983e+01 6.120774e-15
      vertex 4.750000e+01 5.100000e+01 6.245699e-15
      vertex 3.986482e+01 4.948077e+01 6.152673e-15
    endloop
  endfacet
  facet normal 7.498799e-33 6.123234e-17 -1.000000e+00
    outer loop
      vertex 5.534073e+00 3.600000e+01 5.327214e-15
      vertex 3.986482e+01 4.948077e+01 6.152673e-15
      vertex 3.748779e+01 3.600000e+01 5.327214e-15
    endloop
  endfacet
  facet normal 7.498799e-33 6.123234e-17 -1.000000e+00
    outer loop
      vertex 7.819241e+00 4.895983e+01 6.120774e-15
      vertex 3.986482e+01 4.948077e+01 6.152673e-15
      vertex 5.534073e+00 3.600000e+01 5.327214e-15
    endloop
  endfacet
  facet normal 7.498799e-33 6.123234e-17 -1.000000e+00
    outer loop
      vertex 4.864819e+00 4.948077e+01 6.152673e-15
      vertex 4.750000e+01 5.100000e+01 6.245699e-15
      vertex 7.819241e+00 4.895983e+01 6.120774e-15
    endloop
  endfacet
  facet normal 7.498799e-33 6.123234e-17 -1.000000e+00
    outer loop
      vertex -2.750000e+01 5.100000e+01 6.245699e-15
      vertex 4.750000e+01 5.100000e+01 6.245699e-15
      vertex 4.864819e+00 4.948077e+01 6.152673e-15
    endloop
  endfacet
  facet normal 7.498799e-33 6.123234e-17 -1.000000e+00
    outer loop
      vertex -2.750000e+01 3.600000e+01 5.327214e-15
      vertex 4.864819e+00 4.948077e+01 6.152673e-15
      vertex 2.487793e+00 3.600000e+01 5.327214e-15
    endloop
  endfacet
  facet normal 7.498799e-33 6.123234e-17 -1.000000e+00
    outer loop
      vertex -2.750000e+01 5.100000e+01 6.245699e-15
      vertex 4.864819e+00 4.948077e+01 6.152673e-15
      vertex -2.750000e+01 3.600000e+01 5.327214e-15
    endloop
  endfacet
  facet normal -1.224647e-16 -1.000000e+00 -6.123234e-17
    outer loop
      vertex 4.750000e+01 3.600000e+01 5.327214e-15
      vertex 4.750000e+01 3.600000e+01 1.000000e+00
      vertex 4.053407e+01 3.600000e+01 5.327214e-15
    endloop
  endfacet
  facet normal -1.224647e-16 -1.000000e+00 -6.123234e-17
    outer loop
      vertex 4.053407e+01 3.600000e+01 5.327214e-15
      vertex 4.750000e+01 3.600000e+01 1.000000e+00
      vertex 4.053407e+01 3.600000e+01 1.000000e+00
    endloop
  endfacet
  facet normal -1.224647e-16 -1.000000e+00 -6.123234e-17
    outer loop
      vertex 3.748779e+01 3.600000e+01 5.327214e-15
      vertex 3.748779e+01 3.600000e+01 1.000000e+00
      vertex 5.534073e+00 3.600000e+01 5.327214e-15
    endloop
  endfacet
  facet normal -1.224647e-16 -1.000000e+00 -6.123234e-17
    outer loop
      vertex 5.534073e+00 3.600000e+01 5.327214e-15
      vertex 3.748779e+01 3.600000e+01 1.000000e+00
      vertex 5.534073e+00 3.600000e+01 1.000000e+00
    endloop
  endfacet
  facet normal -9.848078e-01 1.736480e-01 1.063287e-17
    outer loop
      vertex 2.268349e+01 -4.795936e+01 1.000000e+00
      vertex 2.268349e+01 -4.795936e+01 3.000000e+01
      vertex 3.986482e+01 4.948077e+01 3.000000e+01
    endloop
  endfacet
  facet normal -9.848078e-01 1.736480e-01 1.063287e-17
    outer loop
      vertex 3.986482e+01 4.948077e+01 3.000000e+01
      vertex 3.986482e+01 4.948077e+01 1.000000e+00
      vertex 3.748779e+01 3.600000e+01 1.000000e+00
    endloop
  endfacet
  facet normal -9.848078e-01 1.736480e-01 1.063287e-17
    outer loop
      vertex 2.479225e+01 -3.600000e+01 1.000000e+00
      vertex 3.986482e+01 4.948077e+01 3.000000e+01
      vertex 3.748779e+01 3.600000e+01 1.000000e+00
    endloop
  endfacet
  facet normal 7.498799e-33 6.123234e-17 -1.000000e+00
    outer loop
      vertex 3.748779e+01 3.600000e+01 5.327214e-15
      vertex 2.267633e+01 -4.800000e+01 1.836970e-16
      vertex 2.268349e+01 -4.795936e+01 1.861856e-16
    endloop
  endfacet
  facet normal -9.848078e-01 1.736480e-01 1.063287e-17
    outer loop
      vertex 2.479225e+01 -3.600000e+01 9.184851e-16
      vertex 2.479225e+01 -3.600000e+01 1.000000e+00
      vertex 3.748779e+01 3.600000e+01 1.000000e+00
    endloop
  endfacet
  facet normal -9.848078e-01 1.736480e-01 1.063287e-17
    outer loop
      vertex 3.748779e+01 3.600000e+01 5.327214e-15
      vertex 2.479225e+01 -3.600000e+01 9.184851e-16
      vertex 3.748779e+01 3.600000e+01 1.000000e+00
    endloop
  endfacet
  facet normal -7.498799e-33 -6.123234e-17 1.000000e+00
    outer loop
      vertex 3.748779e+01 3.600000e+01 5.327214e-15
      vertex 2.268349e+01 -4.795936e+01 1.861856e-16
      vertex 2.479225e+01 -3.600000e+01 9.184851e-16
    endloop
  endfacet
  facet normal -9.848078e-01 1.736480e-01 1.063287e-17
    outer loop
      vertex 2.479225e+01 -3.600000e+01 1.000000e+00
      vertex 2.268349e+01 -4.795936e+01 1.000000e+00
      vertex 3.986482e+01 4.948077e+01 3.000000e+01
    endloop
  endfacet
  facet normal 1.000000e+00 -1.224647e-16 0.000000e+00
    outer loop
      vertex 7.000008e-01 -3.600000e+01 9.184851e-16
      vertex 7.000008e-01 -4.000000e+00 2.877920e-15
      vertex 7.000008e-01 -4.000000e+00 1.000000e+00
    endloop
  endfacet
  facet normal 1.000000e+00 -1.224647e-16 0.000000e+00
    outer loop
      vertex 7.000008e-01 -4.000000e+00 1.000000e+00
      vertex 7.000008e-01 8.500000e+00 1.000000e+00
      vertex 7.000008e-01 8.500000e+00 3.000000e+01
    endloop
  endfacet
  facet normal 1.000000e+00 -1.224647e-16 0.000000e+00
    outer loop
      vertex 7.000008e-01 -3.600000e+01 9.184851e-16
      vertex 7.000008e-01 -4.000000e+00 1.000000e+00
      vertex 7.000008e-01 -3.600000e+01 1.000000e+00
    endloop
  endfacet
  facet normal 1.000000e+00 -1.224647e-16 0.000000e+00
    outer loop
      vertex 7.000008e-01 -3.600000e+01 1.000000e+00
      vertex 7.000008e-01 8.500000e+00 3.000000e+01
      vertex 7.000008e-01 -4.444200e+01 1.000000e+00
    endloop
  endfacet
  facet normal 1.000000e+00 -1.224647e-16 0.000000e+00
    outer loop
      vertex 7.000008e-01 -4.000000e+00 1.000000e+00
      vertex 7.000008e-01 8.500000e+00 3.000000e+01
      vertex 7.000008e-01 -3.600000e+01 1.000000e+00
    endloop
  endfacet
  facet normal NaN NaN NaN
    outer loop
      vertex 7.000008e-01 -4.444200e+01 4.015617e-16
      vertex 7.000008e-01 -4.000000e+00 2.877920e-15
      vertex 7.000008e-01 -3.600000e+01 9.184851e-16
    endloop
  endfacet
  facet normal NaN NaN NaN
    outer loop
      vertex 7.000008e-01 -4.800000e+01 1.836970e-16
      vertex 7.000008e-01 -4.000000e+00 2.877920e-15
      vertex 7.000008e-01 -4.444200e+01 4.015617e-16
    endloop
  endfacet
  facet normal 1.000000e+00 -1.224647e-16 0.000000e+00
    outer loop
      vertex 7.000008e-01 -4.444200e+01 1.000000e+00
      vertex 7.000008e-01 8.500000e+00 3.000000e+01
      vertex 7.000008e-01 -4.444200e+01 3.000000e+01
    endloop
  endfacet
  facet normal 7.498799e-33 6.123234e-17 -1.000000e+00
    outer loop
      vertex 7.500000e+00 1.100000e+01 3.796405e-15
      vertex 7.500000e+00 -4.000000e+00 2.877920e-15
      vertex 7.000008e-01 -4.000000e+00 2.877920e-15
    endloop
  endfacet
  facet normal 7.498799e-33 6.123234e-17 -1.000000e+00
    outer loop
      vertex 6.850815e-01 8.500000e+00 3.643324e-15
      vertex 7.500000e+00 1.100000e+01 3.796405e-15
      vertex 7.000008e-01 8.500000e+00 3.643324e-15
    endloop
  endfacet
  facet normal 7.498799e-33 6.123234e-17 -1.000000e+00
    outer loop
      vertex 7.000008e-01 8.500000e+00 3.643324e-15
      vertex 7.500000e+00 1.100000e+01 3.796405e-15
      vertex 7.000008e-01 -4.000000e+00 2.877920e-15
    endloop
  endfacet
  facet normal 7.498799e-33 6.123234e-17 -1.000000e+00
    outer loop
      vertex 1.125900e+00 1.100000e+01 3.796405e-15
      vertex 7.500000e+00 1.100000e+01 3.796405e-15
      vertex 6.850815e-01 8.500000e+00 3.643324e-15
    endloop
  endfacet
  facet normal -1.224647e-16 -1.000000e+00 -6.123234e-17
    outer loop
      vertex 7.500000e+00 -4.000000e+00 2.877920e-15
      vertex 7.500000e+00 -4.000000e+00 1.000000e+00
      vertex 7.000008e-01 -4.000000e+00 2.877920e-15
    endloop
  endfacet
  facet normal -1.224647e-16 -1.000000e+00 -6.123234e-17
    outer loop
      vertex 7.000008e-01 -4.000000e+00 2.877920e-15
      vertex 7.500000e+00 -4.000000e+00 1.000000e+00
      vertex 7.000008e-01 -4.000000e+00 1.000000e+00
    endloop
  endfacet
  facet normal 9.848078e-01 -1.736480e-01 -1.063287e-17
    outer loop
      vertex 7.819241e+00 4.895983e+01 1.000000e+00
      vertex 7.819241e+00 4.895983e+01 3.000000e+01
      vertex 5.534073e+00 3.600000e+01 1.000000e+00
    endloop
  endfacet
  facet normal 9.848078e-01 -1.736480e-01 -1.063287e-17
    outer loop
      vertex 5.534073e+00 3.600000e+01 1.000000e+00
      vertex 7.819241e+00 4.895983e+01 3.000000e+01
      vertex 6.850815e-01 8.500000e+00 3.000000e+01
    endloop
  endfacet
  facet normal 9.848078e-01 -1.736480e-01 -1.063287e-17
    outer loop
      vertex 1.125900e+00 1.100000e+01 1.000000e+00
      vertex 6.850815e-01 8.500000e+00 3.000000e+01
      vertex 6.850815e-01 8.500000e+00 1.000000e+00
    endloop
  endfacet
  facet normal 9.848078e-01 -1.736480e-01 -1.063287e-17
    outer loop
      vertex 5.534073e+00 3.600000e+01 1.000000e+00
      vertex 6.850815e-01 8.500000e+00 3.000000e+01
      vertex 1.125900e+00 1.100000e+01 1.000000e+00
    endloop
  endfacet
  facet normal 9.848078e-01 -1.736480e-01 -1.063287e-17
    outer loop
      vertex 1.125900e+00 1.100000e+01 3.796405e-15
      vertex 5.534073e+00 3.600000e+01 1.000000e+00
      vertex 1.125900e+00 1.100000e+01 1.000000e+00
    endloop
  endfacet
  facet normal 7.498799e-33 6.123234e-17 -1.000000e+00
    outer loop
      vertex 1.125900e+00 1.100000e+01 3.796405e-15
      vertex 6.850815e-01 8.500000e+00 3.643324e-15
      vertex 5.534073e+00 3.600000e+01 5.327214e-15
    endloop
  endfacet
  facet normal 9.848078e-01 -1.736480e-01 -1.063287e-17
    outer loop
      vertex 5.534073e+00 3.600000e+01 1.000000e+00
      vertex 1.125900e+00 1.100000e+01 3.796405e-15
      vertex 5.534073e+00 3.600000e+01 5.327214e-15
    endloop
  endfacet
  facet normal -1.224647e-16 -1.000000e+00 -6.123234e-17
    outer loop
      vertex 2.487793e+00 3.600000e+01 5.327214e-15
      vertex 2.487793e+00 3.600000e+01 1.000000e+00
      vertex -1.750000e+01 3.600000e+01 5.327214e-15
    endloop
  endfacet
  facet normal NaN NaN NaN
    outer loop
      vertex 2.487793e+00 3.600000e+01 5.327214e-15
      vertex -1.750000e+01 3.600000e+01 5.327214e-15
      vertex -2.750000e+01 3.600000e+01 5.327214e-15
    endloop
  endfacet
  facet normal -1.224647e-16 -1.000000e+00 -6.123234e-17
    outer loop
      vertex -1.750000e+01 3.600000e+01 5.327214e-15
      vertex 2.487793e+00 3.600000e+01 1.000000e+00
      vertex -1.750000e+01 3.600000e+01 1.000000e+00
    endloop
  endfacet
  facet normal -9.848078e-01 1.736480e-01 1.063287e-17
    outer loop
      vertex 4.864819e+00 4.948077e+01 3.000000e+01
      vertex 4.864819e+00 4.948077e+01 1.000000e+00
      vertex 2.487793e+00 3.600000e+01 1.000000e+00
    endloop
  endfacet
  facet normal -9.848078e-01 1.736480e-01 1.063287e-17
    outer loop
      vertex -1.920380e+00 1.100000e+01 1.000000e+00
      vertex 4.864819e+00 4.948077e+01 3.000000e+01
      vertex 2.487793e+00 3.600000e+01 1.000000e+00
    endloop
  endfacet
  facet normal -9.848078e-01 1.736480e-01 1.063287e-17
    outer loop
      vertex -1.920380e+00 1.100000e+01 1.000000e+00
      vertex -4.565285e+00 -4.000000e+00 1.000000e+00
      vertex 4.864819e+00 4.948077e+01 3.000000e+01
    endloop
  endfacet
  facet normal -9.848078e-01 1.736480e-01 1.063287e-17
    outer loop
      vertex 2.487793e+00 3.600000e+01 5.327214e-15
      vertex -1.920380e+00 1.100000e+01 3.796405e-15
      vertex 2.487793e+00 3.600000e+01 1.000000e+00
    endloop
  endfacet
  facet normal -7.498799e-33 -6.123234e-17 1.000000e+00
    outer loop
      vertex 2.487793e+00 3.600000e+01 5.327214e-15
      vertex -4.565285e+00 -4.000000e+00 2.877920e-15
      vertex -1.920380e+00 1.100000e+01 3.796405e-15
    endloop
  endfacet
  facet normal -9.848078e-01 1.736480e-01 1.063287e-17
    outer loop
      vertex -1.020775e+01 -3.600000e+01 9.184851e-16
      vertex -1.020775e+01 -3.600000e+01 1.000000e+00
      vertex -4.565285e+00 -4.000000e+00 1.000000e+00
    endloop
  endfacet
  facet normal -9.848078e-01 1.736480e-01 1.063287e-17
    outer loop
      vertex -4.565285e+00 -4.000000e+00 2.877920e-15
      vertex -1.020775e+01 -3.600000e+01 9.184851e-16
      vertex -4.565285e+00 -4.000000e+00 1.000000e+00
    endloop
  endfacet
  facet normal -7.498799e-33 -6.123234e-17 1.000000e+00
    outer loop
      vertex -4.565285e+00 -4.000000e+00 2.877920e-15
      vertex -1.232367e+01 -4.800000e+01 1.836970e-16
      vertex -1.020775e+01 -3.600000e+01 9.184851e-16
    endloop
  endfacet
  facet normal -9.848078e-01 1.736480e-01 1.063287e-17
    outer loop
      vertex -4.565285e+00 -4.000000e+00 1.000000e+00
      vertex -1.020775e+01 -3.600000e+01 1.000000e+00
      vertex 4.864819e+00 4.948077e+01 3.000000e+01
    endloop
  endfacet
  facet normal -9.848078e-01 1.736480e-01 1.063287e-17
    outer loop
      vertex -1.020775e+01 -3.600000e+01 1.000000e+00
      vertex -1.232367e+01 -4.800000e+01 1.000000e+00
      vertex 4.864819e+00 4.948077e+01 3.000000e+01
    endloop
  endfacet
  facet normal -9.848078e-01 1.736480e-01 1.063287e-17
    outer loop
      vertex -1.232367e+01 -4.800000e+01 1.000000e+00
      vertex -1.232367e+01 -4.800000e+01 3.000000e+01
      vertex 4.864819e+00 4.948077e+01 3.000000e+01
    endloop
  endfacet
  facet normal -9.848078e-01 1.736480e-01 1.063287e-17
    outer loop
      vertex -1.920380e+00 1.100000e+01 3.796405e-15
      vertex -1.920380e+00 1.100000e+01 1.000000e+00
      vertex 2.487793e+00 3.600000e+01 1.000000e+00
    endloop
  endfacet
  facet normal 7.498799e-33 6.123234e-17 -1.000000e+00
    outer loop
      vertex -3.430000e+01 8.000000e+00 3.612708e-15
      vertex -1.920380e+00 1.100000e+01 3.796405e-15
      vertex -4.565285e+00 -4.000000e+00 2.877920e-15
    endloop
  endfacet
  facet normal 7.498799e-33 6.123234e-17 -1.000000e+00
    outer loop
      vertex -4.750000e+01 1.100000e+01 3.796405e-15
      vertex -1.920380e+00 1.100000e+01 3.796405e-15
      vertex -3.430000e+01 8.000000e+00 3.612708e-15
    endloop
  endfacet
  facet normal 7.498799e-33 6.123234e-17 -1.000000e+00
    outer loop
      vertex -3.730000e+01 8.000000e+00 3.612708e-15
      vertex -3.730000e+01 -4.000000e+00 2.877920e-15
      vertex -4.750000e+01 1.100000e+01 3.796405e-15
    endloop
  endfacet
  facet normal 7.498799e-33 6.123234e-17 -1.000000e+00
    outer loop
      vertex -4.750000e+01 1.100000e+01 3.796405e-15
      vertex -3.430000e+01 8.000000e+00 3.612708e-15
      vertex -3.730000e+01 8.000000e+00 3.612708e-15
    endloop
  endfacet
  facet normal 7.498799e-33 6.123234e-17 -1.000000e+00
    outer loop
      vertex -4.750000e+01 -4.000000e+00 2.877920e-15
      vertex -4.750000e+01 1.100000e+01 3.796405e-15
      vertex -3.730000e+01 -4.000000e+00 2.877920e-15
    endloop
  endfacet
  facet normal 7.498799e-33 6.123234e-17 -1.000000e+00
    outer loop
      vertex -3.430000e+01 -4.000000e+00 2.877920e-15
      vertex -3.430000e+01 8.000000e+00 3.612708e-15
      vertex -4.565285e+00 -4.000000e+00 2.877920e-15
    endloop
  endfacet
  facet normal -1.224647e-16 -1.000000e+00 -6.123234e-17
    outer loop
      vertex -4.565285e+00 -4.000000e+00 2.877920e-15
      vertex -4.565285e+00 -4.000000e+00 1.000000e+00
      vertex -1.750000e+01 -4.000000e+00 2.877920e-15
    endloop
  endfacet
  facet normal NaN NaN NaN
    outer loop
      vertex -4.565285e+00 -4.000000e+00 2.877920e-15
      vertex -1.750000e+01 -4.000000e+00 2.877920e-15
      vertex -3.430000e+01 -4.000000e+00 2.877920e-15
    endloop
  endfacet
  facet normal -1.224647e-16 -1.000000e+00 -6.123234e-17
    outer loop
      vertex -2.750000e+01 -4.000000e+00 1.000000e+00
      vertex -3.430000e+01 -4.000000e+00 2.877920e-15
      vertex -2.750000e+01 -4.000000e+00 2.877920e-15
    endloop
  endfacet
  facet normal NaN NaN NaN
    outer loop
      vertex -1.750000e+01 -4.000000e+00 2.877920e-15
      vertex -2.750000e+01 -4.000000e+00 2.877920e-15
      vertex -3.430000e+01 -4.000000e+00 2.877920e-15
    endloop
  endfacet
  facet normal -1.224647e-16 -1.000000e+00 -6.123234e-17
    outer loop
      vertex -3.430000e+01 -4.000000e+00 2.877920e-15
      vertex -2.750000e+01 -4.000000e+00 1.000000e+00
      vertex -3.430000e+01 -4.000000e+00 1.000000e+00
    endloop
  endfacet
  facet normal -1.224647e-16 -1.000000e+00 -6.123234e-17
    outer loop
      vertex -1.750000e+01 -4.000000e+00 2.877920e-15
      vertex -4.565285e+00 -4.000000e+00 1.000000e+00
      vertex -1.750000e+01 -4.000000e+00 1.000000e+00
    endloop
  endfacet
  facet normal NaN NaN NaN
    outer loop
      vertex -1.234375e+01 -4.800000e+01 1.836970e-16
      vertex -1.232367e+01 -4.800000e+01 1.836970e-16
      vertex -3.927739e+01 -4.800000e+01 1.836970e-16
    endloop
  endfacet
  facet normal 9.848078e-01 -1.736480e-01 -1.063287e-17
    outer loop
      vertex -3.716147e+01 -3.600000e+01 9.184851e-16
      vertex -3.434024e+01 -2.000000e+01 1.898203e-15
      vertex -3.716147e+01 -3.600000e+01 1.000000e+00
    endloop
  endfacet
  facet normal 9.848078e-01 -1.736480e-01 -1.063287e-17
    outer loop
      vertex -3.716147e+01 -3.600000e+01 1.000000e+00
      vertex -3.434024e+01 -2.000000e+01 3.000000e+01
      vertex -3.864848e+01 -4.443326e+01 1.000000e+00
    endloop
  endfacet
  facet normal 9.848078e-01 -1.736480e-01 -1.063287e-17
    outer loop
      vertex -3.434024e+01 -2.000000e+01 1.898203e-15
      vertex -3.434024e+01 -2.000000e+01 3.000000e+01
      vertex -3.716147e+01 -3.600000e+01 1.000000e+00
    endloop
  endfacet
  facet normal 7.498799e-33 6.123234e-17 -1.000000e+00
    outer loop
      vertex -3.434024e+01 -2.000000e+01 1.898203e-15
      vertex -3.716147e+01 -3.600000e+01 9.184851e-16
      vertex -3.864848e+01 -4.443326e+01 4.020970e-16
    endloop
  endfacet
  facet normal 7.498799e-33 6.123234e-17 -1.000000e+00
    outer loop
      vertex -3.434024e+01 -2.000000e+01 1.898203e-15
      vertex -3.864848e+01 -4.443326e+01 4.020970e-16
      vertex -3.927739e+01 -4.800000e+01 1.836970e-16
    endloop
  endfacet
  facet normal 9.848078e-01 -1.736480e-01 -1.063287e-17
    outer loop
      vertex -3.864848e+01 -4.443326e+01 1.000000e+00
      vertex -3.434024e+01 -2.000000e+01 3.000000e+01
      vertex -3.864848e+01 -4.443326e+01 3.000000e+01
    endloop
  endfacet
  facet normal -1.224647e-16 -1.000000e+00 -6.123234e-17
    outer loop
      vertex -3.430000e+01 -2.000000e+01 1.898203e-15
      vertex -3.430000e+01 -2.000000e+01 3.000000e+01
      vertex -3.434024e+01 -2.000000e+01 1.898203e-15
    endloop
  endfacet
  facet normal -1.224647e-16 -1.000000e+00 -6.123234e-17
    outer loop
      vertex -3.434024e+01 -2.000000e+01 1.898203e-15
      vertex -3.430000e+01 -2.000000e+01 3.000000e+01
      vertex -3.434024e+01 -2.000000e+01 3.000000e+01
    endloop
  endfacet
  facet normal 1.000000e+00 -1.224647e-16 -0.000000e+00
    outer loop
      vertex -3.430000e+01 -2.000000e+01 1.898203e-15
      vertex -3.430000e+01 -4.000000e+00 2.877920e-15
      vertex -3.430000e+01 -2.000000e+01 3.000000e+01
    endloop
  endfacet
  facet normal 1.000000e+00 -1.224647e-16 0.000000e+00
    outer loop
      vertex -3.430000e+01 -2.000000e+01 3.000000e+01
      vertex -3.430000e+01 -4.000000e+00 2.877920e-15
      vertex -3.430000e+01 -4.000000e+00 1.000000e+00
    endloop
  endfacet
  facet normal 1.000000e+00 -1.224647e-16 0.000000e+00
    outer loop
      vertex -3.430000e+01 -2.000000e+01 3.000000e+01
      vertex -3.430000e+01 -4.000000e+00 1.000000e+00
      vertex -3.430000e+01 8.000000e+00 1.000000e+00
    endloop
  endfacet
  facet normal 1.000000e+00 -1.224647e-16 0.000000e+00
    outer loop
      vertex -3.430000e+01 -2.000000e+01 3.000000e+01
      vertex -3.430000e+01 8.000000e+00 1.000000e+00
      vertex -3.430000e+01 8.000000e+00 3.000000e+01
    endloop
  endfacet
  facet normal -1.224647e-16 -1.000000e+00 -6.123234e-17
    outer loop
      vertex -3.730000e+01 -4.000000e+00 1.000000e+00
      vertex -4.750000e+01 -4.000000e+00 1.000000e+00
      vertex -3.730000e+01 -4.000000e+00 2.877920e-15
    endloop
  endfacet
  facet normal -1.224647e-16 -1.000000e+00 -6.123234e-17
    outer loop
      vertex -3.730000e+01 -4.000000e+00 2.877920e-15
      vertex -4.750000e+01 -4.000000e+00 1.000000e+00
      vertex -4.750000e+01 -4.000000e+00 2.877920e-15
    endloop
  endfacet
  facet normal -1.000000e+00 1.224647e-16 0.000000e+00
    outer loop
      vertex -3.730000e+01 -4.000000e+00 2.877920e-15
      vertex -3.730000e+01 -1.950933e+01 1.928247e-15
      vertex -3.730000e+01 -1.950933e+01 3.000000e+01
    endloop
  endfacet
  facet normal -1.000000e+00 1.224647e-16 0.000000e+00
    outer loop
      vertex -3.730000e+01 -4.000000e+00 1.000000e+00
      vertex -3.730000e+01 -4.000000e+00 2.877920e-15
      vertex -3.730000e+01 -1.950933e+01 3.000000e+01
    endloop
  endfacet
  facet normal -1.000000e+00 1.224647e-16 0.000000e+00
    outer loop
      vertex -3.730000e+01 8.000000e+00 3.000000e+01
      vertex -3.730000e+01 -4.000000e+00 1.000000e+00
      vertex -3.730000e+01 -1.950933e+01 3.000000e+01
    endloop
  endfacet
  facet normal -1.000000e+00 1.224647e-16 0.000000e+00
    outer loop
      vertex -3.730000e+01 8.000000e+00 1.000000e+00
      vertex -3.730000e+01 -4.000000e+00 1.000000e+00
      vertex -3.730000e+01 8.000000e+00 3.000000e+01
    endloop
  endfacet
  facet normal -7.498799e-33 -6.123234e-17 1.000000e+00
    outer loop
      vertex -4.020775e+01 -3.600000e+01 9.184851e-16
      vertex -3.730000e+01 -1.950933e+01 1.928247e-15
      vertex -4.232367e+01 -4.800000e+01 1.836970e-16
    endloop
  endfacet
  facet normal -9.848078e-01 1.736480e-01 1.063287e-17
    outer loop
      vertex -3.730000e+01 -1.950933e+01 3.000000e+01
      vertex -3.730000e+01 -1.950933e+01 1.928247e-15
      vertex -4.020775e+01 -3.600000e+01 9.184851e-16
    endloop
  endfacet
  facet normal -9.848078e-01 1.736480e-01 1.063287e-17
    outer loop
      vertex -4.020775e+01 -3.600000e+01 1.000000e+00
      vertex -4.232367e+01 -4.800000e+01 1.000000e+00
      vertex -3.730000e+01 -1.950933e+01 3.000000e+01
    endloop
  endfacet
  facet normal -9.848078e-01 1.736480e-01 1.063287e-17
    outer loop
      vertex -3.730000e+01 -1.950933e+01 3.000000e+01
      vertex -4.020775e+01 -3.600000e+01 9.184851e-16
      vertex -4.020775e+01 -3.600000e+01 1.000000e+00
    endloop
  endfacet
  facet normal -9.848078e-01 1.736480e-01 1.063287e-17
    outer loop
      vertex -4.232367e+01 -4.800000e+01 3.000000e+01
      vertex -3.730000e+01 -1.950933e+01 3.000000e+01
      vertex -4.232367e+01 -4.800000e+01 1.000000e+00
    endloop
  endfacet
  facet normal -1.000000e+00 1.224647e-16 0.000000e+00
    outer loop
      vertex -4.750000e+01 -4.800000e+01 1.836970e-16
      vertex -4.750000e+01 -5.100000e+01 0.000000e+00
      vertex -4.750000e+01 -5.100000e+01 3.000000e+01
    endloop
  endfacet
  facet normal -1.000000e+00 1.224647e-16 0.000000e+00
    outer loop
      vertex -4.750000e+01 -4.800000e+01 1.000000e+00
      vertex -4.750000e+01 -4.800000e+01 1.836970e-16
      vertex -4.750000e+01 -5.100000e+01 3.000000e+01
    endloop
  endfacet
  facet normal -1.000000e+00 1.224647e-16 0.000000e+00
    outer loop
      vertex -4.750000e+01 -4.800000e+01 3.000000e+01
      vertex -4.750000e+01 -4.800000e+01 1.000000e+00
      vertex -4.750000e+01 -5.100000e+01 3.000000e+01
    endloop
  endfacet
  facet normal -1.000000e+00 1.224647e-16 0.000000e+00
    outer loop
      vertex -4.750000e+01 -3.600000e+01 1.000000e+00
      vertex -4.750000e+01 -4.800000e+01 1.836970e-16
      vertex -4.750000e+01 -4.800000e+01 1.000000e+00
    endloop
  endfacet
  facet normal -1.000000e+00 1.224647e-16 0.000000e+00
    outer loop
      vertex -4.750000e+01 -3.600000e+01 9.184851e-16
      vertex -4.750000e+01 -4.800000e+01 1.836970e-16
      vertex -4.750000e+01 -3.600000e+01 1.000000e+00
    endloop
  endfacet
  facet normal 1.224647e-16 1.000000e+00 6.123234e-17
    outer loop
      vertex -4.232367e+01 -4.800000e+01 3.000000e+01
      vertex -4.232367e+01 -4.800000e+01 1.000000e+00
      vertex -4.750000e+01 -4.800000e+01 1.000000e+00
    endloop
  endfacet
  facet normal 1.224647e-16 1.000000e+00 6.123234e-17
    outer loop
      vertex -4.750000e+01 -4.800000e+01 3.000000e+01
      vertex -4.232367e+01 -4.800000e+01 3.000000e+01
      vertex -4.750000e+01 -4.800000e+01 1.000000e+00
    endloop
  endfacet
  facet normal 1.224647e-16 1.000000e+00 6.123234e-17
    outer loop
      vertex -3.430000e+01 8.000000e+00 3.000000e+01
      vertex -3.430000e+01 8.000000e+00 1.000000e+00
      vertex -3.730000e+01 8.000000e+00 1.000000e+00
    endloop
  endfacet
  facet normal 1.224647e-16 1.000000e+00 6.123234e-17
    outer loop
      vertex -3.730000e+01 8.000000e+00 3.000000e+01
      vertex -3.430000e+01 8.000000e+00 3.000000e+01
      vertex -3.730000e+01 8.000000e+00 1.000000e+00
    endloop
  endfacet
  facet normal 7.498799e-33 6.123234e-17 -1.000000e+00
    outer loop
      vertex -3.864848e+01 -4.443326e+01 3.000000e+01
      vertex -1.098760e+01 -4.818388e+01 3.000000e+01
      vertex -1.234375e+01 -4.800000e+01 3.000000e+01
    endloop
  endfacet
  facet normal 1.343640e-01 9.909320e-01 6.067709e-17
    outer loop
      vertex -1.234375e+01 -4.800000e+01 1.000000e+00
      vertex -3.864848e+01 -4.443326e+01 1.000000e+00
      vertex -1.234375e+01 -4.800000e+01 3.000000e+01
    endloop
  endfacet
  facet normal 1.343640e-01 9.909320e-01 6.067709e-17
    outer loop
      vertex -3.864848e+01 -4.443326e+01 1.000000e+00
      vertex -3.864848e+01 -4.443326e+01 3.000000e+01
      vertex -1.234375e+01 -4.800000e+01 3.000000e+01
    endloop
  endfacet
  facet normal 7.498799e-33 6.123234e-17 -1.000000e+00
    outer loop
      vertex -3.864848e+01 -4.443326e+01 3.000000e+01
      vertex -4.000000e+01 -4.425000e+01 3.000000e+01
      vertex -1.098760e+01 -4.818388e+01 3.000000e+01
    endloop
  endfacet
  facet normal -7.498799e-33 -6.123234e-17 1.000000e+00
    outer loop
      vertex -1.098760e+01 -4.818388e+01 3.000000e+01
      vertex -1.644287e-01 -4.430369e+01 3.000000e+01
      vertex -2.000000e+00 -2.500000e-01 3.000000e+01
    endloop
  endfacet
  facet normal -7.498799e-33 -6.123234e-17 1.000000e+00
    outer loop
      vertex -4.000000e+01 -4.425000e+01 3.000000e+01
      vertex -4.000000e+01 -4.825000e+01 3.000000e+01
      vertex -1.098760e+01 -4.818388e+01 3.000000e+01
    endloop
  endfacet
  facet normal -7.498799e-33 -6.123234e-17 1.000000e+00
    outer loop
      vertex 4.050000e+01 -4.825000e+01 3.000000e+01
      vertex 3.500000e+01 9.750000e+00 3.000000e+01
      vertex 2.353075e+01 -4.809492e+01 3.000000e+01
    endloop
  endfacet
  facet normal -7.498799e-33 -6.123234e-17 1.000000e+00
    outer loop
      vertex -1.098760e+01 -4.818388e+01 3.000000e+01
      vertex 2.353075e+01 -4.809492e+01 3.000000e+01
      vertex -1.644287e-01 -4.430369e+01 3.000000e+01
    endloop
  endfacet
  facet normal -7.498799e-33 -6.123234e-17 1.000000e+00
    outer loop
      vertex 4.050000e+01 -4.825000e+01 3.000000e+01
      vertex 2.353075e+01 -4.809492e+01 3.000000e+01
      vertex -1.098760e+01 -4.818388e+01 3.000000e+01
    endloop
  endfacet
  facet normal -7.498799e-33 -6.123234e-17 1.000000e+00
    outer loop
      vertex 4.050000e+01 -4.825000e+01 3.000000e+01
      vertex -1.098760e+01 -4.818388e+01 3.000000e+01
      vertex -4.000000e+01 -4.825000e+01 3.000000e+01
    endloop
  endfacet
  facet normal -7.498799e-33 -6.123234e-17 1.000000e+00
    outer loop
      vertex 7.000008e-01 -4.444200e+01 3.000000e+01
      vertex 2.353075e+01 -4.809492e+01 3.000000e+01
      vertex 2.268349e+01 -4.795936e+01 3.000000e+01
    endloop
  endfacet
  facet normal 1.579909e-01 9.874406e-01 6.046330e-17
    outer loop
      vertex 2.268349e+01 -4.795936e+01 1.000000e+00
      vertex 7.000008e-01 -4.444200e+01 1.000000e+00
      vertex 2.268349e+01 -4.795936e+01 3.000000e+01
    endloop
  endfacet
  facet normal 1.579909e-01 9.874406e-01 6.046330e-17
    outer loop
      vertex 7.000008e-01 -4.444200e+01 1.000000e+00
      vertex 7.000008e-01 -4.444200e+01 3.000000e+01
      vertex 2.268349e+01 -4.795936e+01 3.000000e+01
    endloop
  endfacet
  facet normal 7.498799e-33 6.123234e-17 -1.000000e+00
    outer loop
      vertex 7.000008e-01 -4.444200e+01 3.000000e+01
      vertex -1.644287e-01 -4.430369e+01 3.000000e+01
      vertex 2.353075e+01 -4.809492e+01 3.000000e+01
    endloop
  endfacet
  facet normal 1.736480e-01 9.848078e-01 6.030209e-17
    outer loop
      vertex 4.281924e+01 4.895983e+01 3.000000e+01
      vertex 4.281924e+01 4.895983e+01 1.000000e+00
      vertex 3.986482e+01 4.948077e+01 1.000000e+00
    endloop
  endfacet
  facet normal 1.736480e-01 9.848078e-01 6.030209e-17
    outer loop
      vertex 3.986482e+01 4.948077e+01 3.000000e+01
      vertex 4.281924e+01 4.895983e+01 3.000000e+01
      vertex 3.986482e+01 4.948077e+01 1.000000e+00
    endloop
  endfacet
  facet normal -7.498799e-33 -6.123234e-17 1.000000e+00
    outer loop
      vertex 4.750000e+01 3.600000e+01 1.000000e+00
      vertex 4.750000e+01 5.100000e+01 1.000000e+00
      vertex 4.053407e+01 3.600000e+01 1.000000e+00
    endloop
  endfacet
  facet normal -7.498799e-33 -6.123234e-17 1.000000e+00
    outer loop
      vertex 4.864819e+00 4.948077e+01 1.000000e+00
      vertex 4.750000e+01 5.100000e+01 1.000000e+00
      vertex -2.750000e+01 5.100000e+01 1.000000e+00
    endloop
  endfacet
  facet normal -7.498799e-33 -6.123234e-17 1.000000e+00
    outer loop
      vertex -1.750000e+01 4.400000e+01 1.000000e+00
      vertex -2.750000e+01 5.100000e+01 1.000000e+00
      vertex -2.750000e+01 4.400000e+01 1.000000e+00
    endloop
  endfacet
  facet normal -7.498799e-33 -6.123234e-17 1.000000e+00
    outer loop
      vertex 5.534073e+00 3.600000e+01 1.000000e+00
      vertex 3.748779e+01 3.600000e+01 1.000000e+00
      vertex 7.819241e+00 4.895983e+01 1.000000e+00
    endloop
  endfacet
  facet normal -7.498799e-33 -6.123234e-17 1.000000e+00
    outer loop
      vertex 4.864819e+00 4.948077e+01 1.000000e+00
      vertex -2.750000e+01 5.100000e+01 1.000000e+00
      vertex -1.750000e+01 4.400000e+01 1.000000e+00
    endloop
  endfacet
  facet normal -7.498799e-33 -6.123234e-17 1.000000e+00
    outer loop
      vertex 4.864819e+00 4.948077e+01 1.000000e+00
      vertex -1.750000e+01 4.400000e+01 1.000000e+00
      vertex 2.487793e+00 3.600000e+01 1.000000e+00
    endloop
  endfacet
  facet normal -7.498799e-33 -6.123234e-17 1.000000e+00
    outer loop
      vertex 7.819241e+00 4.895983e+01 1.000000e+00
      vertex 4.750000e+01 5.100000e+01 1.000000e+00
      vertex 4.864819e+00 4.948077e+01 1.000000e+00
    endloop
  endfacet
  facet normal -7.498799e-33 -6.123234e-17 1.000000e+00
    outer loop
      vertex 3.986482e+01 4.948077e+01 1.000000e+00
      vertex 4.750000e+01 5.100000e+01 1.000000e+00
      vertex 7.819241e+00 4.895983e+01 1.000000e+00
    endloop
  endfacet
  facet normal -7.498799e-33 -6.123234e-17 1.000000e+00
    outer loop
      vertex 3.986482e+01 4.948077e+01 1.000000e+00
      vertex 7.819241e+00 4.895983e+01 1.000000e+00
      vertex 3.748779e+01 3.600000e+01 1.000000e+00
    endloop
  endfacet
  facet normal -7.498799e-33 -6.123234e-17 1.000000e+00
    outer loop
      vertex 4.281924e+01 4.895983e+01 1.000000e+00
      vertex 4.750000e+01 5.100000e+01 1.000000e+00
      vertex 3.986482e+01 4.948077e+01 1.000000e+00
    endloop
  endfacet
  facet normal -7.498799e-33 -6.123234e-17 1.000000e+00
    outer loop
      vertex 4.053407e+01 3.600000e+01 1.000000e+00
      vertex 4.750000e+01 5.100000e+01 1.000000e+00
      vertex 4.281924e+01 4.895983e+01 1.000000e+00
    endloop
  endfacet
  facet normal -7.498799e-33 -6.123234e-17 1.000000e+00
    outer loop
      vertex -1.750000e+01 3.600000e+01 1.000000e+00
      vertex 2.487793e+00 3.600000e+01 1.000000e+00
      vertex -1.750000e+01 4.400000e+01 1.000000e+00
    endloop
  endfacet
  facet normal 1.000000e+00 -1.224647e-16 0.000000e+00
    outer loop
      vertex 4.750000e+01 3.600000e+01 5.327214e-15
      vertex 4.750000e+01 5.100000e+01 6.245699e-15
      vertex 4.750000e+01 3.600000e+01 1.000000e+00
    endloop
  endfacet
  facet normal 1.000000e+00 -1.224647e-16 0.000000e+00
    outer loop
      vertex 4.750000e+01 3.600000e+01 1.000000e+00
      vertex 4.750000e+01 5.100000e+01 6.245699e-15
      vertex 4.750000e+01 5.100000e+01 1.000000e+00
    endloop
  endfacet
  facet normal 1.224647e-16 1.000000e+00 6.123234e-17
    outer loop
      vertex 4.750000e+01 5.100000e+01 1.000000e+00
      vertex 4.750000e+01 5.100000e+01 6.245699e-15
      vertex -2.750000e+01 5.100000e+01 6.245699e-15
    endloop
  endfacet
  facet normal 1.224647e-16 1.000000e+00 6.123234e-17
    outer loop
      vertex -2.750000e+01 5.100000e+01 1.000000e+00
      vertex 4.750000e+01 5.100000e+01 1.000000e+00
      vertex -2.750000e+01 5.100000e+01 6.245699e-15
    endloop
  endfacet
  facet normal -1.000000e+00 1.224647e-16 0.000000e+00
    outer loop
      vertex -2.750000e+01 1.100000e+01 1.000000e+00
      vertex -2.750000e+01 5.100000e+01 6.245699e-15
      vertex -2.750000e+01 3.600000e+01 5.327214e-15
    endloop
  endfacet
  facet normal -1.000000e+00 1.224647e-16 0.000000e+00
    outer loop
      vertex -2.750000e+01 1.100000e+01 3.796405e-15
      vertex -2.750000e+01 1.100000e+01 1.000000e+00
      vertex -2.750000e+01 3.600000e+01 5.327214e-15
    endloop
  endfacet
  facet normal NaN NaN NaN
    outer loop
      vertex -2.750000e+01 -4.000000e+00 1.000000e+00
      vertex -2.750000e+01 -3.600000e+01 1.000000e+00
      vertex -2.750000e+01 1.100000e+01 1.000000e+00
    endloop
  endfacet
  facet normal -1.000000e+00 1.224647e-16 0.000000e+00
    outer loop
      vertex -2.750000e+01 -4.000000e+00 2.877920e-15
      vertex -2.750000e+01 -3.600000e+01 9.184851e-16
      vertex -2.750000e+01 -4.000000e+00 1.000000e+00
    endloop
  endfacet
  facet normal -1.000000e+00 1.224647e-16 0.000000e+00
    outer loop
      vertex -2.750000e+01 -3.600000e+01 9.184851e-16
      vertex -2.750000e+01 -3.600000e+01 1.000000e+00
      vertex -2.750000e+01 -4.000000e+00 1.000000e+00
    endloop
  endfacet
  facet normal NaN NaN NaN
    outer loop
      vertex -2.750000e+01 -3.600000e+01 1.000000e+00
      vertex -2.750000e+01 4.400000e+01 1.000000e+00
      vertex -2.750000e+01 1.100000e+01 1.000000e+00
    endloop
  endfacet
  facet normal -1.000000e+00 1.224647e-16 0.000000e+00
    outer loop
      vertex -2.750000e+01 1.100000e+01 1.000000e+00
      vertex -2.750000e+01 4.400000e+01 1.000000e+00
      vertex -2.750000e+01 5.100000e+01 6.245699e-15
    endloop
  endfacet
  facet normal -1.000000e+00 1.224647e-16 0.000000e+00
    outer loop
      vertex -2.750000e+01 4.400000e+01 1.000000e+00
      vertex -2.750000e+01 5.100000e+01 1.000000e+00
      vertex -2.750000e+01 5.100000e+01 6.245699e-15
    endloop
  endfacet
  facet normal -7.498799e-33 -6.123234e-17 1.000000e+00
    outer loop
      vertex 2.479225e+01 -3.600000e+01 1.000000e+00
      vertex 7.000008e-01 -3.600000e+01 1.000000e+00
      vertex 2.268349e+01 -4.795936e+01 1.000000e+00
    endloop
  endfacet
  facet normal -7.498799e-33 -6.123234e-17 1.000000e+00
    outer loop
      vertex 2.268349e+01 -4.795936e+01 1.000000e+00
      vertex 7.000008e-01 -3.600000e+01 1.000000e+00
      vertex 7.000008e-01 -4.444200e+01 1.000000e+00
    endloop
  endfacet
  facet normal 1.224647e-16 1.000000e+00 6.123234e-17
    outer loop
      vertex 2.479225e+01 -3.600000e+01 1.000000e+00
      vertex 2.479225e+01 -3.600000e+01 9.184851e-16
      vertex 7.000008e-01 -3.600000e+01 9.184851e-16
    endloop
  endfacet
  facet normal 1.224647e-16 1.000000e+00 6.123234e-17
    outer loop
      vertex 7.000008e-01 -3.600000e+01 1.000000e+00
      vertex 2.479225e+01 -3.600000e+01 1.000000e+00
      vertex 7.000008e-01 -3.600000e+01 9.184851e-16
    endloop
  endfacet
  facet normal 7.498799e-33 6.123234e-17 -1.000000e+00
    outer loop
      vertex 7.000008e-01 -3.600000e+01 9.184851e-16
      vertex 2.479225e+01 -3.600000e+01 9.184851e-16
      vertex 2.268349e+01 -4.795936e+01 1.861856e-16
    endloop
  endfacet
  facet normal 7.498799e-33 6.123234e-17 -1.000000e+00
    outer loop
      vertex 7.000008e-01 -4.444200e+01 4.015617e-16
      vertex 7.000008e-01 -3.600000e+01 9.184851e-16
      vertex 2.268349e+01 -4.795936e+01 1.861856e-16
    endloop
  endfacet
  facet normal 7.498799e-33 6.123234e-17 -1.000000e+00
    outer loop
      vertex 7.000008e-01 -4.444200e+01 4.015617e-16
      vertex 2.268349e+01 -4.795936e+01 1.861856e-16
      vertex 2.267633e+01 -4.800000e+01 1.836970e-16
    endloop
  endfacet
  facet normal 7.498799e-33 6.123234e-17 -1.000000e+00
    outer loop
      vertex 7.000008e-01 -4.800000e+01 1.836970e-16
      vertex 7.000008e-01 -4.444200e+01 4.015617e-16
      vertex 2.267633e+01 -4.800000e+01 1.836970e-16
    endloop
  endfacet
  facet normal -7.498799e-33 -6.123234e-17 1.000000e+00
    outer loop
      vertex 7.819241e+00 4.895983e+01 3.000000e+01
      vertex 4.864819e+00 4.948077e+01 3.000000e+01
      vertex 6.850815e-01 8.500000e+00 3.000000e+01
    endloop
  endfacet
  facet normal -7.498799e-33 -6.123234e-17 1.000000e+00
    outer loop
      vertex -2.000000e+00 -2.500000e-01 3.000000e+01
      vertex 4.864819e+00 4.948077e+01 3.000000e+01
      vertex -1.232367e+01 -4.800000e+01 3.000000e+01
    endloop
  endfacet
  facet normal -7.498799e-33 -6.123234e-17 1.000000e+00
    outer loop
      vertex -1.232367e+01 -4.800000e+01 3.000000e+01
      vertex -1.234375e+01 -4.800000e+01 3.000000e+01
      vertex -1.098760e+01 -4.818388e+01 3.000000e+01
    endloop
  endfacet
  facet normal -7.498799e-33 -6.123234e-17 1.000000e+00
    outer loop
      vertex 6.850815e-01 8.500000e+00 3.000000e+01
      vertex 4.864819e+00 4.948077e+01 3.000000e+01
      vertex -2.000000e+00 -2.500000e-01 3.000000e+01
    endloop
  endfacet
  facet normal -7.498799e-33 -6.123234e-17 1.000000e+00
    outer loop
      vertex -1.644287e-01 -4.430369e+01 3.000000e+01
      vertex 6.850815e-01 8.500000e+00 3.000000e+01
      vertex -2.000000e+00 -2.500000e-01 3.000000e+01
    endloop
  endfacet
  facet normal -7.498799e-33 -6.123234e-17 1.000000e+00
    outer loop
      vertex 7.000008e-01 8.500000e+00 3.000000e+01
      vertex -1.644287e-01 -4.430369e+01 3.000000e+01
      vertex 7.000008e-01 -4.444200e+01 3.000000e+01
    endloop
  endfacet
  facet normal -7.498799e-33 -6.123234e-17 1.000000e+00
    outer loop
      vertex 6.850815e-01 8.500000e+00 3.000000e+01
      vertex -1.644287e-01 -4.430369e+01 3.000000e+01
      vertex 7.000008e-01 8.500000e+00 3.000000e+01
    endloop
  endfacet
  facet normal -7.498799e-33 -6.123234e-17 1.000000e+00
    outer loop
      vertex -2.000000e+00 -2.500000e-01 3.000000e+01
      vertex -1.232367e+01 -4.800000e+01 3.000000e+01
      vertex -1.098760e+01 -4.818388e+01 3.000000e+01
    endloop
  endfacet
  facet normal 1.224647e-16 1.000000e+00 6.123234e-17
    outer loop
      vertex 7.000008e-01 8.500000e+00 3.000000e+01
      vertex 7.000008e-01 8.500000e+00 1.000000e+00
      vertex 6.850815e-01 8.500000e+00 1.000000e+00
    endloop
  endfacet
  facet normal 1.224647e-16 1.000000e+00 6.123234e-17
    outer loop
      vertex 6.850815e-01 8.500000e+00 3.000000e+01
      vertex 7.000008e-01 8.500000e+00 3.000000e+01
      vertex 6.850815e-01 8.500000e+00 1.000000e+00
    endloop
  endfacet
  facet normal -7.498799e-33 -6.123234e-17 1.000000e+00
    outer loop
      vertex 7.500000e+00 -4.000000e+00 1.000000e+00
      vertex 7.500000e+00 1.100000e+01 1.000000e+00
      vertex 7.000008e-01 -4.000000e+00 1.000000e+00
    endloop
  endfacet
  facet normal -7.498799e-33 -6.123234e-17 1.000000e+00
    outer loop
      vertex 7.000008e-01 -4.000000e+00 1.000000e+00
      vertex 7.500000e+00 1.100000e+01 1.000000e+00
      vertex 1.125900e+00 1.100000e+01 1.000000e+00
    endloop
  endfacet
  facet normal -7.498799e-33 -6.123234e-17 1.000000e+00
    outer loop
      vertex 7.000008e-01 8.500000e+00 1.000000e+00
      vertex 1.125900e+00 1.100000e+01 1.000000e+00
      vertex 6.850815e-01 8.500000e+00 1.000000e+00
    endloop
  endfacet
  facet normal -7.498799e-33 -6.123234e-17 1.000000e+00
    outer loop
      vertex 7.000008e-01 -4.000000e+00 1.000000e+00
      vertex 1.125900e+00 1.100000e+01 1.000000e+00
      vertex 7.000008e-01 8.500000e+00 1.000000e+00
    endloop
  endfacet
  facet normal 1.000000e+00 -1.224647e-16 0.000000e+00
    outer loop
      vertex 7.500000e+00 -4.000000e+00 2.877920e-15
      vertex 7.500000e+00 1.100000e+01 3.796405e-15
      vertex 7.500000e+00 -4.000000e+00 1.000000e+00
    endloop
  endfacet
  facet normal 1.000000e+00 -1.224647e-16 0.000000e+00
    outer loop
      vertex 7.500000e+00 -4.000000e+00 1.000000e+00
      vertex 7.500000e+00 1.100000e+01 3.796405e-15
      vertex 7.500000e+00 1.100000e+01 1.000000e+00
    endloop
  endfacet
  facet normal 1.224647e-16 1.000000e+00 6.123234e-17
    outer loop
      vertex 7.500000e+00 1.100000e+01 1.000000e+00
      vertex 7.500000e+00 1.100000e+01 3.796405e-15
      vertex 1.125900e+00 1.100000e+01 3.796405e-15
    endloop
  endfacet
  facet normal 1.224647e-16 1.000000e+00 6.123234e-17
    outer loop
      vertex 1.125900e+00 1.100000e+01 1.000000e+00
      vertex 7.500000e+00 1.100000e+01 1.000000e+00
      vertex 1.125900e+00 1.100000e+01 3.796405e-15
    endloop
  endfacet
  facet normal 1.736480e-01 9.848078e-01 6.030209e-17
    outer loop
      vertex 7.819241e+00 4.895983e+01 3.000000e+01
      vertex 7.819241e+00 4.895983e+01 1.000000e+00
      vertex 4.864819e+00 4.948077e+01 1.000000e+00
    endloop
  endfacet
  facet normal 1.736480e-01 9.848078e-01 6.030209e-17
    outer loop
      vertex 4.864819e+00 4.948077e+01 3.000000e+01
      vertex 7.819241e+00 4.895983e+01 3.000000e+01
      vertex 4.864819e+00 4.948077e+01 1.000000e+00
    endloop
  endfacet
  facet normal 7.498799e-33 6.123234e-17 -1.000000e+00
    outer loop
      vertex -1.750000e+01 3.600000e+01 5.327214e-15
      vertex -1.750000e+01 1.100000e+01 3.796405e-15
      vertex -2.750000e+01 1.100000e+01 3.796405e-15
    endloop
  endfacet
  facet normal 7.498799e-33 6.123234e-17 -1.000000e+00
    outer loop
      vertex -2.750000e+01 3.600000e+01 5.327214e-15
      vertex -1.750000e+01 3.600000e+01 5.327214e-15
      vertex -2.750000e+01 1.100000e+01 3.796405e-15
    endloop
  endfacet
  facet normal 1.000000e+00 -1.224647e-16 0.000000e+00
    outer loop
      vertex -1.750000e+01 -3.600000e+01 9.184851e-16
      vertex -1.750000e+01 -4.000000e+00 2.877920e-15
      vertex -1.750000e+01 -3.600000e+01 1.000000e+00
    endloop
  endfacet
  facet normal 1.000000e+00 -1.224647e-16 0.000000e+00
    outer loop
      vertex -1.750000e+01 -3.600000e+01 1.000000e+00
      vertex -1.750000e+01 -4.000000e+00 2.877920e-15
      vertex -1.750000e+01 -4.000000e+00 1.000000e+00
    endloop
  endfacet
  facet normal NaN NaN NaN
    outer loop
      vertex -1.750000e+01 -3.600000e+01 1.000000e+00
      vertex -1.750000e+01 -4.000000e+00 1.000000e+00
      vertex -1.750000e+01 1.100000e+01 1.000000e+00
    endloop
  endfacet
  facet normal 1.000000e+00 -1.224647e-16 0.000000e+00
    outer loop
      vertex -1.750000e+01 1.100000e+01 1.000000e+00
      vertex -1.750000e+01 1.100000e+01 3.796405e-15
      vertex -1.750000e+01 3.600000e+01 5.327214e-15
    endloop
  endfacet
  facet normal 1.000000e+00 -1.224647e-16 0.000000e+00
    outer loop
      vertex -1.750000e+01 1.100000e+01 1.000000e+00
      vertex -1.750000e+01 3.600000e+01 5.327214e-15
      vertex -1.750000e+01 3.600000e+01 1.000000e+00
    endloop
  endfacet
  facet normal NaN NaN NaN
    outer loop
      vertex -1.750000e+01 1.100000e+01 1.000000e+00
      vertex -1.750000e+01 3.600000e+01 1.000000e+00
      vertex -1.750000e+01 4.400000e+01 1.000000e+00
    endloop
  endfacet
  facet normal NaN NaN NaN
    outer loop
      vertex -1.750000e+01 1.100000e+01 1.000000e+00
      vertex -1.750000e+01 4.400000e+01 1.000000e+00
      vertex -1.750000e+01 -3.600000e+01 1.000000e+00
    endloop
  endfacet
  facet normal 1.224647e-16 1.000000e+00 6.123234e-17
    outer loop
      vertex -1.232367e+01 -4.800000e+01 3.000000e+01
      vertex -1.232367e+01 -4.800000e+01 1.000000e+00
      vertex -1.234375e+01 -4.800000e+01 1.000000e+00
    endloop
  endfacet
  facet normal 1.224647e-16 1.000000e+00 6.123234e-17
    outer loop
      vertex -1.234375e+01 -4.800000e+01 3.000000e+01
      vertex -1.232367e+01 -4.800000e+01 3.000000e+01
      vertex -1.234375e+01 -4.800000e+01 1.000000e+00
    endloop
  endfacet
  facet normal -7.498799e-33 -6.123234e-17 1.000000e+00
    outer loop
      vertex -1.020775e+01 -3.600000e+01 1.000000e+00
      vertex -1.750000e+01 -3.600000e+01 1.000000e+00
      vertex -1.232367e+01 -4.800000e+01 1.000000e+00
    endloop
  endfacet
  facet normal -7.498799e-33 -6.123234e-17 1.000000e+00
    outer loop
      vertex -2.750000e+01 4.400000e+01 1.000000e+00
      vertex -1.750000e+01 -3.600000e+01 1.000000e+00
      vertex -1.750000e+01 4.400000e+01 1.000000e+00
    endloop
  endfacet
  facet normal -7.498799e-33 -6.123234e-17 1.000000e+00
    outer loop
      vertex -2.750000e+01 -3.600000e+01 1.000000e+00
      vertex -1.750000e+01 -3.600000e+01 1.000000e+00
      vertex -2.750000e+01 4.400000e+01 1.000000e+00
    endloop
  endfacet
  facet normal -7.498799e-33 -6.123234e-17 1.000000e+00
    outer loop
      vertex -1.232367e+01 -4.800000e+01 1.000000e+00
      vertex -1.750000e+01 -3.600000e+01 1.000000e+00
      vertex -2.750000e+01 -3.600000e+01 1.000000e+00
    endloop
  endfacet
  facet normal -7.498799e-33 -6.123234e-17 1.000000e+00
    outer loop
      vertex -1.232367e+01 -4.800000e+01 1.000000e+00
      vertex -2.750000e+01 -3.600000e+01 1.000000e+00
      vertex -3.716147e+01 -3.600000e+01 1.000000e+00
    endloop
  endfacet
  facet normal -7.498799e-33 -6.123234e-17 1.000000e+00
    outer loop
      vertex -3.716147e+01 -3.600000e+01 1.000000e+00
      vertex -3.864848e+01 -4.443326e+01 1.000000e+00
      vertex -1.232367e+01 -4.800000e+01 1.000000e+00
    endloop
  endfacet
  facet normal -7.498799e-33 -6.123234e-17 1.000000e+00
    outer loop
      vertex -1.232367e+01 -4.800000e+01 1.000000e+00
      vertex -3.864848e+01 -4.443326e+01 1.000000e+00
      vertex -1.234375e+01 -4.800000e+01 1.000000e+00
    endloop
  endfacet
  facet normal 1.224647e-16 1.000000e+00 6.123234e-17
    outer loop
      vertex -1.020775e+01 -3.600000e+01 1.000000e+00
      vertex -1.020775e+01 -3.600000e+01 9.184851e-16
      vertex -1.750000e+01 -3.600000e+01 9.184851e-16
    endloop
  endfacet
  facet normal 1.224647e-16 1.000000e+00 6.123234e-17
    outer loop
      vertex -1.750000e+01 -3.600000e+01 1.000000e+00
      vertex -1.020775e+01 -3.600000e+01 1.000000e+00
      vertex -1.750000e+01 -3.600000e+01 9.184851e-16
    endloop
  endfacet
  facet normal 7.498799e-33 6.123234e-17 -1.000000e+00
    outer loop
      vertex -1.750000e+01 -3.600000e+01 9.184851e-16
      vertex -1.020775e+01 -3.600000e+01 9.184851e-16
      vertex -1.232367e+01 -4.800000e+01 1.836970e-16
    endloop
  endfacet
  facet normal 7.498799e-33 6.123234e-17 -1.000000e+00
    outer loop
      vertex -3.864848e+01 -4.443326e+01 4.020970e-16
      vertex -1.750000e+01 -3.600000e+01 9.184851e-16
      vertex -1.234375e+01 -4.800000e+01 1.836970e-16
    endloop
  endfacet
  facet normal 7.498799e-33 6.123234e-17 -1.000000e+00
    outer loop
      vertex -1.234375e+01 -4.800000e+01 1.836970e-16
      vertex -1.750000e+01 -3.600000e+01 9.184851e-16
      vertex -1.232367e+01 -4.800000e+01 1.836970e-16
    endloop
  endfacet
  facet normal 7.498799e-33 6.123234e-17 -1.000000e+00
    outer loop
      vertex -2.750000e+01 -3.600000e+01 9.184851e-16
      vertex -1.750000e+01 -3.600000e+01 9.184851e-16
      vertex -3.864848e+01 -4.443326e+01 4.020970e-16
    endloop
  endfacet
  facet normal 7.498799e-33 6.123234e-17 -1.000000e+00
    outer loop
      vertex -2.750000e+01 -4.000000e+00 2.877920e-15
      vertex -1.750000e+01 -3.600000e+01 9.184851e-16
      vertex -2.750000e+01 -3.600000e+01 9.184851e-16
    endloop
  endfacet
  facet normal 7.498799e-33 6.123234e-17 -1.000000e+00
    outer loop
      vertex -3.716147e+01 -3.600000e+01 9.184851e-16
      vertex -2.750000e+01 -3.600000e+01 9.184851e-16
      vertex -3.864848e+01 -4.443326e+01 4.020970e-16
    endloop
  endfacet
  facet normal 7.498799e-33 6.123234e-17 -1.000000e+00
    outer loop
      vertex -1.750000e+01 -4.000000e+00 2.877920e-15
      vertex -1.750000e+01 -3.600000e+01 9.184851e-16
      vertex -2.750000e+01 -4.000000e+00 2.877920e-15
    endloop
  endfacet
  facet normal -7.498799e-33 -6.123234e-17 1.000000e+00
    outer loop
      vertex -1.920380e+00 1.100000e+01 1.000000e+00
      vertex -1.750000e+01 1.100000e+01 1.000000e+00
      vertex -4.565285e+00 -4.000000e+00 1.000000e+00
    endloop
  endfacet
  facet normal -7.498799e-33 -6.123234e-17 1.000000e+00
    outer loop
      vertex -4.565285e+00 -4.000000e+00 1.000000e+00
      vertex -1.750000e+01 1.100000e+01 1.000000e+00
      vertex -1.750000e+01 -4.000000e+00 1.000000e+00
    endloop
  endfacet
  facet normal NaN NaN NaN
    outer loop
      vertex -2.750000e+01 1.100000e+01 3.796405e-15
      vertex -1.920380e+00 1.100000e+01 3.796405e-15
      vertex -4.750000e+01 1.100000e+01 3.796405e-15
    endloop
  endfacet
  facet normal 1.224647e-16 1.000000e+00 6.123234e-17
    outer loop
      vertex -1.750000e+01 1.100000e+01 3.796405e-15
      vertex -1.750000e+01 1.100000e+01 1.000000e+00
      vertex -1.920380e+00 1.100000e+01 1.000000e+00
    endloop
  endfacet
  facet normal 1.224647e-16 1.000000e+00 6.123234e-17
    outer loop
      vertex -4.750000e+01 1.100000e+01 1.000000e+00
      vertex -2.750000e+01 1.100000e+01 1.000000e+00
      vertex -4.750000e+01 1.100000e+01 3.796405e-15
    endloop
  endfacet
  facet normal NaN NaN NaN
    outer loop
      vertex -1.750000e+01 1.100000e+01 3.796405e-15
      vertex -1.920380e+00 1.100000e+01 3.796405e-15
      vertex -2.750000e+01 1.100000e+01 3.796405e-15
    endloop
  endfacet
  facet normal 1.224647e-16 1.000000e+00 6.123234e-17
    outer loop
      vertex -1.920380e+00 1.100000e+01 1.000000e+00
      vertex -1.920380e+00 1.100000e+01 3.796405e-15
      vertex -1.750000e+01 1.100000e+01 3.796405e-15
    endloop
  endfacet
  facet normal 1.224647e-16 1.000000e+00 6.123234e-17
    outer loop
      vertex -2.750000e+01 1.100000e+01 1.000000e+00
      vertex -2.750000e+01 1.100000e+01 3.796405e-15
      vertex -4.750000e+01 1.100000e+01 3.796405e-15
    endloop
  endfacet
  facet normal -1.000000e+00 1.224647e-16 0.000000e+00
    outer loop
      vertex -4.750000e+01 1.100000e+01 3.796405e-15
      vertex -4.750000e+01 -4.000000e+00 2.877920e-15
      vertex -4.750000e+01 -4.000000e+00 1.000000e+00
    endloop
  endfacet
  facet normal -1.000000e+00 1.224647e-16 0.000000e+00
    outer loop
      vertex -4.750000e+01 1.100000e+01 1.000000e+00
      vertex -4.750000e+01 1.100000e+01 3.796405e-15
      vertex -4.750000e+01 -4.000000e+00 1.000000e+00
    endloop
  endfacet
  facet normal -7.498799e-33 -6.123234e-17 1.000000e+00
    outer loop
      vertex -2.750000e+01 -4.000000e+00 1.000000e+00
      vertex -2.750000e+01 1.100000e+01 1.000000e+00
      vertex -3.430000e+01 -4.000000e+00 1.000000e+00
    endloop
  endfacet
  facet normal -7.498799e-33 -6.123234e-17 1.000000e+00
    outer loop
      vertex -3.730000e+01 8.000000e+00 1.000000e+00
      vertex -2.750000e+01 1.100000e+01 1.000000e+00
      vertex -4.750000e+01 1.100000e+01 1.000000e+00
    endloop
  endfacet
  facet normal -7.498799e-33 -6.123234e-17 1.000000e+00
    outer loop
      vertex -3.730000e+01 -4.000000e+00 1.000000e+00
      vertex -4.750000e+01 1.100000e+01 1.000000e+00
      vertex -4.750000e+01 -4.000000e+00 1.000000e+00
    endloop
  endfacet
  facet normal -7.498799e-33 -6.123234e-17 1.000000e+00
    outer loop
      vertex -3.430000e+01 8.000000e+00 1.000000e+00
      vertex -2.750000e+01 1.100000e+01 1.000000e+00
      vertex -3.730000e+01 8.000000e+00 1.000000e+00
    endloop
  endfacet
  facet normal -7.498799e-33 -6.123234e-17 1.000000e+00
    outer loop
      vertex -3.430000e+01 -4.000000e+00 1.000000e+00
      vertex -2.750000e+01 1.100000e+01 1.000000e+00
      vertex -3.430000e+01 8.000000e+00 1.000000e+00
    endloop
  endfacet
  facet normal -7.498799e-33 -6.123234e-17 1.000000e+00
    outer loop
      vertex -3.730000e+01 8.000000e+00 1.000000e+00
      vertex -4.750000e+01 1.100000e+01 1.000000e+00
      vertex -3.730000e+01 -4.000000e+00 1.000000e+00
    endloop
  endfacet
  facet normal 7.498799e-33 6.123234e-17 -1.000000e+00
    outer loop
      vertex -3.864848e+01 -4.443326e+01 4.020970e-16
      vertex -1.234375e+01 -4.800000e+01 1.836970e-16
      vertex -3.927739e+01 -4.800000e+01 1.836970e-16
    endloop
  endfacet
  facet normal 1.224647e-16 1.000000e+00 6.123234e-17
    outer loop
      vertex -2.750000e+01 -3.600000e+01 1.000000e+00
      vertex -2.750000e+01 -3.600000e+01 9.184851e-16
      vertex -3.716147e+01 -3.600000e+01 9.184851e-16
    endloop
  endfacet
  facet normal 1.224647e-16 1.000000e+00 6.123234e-17
    outer loop
      vertex -3.716147e+01 -3.600000e+01 1.000000e+00
      vertex -2.750000e+01 -3.600000e+01 1.000000e+00
      vertex -3.716147e+01 -3.600000e+01 9.184851e-16
    endloop
  endfacet
  facet normal -7.498799e-33 -6.123234e-17 1.000000e+00
    outer loop
      vertex -4.020775e+01 -3.600000e+01 1.000000e+00
      vertex -4.750000e+01 -3.600000e+01 1.000000e+00
      vertex -4.232367e+01 -4.800000e+01 1.000000e+00
    endloop
  endfacet
  facet normal -7.498799e-33 -6.123234e-17 1.000000e+00
    outer loop
      vertex -4.232367e+01 -4.800000e+01 1.000000e+00
      vertex -4.750000e+01 -3.600000e+01 1.000000e+00
      vertex -4.750000e+01 -4.800000e+01 1.000000e+00
    endloop
  endfacet
  facet normal 1.224647e-16 1.000000e+00 6.123234e-17
    outer loop
      vertex -4.020775e+01 -3.600000e+01 1.000000e+00
      vertex -4.020775e+01 -3.600000e+01 9.184851e-16
      vertex -4.750000e+01 -3.600000e+01 9.184851e-16
    endloop
  endfacet
  facet normal 1.224647e-16 1.000000e+00 6.123234e-17
    outer loop
      vertex -4.750000e+01 -3.600000e+01 1.000000e+00
      vertex -4.020775e+01 -3.600000e+01 1.000000e+00
      vertex -4.750000e+01 -3.600000e+01 9.184851e-16
    endloop
  endfacet
  facet normal 7.498799e-33 6.123234e-17 -1.000000e+00
    outer loop
      vertex -4.750000e+01 -3.600000e+01 9.184851e-16
      vertex -4.020775e+01 -3.600000e+01 9.184851e-16
      vertex -4.232367e+01 -4.800000e+01 1.836970e-16
    endloop
  endfacet
  facet normal 7.498799e-33 6.123234e-17 -1.000000e+00
    outer loop
      vertex -4.750000e+01 -4.800000e+01 1.836970e-16
      vertex -4.750000e+01 -3.600000e+01 9.184851e-16
      vertex -4.232367e+01 -4.800000e+01 1.836970e-16
    endloop
  endfacet
  facet normal 7.498799e-33 6.123234e-17 -1.000000e+00
    outer loop
      vertex 3.487255e+01 3.891937e+00 3.361162e-15
      vertex 3.941251e+01 -4.800000e+01 1.836970e-16
      vertex 2.572261e+01 -4.800000e+01 1.836970e-16
    endloop
  endfacet
  facet normal 7.498799e-33 6.123234e-17 -1.000000e+00
    outer loop
      vertex -2.299999e+00 -8.429237e+00 2.606707e-15
      vertex -2.299999e+00 -4.800000e+01 1.836970e-16
      vertex -9.277393e+00 -4.800000e+01 1.836970e-16
    endloop
  endfacet
endsolid Default
