<?xml version="1.0" standalone="no"?>
<!DOCTYPE svg PUBLIC "-//W3C//DTD SVG 1.1//EN" "http://www.w3.org/Graphics/SVG/1.1/DTD/svg11.dtd">
<svg width="180.0mm" height="330.0mm"
 viewBox="0 0 180.0 330.0"
 xmlns="http://www.w3.org/2000/svg" version="1.1"
 xmlns:xlink="http://www.w3.org/1999/xlink">
<desc>Output from Flights of Ideas SVG Sketchup Plugin</desc>

  <g id="face0" fill="none" stroke="rgb(0,0,255)" stroke-width="0.01" stroke-miterlimit="4" stroke-dasharray="none" stroke-linejoin="round" stroke-linecap="round">
    <line x1="170.0" y1="40.0" x2="169.99" y2="35.72125"/>
    <line x1="169.99" y1="35.72125" x2="169.92" y2="31.87"/>
    <line x1="169.92" y1="31.87" x2="169.73" y2="28.42375"/>
    <line x1="169.73" y1="28.42375" x2="169.36" y2="25.36"/>
    <line x1="169.36" y1="25.36" x2="168.75" y2="22.65625"/>
    <line x1="168.75" y1="22.65625" x2="167.84" y2="20.29"/>
    <line x1="167.84" y1="20.29" x2="166.57" y2="18.23875"/>
    <line x1="166.57" y1="18.23875" x2="164.88" y2="16.48"/>
    <line x1="164.88" y1="16.48" x2="162.71" y2="14.99125"/>
    <line x1="162.71" y1="14.99125" x2="160.0" y2="13.75"/>
    <line x1="160.0" y1="13.75" x2="156.69" y2="12.73375"/>
    <line x1="156.69" y1="12.73375" x2="152.72" y2="11.92"/>
    <line x1="152.72" y1="11.92" x2="148.03" y2="11.28625"/>
    <line x1="148.03" y1="11.28625" x2="142.56" y2="10.81"/>
    <line x1="142.56" y1="10.81" x2="136.25" y2="10.46875"/>
    <line x1="136.25" y1="10.46875" x2="129.04" y2="10.24"/>
    <line x1="129.04" y1="10.24" x2="120.87" y2="10.10125"/>
    <line x1="120.87" y1="10.10125" x2="111.68" y2="10.03"/>
    <line x1="111.68" y1="10.03" x2="101.41" y2="10.00375"/>
    <line x1="101.41" y1="10.00375" x2="90.0" y2="10.0"/>
    <line x1="90.0" y1="10.0" x2="78.59" y2="10.00375"/>
    <line x1="78.59" y1="10.00375" x2="68.32" y2="10.03"/>
    <line x1="68.32" y1="10.03" x2="59.13" y2="10.10125"/>
    <line x1="59.13" y1="10.10125" x2="50.96" y2="10.24"/>
    <line x1="50.96" y1="10.24" x2="43.75" y2="10.46875"/>
    <line x1="43.75" y1="10.46875" x2="37.44" y2="10.8099999999999"/>
    <line x1="37.44" y1="10.8099999999999" x2="31.97" y2="11.2862500000001"/>
    <line x1="31.97" y1="11.2862500000001" x2="27.28" y2="11.92"/>
    <line x1="27.28" y1="11.92" x2="23.31" y2="12.7337499999999"/>
    <line x1="23.31" y1="12.7337499999999" x2="20.0" y2="13.7500000000001"/>
    <line x1="20.0" y1="13.7500000000001" x2="17.29" y2="14.9912500000001"/>
    <line x1="17.29" y1="14.9912500000001" x2="15.12" y2="16.4799999999998"/>
    <line x1="15.12" y1="16.4799999999998" x2="13.43" y2="18.23875"/>
    <line x1="13.43" y1="18.23875" x2="12.16" y2="20.2899999999998"/>
    <line x1="12.16" y1="20.2899999999998" x2="11.25" y2="22.6562499999999"/>
    <line x1="11.25" y1="22.6562499999999" x2="10.64" y2="25.3600000000002"/>
    <line x1="10.64" y1="25.3600000000002" x2="10.27" y2="28.4237499999999"/>
    <line x1="10.27" y1="28.4237499999999" x2="10.08" y2="31.8700000000002"/>
    <line x1="10.08" y1="31.8700000000002" x2="10.01" y2="35.7212499999996"/>
    <line x1="10.01" y1="35.7212499999996" x2="10.0" y2="40.0"/>
    <line x1="10.0" y1="40.0" x2="11.425" y2="57.8437499999999"/>
    <line x1="11.425" y1="57.8437499999999" x2="12.7" y2="74.0000000000001"/>
    <line x1="12.7" y1="74.0000000000001" x2="13.825" y2="88.6562500000001"/>
    <line x1="13.825" y1="88.6562500000001" x2="14.8" y2="102.0"/>
    <line x1="14.8" y1="102.0" x2="15.625" y2="114.21875"/>
    <line x1="15.625" y1="114.21875" x2="16.3" y2="125.5"/>
    <line x1="16.3" y1="125.5" x2="16.825" y2="136.03125"/>
    <line x1="16.825" y1="136.03125" x2="17.2" y2="146.0"/>
    <line x1="17.2" y1="146.0" x2="17.425" y2="155.59375"/>
    <line x1="17.425" y1="155.59375" x2="17.5" y2="165.0"/>
    <line x1="17.5" y1="165.0" x2="17.425" y2="174.40625"/>
    <line x1="17.425" y1="174.40625" x2="17.2" y2="184.0"/>
    <line x1="17.2" y1="184.0" x2="16.825" y2="193.96875"/>
    <line x1="16.825" y1="193.96875" x2="16.3" y2="204.5"/>
    <line x1="16.3" y1="204.5" x2="15.625" y2="215.78125"/>
    <line x1="15.625" y1="215.78125" x2="14.8" y2="228.0"/>
    <line x1="14.8" y1="228.0" x2="13.825" y2="241.34375"/>
    <line x1="13.825" y1="241.34375" x2="12.7" y2="256.0"/>
    <line x1="12.7" y1="256.0" x2="11.4250000000001" y2="272.15625"/>
    <line x1="11.4250000000001" y1="272.15625" x2="10.0000000000001" y2="290.0"/>
    <line x1="10.0000000000001" y1="290.0" x2="10.01" y2="294.27875"/>
    <line x1="10.01" y1="294.27875" x2="10.08" y2="298.13"/>
    <line x1="10.08" y1="298.13" x2="10.27" y2="301.57625"/>
    <line x1="10.27" y1="301.57625" x2="10.6399999999999" y2="304.64"/>
    <line x1="10.6399999999999" y1="304.64" x2="11.2500000000001" y2="307.34375"/>
    <line x1="11.2500000000001" y1="307.34375" x2="12.1600000000001" y2="309.71"/>
    <line x1="12.1600000000001" y1="309.71" x2="13.43" y2="311.76125"/>
    <line x1="13.43" y1="311.76125" x2="15.1200000000001" y2="313.52"/>
    <line x1="15.1200000000001" y1="313.52" x2="17.29" y2="315.00875"/>
    <line x1="17.29" y1="315.00875" x2="20.0" y2="316.25"/>
    <line x1="20.0" y1="316.25" x2="23.31" y2="317.26625"/>
    <line x1="23.31" y1="317.26625" x2="27.28" y2="318.08"/>
    <line x1="27.28" y1="318.08" x2="31.97" y2="318.71375"/>
    <line x1="31.97" y1="318.71375" x2="37.44" y2="319.19"/>
    <line x1="37.44" y1="319.19" x2="43.75" y2="319.53125"/>
    <line x1="43.75" y1="319.53125" x2="50.96" y2="319.76"/>
    <line x1="50.96" y1="319.76" x2="59.13" y2="319.89875"/>
    <line x1="59.13" y1="319.89875" x2="68.32" y2="319.97"/>
    <line x1="68.32" y1="319.97" x2="78.59" y2="319.99625"/>
    <line x1="78.59" y1="319.99625" x2="90.0" y2="320.0"/>
    <line x1="90.0" y1="320.0" x2="101.41" y2="319.99625"/>
    <line x1="101.41" y1="319.99625" x2="111.68" y2="319.97"/>
    <line x1="111.68" y1="319.97" x2="120.87" y2="319.89875"/>
    <line x1="120.87" y1="319.89875" x2="129.04" y2="319.76"/>
    <line x1="129.04" y1="319.76" x2="136.25" y2="319.53125"/>
    <line x1="136.25" y1="319.53125" x2="142.56" y2="319.19"/>
    <line x1="142.56" y1="319.19" x2="148.03" y2="318.71375"/>
    <line x1="148.03" y1="318.71375" x2="152.72" y2="318.08"/>
    <line x1="152.72" y1="318.08" x2="156.69" y2="317.26625"/>
    <line x1="156.69" y1="317.26625" x2="160.0" y2="316.25"/>
    <line x1="160.0" y1="316.25" x2="162.71" y2="315.00875"/>
    <line x1="162.71" y1="315.00875" x2="164.88" y2="313.52"/>
    <line x1="164.88" y1="313.52" x2="166.57" y2="311.76125"/>
    <line x1="166.57" y1="311.76125" x2="167.84" y2="309.71"/>
    <line x1="167.84" y1="309.71" x2="168.75" y2="307.34375"/>
    <line x1="168.75" y1="307.34375" x2="169.36" y2="304.64"/>
    <line x1="169.36" y1="304.64" x2="169.73" y2="301.57625"/>
    <line x1="169.73" y1="301.57625" x2="169.92" y2="298.13"/>
    <line x1="169.92" y1="298.13" x2="169.99" y2="294.27875"/>
    <line x1="169.99" y1="294.27875" x2="170.0" y2="290.0"/>
    <line x1="170.0" y1="290.0" x2="168.575" y2="272.15625"/>
    <line x1="168.575" y1="272.15625" x2="167.3" y2="256.0"/>
    <line x1="167.3" y1="256.0" x2="166.175" y2="241.34375"/>
    <line x1="166.175" y1="241.34375" x2="165.2" y2="228.0"/>
    <line x1="165.2" y1="228.0" x2="164.375" y2="215.78125"/>
    <line x1="164.375" y1="215.78125" x2="163.7" y2="204.5"/>
    <line x1="163.7" y1="204.5" x2="163.175" y2="193.96875"/>
    <line x1="163.175" y1="193.96875" x2="162.8" y2="184.0"/>
    <line x1="162.8" y1="184.0" x2="162.575" y2="174.40625"/>
    <line x1="162.575" y1="174.40625" x2="162.5" y2="165.0"/>
    <line x1="162.5" y1="165.0" x2="162.575" y2="155.59375"/>
    <line x1="162.575" y1="155.59375" x2="162.8" y2="146.0"/>
    <line x1="162.8" y1="146.0" x2="163.175" y2="136.03125"/>
    <line x1="163.175" y1="136.03125" x2="163.7" y2="125.5"/>
    <line x1="163.7" y1="125.5" x2="164.375" y2="114.21875"/>
    <line x1="164.375" y1="114.21875" x2="165.2" y2="102.0"/>
    <line x1="165.2" y1="102.0" x2="166.175" y2="88.65625"/>
    <line x1="166.175" y1="88.65625" x2="167.3" y2="74.0"/>
    <line x1="167.3" y1="74.0" x2="168.575" y2="57.84375"/>
    <line x1="168.575" y1="57.84375" x2="170.0" y2="40.0"/>
    <line x1="60.2182532694707" y1="20.0228900287817" x2="60.2182532694707" y2="26.0228900287816"/>
    <line x1="60.2182532694707" y1="26.0228900287816" x2="51.2182532694707" y2="26.0228900287817"/>
    <line x1="51.2182532694707" y1="26.0228900287817" x2="51.2182532694707" y2="20.0228900287817"/>
    <line x1="51.2182532694707" y1="20.0228900287817" x2="60.2182532694707" y2="20.0228900287817"/>
    <line x1="123.409712383097" y1="20.0015876373254" x2="123.409712383097" y2="26.0015876373255"/>
    <line x1="123.409712383097" y1="26.0015876373255" x2="114.409712383097" y2="26.0015876373254"/>
    <line x1="114.409712383097" y1="26.0015876373254" x2="114.409712383097" y2="20.0015876373254"/>
    <line x1="114.409712383097" y1="20.0015876373254" x2="123.409712383097" y2="20.0015876373254"/>
    <line x1="123.409431967089" y1="304.209889908056" x2="123.409431967089" y2="310.209889908056"/>
    <line x1="123.409431967089" y1="310.209889908056" x2="114.409431967089" y2="310.209889908056"/>
    <line x1="114.409431967089" y1="310.209889908056" x2="114.409431967088" y2="304.209889908056"/>
    <line x1="114.409431967088" y1="304.209889908056" x2="123.409431967089" y2="304.209889908056"/>
    <line x1="51.2183388979928" y1="310.202855150821" x2="51.2183388979928" y2="304.202855150821"/>
    <line x1="51.2183388979928" y1="304.202855150821" x2="60.2183388979928" y2="304.202855150821"/>
    <line x1="60.2183388979928" y1="304.202855150821" x2="60.2183388979928" y2="310.202855150821"/>
    <line x1="60.2183388979928" y1="310.202855150821" x2="51.2183388979928" y2="310.202855150821"/>
  </g>
</svg>
