solid Default
  facet normal -1.000000e+00 -0.000000e+00 -0.000000e+00
    outer loop
      vertex -1.950000e+01 -6.000000e+00 0.000000e+00
      vertex -1.950000e+01 -6.000000e+00 5.000000e+00
      vertex -1.950000e+01 6.000000e+00 0.000000e+00
    endloop
  endfacet
  facet normal -1.000000e+00 0.000000e+00 0.000000e+00
    outer loop
      vertex -1.950000e+01 6.000000e+00 0.000000e+00
      vertex -1.950000e+01 -6.000000e+00 5.000000e+00
      vertex -1.950000e+01 6.000000e+00 5.000000e+00
    endloop
  endfacet
  facet normal 0.000000e+00 -1.000000e+00 0.000000e+00
    outer loop
      vertex -1.950000e+01 -6.000000e+00 5.000000e+00
      vertex -1.950000e+01 -6.000000e+00 0.000000e+00
      vertex 1.950000e+01 -6.000000e+00 0.000000e+00
    endloop
  endfacet
  facet normal 0.000000e+00 -1.000000e+00 0.000000e+00
    outer loop
      vertex 1.950000e+01 -6.000000e+00 5.000000e+00
      vertex -1.950000e+01 -6.000000e+00 5.000000e+00
      vertex 1.950000e+01 -6.000000e+00 0.000000e+00
    endloop
  endfacet
  facet normal 0.000000e+00 0.000000e+00 -1.000000e+00
    outer loop
      vertex -1.100000e+01 5.450000e+00 0.000000e+00
      vertex -1.950000e+01 6.000000e+00 0.000000e+00
      vertex -1.100000e+01 6.000000e+00 0.000000e+00
    endloop
  endfacet
  facet normal 0.000000e+00 0.000000e+00 -1.000000e+00
    outer loop
      vertex 3.901806e-01 -3.842878e-02 0.000000e+00
      vertex -1.950000e+01 6.000000e+00 0.000000e+00
      vertex -1.100000e+01 5.450000e+00 0.000000e+00
    endloop
  endfacet
  facet normal 0.000000e+00 0.000000e+00 -1.000000e+00
    outer loop
      vertex 3.901806e-01 -3.961571e+00 0.000000e+00
      vertex 1.950000e+01 -6.000000e+00 0.000000e+00
      vertex 0.000000e+00 -4.000000e+00 0.000000e+00
    endloop
  endfacet
  facet normal 0.000000e+00 0.000000e+00 -1.000000e+00
    outer loop
      vertex 1.950000e+01 -6.000000e+00 0.000000e+00
      vertex 1.100000e+01 5.450000e+00 0.000000e+00
      vertex 1.100000e+01 6.000000e+00 0.000000e+00
    endloop
  endfacet
  facet normal 0.000000e+00 0.000000e+00 -1.000000e+00
    outer loop
      vertex 1.950000e+01 -6.000000e+00 0.000000e+00
      vertex 1.100000e+01 6.000000e+00 0.000000e+00
      vertex 1.950000e+01 6.000000e+00 0.000000e+00
    endloop
  endfacet
  facet normal 0.000000e+00 0.000000e+00 -1.000000e+00
    outer loop
      vertex -1.950000e+01 -6.000000e+00 0.000000e+00
      vertex -1.950000e+01 6.000000e+00 0.000000e+00
      vertex -2.000000e+00 -2.000000e+00 0.000000e+00
    endloop
  endfacet
  facet normal 0.000000e+00 0.000000e+00 -1.000000e+00
    outer loop
      vertex -1.950000e+01 -6.000000e+00 0.000000e+00
      vertex -2.000000e+00 -2.000000e+00 0.000000e+00
      vertex -1.961571e+00 -2.390181e+00 0.000000e+00
    endloop
  endfacet
  facet normal 0.000000e+00 0.000000e+00 -1.000000e+00
    outer loop
      vertex -1.950000e+01 -6.000000e+00 0.000000e+00
      vertex -1.961571e+00 -2.390181e+00 0.000000e+00
      vertex -1.847759e+00 -2.765367e+00 0.000000e+00
    endloop
  endfacet
  facet normal 0.000000e+00 0.000000e+00 -1.000000e+00
    outer loop
      vertex -1.950000e+01 -6.000000e+00 0.000000e+00
      vertex -1.847759e+00 -2.765367e+00 0.000000e+00
      vertex -1.662939e+00 -3.111140e+00 0.000000e+00
    endloop
  endfacet
  facet normal 0.000000e+00 0.000000e+00 -1.000000e+00
    outer loop
      vertex -1.950000e+01 -6.000000e+00 0.000000e+00
      vertex -1.662939e+00 -3.111140e+00 0.000000e+00
      vertex -1.414213e+00 -3.414214e+00 0.000000e+00
    endloop
  endfacet
  facet normal 0.000000e+00 0.000000e+00 -1.000000e+00
    outer loop
      vertex -1.950000e+01 -6.000000e+00 0.000000e+00
      vertex -1.414213e+00 -3.414214e+00 0.000000e+00
      vertex -1.111139e+00 -3.662939e+00 0.000000e+00
    endloop
  endfacet
  facet normal 0.000000e+00 0.000000e+00 -1.000000e+00
    outer loop
      vertex -1.950000e+01 -6.000000e+00 0.000000e+00
      vertex -1.111139e+00 -3.662939e+00 0.000000e+00
      vertex -7.653675e-01 -3.847759e+00 0.000000e+00
    endloop
  endfacet
  facet normal 0.000000e+00 0.000000e+00 -1.000000e+00
    outer loop
      vertex -1.950000e+01 -6.000000e+00 0.000000e+00
      vertex -7.653675e-01 -3.847759e+00 0.000000e+00
      vertex -3.901806e-01 -3.961571e+00 0.000000e+00
    endloop
  endfacet
  facet normal 0.000000e+00 0.000000e+00 -1.000000e+00
    outer loop
      vertex -1.950000e+01 -6.000000e+00 0.000000e+00
      vertex -3.901806e-01 -3.961571e+00 0.000000e+00
      vertex 1.950000e+01 -6.000000e+00 0.000000e+00
    endloop
  endfacet
  facet normal 0.000000e+00 0.000000e+00 -1.000000e+00
    outer loop
      vertex -3.901806e-01 -3.961571e+00 0.000000e+00
      vertex 0.000000e+00 -4.000000e+00 0.000000e+00
      vertex 1.950000e+01 -6.000000e+00 0.000000e+00
    endloop
  endfacet
  facet normal 0.000000e+00 0.000000e+00 -1.000000e+00
    outer loop
      vertex 7.653675e-01 -3.847759e+00 0.000000e+00
      vertex 1.950000e+01 -6.000000e+00 0.000000e+00
      vertex 3.901806e-01 -3.961571e+00 0.000000e+00
    endloop
  endfacet
  facet normal 0.000000e+00 0.000000e+00 -1.000000e+00
    outer loop
      vertex 1.111139e+00 -3.662939e+00 0.000000e+00
      vertex 1.950000e+01 -6.000000e+00 0.000000e+00
      vertex 7.653675e-01 -3.847759e+00 0.000000e+00
    endloop
  endfacet
  facet normal 0.000000e+00 0.000000e+00 -1.000000e+00
    outer loop
      vertex 1.414213e+00 -3.414214e+00 0.000000e+00
      vertex 1.950000e+01 -6.000000e+00 0.000000e+00
      vertex 1.111139e+00 -3.662939e+00 0.000000e+00
    endloop
  endfacet
  facet normal 0.000000e+00 0.000000e+00 -1.000000e+00
    outer loop
      vertex 1.662939e+00 -3.111140e+00 0.000000e+00
      vertex 1.950000e+01 -6.000000e+00 0.000000e+00
      vertex 1.414213e+00 -3.414214e+00 0.000000e+00
    endloop
  endfacet
  facet normal 0.000000e+00 0.000000e+00 -1.000000e+00
    outer loop
      vertex 1.847759e+00 -2.765367e+00 0.000000e+00
      vertex 1.950000e+01 -6.000000e+00 0.000000e+00
      vertex 1.662939e+00 -3.111140e+00 0.000000e+00
    endloop
  endfacet
  facet normal 0.000000e+00 0.000000e+00 -1.000000e+00
    outer loop
      vertex 1.961571e+00 -2.390181e+00 0.000000e+00
      vertex 1.950000e+01 -6.000000e+00 0.000000e+00
      vertex 1.847759e+00 -2.765367e+00 0.000000e+00
    endloop
  endfacet
  facet normal 0.000000e+00 0.000000e+00 -1.000000e+00
    outer loop
      vertex 1.111139e+00 -3.370609e-01 0.000000e+00
      vertex 1.950000e+01 -6.000000e+00 0.000000e+00
      vertex 1.414213e+00 -5.857859e-01 0.000000e+00
    endloop
  endfacet
  facet normal 0.000000e+00 0.000000e+00 -1.000000e+00
    outer loop
      vertex -1.847759e+00 -1.234633e+00 0.000000e+00
      vertex -1.950000e+01 6.000000e+00 0.000000e+00
      vertex -1.662939e+00 -8.888602e-01 0.000000e+00
    endloop
  endfacet
  facet normal 0.000000e+00 0.000000e+00 -1.000000e+00
    outer loop
      vertex 1.961571e+00 -2.390181e+00 0.000000e+00
      vertex 2.000000e+00 -2.000000e+00 0.000000e+00
      vertex 1.950000e+01 -6.000000e+00 0.000000e+00
    endloop
  endfacet
  facet normal 0.000000e+00 0.000000e+00 -1.000000e+00
    outer loop
      vertex -1.662939e+00 -8.888602e-01 0.000000e+00
      vertex -1.950000e+01 6.000000e+00 0.000000e+00
      vertex -1.414213e+00 -5.857859e-01 0.000000e+00
    endloop
  endfacet
  facet normal -0.000000e+00 -0.000000e+00 -1.000000e+00
    outer loop
      vertex 2.000000e+00 -2.000000e+00 0.000000e+00
      vertex 1.961571e+00 -1.609819e+00 0.000000e+00
      vertex 1.950000e+01 -6.000000e+00 0.000000e+00
    endloop
  endfacet
  facet normal 0.000000e+00 0.000000e+00 -1.000000e+00
    outer loop
      vertex -1.414213e+00 -5.857859e-01 0.000000e+00
      vertex -1.950000e+01 6.000000e+00 0.000000e+00
      vertex -1.111139e+00 -3.370609e-01 0.000000e+00
    endloop
  endfacet
  facet normal -0.000000e+00 -0.000000e+00 -1.000000e+00
    outer loop
      vertex 1.961571e+00 -1.609819e+00 0.000000e+00
      vertex 1.847759e+00 -1.234633e+00 0.000000e+00
      vertex 1.950000e+01 -6.000000e+00 0.000000e+00
    endloop
  endfacet
  facet normal 0.000000e+00 0.000000e+00 -1.000000e+00
    outer loop
      vertex -1.111139e+00 -3.370609e-01 0.000000e+00
      vertex -1.950000e+01 6.000000e+00 0.000000e+00
      vertex -7.653675e-01 -1.522412e-01 0.000000e+00
    endloop
  endfacet
  facet normal -0.000000e+00 -0.000000e+00 -1.000000e+00
    outer loop
      vertex 1.847759e+00 -1.234633e+00 0.000000e+00
      vertex 1.662939e+00 -8.888602e-01 0.000000e+00
      vertex 1.950000e+01 -6.000000e+00 0.000000e+00
    endloop
  endfacet
  facet normal 0.000000e+00 0.000000e+00 -1.000000e+00
    outer loop
      vertex -7.653675e-01 -1.522412e-01 0.000000e+00
      vertex -1.950000e+01 6.000000e+00 0.000000e+00
      vertex -3.901806e-01 -3.842878e-02 0.000000e+00
    endloop
  endfacet
  facet normal -0.000000e+00 -0.000000e+00 -1.000000e+00
    outer loop
      vertex 1.662939e+00 -8.888602e-01 0.000000e+00
      vertex 1.414213e+00 -5.857859e-01 0.000000e+00
      vertex 1.950000e+01 -6.000000e+00 0.000000e+00
    endloop
  endfacet
  facet normal 0.000000e+00 0.000000e+00 -1.000000e+00
    outer loop
      vertex -3.901806e-01 -3.842878e-02 0.000000e+00
      vertex -1.950000e+01 6.000000e+00 0.000000e+00
      vertex 0.000000e+00 0.000000e+00 0.000000e+00
    endloop
  endfacet
  facet normal 0.000000e+00 0.000000e+00 -1.000000e+00
    outer loop
      vertex 1.950000e+01 -6.000000e+00 0.000000e+00
      vertex 1.111139e+00 -3.370609e-01 0.000000e+00
      vertex 7.653675e-01 -1.522412e-01 0.000000e+00
    endloop
  endfacet
  facet normal 0.000000e+00 0.000000e+00 -1.000000e+00
    outer loop
      vertex 1.950000e+01 -6.000000e+00 0.000000e+00
      vertex 7.653675e-01 -1.522412e-01 0.000000e+00
      vertex -1.100000e+01 5.450000e+00 0.000000e+00
    endloop
  endfacet
  facet normal -0.000000e+00 -0.000000e+00 -1.000000e+00
    outer loop
      vertex 0.000000e+00 0.000000e+00 0.000000e+00
      vertex -1.950000e+01 6.000000e+00 0.000000e+00
      vertex 3.901806e-01 -3.842878e-02 0.000000e+00
    endloop
  endfacet
  facet normal -0.000000e+00 -0.000000e+00 -1.000000e+00
    outer loop
      vertex 3.901806e-01 -3.842878e-02 0.000000e+00
      vertex -1.100000e+01 5.450000e+00 0.000000e+00
      vertex 7.653675e-01 -1.522412e-01 0.000000e+00
    endloop
  endfacet
  facet normal 0.000000e+00 0.000000e+00 -1.000000e+00
    outer loop
      vertex -1.961571e+00 -1.609819e+00 0.000000e+00
      vertex -1.950000e+01 6.000000e+00 0.000000e+00
      vertex -1.847759e+00 -1.234633e+00 0.000000e+00
    endloop
  endfacet
  facet normal 0.000000e+00 0.000000e+00 -1.000000e+00
    outer loop
      vertex -2.000000e+00 -2.000000e+00 0.000000e+00
      vertex -1.950000e+01 6.000000e+00 0.000000e+00
      vertex -1.961571e+00 -1.609819e+00 0.000000e+00
    endloop
  endfacet
  facet normal 0.000000e+00 0.000000e+00 -1.000000e+00
    outer loop
      vertex 1.100000e+01 5.450000e+00 0.000000e+00
      vertex 1.950000e+01 -6.000000e+00 0.000000e+00
      vertex -1.100000e+01 5.450000e+00 0.000000e+00
    endloop
  endfacet
  facet normal 0.000000e+00 1.000000e+00 0.000000e+00
    outer loop
      vertex -1.950000e+01 6.000000e+00 0.000000e+00
      vertex -1.950000e+01 6.000000e+00 5.000000e+00
      vertex -1.100000e+01 6.000000e+00 0.000000e+00
    endloop
  endfacet
  facet normal 0.000000e+00 1.000000e+00 0.000000e+00
    outer loop
      vertex -1.100000e+01 6.000000e+00 0.000000e+00
      vertex -1.950000e+01 6.000000e+00 5.000000e+00
      vertex -1.100000e+01 6.000000e+00 5.000000e+00
    endloop
  endfacet
  facet normal 0.000000e+00 0.000000e+00 1.000000e+00
    outer loop
      vertex -1.900000e+01 -5.500000e+00 5.000000e+00
      vertex -1.950000e+01 -6.000000e+00 5.000000e+00
      vertex 1.950000e+01 -6.000000e+00 5.000000e+00
    endloop
  endfacet
  facet normal 0.000000e+00 0.000000e+00 1.000000e+00
    outer loop
      vertex 1.900000e+01 5.500000e+00 5.000000e+00
      vertex 1.900000e+01 -5.500000e+00 5.000000e+00
      vertex 1.950000e+01 -6.000000e+00 5.000000e+00
    endloop
  endfacet
  facet normal 0.000000e+00 0.000000e+00 1.000000e+00
    outer loop
      vertex 1.950000e+01 6.000000e+00 5.000000e+00
      vertex 1.900000e+01 5.500000e+00 5.000000e+00
      vertex 1.950000e+01 -6.000000e+00 5.000000e+00
    endloop
  endfacet
  facet normal 0.000000e+00 0.000000e+00 1.000000e+00
    outer loop
      vertex 1.950000e+01 6.000000e+00 5.000000e+00
      vertex 1.100000e+01 6.000000e+00 5.000000e+00
      vertex 1.900000e+01 5.500000e+00 5.000000e+00
    endloop
  endfacet
  facet normal 0.000000e+00 0.000000e+00 1.000000e+00
    outer loop
      vertex -1.100000e+01 5.500000e+00 5.000000e+00
      vertex -1.100000e+01 6.000000e+00 5.000000e+00
      vertex -1.950000e+01 6.000000e+00 5.000000e+00
    endloop
  endfacet
  facet normal 0.000000e+00 0.000000e+00 1.000000e+00
    outer loop
      vertex -1.950000e+01 6.000000e+00 5.000000e+00
      vertex -1.950000e+01 -6.000000e+00 5.000000e+00
      vertex -1.900000e+01 -5.500000e+00 5.000000e+00
    endloop
  endfacet
  facet normal 0.000000e+00 0.000000e+00 1.000000e+00
    outer loop
      vertex -1.900000e+01 5.500000e+00 5.000000e+00
      vertex -1.100000e+01 5.500000e+00 5.000000e+00
      vertex -1.950000e+01 6.000000e+00 5.000000e+00
    endloop
  endfacet
  facet normal 0.000000e+00 0.000000e+00 1.000000e+00
    outer loop
      vertex -1.950000e+01 6.000000e+00 5.000000e+00
      vertex -1.900000e+01 -5.500000e+00 5.000000e+00
      vertex -1.900000e+01 5.500000e+00 5.000000e+00
    endloop
  endfacet
  facet normal 0.000000e+00 0.000000e+00 1.000000e+00
    outer loop
      vertex 1.100000e+01 5.500000e+00 5.000000e+00
      vertex 1.900000e+01 5.500000e+00 5.000000e+00
      vertex 1.100000e+01 6.000000e+00 5.000000e+00
    endloop
  endfacet
  facet normal 0.000000e+00 0.000000e+00 1.000000e+00
    outer loop
      vertex 1.900000e+01 -5.500000e+00 5.000000e+00
      vertex -1.900000e+01 -5.500000e+00 5.000000e+00
      vertex 1.950000e+01 -6.000000e+00 5.000000e+00
    endloop
  endfacet
  facet normal 1.000000e+00 0.000000e+00 0.000000e+00
    outer loop
      vertex 1.950000e+01 -6.000000e+00 5.000000e+00
      vertex 1.950000e+01 -6.000000e+00 0.000000e+00
      vertex 1.950000e+01 6.000000e+00 0.000000e+00
    endloop
  endfacet
  facet normal 1.000000e+00 0.000000e+00 0.000000e+00
    outer loop
      vertex 1.950000e+01 6.000000e+00 5.000000e+00
      vertex 1.950000e+01 -6.000000e+00 5.000000e+00
      vertex 1.950000e+01 6.000000e+00 0.000000e+00
    endloop
  endfacet
  facet normal 0.000000e+00 1.000000e+00 0.000000e+00
    outer loop
      vertex 1.100000e+01 6.000000e+00 0.000000e+00
      vertex 1.100000e+01 6.000000e+00 5.000000e+00
      vertex 1.950000e+01 6.000000e+00 0.000000e+00
    endloop
  endfacet
  facet normal 0.000000e+00 1.000000e+00 0.000000e+00
    outer loop
      vertex 1.950000e+01 6.000000e+00 0.000000e+00
      vertex 1.100000e+01 6.000000e+00 5.000000e+00
      vertex 1.950000e+01 6.000000e+00 5.000000e+00
    endloop
  endfacet
  facet normal -1.000000e+00 0.000000e+00 0.000000e+00
    outer loop
      vertex 1.100000e+01 5.500000e+00 3.100000e+00
      vertex 1.100000e+01 5.500000e+00 5.000000e+00
      vertex 1.100000e+01 6.000000e+00 5.000000e+00
    endloop
  endfacet
  facet normal -1.000000e+00 0.000000e+00 0.000000e+00
    outer loop
      vertex 1.100000e+01 5.500000e+00 3.100000e+00
      vertex 1.100000e+01 6.000000e+00 5.000000e+00
      vertex 1.100000e+01 6.000000e+00 0.000000e+00
    endloop
  endfacet
  facet normal -1.000000e+00 0.000000e+00 0.000000e+00
    outer loop
      vertex 1.100000e+01 5.500000e+00 3.100000e+00
      vertex 1.100000e+01 6.000000e+00 0.000000e+00
      vertex 1.100000e+01 5.450000e+00 3.100000e+00
    endloop
  endfacet
  facet normal -1.000000e+00 0.000000e+00 0.000000e+00
    outer loop
      vertex 1.100000e+01 6.000000e+00 0.000000e+00
      vertex 1.100000e+01 5.450000e+00 0.000000e+00
      vertex 1.100000e+01 5.450000e+00 3.100000e+00
    endloop
  endfacet
  facet normal 0.000000e+00 1.000000e+00 0.000000e+00
    outer loop
      vertex 1.100000e+01 5.450000e+00 3.100000e+00
      vertex 1.100000e+01 5.450000e+00 0.000000e+00
      vertex -1.100000e+01 5.450000e+00 3.100000e+00
    endloop
  endfacet
  facet normal 0.000000e+00 1.000000e+00 0.000000e+00
    outer loop
      vertex -1.100000e+01 5.450000e+00 3.100000e+00
      vertex 1.100000e+01 5.450000e+00 0.000000e+00
      vertex -1.100000e+01 5.450000e+00 0.000000e+00
    endloop
  endfacet
  facet normal 1.000000e+00 0.000000e+00 0.000000e+00
    outer loop
      vertex -1.100000e+01 6.000000e+00 0.000000e+00
      vertex -1.100000e+01 6.000000e+00 5.000000e+00
      vertex -1.100000e+01 5.500000e+00 5.000000e+00
    endloop
  endfacet
  facet normal 1.000000e+00 0.000000e+00 0.000000e+00
    outer loop
      vertex -1.100000e+01 5.450000e+00 3.100000e+00
      vertex -1.100000e+01 6.000000e+00 0.000000e+00
      vertex -1.100000e+01 5.500000e+00 3.100000e+00
    endloop
  endfacet
  facet normal 1.000000e+00 0.000000e+00 0.000000e+00
    outer loop
      vertex -1.100000e+01 5.500000e+00 3.100000e+00
      vertex -1.100000e+01 6.000000e+00 0.000000e+00
      vertex -1.100000e+01 5.500000e+00 5.000000e+00
    endloop
  endfacet
  facet normal 1.000000e+00 0.000000e+00 0.000000e+00
    outer loop
      vertex -1.100000e+01 5.450000e+00 0.000000e+00
      vertex -1.100000e+01 6.000000e+00 0.000000e+00
      vertex -1.100000e+01 5.450000e+00 3.100000e+00
    endloop
  endfacet
  facet normal 9.951848e-01 9.801599e-02 0.000000e+00
    outer loop
      vertex -2.000000e+00 -2.000000e+00 3.100000e+00
      vertex -1.961571e+00 -2.390181e+00 3.100000e+00
      vertex -1.961571e+00 -2.390181e+00 0.000000e+00
    endloop
  endfacet
  facet normal 9.951848e-01 9.801599e-02 0.000000e+00
    outer loop
      vertex -2.000000e+00 -2.000000e+00 0.000000e+00
      vertex -2.000000e+00 -2.000000e+00 3.100000e+00
      vertex -1.961571e+00 -2.390181e+00 0.000000e+00
    endloop
  endfacet
  facet normal 9.951848e-01 -9.801599e-02 0.000000e+00
    outer loop
      vertex -1.961571e+00 -1.609819e+00 0.000000e+00
      vertex -1.961571e+00 -1.609819e+00 3.100000e+00
      vertex -2.000000e+00 -2.000000e+00 3.100000e+00
    endloop
  endfacet
  facet normal 9.951848e-01 -9.801599e-02 0.000000e+00
    outer loop
      vertex -2.000000e+00 -2.000000e+00 0.000000e+00
      vertex -1.961571e+00 -1.609819e+00 0.000000e+00
      vertex -2.000000e+00 -2.000000e+00 3.100000e+00
    endloop
  endfacet
  facet normal 9.569399e-01 -2.902860e-01 0.000000e+00
    outer loop
      vertex -1.847759e+00 -1.234633e+00 0.000000e+00
      vertex -1.847759e+00 -1.234633e+00 3.100000e+00
      vertex -1.961571e+00 -1.609819e+00 3.100000e+00
    endloop
  endfacet
  facet normal 9.569399e-01 -2.902860e-01 0.000000e+00
    outer loop
      vertex -1.961571e+00 -1.609819e+00 0.000000e+00
      vertex -1.847759e+00 -1.234633e+00 0.000000e+00
      vertex -1.961571e+00 -1.609819e+00 3.100000e+00
    endloop
  endfacet
  facet normal 8.819207e-01 -4.713978e-01 0.000000e+00
    outer loop
      vertex -1.662939e+00 -8.888602e-01 0.000000e+00
      vertex -1.662939e+00 -8.888602e-01 3.100000e+00
      vertex -1.847759e+00 -1.234633e+00 3.100000e+00
    endloop
  endfacet
  facet normal 8.819207e-01 -4.713978e-01 0.000000e+00
    outer loop
      vertex -1.847759e+00 -1.234633e+00 0.000000e+00
      vertex -1.662939e+00 -8.888602e-01 0.000000e+00
      vertex -1.847759e+00 -1.234633e+00 3.100000e+00
    endloop
  endfacet
  facet normal 7.730122e-01 -6.343912e-01 0.000000e+00
    outer loop
      vertex -1.414213e+00 -5.857859e-01 0.000000e+00
      vertex -1.414213e+00 -5.857859e-01 3.100000e+00
      vertex -1.662939e+00 -8.888602e-01 3.100000e+00
    endloop
  endfacet
  facet normal 7.730122e-01 -6.343912e-01 0.000000e+00
    outer loop
      vertex -1.662939e+00 -8.888602e-01 0.000000e+00
      vertex -1.414213e+00 -5.857859e-01 0.000000e+00
      vertex -1.662939e+00 -8.888602e-01 3.100000e+00
    endloop
  endfacet
  facet normal 6.343912e-01 -7.730122e-01 0.000000e+00
    outer loop
      vertex -1.111139e+00 -3.370609e-01 0.000000e+00
      vertex -1.111139e+00 -3.370609e-01 3.100000e+00
      vertex -1.414213e+00 -5.857859e-01 3.100000e+00
    endloop
  endfacet
  facet normal 6.343912e-01 -7.730122e-01 0.000000e+00
    outer loop
      vertex -1.414213e+00 -5.857859e-01 0.000000e+00
      vertex -1.111139e+00 -3.370609e-01 0.000000e+00
      vertex -1.414213e+00 -5.857859e-01 3.100000e+00
    endloop
  endfacet
  facet normal 4.713978e-01 -8.819207e-01 0.000000e+00
    outer loop
      vertex -7.653675e-01 -1.522412e-01 0.000000e+00
      vertex -7.653675e-01 -1.522412e-01 3.100000e+00
      vertex -1.111139e+00 -3.370609e-01 3.100000e+00
    endloop
  endfacet
  facet normal 4.713978e-01 -8.819207e-01 0.000000e+00
    outer loop
      vertex -1.111139e+00 -3.370609e-01 0.000000e+00
      vertex -7.653675e-01 -1.522412e-01 0.000000e+00
      vertex -1.111139e+00 -3.370609e-01 3.100000e+00
    endloop
  endfacet
  facet normal 2.902860e-01 -9.569399e-01 0.000000e+00
    outer loop
      vertex -3.901806e-01 -3.842878e-02 0.000000e+00
      vertex -3.901806e-01 -3.842878e-02 3.100000e+00
      vertex -7.653675e-01 -1.522412e-01 3.100000e+00
    endloop
  endfacet
  facet normal 2.902860e-01 -9.569399e-01 0.000000e+00
    outer loop
      vertex -7.653675e-01 -1.522412e-01 0.000000e+00
      vertex -3.901806e-01 -3.842878e-02 0.000000e+00
      vertex -7.653675e-01 -1.522412e-01 3.100000e+00
    endloop
  endfacet
  facet normal 9.801599e-02 -9.951848e-01 0.000000e+00
    outer loop
      vertex 0.000000e+00 0.000000e+00 0.000000e+00
      vertex 0.000000e+00 0.000000e+00 3.100000e+00
      vertex -3.901806e-01 -3.842878e-02 3.100000e+00
    endloop
  endfacet
  facet normal 9.801599e-02 -9.951848e-01 0.000000e+00
    outer loop
      vertex -3.901806e-01 -3.842878e-02 0.000000e+00
      vertex 0.000000e+00 0.000000e+00 0.000000e+00
      vertex -3.901806e-01 -3.842878e-02 3.100000e+00
    endloop
  endfacet
  facet normal -9.801599e-02 -9.951848e-01 -0.000000e+00
    outer loop
      vertex 3.901806e-01 -3.842878e-02 0.000000e+00
      vertex 3.901806e-01 -3.842878e-02 3.100000e+00
      vertex 0.000000e+00 0.000000e+00 3.100000e+00
    endloop
  endfacet
  facet normal -9.801599e-02 -9.951848e-01 -0.000000e+00
    outer loop
      vertex 0.000000e+00 0.000000e+00 0.000000e+00
      vertex 3.901806e-01 -3.842878e-02 0.000000e+00
      vertex 0.000000e+00 0.000000e+00 3.100000e+00
    endloop
  endfacet
  facet normal -2.902860e-01 -9.569399e-01 -0.000000e+00
    outer loop
      vertex 7.653675e-01 -1.522412e-01 0.000000e+00
      vertex 7.653675e-01 -1.522412e-01 3.100000e+00
      vertex 3.901806e-01 -3.842878e-02 3.100000e+00
    endloop
  endfacet
  facet normal -2.902860e-01 -9.569399e-01 -0.000000e+00
    outer loop
      vertex 3.901806e-01 -3.842878e-02 0.000000e+00
      vertex 7.653675e-01 -1.522412e-01 0.000000e+00
      vertex 3.901806e-01 -3.842878e-02 3.100000e+00
    endloop
  endfacet
  facet normal -4.713978e-01 -8.819207e-01 -0.000000e+00
    outer loop
      vertex 1.111139e+00 -3.370609e-01 0.000000e+00
      vertex 1.111139e+00 -3.370609e-01 3.100000e+00
      vertex 7.653675e-01 -1.522412e-01 3.100000e+00
    endloop
  endfacet
  facet normal -4.713978e-01 -8.819207e-01 -0.000000e+00
    outer loop
      vertex 7.653675e-01 -1.522412e-01 0.000000e+00
      vertex 1.111139e+00 -3.370609e-01 0.000000e+00
      vertex 7.653675e-01 -1.522412e-01 3.100000e+00
    endloop
  endfacet
  facet normal -6.343912e-01 -7.730122e-01 -0.000000e+00
    outer loop
      vertex 1.414213e+00 -5.857859e-01 0.000000e+00
      vertex 1.414213e+00 -5.857859e-01 3.100000e+00
      vertex 1.111139e+00 -3.370609e-01 3.100000e+00
    endloop
  endfacet
  facet normal -6.343912e-01 -7.730122e-01 -0.000000e+00
    outer loop
      vertex 1.111139e+00 -3.370609e-01 0.000000e+00
      vertex 1.414213e+00 -5.857859e-01 0.000000e+00
      vertex 1.111139e+00 -3.370609e-01 3.100000e+00
    endloop
  endfacet
  facet normal -7.730122e-01 -6.343912e-01 0.000000e+00
    outer loop
      vertex 1.662939e+00 -8.888602e-01 3.100000e+00
      vertex 1.414213e+00 -5.857859e-01 3.100000e+00
      vertex 1.662939e+00 -8.888602e-01 0.000000e+00
    endloop
  endfacet
  facet normal -7.730122e-01 -6.343912e-01 0.000000e+00
    outer loop
      vertex 1.662939e+00 -8.888602e-01 0.000000e+00
      vertex 1.414213e+00 -5.857859e-01 3.100000e+00
      vertex 1.414213e+00 -5.857859e-01 0.000000e+00
    endloop
  endfacet
  facet normal -8.819207e-01 -4.713978e-01 0.000000e+00
    outer loop
      vertex 1.847759e+00 -1.234633e+00 3.100000e+00
      vertex 1.662939e+00 -8.888602e-01 3.100000e+00
      vertex 1.847759e+00 -1.234633e+00 0.000000e+00
    endloop
  endfacet
  facet normal -8.819207e-01 -4.713978e-01 0.000000e+00
    outer loop
      vertex 1.847759e+00 -1.234633e+00 0.000000e+00
      vertex 1.662939e+00 -8.888602e-01 3.100000e+00
      vertex 1.662939e+00 -8.888602e-01 0.000000e+00
    endloop
  endfacet
  facet normal -9.569399e-01 -2.902860e-01 0.000000e+00
    outer loop
      vertex 1.961571e+00 -1.609819e+00 3.100000e+00
      vertex 1.847759e+00 -1.234633e+00 3.100000e+00
      vertex 1.961571e+00 -1.609819e+00 0.000000e+00
    endloop
  endfacet
  facet normal -9.569399e-01 -2.902860e-01 0.000000e+00
    outer loop
      vertex 1.961571e+00 -1.609819e+00 0.000000e+00
      vertex 1.847759e+00 -1.234633e+00 3.100000e+00
      vertex 1.847759e+00 -1.234633e+00 0.000000e+00
    endloop
  endfacet
  facet normal -9.951848e-01 -9.801599e-02 0.000000e+00
    outer loop
      vertex 2.000000e+00 -2.000000e+00 3.100000e+00
      vertex 1.961571e+00 -1.609819e+00 3.100000e+00
      vertex 2.000000e+00 -2.000000e+00 0.000000e+00
    endloop
  endfacet
  facet normal -9.951848e-01 -9.801599e-02 0.000000e+00
    outer loop
      vertex 2.000000e+00 -2.000000e+00 0.000000e+00
      vertex 1.961571e+00 -1.609819e+00 3.100000e+00
      vertex 1.961571e+00 -1.609819e+00 0.000000e+00
    endloop
  endfacet
  facet normal -9.951848e-01 9.801599e-02 0.000000e+00
    outer loop
      vertex 2.000000e+00 -2.000000e+00 3.100000e+00
      vertex 2.000000e+00 -2.000000e+00 0.000000e+00
      vertex 1.961571e+00 -2.390181e+00 3.100000e+00
    endloop
  endfacet
  facet normal -9.951848e-01 9.801599e-02 0.000000e+00
    outer loop
      vertex 1.961571e+00 -2.390181e+00 3.100000e+00
      vertex 2.000000e+00 -2.000000e+00 0.000000e+00
      vertex 1.961571e+00 -2.390181e+00 0.000000e+00
    endloop
  endfacet
  facet normal -9.569399e-01 2.902860e-01 0.000000e+00
    outer loop
      vertex 1.961571e+00 -2.390181e+00 3.100000e+00
      vertex 1.961571e+00 -2.390181e+00 0.000000e+00
      vertex 1.847759e+00 -2.765367e+00 3.100000e+00
    endloop
  endfacet
  facet normal -9.569399e-01 2.902860e-01 0.000000e+00
    outer loop
      vertex 1.847759e+00 -2.765367e+00 3.100000e+00
      vertex 1.961571e+00 -2.390181e+00 0.000000e+00
      vertex 1.847759e+00 -2.765367e+00 0.000000e+00
    endloop
  endfacet
  facet normal -8.819207e-01 4.713978e-01 0.000000e+00
    outer loop
      vertex 1.847759e+00 -2.765367e+00 3.100000e+00
      vertex 1.847759e+00 -2.765367e+00 0.000000e+00
      vertex 1.662939e+00 -3.111140e+00 3.100000e+00
    endloop
  endfacet
  facet normal -8.819207e-01 4.713978e-01 0.000000e+00
    outer loop
      vertex 1.662939e+00 -3.111140e+00 3.100000e+00
      vertex 1.847759e+00 -2.765367e+00 0.000000e+00
      vertex 1.662939e+00 -3.111140e+00 0.000000e+00
    endloop
  endfacet
  facet normal -7.730122e-01 6.343912e-01 0.000000e+00
    outer loop
      vertex 1.662939e+00 -3.111140e+00 3.100000e+00
      vertex 1.662939e+00 -3.111140e+00 0.000000e+00
      vertex 1.414213e+00 -3.414214e+00 3.100000e+00
    endloop
  endfacet
  facet normal -7.730122e-01 6.343912e-01 0.000000e+00
    outer loop
      vertex 1.414213e+00 -3.414214e+00 3.100000e+00
      vertex 1.662939e+00 -3.111140e+00 0.000000e+00
      vertex 1.414213e+00 -3.414214e+00 0.000000e+00
    endloop
  endfacet
  facet normal -6.343912e-01 7.730122e-01 0.000000e+00
    outer loop
      vertex 1.414213e+00 -3.414214e+00 3.100000e+00
      vertex 1.414213e+00 -3.414214e+00 0.000000e+00
      vertex 1.111139e+00 -3.662939e+00 3.100000e+00
    endloop
  endfacet
  facet normal -6.343912e-01 7.730122e-01 0.000000e+00
    outer loop
      vertex 1.111139e+00 -3.662939e+00 3.100000e+00
      vertex 1.414213e+00 -3.414214e+00 0.000000e+00
      vertex 1.111139e+00 -3.662939e+00 0.000000e+00
    endloop
  endfacet
  facet normal -4.713978e-01 8.819207e-01 0.000000e+00
    outer loop
      vertex 1.111139e+00 -3.662939e+00 3.100000e+00
      vertex 1.111139e+00 -3.662939e+00 0.000000e+00
      vertex 7.653675e-01 -3.847759e+00 3.100000e+00
    endloop
  endfacet
  facet normal -4.713978e-01 8.819207e-01 0.000000e+00
    outer loop
      vertex 7.653675e-01 -3.847759e+00 3.100000e+00
      vertex 1.111139e+00 -3.662939e+00 0.000000e+00
      vertex 7.653675e-01 -3.847759e+00 0.000000e+00
    endloop
  endfacet
  facet normal -2.902860e-01 9.569399e-01 0.000000e+00
    outer loop
      vertex 7.653675e-01 -3.847759e+00 3.100000e+00
      vertex 7.653675e-01 -3.847759e+00 0.000000e+00
      vertex 3.901806e-01 -3.961571e+00 3.100000e+00
    endloop
  endfacet
  facet normal -2.902860e-01 9.569399e-01 0.000000e+00
    outer loop
      vertex 3.901806e-01 -3.961571e+00 3.100000e+00
      vertex 7.653675e-01 -3.847759e+00 0.000000e+00
      vertex 3.901806e-01 -3.961571e+00 0.000000e+00
    endloop
  endfacet
  facet normal -9.801599e-02 9.951848e-01 0.000000e+00
    outer loop
      vertex 3.901806e-01 -3.961571e+00 3.100000e+00
      vertex 3.901806e-01 -3.961571e+00 0.000000e+00
      vertex 0.000000e+00 -4.000000e+00 3.100000e+00
    endloop
  endfacet
  facet normal -9.801599e-02 9.951848e-01 0.000000e+00
    outer loop
      vertex 0.000000e+00 -4.000000e+00 3.100000e+00
      vertex 3.901806e-01 -3.961571e+00 0.000000e+00
      vertex 0.000000e+00 -4.000000e+00 0.000000e+00
    endloop
  endfacet
  facet normal 9.801599e-02 9.951848e-01 0.000000e+00
    outer loop
      vertex 0.000000e+00 -4.000000e+00 3.100000e+00
      vertex 0.000000e+00 -4.000000e+00 0.000000e+00
      vertex -3.901806e-01 -3.961571e+00 3.100000e+00
    endloop
  endfacet
  facet normal 9.801599e-02 9.951848e-01 0.000000e+00
    outer loop
      vertex -3.901806e-01 -3.961571e+00 3.100000e+00
      vertex 0.000000e+00 -4.000000e+00 0.000000e+00
      vertex -3.901806e-01 -3.961571e+00 0.000000e+00
    endloop
  endfacet
  facet normal 2.902860e-01 9.569399e-01 0.000000e+00
    outer loop
      vertex -3.901806e-01 -3.961571e+00 3.100000e+00
      vertex -3.901806e-01 -3.961571e+00 0.000000e+00
      vertex -7.653675e-01 -3.847759e+00 3.100000e+00
    endloop
  endfacet
  facet normal 2.902860e-01 9.569399e-01 0.000000e+00
    outer loop
      vertex -7.653675e-01 -3.847759e+00 3.100000e+00
      vertex -3.901806e-01 -3.961571e+00 0.000000e+00
      vertex -7.653675e-01 -3.847759e+00 0.000000e+00
    endloop
  endfacet
  facet normal 4.713978e-01 8.819207e-01 0.000000e+00
    outer loop
      vertex -7.653675e-01 -3.847759e+00 3.100000e+00
      vertex -7.653675e-01 -3.847759e+00 0.000000e+00
      vertex -1.111139e+00 -3.662939e+00 3.100000e+00
    endloop
  endfacet
  facet normal 4.713978e-01 8.819207e-01 0.000000e+00
    outer loop
      vertex -1.111139e+00 -3.662939e+00 3.100000e+00
      vertex -7.653675e-01 -3.847759e+00 0.000000e+00
      vertex -1.111139e+00 -3.662939e+00 0.000000e+00
    endloop
  endfacet
  facet normal 6.343912e-01 7.730122e-01 0.000000e+00
    outer loop
      vertex -1.111139e+00 -3.662939e+00 3.100000e+00
      vertex -1.111139e+00 -3.662939e+00 0.000000e+00
      vertex -1.414213e+00 -3.414214e+00 3.100000e+00
    endloop
  endfacet
  facet normal 6.343912e-01 7.730122e-01 0.000000e+00
    outer loop
      vertex -1.414213e+00 -3.414214e+00 3.100000e+00
      vertex -1.111139e+00 -3.662939e+00 0.000000e+00
      vertex -1.414213e+00 -3.414214e+00 0.000000e+00
    endloop
  endfacet
  facet normal 7.730122e-01 6.343912e-01 0.000000e+00
    outer loop
      vertex -1.662939e+00 -3.111140e+00 3.100000e+00
      vertex -1.414213e+00 -3.414214e+00 3.100000e+00
      vertex -1.414213e+00 -3.414214e+00 0.000000e+00
    endloop
  endfacet
  facet normal 7.730122e-01 6.343912e-01 0.000000e+00
    outer loop
      vertex -1.662939e+00 -3.111140e+00 0.000000e+00
      vertex -1.662939e+00 -3.111140e+00 3.100000e+00
      vertex -1.414213e+00 -3.414214e+00 0.000000e+00
    endloop
  endfacet
  facet normal 8.819207e-01 4.713978e-01 0.000000e+00
    outer loop
      vertex -1.847759e+00 -2.765367e+00 3.100000e+00
      vertex -1.662939e+00 -3.111140e+00 3.100000e+00
      vertex -1.662939e+00 -3.111140e+00 0.000000e+00
    endloop
  endfacet
  facet normal 8.819207e-01 4.713978e-01 0.000000e+00
    outer loop
      vertex -1.847759e+00 -2.765367e+00 0.000000e+00
      vertex -1.847759e+00 -2.765367e+00 3.100000e+00
      vertex -1.662939e+00 -3.111140e+00 0.000000e+00
    endloop
  endfacet
  facet normal 9.569399e-01 2.902860e-01 0.000000e+00
    outer loop
      vertex -1.961571e+00 -2.390181e+00 3.100000e+00
      vertex -1.847759e+00 -2.765367e+00 3.100000e+00
      vertex -1.847759e+00 -2.765367e+00 0.000000e+00
    endloop
  endfacet
  facet normal 9.569399e-01 2.902860e-01 0.000000e+00
    outer loop
      vertex -1.961571e+00 -2.390181e+00 0.000000e+00
      vertex -1.961571e+00 -2.390181e+00 3.100000e+00
      vertex -1.847759e+00 -2.765367e+00 0.000000e+00
    endloop
  endfacet
  facet normal 0.000000e+00 -1.000000e+00 0.000000e+00
    outer loop
      vertex -1.100000e+01 5.500000e+00 3.100000e+00
      vertex -1.100000e+01 5.500000e+00 5.000000e+00
      vertex -1.900000e+01 5.500000e+00 5.000000e+00
    endloop
  endfacet
  facet normal -0.000000e+00 -1.000000e+00 -0.000000e+00
    outer loop
      vertex -1.900000e+01 5.500000e+00 3.100000e+00
      vertex -1.100000e+01 5.500000e+00 3.100000e+00
      vertex -1.900000e+01 5.500000e+00 5.000000e+00
    endloop
  endfacet
  facet normal 1.000000e+00 0.000000e+00 0.000000e+00
    outer loop
      vertex -1.900000e+01 5.500000e+00 3.100000e+00
      vertex -1.900000e+01 5.500000e+00 5.000000e+00
      vertex -1.900000e+01 -5.500000e+00 5.000000e+00
    endloop
  endfacet
  facet normal 1.000000e+00 0.000000e+00 0.000000e+00
    outer loop
      vertex -1.900000e+01 -5.500000e+00 3.100000e+00
      vertex -1.900000e+01 5.500000e+00 3.100000e+00
      vertex -1.900000e+01 -5.500000e+00 5.000000e+00
    endloop
  endfacet
  facet normal 0.000000e+00 1.000000e+00 0.000000e+00
    outer loop
      vertex 1.900000e+01 -5.500000e+00 5.000000e+00
      vertex 1.900000e+01 -5.500000e+00 3.100000e+00
      vertex -1.900000e+01 -5.500000e+00 5.000000e+00
    endloop
  endfacet
  facet normal 0.000000e+00 1.000000e+00 0.000000e+00
    outer loop
      vertex -1.900000e+01 -5.500000e+00 5.000000e+00
      vertex 1.900000e+01 -5.500000e+00 3.100000e+00
      vertex -1.900000e+01 -5.500000e+00 3.100000e+00
    endloop
  endfacet
  facet normal -1.000000e+00 0.000000e+00 0.000000e+00
    outer loop
      vertex 1.900000e+01 5.500000e+00 5.000000e+00
      vertex 1.900000e+01 5.500000e+00 3.100000e+00
      vertex 1.900000e+01 -5.500000e+00 5.000000e+00
    endloop
  endfacet
  facet normal -1.000000e+00 0.000000e+00 0.000000e+00
    outer loop
      vertex 1.900000e+01 -5.500000e+00 5.000000e+00
      vertex 1.900000e+01 5.500000e+00 3.100000e+00
      vertex 1.900000e+01 -5.500000e+00 3.100000e+00
    endloop
  endfacet
  facet normal 0.000000e+00 -1.000000e+00 0.000000e+00
    outer loop
      vertex 1.900000e+01 5.500000e+00 3.100000e+00
      vertex 1.900000e+01 5.500000e+00 5.000000e+00
      vertex 1.100000e+01 5.500000e+00 5.000000e+00
    endloop
  endfacet
  facet normal -0.000000e+00 -1.000000e+00 -0.000000e+00
    outer loop
      vertex 1.100000e+01 5.500000e+00 3.100000e+00
      vertex 1.900000e+01 5.500000e+00 3.100000e+00
      vertex 1.100000e+01 5.500000e+00 5.000000e+00
    endloop
  endfacet
  facet normal 0.000000e+00 0.000000e+00 1.000000e+00
    outer loop
      vertex 1.900000e+01 -5.500000e+00 3.100000e+00
      vertex 1.900000e+01 5.500000e+00 3.100000e+00
      vertex 1.100000e+01 5.500000e+00 3.100000e+00
    endloop
  endfacet
  facet normal 0.000000e+00 0.000000e+00 1.000000e+00
    outer loop
      vertex -1.100000e+01 5.450000e+00 3.100000e+00
      vertex 1.900000e+01 -5.500000e+00 3.100000e+00
      vertex 1.100000e+01 5.450000e+00 3.100000e+00
    endloop
  endfacet
  facet normal 0.000000e+00 0.000000e+00 1.000000e+00
    outer loop
      vertex 1.100000e+01 5.450000e+00 3.100000e+00
      vertex 1.900000e+01 -5.500000e+00 3.100000e+00
      vertex 1.100000e+01 5.500000e+00 3.100000e+00
    endloop
  endfacet
  facet normal 0.000000e+00 0.000000e+00 1.000000e+00
    outer loop
      vertex -1.900000e+01 5.500000e+00 3.100000e+00
      vertex 0.000000e+00 0.000000e+00 3.100000e+00
      vertex -1.100000e+01 5.450000e+00 3.100000e+00
    endloop
  endfacet
  facet normal 0.000000e+00 0.000000e+00 1.000000e+00
    outer loop
      vertex -1.900000e+01 5.500000e+00 3.100000e+00
      vertex -1.100000e+01 5.450000e+00 3.100000e+00
      vertex -1.100000e+01 5.500000e+00 3.100000e+00
    endloop
  endfacet
  facet normal 0.000000e+00 0.000000e+00 1.000000e+00
    outer loop
      vertex 3.901806e-01 -3.842878e-02 3.100000e+00
      vertex 1.900000e+01 -5.500000e+00 3.100000e+00
      vertex -1.100000e+01 5.450000e+00 3.100000e+00
    endloop
  endfacet
  facet normal 0.000000e+00 0.000000e+00 1.000000e+00
    outer loop
      vertex -1.900000e+01 -5.500000e+00 3.100000e+00
      vertex -2.000000e+00 -2.000000e+00 3.100000e+00
      vertex -1.900000e+01 5.500000e+00 3.100000e+00
    endloop
  endfacet
  facet normal 0.000000e+00 0.000000e+00 1.000000e+00
    outer loop
      vertex -2.000000e+00 -2.000000e+00 3.100000e+00
      vertex -1.961571e+00 -1.609819e+00 3.100000e+00
      vertex -1.900000e+01 5.500000e+00 3.100000e+00
    endloop
  endfacet
  facet normal 0.000000e+00 0.000000e+00 1.000000e+00
    outer loop
      vertex -1.961571e+00 -1.609819e+00 3.100000e+00
      vertex -1.847759e+00 -1.234633e+00 3.100000e+00
      vertex -1.900000e+01 5.500000e+00 3.100000e+00
    endloop
  endfacet
  facet normal 0.000000e+00 0.000000e+00 1.000000e+00
    outer loop
      vertex 1.961571e+00 -2.390181e+00 3.100000e+00
      vertex 1.847759e+00 -2.765367e+00 3.100000e+00
      vertex 1.900000e+01 -5.500000e+00 3.100000e+00
    endloop
  endfacet
  facet normal 0.000000e+00 0.000000e+00 1.000000e+00
    outer loop
      vertex -1.847759e+00 -1.234633e+00 3.100000e+00
      vertex -1.662939e+00 -8.888602e-01 3.100000e+00
      vertex -1.900000e+01 5.500000e+00 3.100000e+00
    endloop
  endfacet
  facet normal 0.000000e+00 0.000000e+00 1.000000e+00
    outer loop
      vertex -1.662939e+00 -8.888602e-01 3.100000e+00
      vertex -1.414213e+00 -5.857859e-01 3.100000e+00
      vertex -1.900000e+01 5.500000e+00 3.100000e+00
    endloop
  endfacet
  facet normal 0.000000e+00 0.000000e+00 1.000000e+00
    outer loop
      vertex -1.414213e+00 -5.857859e-01 3.100000e+00
      vertex -1.111139e+00 -3.370609e-01 3.100000e+00
      vertex -1.900000e+01 5.500000e+00 3.100000e+00
    endloop
  endfacet
  facet normal 0.000000e+00 0.000000e+00 1.000000e+00
    outer loop
      vertex -1.111139e+00 -3.370609e-01 3.100000e+00
      vertex -7.653675e-01 -1.522412e-01 3.100000e+00
      vertex -1.900000e+01 5.500000e+00 3.100000e+00
    endloop
  endfacet
  facet normal 0.000000e+00 0.000000e+00 1.000000e+00
    outer loop
      vertex -7.653675e-01 -1.522412e-01 3.100000e+00
      vertex -3.901806e-01 -3.842878e-02 3.100000e+00
      vertex -1.900000e+01 5.500000e+00 3.100000e+00
    endloop
  endfacet
  facet normal 0.000000e+00 0.000000e+00 1.000000e+00
    outer loop
      vertex -3.901806e-01 -3.842878e-02 3.100000e+00
      vertex 0.000000e+00 0.000000e+00 3.100000e+00
      vertex -1.900000e+01 5.500000e+00 3.100000e+00
    endloop
  endfacet
  facet normal 0.000000e+00 0.000000e+00 1.000000e+00
    outer loop
      vertex 0.000000e+00 0.000000e+00 3.100000e+00
      vertex 3.901806e-01 -3.842878e-02 3.100000e+00
      vertex -1.100000e+01 5.450000e+00 3.100000e+00
    endloop
  endfacet
  facet normal 0.000000e+00 0.000000e+00 1.000000e+00
    outer loop
      vertex 7.653675e-01 -1.522412e-01 3.100000e+00
      vertex 1.900000e+01 -5.500000e+00 3.100000e+00
      vertex 3.901806e-01 -3.842878e-02 3.100000e+00
    endloop
  endfacet
  facet normal 0.000000e+00 0.000000e+00 1.000000e+00
    outer loop
      vertex 1.111139e+00 -3.370609e-01 3.100000e+00
      vertex 1.414213e+00 -5.857859e-01 3.100000e+00
      vertex 1.900000e+01 -5.500000e+00 3.100000e+00
    endloop
  endfacet
  facet normal 0.000000e+00 0.000000e+00 1.000000e+00
    outer loop
      vertex 1.414213e+00 -5.857859e-01 3.100000e+00
      vertex 1.662939e+00 -8.888602e-01 3.100000e+00
      vertex 1.900000e+01 -5.500000e+00 3.100000e+00
    endloop
  endfacet
  facet normal 0.000000e+00 0.000000e+00 1.000000e+00
    outer loop
      vertex 1.662939e+00 -8.888602e-01 3.100000e+00
      vertex 1.847759e+00 -1.234633e+00 3.100000e+00
      vertex 1.900000e+01 -5.500000e+00 3.100000e+00
    endloop
  endfacet
  facet normal 0.000000e+00 0.000000e+00 1.000000e+00
    outer loop
      vertex 1.847759e+00 -1.234633e+00 3.100000e+00
      vertex 1.961571e+00 -1.609819e+00 3.100000e+00
      vertex 1.900000e+01 -5.500000e+00 3.100000e+00
    endloop
  endfacet
  facet normal 0.000000e+00 0.000000e+00 1.000000e+00
    outer loop
      vertex 1.961571e+00 -1.609819e+00 3.100000e+00
      vertex 2.000000e+00 -2.000000e+00 3.100000e+00
      vertex 1.900000e+01 -5.500000e+00 3.100000e+00
    endloop
  endfacet
  facet normal 0.000000e+00 0.000000e+00 1.000000e+00
    outer loop
      vertex -7.653675e-01 -3.847759e+00 3.100000e+00
      vertex -1.111139e+00 -3.662939e+00 3.100000e+00
      vertex -1.900000e+01 -5.500000e+00 3.100000e+00
    endloop
  endfacet
  facet normal 0.000000e+00 0.000000e+00 1.000000e+00
    outer loop
      vertex 0.000000e+00 -4.000000e+00 3.100000e+00
      vertex -3.901806e-01 -3.961571e+00 3.100000e+00
      vertex -1.900000e+01 -5.500000e+00 3.100000e+00
    endloop
  endfacet
  facet normal 0.000000e+00 0.000000e+00 1.000000e+00
    outer loop
      vertex 1.662939e+00 -3.111140e+00 3.100000e+00
      vertex 1.900000e+01 -5.500000e+00 3.100000e+00
      vertex 1.847759e+00 -2.765367e+00 3.100000e+00
    endloop
  endfacet
  facet normal 0.000000e+00 0.000000e+00 1.000000e+00
    outer loop
      vertex 1.414213e+00 -3.414214e+00 3.100000e+00
      vertex 1.900000e+01 -5.500000e+00 3.100000e+00
      vertex 1.662939e+00 -3.111140e+00 3.100000e+00
    endloop
  endfacet
  facet normal 0.000000e+00 0.000000e+00 1.000000e+00
    outer loop
      vertex 1.111139e+00 -3.662939e+00 3.100000e+00
      vertex 1.900000e+01 -5.500000e+00 3.100000e+00
      vertex 1.414213e+00 -3.414214e+00 3.100000e+00
    endloop
  endfacet
  facet normal 0.000000e+00 0.000000e+00 1.000000e+00
    outer loop
      vertex -1.111139e+00 -3.662939e+00 3.100000e+00
      vertex -1.414213e+00 -3.414214e+00 3.100000e+00
      vertex -1.900000e+01 -5.500000e+00 3.100000e+00
    endloop
  endfacet
  facet normal 0.000000e+00 0.000000e+00 1.000000e+00
    outer loop
      vertex 7.653675e-01 -3.847759e+00 3.100000e+00
      vertex 1.900000e+01 -5.500000e+00 3.100000e+00
      vertex 1.111139e+00 -3.662939e+00 3.100000e+00
    endloop
  endfacet
  facet normal 0.000000e+00 0.000000e+00 1.000000e+00
    outer loop
      vertex 3.901806e-01 -3.961571e+00 3.100000e+00
      vertex 1.900000e+01 -5.500000e+00 3.100000e+00
      vertex 7.653675e-01 -3.847759e+00 3.100000e+00
    endloop
  endfacet
  facet normal 0.000000e+00 0.000000e+00 1.000000e+00
    outer loop
      vertex 0.000000e+00 -4.000000e+00 3.100000e+00
      vertex 1.900000e+01 -5.500000e+00 3.100000e+00
      vertex 3.901806e-01 -3.961571e+00 3.100000e+00
    endloop
  endfacet
  facet normal 0.000000e+00 0.000000e+00 1.000000e+00
    outer loop
      vertex -3.901806e-01 -3.961571e+00 3.100000e+00
      vertex -7.653675e-01 -3.847759e+00 3.100000e+00
      vertex -1.900000e+01 -5.500000e+00 3.100000e+00
    endloop
  endfacet
  facet normal 0.000000e+00 0.000000e+00 1.000000e+00
    outer loop
      vertex -1.900000e+01 -5.500000e+00 3.100000e+00
      vertex 1.900000e+01 -5.500000e+00 3.100000e+00
      vertex 0.000000e+00 -4.000000e+00 3.100000e+00
    endloop
  endfacet
  facet normal 0.000000e+00 0.000000e+00 1.000000e+00
    outer loop
      vertex -1.414213e+00 -3.414214e+00 3.100000e+00
      vertex -1.662939e+00 -3.111140e+00 3.100000e+00
      vertex -1.900000e+01 -5.500000e+00 3.100000e+00
    endloop
  endfacet
  facet normal 0.000000e+00 0.000000e+00 1.000000e+00
    outer loop
      vertex -1.900000e+01 -5.500000e+00 3.100000e+00
      vertex -1.662939e+00 -3.111140e+00 3.100000e+00
      vertex -1.847759e+00 -2.765367e+00 3.100000e+00
    endloop
  endfacet
  facet normal 0.000000e+00 0.000000e+00 1.000000e+00
    outer loop
      vertex -1.900000e+01 -5.500000e+00 3.100000e+00
      vertex -1.961571e+00 -2.390181e+00 3.100000e+00
      vertex -2.000000e+00 -2.000000e+00 3.100000e+00
    endloop
  endfacet
  facet normal 0.000000e+00 0.000000e+00 1.000000e+00
    outer loop
      vertex -1.900000e+01 -5.500000e+00 3.100000e+00
      vertex -1.847759e+00 -2.765367e+00 3.100000e+00
      vertex -1.961571e+00 -2.390181e+00 3.100000e+00
    endloop
  endfacet
  facet normal 0.000000e+00 0.000000e+00 1.000000e+00
    outer loop
      vertex 7.653675e-01 -1.522412e-01 3.100000e+00
      vertex 1.111139e+00 -3.370609e-01 3.100000e+00
      vertex 1.900000e+01 -5.500000e+00 3.100000e+00
    endloop
  endfacet
  facet normal 0.000000e+00 0.000000e+00 1.000000e+00
    outer loop
      vertex 2.000000e+00 -2.000000e+00 3.100000e+00
      vertex 1.961571e+00 -2.390181e+00 3.100000e+00
      vertex 1.900000e+01 -5.500000e+00 3.100000e+00
    endloop
  endfacet
endsolid Default
