solid Default
  facet normal -1.000000e+00 0.000000e+00 0.000000e+00
    outer loop
      vertex -1.900000e+01 2.650000e+01 2.000000e+01
      vertex -1.900000e+01 2.900000e+01 2.000000e+01
      vertex -1.900000e+01 2.650000e+01 8.000000e+00
    endloop
  endfacet
  facet normal -1.000000e+00 0.000000e+00 0.000000e+00
    outer loop
      vertex -1.900000e+01 1.500000e+00 1.100000e+01
      vertex -1.900000e+01 -2.900000e+01 3.551476e-15
      vertex -1.900000e+01 -2.900000e+01 1.100000e+01
    endloop
  endfacet
  facet normal -1.000000e+00 0.000000e+00 0.000000e+00
    outer loop
      vertex -1.900000e+01 2.900000e+01 0.000000e+00
      vertex -1.900000e+01 -2.900000e+01 3.551476e-15
      vertex -1.900000e+01 1.500000e+00 8.000000e+00
    endloop
  endfacet
  facet normal -1.000000e+00 0.000000e+00 0.000000e+00
    outer loop
      vertex -1.900000e+01 2.900000e+01 0.000000e+00
      vertex -1.900000e+01 1.500000e+00 8.000000e+00
      vertex -1.900000e+01 2.650000e+01 8.000000e+00
    endloop
  endfacet
  facet normal -1.000000e+00 -0.000000e+00 0.000000e+00
    outer loop
      vertex -1.900000e+01 2.900000e+01 0.000000e+00
      vertex -1.900000e+01 2.650000e+01 8.000000e+00
      vertex -1.900000e+01 2.900000e+01 2.000000e+01
    endloop
  endfacet
  facet normal -1.000000e+00 0.000000e+00 -0.000000e+00
    outer loop
      vertex -1.900000e+01 1.500000e+00 8.000000e+00
      vertex -1.900000e+01 -2.900000e+01 3.551476e-15
      vertex -1.900000e+01 1.500000e+00 1.100000e+01
    endloop
  endfacet
  facet normal 0.000000e+00 -6.123234e-17 -1.000000e+00
    outer loop
      vertex -1.900000e+01 -2.900000e+01 3.551476e-15
      vertex -1.900000e+01 2.900000e+01 0.000000e+00
      vertex 1.900000e+01 2.900000e+01 0.000000e+00
    endloop
  endfacet
  facet normal 0.000000e+00 -6.123234e-17 -1.000000e+00
    outer loop
      vertex -8.662939e+00 -2.288886e+01 3.177276e-15
      vertex -1.900000e+01 -2.900000e+01 3.551476e-15
      vertex 1.900000e+01 2.900000e+01 0.000000e+00
    endloop
  endfacet
  facet normal 0.000000e+00 -6.123234e-17 -1.000000e+00
    outer loop
      vertex 6.609819e+00 -2.596157e+01 3.365426e-15
      vertex 7.000000e+00 -2.600000e+01 3.367779e-15
      vertex 1.900000e+01 -2.900000e+01 3.551476e-15
    endloop
  endfacet
  facet normal 0.000000e+00 -6.123234e-17 -1.000000e+00
    outer loop
      vertex -9.000000e+00 -2.400000e+01 3.245314e-15
      vertex -1.900000e+01 -2.900000e+01 3.551476e-15
      vertex -8.961571e+00 -2.360982e+01 3.221422e-15
    endloop
  endfacet
  facet normal 0.000000e+00 -6.123234e-17 -1.000000e+00
    outer loop
      vertex -8.961571e+00 -2.439018e+01 3.269206e-15
      vertex -1.900000e+01 -2.900000e+01 3.551476e-15
      vertex -9.000000e+00 -2.400000e+01 3.245314e-15
    endloop
  endfacet
  facet normal 0.000000e+00 -6.123234e-17 -1.000000e+00
    outer loop
      vertex -8.847759e+00 -2.476537e+01 3.292179e-15
      vertex -1.900000e+01 -2.900000e+01 3.551476e-15
      vertex -8.961571e+00 -2.439018e+01 3.269206e-15
    endloop
  endfacet
  facet normal 0.000000e+00 -6.123234e-17 -1.000000e+00
    outer loop
      vertex -8.662939e+00 -2.511114e+01 3.313352e-15
      vertex -1.900000e+01 -2.900000e+01 3.551476e-15
      vertex -8.847759e+00 -2.476537e+01 3.292179e-15
    endloop
  endfacet
  facet normal 0.000000e+00 -6.123234e-17 -1.000000e+00
    outer loop
      vertex -8.414214e+00 -2.541421e+01 3.331910e-15
      vertex -1.900000e+01 -2.900000e+01 3.551476e-15
      vertex -8.662939e+00 -2.511114e+01 3.313352e-15
    endloop
  endfacet
  facet normal 0.000000e+00 -6.123234e-17 -1.000000e+00
    outer loop
      vertex -8.111140e+00 -2.566294e+01 3.347140e-15
      vertex -1.900000e+01 -2.900000e+01 3.551476e-15
      vertex -8.414214e+00 -2.541421e+01 3.331910e-15
    endloop
  endfacet
  facet normal 0.000000e+00 -6.123234e-17 -1.000000e+00
    outer loop
      vertex -7.765367e+00 -2.584776e+01 3.358457e-15
      vertex -1.900000e+01 -2.900000e+01 3.551476e-15
      vertex -8.111140e+00 -2.566294e+01 3.347140e-15
    endloop
  endfacet
  facet normal 0.000000e+00 -6.123234e-17 -1.000000e+00
    outer loop
      vertex -7.390181e+00 -2.596157e+01 3.365426e-15
      vertex -1.900000e+01 -2.900000e+01 3.551476e-15
      vertex -7.765367e+00 -2.584776e+01 3.358457e-15
    endloop
  endfacet
  facet normal 0.000000e+00 -6.123234e-17 -1.000000e+00
    outer loop
      vertex 1.900000e+01 -2.900000e+01 3.551476e-15
      vertex -1.900000e+01 -2.900000e+01 3.551476e-15
      vertex -7.390181e+00 -2.596157e+01 3.365426e-15
    endloop
  endfacet
  facet normal 0.000000e+00 -6.123234e-17 -1.000000e+00
    outer loop
      vertex -6.609819e+00 -2.596157e+01 3.365426e-15
      vertex -6.234633e+00 -2.584776e+01 3.358457e-15
      vertex 1.900000e+01 -2.900000e+01 3.551476e-15
    endloop
  endfacet
  facet normal 0.000000e+00 -6.123234e-17 -1.000000e+00
    outer loop
      vertex 1.900000e+01 -2.900000e+01 3.551476e-15
      vertex -7.390181e+00 -2.596157e+01 3.365426e-15
      vertex -7.000000e+00 -2.600000e+01 3.367779e-15
    endloop
  endfacet
  facet normal 0.000000e+00 -6.123234e-17 -1.000000e+00
    outer loop
      vertex -6.234633e+00 -2.584776e+01 3.358457e-15
      vertex -5.888860e+00 -2.566294e+01 3.347140e-15
      vertex 1.900000e+01 -2.900000e+01 3.551476e-15
    endloop
  endfacet
  facet normal 0.000000e+00 -6.123234e-17 -1.000000e+00
    outer loop
      vertex -5.888860e+00 -2.566294e+01 3.347140e-15
      vertex -5.585786e+00 -2.541421e+01 3.331910e-15
      vertex 1.900000e+01 -2.900000e+01 3.551476e-15
    endloop
  endfacet
  facet normal 0.000000e+00 -6.123234e-17 -1.000000e+00
    outer loop
      vertex -5.585786e+00 -2.541421e+01 3.331910e-15
      vertex -5.337061e+00 -2.511114e+01 3.313352e-15
      vertex 1.900000e+01 -2.900000e+01 3.551476e-15
    endloop
  endfacet
  facet normal 0.000000e+00 -6.123234e-17 -1.000000e+00
    outer loop
      vertex -5.337061e+00 -2.511114e+01 3.313352e-15
      vertex -5.152241e+00 -2.476537e+01 3.292179e-15
      vertex 1.900000e+01 -2.900000e+01 3.551476e-15
    endloop
  endfacet
  facet normal 0.000000e+00 -6.123234e-17 -1.000000e+00
    outer loop
      vertex -5.152241e+00 -2.476537e+01 3.292179e-15
      vertex -5.038429e+00 -2.439018e+01 3.269206e-15
      vertex 1.900000e+01 -2.900000e+01 3.551476e-15
    endloop
  endfacet
  facet normal 0.000000e+00 -6.123234e-17 -1.000000e+00
    outer loop
      vertex -5.038429e+00 -2.439018e+01 3.269206e-15
      vertex -5.000000e+00 -2.400000e+01 3.245314e-15
      vertex 1.900000e+01 -2.900000e+01 3.551476e-15
    endloop
  endfacet
  facet normal 0.000000e+00 -6.123234e-17 -1.000000e+00
    outer loop
      vertex -8.414214e+00 -2.258579e+01 3.158718e-15
      vertex -8.662939e+00 -2.288886e+01 3.177276e-15
      vertex 1.900000e+01 2.900000e+01 0.000000e+00
    endloop
  endfacet
  facet normal 0.000000e+00 -6.123234e-17 -1.000000e+00
    outer loop
      vertex 5.038429e+00 -2.360982e+01 3.221422e-15
      vertex -5.000000e+00 -2.400000e+01 3.245314e-15
      vertex 1.900000e+01 2.900000e+01 0.000000e+00
    endloop
  endfacet
  facet normal 0.000000e+00 -6.123234e-17 -1.000000e+00
    outer loop
      vertex -5.000000e+00 -2.400000e+01 3.245314e-15
      vertex -5.038429e+00 -2.360982e+01 3.221422e-15
      vertex 1.900000e+01 2.900000e+01 0.000000e+00
    endloop
  endfacet
  facet normal 0.000000e+00 -6.123234e-17 -1.000000e+00
    outer loop
      vertex -5.038429e+00 -2.360982e+01 3.221422e-15
      vertex -5.152241e+00 -2.323463e+01 3.198449e-15
      vertex 1.900000e+01 2.900000e+01 0.000000e+00
    endloop
  endfacet
  facet normal 0.000000e+00 -6.123234e-17 -1.000000e+00
    outer loop
      vertex -5.152241e+00 -2.323463e+01 3.198449e-15
      vertex -5.337061e+00 -2.288886e+01 3.177276e-15
      vertex 1.900000e+01 2.900000e+01 0.000000e+00
    endloop
  endfacet
  facet normal 0.000000e+00 -6.123234e-17 -1.000000e+00
    outer loop
      vertex -5.337061e+00 -2.288886e+01 3.177276e-15
      vertex -5.585786e+00 -2.258579e+01 3.158718e-15
      vertex 1.900000e+01 2.900000e+01 0.000000e+00
    endloop
  endfacet
  facet normal 0.000000e+00 -6.123234e-17 -1.000000e+00
    outer loop
      vertex -5.585786e+00 -2.258579e+01 3.158718e-15
      vertex -5.888860e+00 -2.233706e+01 3.143488e-15
      vertex 1.900000e+01 2.900000e+01 0.000000e+00
    endloop
  endfacet
  facet normal 0.000000e+00 -6.123234e-17 -1.000000e+00
    outer loop
      vertex -5.888860e+00 -2.233706e+01 3.143488e-15
      vertex -6.234633e+00 -2.215224e+01 3.132171e-15
      vertex 1.900000e+01 2.900000e+01 0.000000e+00
    endloop
  endfacet
  facet normal 0.000000e+00 -6.123234e-17 -1.000000e+00
    outer loop
      vertex -6.234633e+00 -2.215224e+01 3.132171e-15
      vertex -6.609819e+00 -2.203843e+01 3.125202e-15
      vertex 1.900000e+01 2.900000e+01 0.000000e+00
    endloop
  endfacet
  facet normal 0.000000e+00 -6.123234e-17 -1.000000e+00
    outer loop
      vertex -6.609819e+00 -2.203843e+01 3.125202e-15
      vertex -7.000000e+00 -2.200000e+01 3.122849e-15
      vertex 1.900000e+01 2.900000e+01 0.000000e+00
    endloop
  endfacet
  facet normal 0.000000e+00 -6.123234e-17 -1.000000e+00
    outer loop
      vertex -7.000000e+00 -2.200000e+01 3.122849e-15
      vertex -7.390181e+00 -2.203843e+01 3.125202e-15
      vertex 1.900000e+01 2.900000e+01 0.000000e+00
    endloop
  endfacet
  facet normal 0.000000e+00 -6.123234e-17 -1.000000e+00
    outer loop
      vertex -7.390181e+00 -2.203843e+01 3.125202e-15
      vertex -7.765367e+00 -2.215224e+01 3.132171e-15
      vertex 1.900000e+01 2.900000e+01 0.000000e+00
    endloop
  endfacet
  facet normal 0.000000e+00 -6.123234e-17 -1.000000e+00
    outer loop
      vertex -7.765367e+00 -2.215224e+01 3.132171e-15
      vertex -8.111140e+00 -2.233706e+01 3.143488e-15
      vertex 1.900000e+01 2.900000e+01 0.000000e+00
    endloop
  endfacet
  facet normal 0.000000e+00 -6.123234e-17 -1.000000e+00
    outer loop
      vertex -8.111140e+00 -2.233706e+01 3.143488e-15
      vertex -8.414214e+00 -2.258579e+01 3.158718e-15
      vertex 1.900000e+01 2.900000e+01 0.000000e+00
    endloop
  endfacet
  facet normal 0.000000e+00 -6.123234e-17 -1.000000e+00
    outer loop
      vertex -8.847759e+00 -2.323463e+01 3.198449e-15
      vertex -1.900000e+01 -2.900000e+01 3.551476e-15
      vertex -8.662939e+00 -2.288886e+01 3.177276e-15
    endloop
  endfacet
  facet normal 0.000000e+00 -6.123234e-17 -1.000000e+00
    outer loop
      vertex -8.961571e+00 -2.360982e+01 3.221422e-15
      vertex -1.900000e+01 -2.900000e+01 3.551476e-15
      vertex -8.847759e+00 -2.323463e+01 3.198449e-15
    endloop
  endfacet
  facet normal 0.000000e+00 -6.123234e-17 -1.000000e+00
    outer loop
      vertex 5.152241e+00 -2.323463e+01 3.198449e-15
      vertex 5.038429e+00 -2.360982e+01 3.221422e-15
      vertex 1.900000e+01 2.900000e+01 0.000000e+00
    endloop
  endfacet
  facet normal 0.000000e+00 -6.123234e-17 -1.000000e+00
    outer loop
      vertex 5.000000e+00 -2.400000e+01 3.245314e-15
      vertex -5.000000e+00 -2.400000e+01 3.245314e-15
      vertex 5.038429e+00 -2.360982e+01 3.221422e-15
    endloop
  endfacet
  facet normal 0.000000e+00 -6.123234e-17 -1.000000e+00
    outer loop
      vertex 5.038429e+00 -2.439018e+01 3.269206e-15
      vertex -5.000000e+00 -2.400000e+01 3.245314e-15
      vertex 5.000000e+00 -2.400000e+01 3.245314e-15
    endloop
  endfacet
  facet normal 0.000000e+00 -6.123234e-17 -1.000000e+00
    outer loop
      vertex 5.152241e+00 -2.476537e+01 3.292179e-15
      vertex -5.000000e+00 -2.400000e+01 3.245314e-15
      vertex 5.038429e+00 -2.439018e+01 3.269206e-15
    endloop
  endfacet
  facet normal 0.000000e+00 -6.123234e-17 -1.000000e+00
    outer loop
      vertex 5.337061e+00 -2.511114e+01 3.313352e-15
      vertex -5.000000e+00 -2.400000e+01 3.245314e-15
      vertex 5.152241e+00 -2.476537e+01 3.292179e-15
    endloop
  endfacet
  facet normal 0.000000e+00 -6.123234e-17 -1.000000e+00
    outer loop
      vertex 8.111139e+00 -2.566294e+01 3.347140e-15
      vertex 8.414213e+00 -2.541421e+01 3.331910e-15
      vertex 1.900000e+01 -2.900000e+01 3.551476e-15
    endloop
  endfacet
  facet normal 0.000000e+00 -6.123234e-17 -1.000000e+00
    outer loop
      vertex 5.585787e+00 -2.541421e+01 3.331910e-15
      vertex -5.000000e+00 -2.400000e+01 3.245314e-15
      vertex 5.337061e+00 -2.511114e+01 3.313352e-15
    endloop
  endfacet
  facet normal 0.000000e+00 -6.123234e-17 -1.000000e+00
    outer loop
      vertex 5.888861e+00 -2.566294e+01 3.347140e-15
      vertex -5.000000e+00 -2.400000e+01 3.245314e-15
      vertex 5.585787e+00 -2.541421e+01 3.331910e-15
    endloop
  endfacet
  facet normal 0.000000e+00 -6.123234e-17 -1.000000e+00
    outer loop
      vertex 6.234632e+00 -2.584776e+01 3.358457e-15
      vertex -5.000000e+00 -2.400000e+01 3.245314e-15
      vertex 5.888861e+00 -2.566294e+01 3.347140e-15
    endloop
  endfacet
  facet normal 0.000000e+00 -6.123234e-17 -1.000000e+00
    outer loop
      vertex 6.609819e+00 -2.596157e+01 3.365426e-15
      vertex -5.000000e+00 -2.400000e+01 3.245314e-15
      vertex 6.234632e+00 -2.584776e+01 3.358457e-15
    endloop
  endfacet
  facet normal 0.000000e+00 -6.123234e-17 -1.000000e+00
    outer loop
      vertex 7.000000e+00 -2.600000e+01 3.367779e-15
      vertex 7.390181e+00 -2.596157e+01 3.365426e-15
      vertex 1.900000e+01 -2.900000e+01 3.551476e-15
    endloop
  endfacet
  facet normal 0.000000e+00 -6.123234e-17 -1.000000e+00
    outer loop
      vertex 1.900000e+01 -2.900000e+01 3.551476e-15
      vertex -5.000000e+00 -2.400000e+01 3.245314e-15
      vertex 6.609819e+00 -2.596157e+01 3.365426e-15
    endloop
  endfacet
  facet normal 0.000000e+00 -6.123234e-17 -1.000000e+00
    outer loop
      vertex 7.390181e+00 -2.596157e+01 3.365426e-15
      vertex 7.765368e+00 -2.584776e+01 3.358457e-15
      vertex 1.900000e+01 -2.900000e+01 3.551476e-15
    endloop
  endfacet
  facet normal 0.000000e+00 -6.123234e-17 -1.000000e+00
    outer loop
      vertex 8.414213e+00 -2.541421e+01 3.331910e-15
      vertex 8.662939e+00 -2.511114e+01 3.313352e-15
      vertex 1.900000e+01 -2.900000e+01 3.551476e-15
    endloop
  endfacet
  facet normal 0.000000e+00 -6.123234e-17 -1.000000e+00
    outer loop
      vertex 8.662939e+00 -2.511114e+01 3.313352e-15
      vertex 8.847759e+00 -2.476537e+01 3.292179e-15
      vertex 1.900000e+01 -2.900000e+01 3.551476e-15
    endloop
  endfacet
  facet normal 0.000000e+00 -6.123234e-17 -1.000000e+00
    outer loop
      vertex 9.000000e+00 -2.400000e+01 3.245314e-15
      vertex 8.961571e+00 -2.360982e+01 3.221422e-15
      vertex 1.900000e+01 2.900000e+01 0.000000e+00
    endloop
  endfacet
  facet normal 0.000000e+00 -6.123234e-17 -1.000000e+00
    outer loop
      vertex 1.900000e+01 -2.900000e+01 3.551476e-15
      vertex 8.961571e+00 -2.439018e+01 3.269206e-15
      vertex 1.900000e+01 2.900000e+01 0.000000e+00
    endloop
  endfacet
  facet normal 0.000000e+00 -6.123234e-17 -1.000000e+00
    outer loop
      vertex 1.900000e+01 -2.900000e+01 3.551476e-15
      vertex 8.847759e+00 -2.476537e+01 3.292179e-15
      vertex 8.961571e+00 -2.439018e+01 3.269206e-15
    endloop
  endfacet
  facet normal 0.000000e+00 -6.123234e-17 -1.000000e+00
    outer loop
      vertex 8.961571e+00 -2.439018e+01 3.269206e-15
      vertex 9.000000e+00 -2.400000e+01 3.245314e-15
      vertex 1.900000e+01 2.900000e+01 0.000000e+00
    endloop
  endfacet
  facet normal 0.000000e+00 -6.123234e-17 -1.000000e+00
    outer loop
      vertex 8.961571e+00 -2.360982e+01 3.221422e-15
      vertex 8.847759e+00 -2.323463e+01 3.198449e-15
      vertex 1.900000e+01 2.900000e+01 0.000000e+00
    endloop
  endfacet
  facet normal 0.000000e+00 -6.123234e-17 -1.000000e+00
    outer loop
      vertex 8.847759e+00 -2.323463e+01 3.198449e-15
      vertex 8.662939e+00 -2.288886e+01 3.177276e-15
      vertex 1.900000e+01 2.900000e+01 0.000000e+00
    endloop
  endfacet
  facet normal 0.000000e+00 -6.123234e-17 -1.000000e+00
    outer loop
      vertex 8.662939e+00 -2.288886e+01 3.177276e-15
      vertex 8.414213e+00 -2.258579e+01 3.158718e-15
      vertex 1.900000e+01 2.900000e+01 0.000000e+00
    endloop
  endfacet
  facet normal 0.000000e+00 -6.123234e-17 -1.000000e+00
    outer loop
      vertex 8.414213e+00 -2.258579e+01 3.158718e-15
      vertex 8.111139e+00 -2.233706e+01 3.143488e-15
      vertex 1.900000e+01 2.900000e+01 0.000000e+00
    endloop
  endfacet
  facet normal 0.000000e+00 -6.123234e-17 -1.000000e+00
    outer loop
      vertex 8.111139e+00 -2.233706e+01 3.143488e-15
      vertex 7.765368e+00 -2.215224e+01 3.132171e-15
      vertex 1.900000e+01 2.900000e+01 0.000000e+00
    endloop
  endfacet
  facet normal 0.000000e+00 -6.123234e-17 -1.000000e+00
    outer loop
      vertex 7.765368e+00 -2.215224e+01 3.132171e-15
      vertex 7.390181e+00 -2.203843e+01 3.125202e-15
      vertex 1.900000e+01 2.900000e+01 0.000000e+00
    endloop
  endfacet
  facet normal 0.000000e+00 -6.123234e-17 -1.000000e+00
    outer loop
      vertex 7.390181e+00 -2.203843e+01 3.125202e-15
      vertex 7.000000e+00 -2.200000e+01 3.122849e-15
      vertex 1.900000e+01 2.900000e+01 0.000000e+00
    endloop
  endfacet
  facet normal 0.000000e+00 -6.123234e-17 -1.000000e+00
    outer loop
      vertex 7.000000e+00 -2.200000e+01 3.122849e-15
      vertex 6.609819e+00 -2.203843e+01 3.125202e-15
      vertex 1.900000e+01 2.900000e+01 0.000000e+00
    endloop
  endfacet
  facet normal 0.000000e+00 -6.123234e-17 -1.000000e+00
    outer loop
      vertex 6.609819e+00 -2.203843e+01 3.125202e-15
      vertex 6.234632e+00 -2.215224e+01 3.132171e-15
      vertex 1.900000e+01 2.900000e+01 0.000000e+00
    endloop
  endfacet
  facet normal 0.000000e+00 -6.123234e-17 -1.000000e+00
    outer loop
      vertex 6.234632e+00 -2.215224e+01 3.132171e-15
      vertex 5.888861e+00 -2.233706e+01 3.143488e-15
      vertex 1.900000e+01 2.900000e+01 0.000000e+00
    endloop
  endfacet
  facet normal 0.000000e+00 -6.123234e-17 -1.000000e+00
    outer loop
      vertex 5.888861e+00 -2.233706e+01 3.143488e-15
      vertex 5.585787e+00 -2.258579e+01 3.158718e-15
      vertex 1.900000e+01 2.900000e+01 0.000000e+00
    endloop
  endfacet
  facet normal 0.000000e+00 -6.123234e-17 -1.000000e+00
    outer loop
      vertex 5.585787e+00 -2.258579e+01 3.158718e-15
      vertex 5.337061e+00 -2.288886e+01 3.177276e-15
      vertex 1.900000e+01 2.900000e+01 0.000000e+00
    endloop
  endfacet
  facet normal 0.000000e+00 -6.123234e-17 -1.000000e+00
    outer loop
      vertex 5.337061e+00 -2.288886e+01 3.177276e-15
      vertex 5.152241e+00 -2.323463e+01 3.198449e-15
      vertex 1.900000e+01 2.900000e+01 0.000000e+00
    endloop
  endfacet
  facet normal 0.000000e+00 -6.123234e-17 -1.000000e+00
    outer loop
      vertex -7.000000e+00 -2.600000e+01 3.367779e-15
      vertex -6.609819e+00 -2.596157e+01 3.365426e-15
      vertex 1.900000e+01 -2.900000e+01 3.551476e-15
    endloop
  endfacet
  facet normal 0.000000e+00 -6.123234e-17 -1.000000e+00
    outer loop
      vertex 7.765368e+00 -2.584776e+01 3.358457e-15
      vertex 8.111139e+00 -2.566294e+01 3.347140e-15
      vertex 1.900000e+01 -2.900000e+01 3.551476e-15
    endloop
  endfacet
  facet normal -0.000000e+00 1.000000e+00 -6.123234e-17
    outer loop
      vertex -1.900000e+01 2.900000e+01 0.000000e+00
      vertex -1.900000e+01 2.900000e+01 2.000000e+01
      vertex 1.900000e+01 2.900000e+01 0.000000e+00
    endloop
  endfacet
  facet normal 0.000000e+00 1.000000e+00 -6.123234e-17
    outer loop
      vertex 1.900000e+01 2.900000e+01 0.000000e+00
      vertex -1.900000e+01 2.900000e+01 2.000000e+01
      vertex 1.900000e+01 2.900000e+01 2.000000e+01
    endloop
  endfacet
  facet normal 0.000000e+00 6.123234e-17 1.000000e+00
    outer loop
      vertex -1.900000e+01 2.900000e+01 2.000000e+01
      vertex -1.900000e+01 2.650000e+01 2.000000e+01
      vertex 1.900000e+01 2.900000e+01 2.000000e+01
    endloop
  endfacet
  facet normal 0.000000e+00 6.123234e-17 1.000000e+00
    outer loop
      vertex 1.900000e+01 2.900000e+01 2.000000e+01
      vertex -1.900000e+01 2.650000e+01 2.000000e+01
      vertex 1.900000e+01 2.650000e+01 2.000000e+01
    endloop
  endfacet
  facet normal 0.000000e+00 -1.000000e+00 6.123234e-17
    outer loop
      vertex -1.900000e+01 2.650000e+01 2.000000e+01
      vertex -1.900000e+01 2.650000e+01 8.000000e+00
      vertex 1.900000e+01 2.650000e+01 8.000000e+00
    endloop
  endfacet
  facet normal 0.000000e+00 -1.000000e+00 6.123234e-17
    outer loop
      vertex 1.900000e+01 2.650000e+01 2.000000e+01
      vertex -1.900000e+01 2.650000e+01 2.000000e+01
      vertex 1.900000e+01 2.650000e+01 8.000000e+00
    endloop
  endfacet
  facet normal 0.000000e+00 6.123234e-17 1.000000e+00
    outer loop
      vertex 1.605714e+01 3.500000e+00 8.000000e+00
      vertex 1.900000e+01 2.650000e+01 8.000000e+00
      vertex -1.605714e+01 3.500000e+00 8.000000e+00
    endloop
  endfacet
  facet normal 0.000000e+00 6.123234e-17 1.000000e+00
    outer loop
      vertex -1.900000e+01 2.650000e+01 8.000000e+00
      vertex -1.900000e+01 1.500000e+00 8.000000e+00
      vertex -1.605714e+01 3.500000e+00 8.000000e+00
    endloop
  endfacet
  facet normal 0.000000e+00 6.123234e-17 1.000000e+00
    outer loop
      vertex -1.900000e+01 2.650000e+01 8.000000e+00
      vertex -1.605714e+01 3.500000e+00 8.000000e+00
      vertex 1.900000e+01 2.650000e+01 8.000000e+00
    endloop
  endfacet
  facet normal 0.000000e+00 6.123234e-17 1.000000e+00
    outer loop
      vertex 1.900000e+01 2.650000e+01 8.000000e+00
      vertex 1.605714e+01 3.500000e+00 8.000000e+00
      vertex 1.605714e+01 1.500000e+00 8.000000e+00
    endloop
  endfacet
  facet normal 0.000000e+00 6.123234e-17 1.000000e+00
    outer loop
      vertex 1.900000e+01 2.650000e+01 8.000000e+00
      vertex 1.605714e+01 1.500000e+00 8.000000e+00
      vertex 1.900000e+01 1.500000e+00 8.000000e+00
    endloop
  endfacet
  facet normal 0.000000e+00 6.123234e-17 1.000000e+00
    outer loop
      vertex -1.605714e+01 3.500000e+00 8.000000e+00
      vertex -1.900000e+01 1.500000e+00 8.000000e+00
      vertex -1.605714e+01 1.500000e+00 8.000000e+00
    endloop
  endfacet
  facet normal 0.000000e+00 1.000000e+00 -6.123234e-17
    outer loop
      vertex -1.520000e+01 1.500000e+00 1.100000e+01
      vertex -1.605714e+01 1.500000e+00 8.000000e+00
      vertex -1.900000e+01 1.500000e+00 1.100000e+01
    endloop
  endfacet
  facet normal 0.000000e+00 1.000000e+00 -6.123234e-17
    outer loop
      vertex -1.900000e+01 1.500000e+00 1.100000e+01
      vertex -1.605714e+01 1.500000e+00 8.000000e+00
      vertex -1.900000e+01 1.500000e+00 8.000000e+00
    endloop
  endfacet
  facet normal 0.000000e+00 6.123234e-17 1.000000e+00
    outer loop
      vertex -1.900000e+01 1.500000e+00 1.100000e+01
      vertex -1.900000e+01 -2.900000e+01 1.100000e+01
      vertex -1.520000e+01 1.500000e+00 1.100000e+01
    endloop
  endfacet
  facet normal 0.000000e+00 6.123234e-17 1.000000e+00
    outer loop
      vertex -1.520000e+01 1.500000e+00 1.100000e+01
      vertex -1.900000e+01 -2.900000e+01 1.100000e+01
      vertex -1.520000e+01 -2.900000e+01 1.100000e+01
    endloop
  endfacet
  facet normal 0.000000e+00 -1.000000e+00 6.123234e-17
    outer loop
      vertex -1.720000e+01 -2.900000e+01 4.000000e+00
      vertex -1.900000e+01 -2.900000e+01 3.551476e-15
      vertex 1.900000e+01 -2.900000e+01 3.551476e-15
    endloop
  endfacet
  facet normal 0.000000e+00 -1.000000e+00 6.123234e-17
    outer loop
      vertex -1.720000e+01 -2.900000e+01 4.000000e+00
      vertex -1.520000e+01 -2.900000e+01 1.100000e+01
      vertex -1.900000e+01 -2.900000e+01 1.100000e+01
    endloop
  endfacet
  facet normal 0.000000e+00 -1.000000e+00 6.123234e-17
    outer loop
      vertex 1.900000e+01 -2.900000e+01 1.100000e+01
      vertex 1.520000e+01 -2.900000e+01 1.100000e+01
      vertex 1.900000e+01 -2.900000e+01 3.551476e-15
    endloop
  endfacet
  facet normal 0.000000e+00 -1.000000e+00 6.123234e-17
    outer loop
      vertex 1.520000e+01 -2.900000e+01 1.100000e+01
      vertex 1.720000e+01 -2.900000e+01 4.000000e+00
      vertex 1.900000e+01 -2.900000e+01 3.551476e-15
    endloop
  endfacet
  facet normal 0.000000e+00 -1.000000e+00 6.123234e-17
    outer loop
      vertex -1.900000e+01 -2.900000e+01 1.100000e+01
      vertex -1.900000e+01 -2.900000e+01 3.551476e-15
      vertex -1.720000e+01 -2.900000e+01 4.000000e+00
    endloop
  endfacet
  facet normal 0.000000e+00 -1.000000e+00 6.123234e-17
    outer loop
      vertex 1.720000e+01 -2.900000e+01 4.000000e+00
      vertex -1.720000e+01 -2.900000e+01 4.000000e+00
      vertex 1.900000e+01 -2.900000e+01 3.551476e-15
    endloop
  endfacet
  facet normal 1.000000e+00 0.000000e+00 0.000000e+00
    outer loop
      vertex 1.900000e+01 2.650000e+01 8.000000e+00
      vertex 1.900000e+01 2.900000e+01 0.000000e+00
      vertex 1.900000e+01 2.900000e+01 2.000000e+01
    endloop
  endfacet
  facet normal 1.000000e+00 0.000000e+00 0.000000e+00
    outer loop
      vertex 1.900000e+01 -2.900000e+01 3.551476e-15
      vertex 1.900000e+01 2.900000e+01 0.000000e+00
      vertex 1.900000e+01 2.650000e+01 8.000000e+00
    endloop
  endfacet
  facet normal 1.000000e+00 0.000000e+00 0.000000e+00
    outer loop
      vertex 1.900000e+01 1.500000e+00 8.000000e+00
      vertex 1.900000e+01 1.500000e+00 1.100000e+01
      vertex 1.900000e+01 -2.900000e+01 3.551476e-15
    endloop
  endfacet
  facet normal 1.000000e+00 0.000000e+00 0.000000e+00
    outer loop
      vertex 1.900000e+01 -2.900000e+01 3.551476e-15
      vertex 1.900000e+01 2.650000e+01 8.000000e+00
      vertex 1.900000e+01 1.500000e+00 8.000000e+00
    endloop
  endfacet
  facet normal 1.000000e+00 0.000000e+00 0.000000e+00
    outer loop
      vertex 1.900000e+01 -2.900000e+01 1.100000e+01
      vertex 1.900000e+01 -2.900000e+01 3.551476e-15
      vertex 1.900000e+01 1.500000e+00 1.100000e+01
    endloop
  endfacet
  facet normal 1.000000e+00 0.000000e+00 0.000000e+00
    outer loop
      vertex 1.900000e+01 2.650000e+01 2.000000e+01
      vertex 1.900000e+01 2.650000e+01 8.000000e+00
      vertex 1.900000e+01 2.900000e+01 2.000000e+01
    endloop
  endfacet
  facet normal 9.951848e-01 -9.801599e-02 6.001748e-18
    outer loop
      vertex -8.961571e+00 -2.360982e+01 3.221422e-15
      vertex -8.961571e+00 -2.360982e+01 4.000000e+00
      vertex -9.000000e+00 -2.400000e+01 4.000000e+00
    endloop
  endfacet
  facet normal 9.951848e-01 -9.801599e-02 6.001748e-18
    outer loop
      vertex -9.000000e+00 -2.400000e+01 3.245314e-15
      vertex -8.961571e+00 -2.360982e+01 3.221422e-15
      vertex -9.000000e+00 -2.400000e+01 4.000000e+00
    endloop
  endfacet
  facet normal 9.569399e-01 -2.902860e-01 1.777489e-17
    outer loop
      vertex -8.847759e+00 -2.323463e+01 3.198449e-15
      vertex -8.847759e+00 -2.323463e+01 4.000000e+00
      vertex -8.961571e+00 -2.360982e+01 4.000000e+00
    endloop
  endfacet
  facet normal 9.569399e-01 -2.902860e-01 1.777489e-17
    outer loop
      vertex -8.961571e+00 -2.360982e+01 3.221422e-15
      vertex -8.847759e+00 -2.323463e+01 3.198449e-15
      vertex -8.961571e+00 -2.360982e+01 4.000000e+00
    endloop
  endfacet
  facet normal 8.819207e-01 -4.713978e-01 2.886479e-17
    outer loop
      vertex -8.662939e+00 -2.288886e+01 3.177276e-15
      vertex -8.662939e+00 -2.288886e+01 4.000000e+00
      vertex -8.847759e+00 -2.323463e+01 4.000000e+00
    endloop
  endfacet
  facet normal 8.819207e-01 -4.713978e-01 2.886479e-17
    outer loop
      vertex -8.847759e+00 -2.323463e+01 3.198449e-15
      vertex -8.662939e+00 -2.288886e+01 3.177276e-15
      vertex -8.847759e+00 -2.323463e+01 4.000000e+00
    endloop
  endfacet
  facet normal 7.730122e-01 -6.343912e-01 3.884526e-17
    outer loop
      vertex -8.414214e+00 -2.258579e+01 3.158718e-15
      vertex -8.414214e+00 -2.258579e+01 4.000000e+00
      vertex -8.662939e+00 -2.288886e+01 4.000000e+00
    endloop
  endfacet
  facet normal 7.730122e-01 -6.343912e-01 3.884526e-17
    outer loop
      vertex -8.662939e+00 -2.288886e+01 3.177276e-15
      vertex -8.414214e+00 -2.258579e+01 3.158718e-15
      vertex -8.662939e+00 -2.288886e+01 4.000000e+00
    endloop
  endfacet
  facet normal 6.343912e-01 -7.730122e-01 4.733334e-17
    outer loop
      vertex -8.111140e+00 -2.233706e+01 3.143488e-15
      vertex -8.111140e+00 -2.233706e+01 4.000000e+00
      vertex -8.414214e+00 -2.258579e+01 4.000000e+00
    endloop
  endfacet
  facet normal 6.343912e-01 -7.730122e-01 4.733334e-17
    outer loop
      vertex -8.414214e+00 -2.258579e+01 3.158718e-15
      vertex -8.111140e+00 -2.233706e+01 3.143488e-15
      vertex -8.414214e+00 -2.258579e+01 4.000000e+00
    endloop
  endfacet
  facet normal 4.713978e-01 -8.819207e-01 5.400207e-17
    outer loop
      vertex -7.765367e+00 -2.215224e+01 3.132171e-15
      vertex -7.765367e+00 -2.215224e+01 4.000000e+00
      vertex -8.111140e+00 -2.233706e+01 4.000000e+00
    endloop
  endfacet
  facet normal 4.713978e-01 -8.819207e-01 5.400207e-17
    outer loop
      vertex -8.111140e+00 -2.233706e+01 3.143488e-15
      vertex -7.765367e+00 -2.215224e+01 3.132171e-15
      vertex -8.111140e+00 -2.233706e+01 4.000000e+00
    endloop
  endfacet
  facet normal 2.902860e-01 -9.569399e-01 5.859567e-17
    outer loop
      vertex -7.390181e+00 -2.203843e+01 3.125202e-15
      vertex -7.390181e+00 -2.203843e+01 4.000000e+00
      vertex -7.765367e+00 -2.215224e+01 4.000000e+00
    endloop
  endfacet
  facet normal 2.902860e-01 -9.569399e-01 5.859567e-17
    outer loop
      vertex -7.765367e+00 -2.215224e+01 3.132171e-15
      vertex -7.390181e+00 -2.203843e+01 3.125202e-15
      vertex -7.765367e+00 -2.215224e+01 4.000000e+00
    endloop
  endfacet
  facet normal 9.801599e-02 -9.951848e-01 6.093750e-17
    outer loop
      vertex -7.000000e+00 -2.200000e+01 3.122849e-15
      vertex -7.000000e+00 -2.200000e+01 4.000000e+00
      vertex -7.390181e+00 -2.203843e+01 4.000000e+00
    endloop
  endfacet
  facet normal 9.801599e-02 -9.951848e-01 6.093750e-17
    outer loop
      vertex -7.390181e+00 -2.203843e+01 3.125202e-15
      vertex -7.000000e+00 -2.200000e+01 3.122849e-15
      vertex -7.390181e+00 -2.203843e+01 4.000000e+00
    endloop
  endfacet
  facet normal -9.801599e-02 -9.951848e-01 6.093750e-17
    outer loop
      vertex -6.609819e+00 -2.203843e+01 3.125202e-15
      vertex -6.609819e+00 -2.203843e+01 4.000000e+00
      vertex -7.000000e+00 -2.200000e+01 4.000000e+00
    endloop
  endfacet
  facet normal -9.801599e-02 -9.951848e-01 6.093750e-17
    outer loop
      vertex -7.000000e+00 -2.200000e+01 3.122849e-15
      vertex -6.609819e+00 -2.203843e+01 3.125202e-15
      vertex -7.000000e+00 -2.200000e+01 4.000000e+00
    endloop
  endfacet
  facet normal -2.902860e-01 -9.569399e-01 5.859567e-17
    outer loop
      vertex -6.234633e+00 -2.215224e+01 3.132171e-15
      vertex -6.234633e+00 -2.215224e+01 4.000000e+00
      vertex -6.609819e+00 -2.203843e+01 4.000000e+00
    endloop
  endfacet
  facet normal -2.902860e-01 -9.569399e-01 5.859567e-17
    outer loop
      vertex -6.609819e+00 -2.203843e+01 3.125202e-15
      vertex -6.234633e+00 -2.215224e+01 3.132171e-15
      vertex -6.609819e+00 -2.203843e+01 4.000000e+00
    endloop
  endfacet
  facet normal -4.713978e-01 -8.819207e-01 5.400207e-17
    outer loop
      vertex -5.888860e+00 -2.233706e+01 3.143488e-15
      vertex -5.888860e+00 -2.233706e+01 4.000000e+00
      vertex -6.234633e+00 -2.215224e+01 4.000000e+00
    endloop
  endfacet
  facet normal -4.713978e-01 -8.819207e-01 5.400207e-17
    outer loop
      vertex -6.234633e+00 -2.215224e+01 3.132171e-15
      vertex -5.888860e+00 -2.233706e+01 3.143488e-15
      vertex -6.234633e+00 -2.215224e+01 4.000000e+00
    endloop
  endfacet
  facet normal -6.343912e-01 -7.730122e-01 4.733334e-17
    outer loop
      vertex -5.585786e+00 -2.258579e+01 3.158718e-15
      vertex -5.585786e+00 -2.258579e+01 4.000000e+00
      vertex -5.888860e+00 -2.233706e+01 4.000000e+00
    endloop
  endfacet
  facet normal -6.343912e-01 -7.730122e-01 4.733334e-17
    outer loop
      vertex -5.888860e+00 -2.233706e+01 3.143488e-15
      vertex -5.585786e+00 -2.258579e+01 3.158718e-15
      vertex -5.888860e+00 -2.233706e+01 4.000000e+00
    endloop
  endfacet
  facet normal -7.730122e-01 -6.343912e-01 3.884526e-17
    outer loop
      vertex -5.337061e+00 -2.288886e+01 4.000000e+00
      vertex -5.585786e+00 -2.258579e+01 4.000000e+00
      vertex -5.337061e+00 -2.288886e+01 3.177276e-15
    endloop
  endfacet
  facet normal -7.730122e-01 -6.343912e-01 3.884526e-17
    outer loop
      vertex -5.337061e+00 -2.288886e+01 3.177276e-15
      vertex -5.585786e+00 -2.258579e+01 4.000000e+00
      vertex -5.585786e+00 -2.258579e+01 3.158718e-15
    endloop
  endfacet
  facet normal -8.819207e-01 -4.713978e-01 2.886479e-17
    outer loop
      vertex -5.152241e+00 -2.323463e+01 4.000000e+00
      vertex -5.337061e+00 -2.288886e+01 4.000000e+00
      vertex -5.152241e+00 -2.323463e+01 3.198449e-15
    endloop
  endfacet
  facet normal -8.819207e-01 -4.713978e-01 2.886479e-17
    outer loop
      vertex -5.152241e+00 -2.323463e+01 3.198449e-15
      vertex -5.337061e+00 -2.288886e+01 4.000000e+00
      vertex -5.337061e+00 -2.288886e+01 3.177276e-15
    endloop
  endfacet
  facet normal -9.569399e-01 -2.902860e-01 1.777489e-17
    outer loop
      vertex -5.038429e+00 -2.360982e+01 4.000000e+00
      vertex -5.152241e+00 -2.323463e+01 4.000000e+00
      vertex -5.038429e+00 -2.360982e+01 3.221422e-15
    endloop
  endfacet
  facet normal -9.569399e-01 -2.902860e-01 1.777489e-17
    outer loop
      vertex -5.038429e+00 -2.360982e+01 3.221422e-15
      vertex -5.152241e+00 -2.323463e+01 4.000000e+00
      vertex -5.152241e+00 -2.323463e+01 3.198449e-15
    endloop
  endfacet
  facet normal -9.951848e-01 -9.801599e-02 6.001748e-18
    outer loop
      vertex -5.000000e+00 -2.400000e+01 4.000000e+00
      vertex -5.038429e+00 -2.360982e+01 4.000000e+00
      vertex -5.000000e+00 -2.400000e+01 3.245314e-15
    endloop
  endfacet
  facet normal -9.951848e-01 -9.801599e-02 6.001748e-18
    outer loop
      vertex -5.000000e+00 -2.400000e+01 3.245314e-15
      vertex -5.038429e+00 -2.360982e+01 4.000000e+00
      vertex -5.038429e+00 -2.360982e+01 3.221422e-15
    endloop
  endfacet
  facet normal -9.951848e-01 9.801599e-02 -6.001748e-18
    outer loop
      vertex -5.000000e+00 -2.400000e+01 4.000000e+00
      vertex -5.000000e+00 -2.400000e+01 3.245314e-15
      vertex -5.038429e+00 -2.439018e+01 4.000000e+00
    endloop
  endfacet
  facet normal -9.951848e-01 9.801599e-02 -6.001748e-18
    outer loop
      vertex -5.038429e+00 -2.439018e+01 4.000000e+00
      vertex -5.000000e+00 -2.400000e+01 3.245314e-15
      vertex -5.038429e+00 -2.439018e+01 3.269206e-15
    endloop
  endfacet
  facet normal -9.569399e-01 2.902860e-01 -1.777489e-17
    outer loop
      vertex -5.038429e+00 -2.439018e+01 4.000000e+00
      vertex -5.038429e+00 -2.439018e+01 3.269206e-15
      vertex -5.152241e+00 -2.476537e+01 4.000000e+00
    endloop
  endfacet
  facet normal -9.569399e-01 2.902860e-01 -1.777489e-17
    outer loop
      vertex -5.152241e+00 -2.476537e+01 4.000000e+00
      vertex -5.038429e+00 -2.439018e+01 3.269206e-15
      vertex -5.152241e+00 -2.476537e+01 3.292179e-15
    endloop
  endfacet
  facet normal -8.819207e-01 4.713978e-01 -2.886479e-17
    outer loop
      vertex -5.152241e+00 -2.476537e+01 4.000000e+00
      vertex -5.152241e+00 -2.476537e+01 3.292179e-15
      vertex -5.337061e+00 -2.511114e+01 4.000000e+00
    endloop
  endfacet
  facet normal -8.819207e-01 4.713978e-01 -2.886479e-17
    outer loop
      vertex -5.337061e+00 -2.511114e+01 4.000000e+00
      vertex -5.152241e+00 -2.476537e+01 3.292179e-15
      vertex -5.337061e+00 -2.511114e+01 3.313352e-15
    endloop
  endfacet
  facet normal -7.730122e-01 6.343912e-01 -3.884526e-17
    outer loop
      vertex -5.337061e+00 -2.511114e+01 4.000000e+00
      vertex -5.337061e+00 -2.511114e+01 3.313352e-15
      vertex -5.585786e+00 -2.541421e+01 4.000000e+00
    endloop
  endfacet
  facet normal -7.730122e-01 6.343912e-01 -3.884526e-17
    outer loop
      vertex -5.585786e+00 -2.541421e+01 4.000000e+00
      vertex -5.337061e+00 -2.511114e+01 3.313352e-15
      vertex -5.585786e+00 -2.541421e+01 3.331910e-15
    endloop
  endfacet
  facet normal -6.343912e-01 7.730122e-01 -4.733334e-17
    outer loop
      vertex -5.585786e+00 -2.541421e+01 4.000000e+00
      vertex -5.585786e+00 -2.541421e+01 3.331910e-15
      vertex -5.888860e+00 -2.566294e+01 4.000000e+00
    endloop
  endfacet
  facet normal -6.343912e-01 7.730122e-01 -4.733334e-17
    outer loop
      vertex -5.888860e+00 -2.566294e+01 4.000000e+00
      vertex -5.585786e+00 -2.541421e+01 3.331910e-15
      vertex -5.888860e+00 -2.566294e+01 3.347140e-15
    endloop
  endfacet
  facet normal -4.713978e-01 8.819207e-01 -5.400207e-17
    outer loop
      vertex -5.888860e+00 -2.566294e+01 4.000000e+00
      vertex -5.888860e+00 -2.566294e+01 3.347140e-15
      vertex -6.234633e+00 -2.584776e+01 4.000000e+00
    endloop
  endfacet
  facet normal -4.713978e-01 8.819207e-01 -5.400207e-17
    outer loop
      vertex -6.234633e+00 -2.584776e+01 4.000000e+00
      vertex -5.888860e+00 -2.566294e+01 3.347140e-15
      vertex -6.234633e+00 -2.584776e+01 3.358457e-15
    endloop
  endfacet
  facet normal -2.902860e-01 9.569399e-01 -5.859567e-17
    outer loop
      vertex -6.234633e+00 -2.584776e+01 4.000000e+00
      vertex -6.234633e+00 -2.584776e+01 3.358457e-15
      vertex -6.609819e+00 -2.596157e+01 4.000000e+00
    endloop
  endfacet
  facet normal -2.902860e-01 9.569399e-01 -5.859567e-17
    outer loop
      vertex -6.609819e+00 -2.596157e+01 4.000000e+00
      vertex -6.234633e+00 -2.584776e+01 3.358457e-15
      vertex -6.609819e+00 -2.596157e+01 3.365426e-15
    endloop
  endfacet
  facet normal -9.801599e-02 9.951848e-01 -6.093750e-17
    outer loop
      vertex -6.609819e+00 -2.596157e+01 4.000000e+00
      vertex -6.609819e+00 -2.596157e+01 3.365426e-15
      vertex -7.000000e+00 -2.600000e+01 4.000000e+00
    endloop
  endfacet
  facet normal -9.801599e-02 9.951848e-01 -6.093750e-17
    outer loop
      vertex -7.000000e+00 -2.600000e+01 4.000000e+00
      vertex -6.609819e+00 -2.596157e+01 3.365426e-15
      vertex -7.000000e+00 -2.600000e+01 3.367779e-15
    endloop
  endfacet
  facet normal 9.801599e-02 9.951848e-01 -6.093750e-17
    outer loop
      vertex -7.000000e+00 -2.600000e+01 4.000000e+00
      vertex -7.000000e+00 -2.600000e+01 3.367779e-15
      vertex -7.390181e+00 -2.596157e+01 4.000000e+00
    endloop
  endfacet
  facet normal 9.801599e-02 9.951848e-01 -6.093750e-17
    outer loop
      vertex -7.390181e+00 -2.596157e+01 4.000000e+00
      vertex -7.000000e+00 -2.600000e+01 3.367779e-15
      vertex -7.390181e+00 -2.596157e+01 3.365426e-15
    endloop
  endfacet
  facet normal 2.902860e-01 9.569399e-01 -5.859567e-17
    outer loop
      vertex -7.390181e+00 -2.596157e+01 4.000000e+00
      vertex -7.390181e+00 -2.596157e+01 3.365426e-15
      vertex -7.765367e+00 -2.584776e+01 4.000000e+00
    endloop
  endfacet
  facet normal 2.902860e-01 9.569399e-01 -5.859567e-17
    outer loop
      vertex -7.765367e+00 -2.584776e+01 4.000000e+00
      vertex -7.390181e+00 -2.596157e+01 3.365426e-15
      vertex -7.765367e+00 -2.584776e+01 3.358457e-15
    endloop
  endfacet
  facet normal 4.713978e-01 8.819207e-01 -5.400207e-17
    outer loop
      vertex -7.765367e+00 -2.584776e+01 4.000000e+00
      vertex -7.765367e+00 -2.584776e+01 3.358457e-15
      vertex -8.111140e+00 -2.566294e+01 4.000000e+00
    endloop
  endfacet
  facet normal 4.713978e-01 8.819207e-01 -5.400207e-17
    outer loop
      vertex -8.111140e+00 -2.566294e+01 4.000000e+00
      vertex -7.765367e+00 -2.584776e+01 3.358457e-15
      vertex -8.111140e+00 -2.566294e+01 3.347140e-15
    endloop
  endfacet
  facet normal 6.343912e-01 7.730122e-01 -4.733334e-17
    outer loop
      vertex -8.111140e+00 -2.566294e+01 4.000000e+00
      vertex -8.111140e+00 -2.566294e+01 3.347140e-15
      vertex -8.414214e+00 -2.541421e+01 4.000000e+00
    endloop
  endfacet
  facet normal 6.343912e-01 7.730122e-01 -4.733334e-17
    outer loop
      vertex -8.414214e+00 -2.541421e+01 4.000000e+00
      vertex -8.111140e+00 -2.566294e+01 3.347140e-15
      vertex -8.414214e+00 -2.541421e+01 3.331910e-15
    endloop
  endfacet
  facet normal 7.730122e-01 6.343912e-01 -3.884526e-17
    outer loop
      vertex -8.662939e+00 -2.511114e+01 4.000000e+00
      vertex -8.414214e+00 -2.541421e+01 4.000000e+00
      vertex -8.414214e+00 -2.541421e+01 3.331910e-15
    endloop
  endfacet
  facet normal 7.730122e-01 6.343912e-01 -3.884526e-17
    outer loop
      vertex -8.662939e+00 -2.511114e+01 3.313352e-15
      vertex -8.662939e+00 -2.511114e+01 4.000000e+00
      vertex -8.414214e+00 -2.541421e+01 3.331910e-15
    endloop
  endfacet
  facet normal 8.819207e-01 4.713978e-01 -2.886479e-17
    outer loop
      vertex -8.847759e+00 -2.476537e+01 4.000000e+00
      vertex -8.662939e+00 -2.511114e+01 4.000000e+00
      vertex -8.662939e+00 -2.511114e+01 3.313352e-15
    endloop
  endfacet
  facet normal 8.819207e-01 4.713978e-01 -2.886479e-17
    outer loop
      vertex -8.847759e+00 -2.476537e+01 3.292179e-15
      vertex -8.847759e+00 -2.476537e+01 4.000000e+00
      vertex -8.662939e+00 -2.511114e+01 3.313352e-15
    endloop
  endfacet
  facet normal 9.569399e-01 2.902860e-01 -1.777489e-17
    outer loop
      vertex -8.961571e+00 -2.439018e+01 4.000000e+00
      vertex -8.847759e+00 -2.476537e+01 4.000000e+00
      vertex -8.847759e+00 -2.476537e+01 3.292179e-15
    endloop
  endfacet
  facet normal 9.569399e-01 2.902860e-01 -1.777489e-17
    outer loop
      vertex -8.961571e+00 -2.439018e+01 3.269206e-15
      vertex -8.961571e+00 -2.439018e+01 4.000000e+00
      vertex -8.847759e+00 -2.476537e+01 3.292179e-15
    endloop
  endfacet
  facet normal 9.951848e-01 9.801599e-02 -6.001748e-18
    outer loop
      vertex -9.000000e+00 -2.400000e+01 4.000000e+00
      vertex -8.961571e+00 -2.439018e+01 4.000000e+00
      vertex -8.961571e+00 -2.439018e+01 3.269206e-15
    endloop
  endfacet
  facet normal 9.951848e-01 9.801599e-02 -6.001748e-18
    outer loop
      vertex -9.000000e+00 -2.400000e+01 3.245314e-15
      vertex -9.000000e+00 -2.400000e+01 4.000000e+00
      vertex -8.961571e+00 -2.439018e+01 3.269206e-15
    endloop
  endfacet
  facet normal 9.951848e-01 -9.801599e-02 6.001748e-18
    outer loop
      vertex 5.038429e+00 -2.360982e+01 3.221422e-15
      vertex 5.038429e+00 -2.360982e+01 4.000000e+00
      vertex 5.000000e+00 -2.400000e+01 4.000000e+00
    endloop
  endfacet
  facet normal 9.951848e-01 -9.801599e-02 6.001748e-18
    outer loop
      vertex 5.000000e+00 -2.400000e+01 3.245314e-15
      vertex 5.038429e+00 -2.360982e+01 3.221422e-15
      vertex 5.000000e+00 -2.400000e+01 4.000000e+00
    endloop
  endfacet
  facet normal 9.569399e-01 -2.902860e-01 1.777489e-17
    outer loop
      vertex 5.152241e+00 -2.323463e+01 3.198449e-15
      vertex 5.152241e+00 -2.323463e+01 4.000000e+00
      vertex 5.038429e+00 -2.360982e+01 4.000000e+00
    endloop
  endfacet
  facet normal 9.569399e-01 -2.902860e-01 1.777489e-17
    outer loop
      vertex 5.038429e+00 -2.360982e+01 3.221422e-15
      vertex 5.152241e+00 -2.323463e+01 3.198449e-15
      vertex 5.038429e+00 -2.360982e+01 4.000000e+00
    endloop
  endfacet
  facet normal 8.819207e-01 -4.713978e-01 2.886479e-17
    outer loop
      vertex 5.337061e+00 -2.288886e+01 3.177276e-15
      vertex 5.337061e+00 -2.288886e+01 4.000000e+00
      vertex 5.152241e+00 -2.323463e+01 4.000000e+00
    endloop
  endfacet
  facet normal 8.819207e-01 -4.713978e-01 2.886479e-17
    outer loop
      vertex 5.152241e+00 -2.323463e+01 3.198449e-15
      vertex 5.337061e+00 -2.288886e+01 3.177276e-15
      vertex 5.152241e+00 -2.323463e+01 4.000000e+00
    endloop
  endfacet
  facet normal 7.730122e-01 -6.343912e-01 3.884526e-17
    outer loop
      vertex 5.585787e+00 -2.258579e+01 3.158718e-15
      vertex 5.585787e+00 -2.258579e+01 4.000000e+00
      vertex 5.337061e+00 -2.288886e+01 4.000000e+00
    endloop
  endfacet
  facet normal 7.730122e-01 -6.343912e-01 3.884526e-17
    outer loop
      vertex 5.337061e+00 -2.288886e+01 3.177276e-15
      vertex 5.585787e+00 -2.258579e+01 3.158718e-15
      vertex 5.337061e+00 -2.288886e+01 4.000000e+00
    endloop
  endfacet
  facet normal 6.343912e-01 -7.730122e-01 4.733334e-17
    outer loop
      vertex 5.888861e+00 -2.233706e+01 3.143488e-15
      vertex 5.888861e+00 -2.233706e+01 4.000000e+00
      vertex 5.585787e+00 -2.258579e+01 4.000000e+00
    endloop
  endfacet
  facet normal 6.343912e-01 -7.730122e-01 4.733334e-17
    outer loop
      vertex 5.585787e+00 -2.258579e+01 3.158718e-15
      vertex 5.888861e+00 -2.233706e+01 3.143488e-15
      vertex 5.585787e+00 -2.258579e+01 4.000000e+00
    endloop
  endfacet
  facet normal 4.713978e-01 -8.819207e-01 5.400207e-17
    outer loop
      vertex 6.234632e+00 -2.215224e+01 3.132171e-15
      vertex 6.234632e+00 -2.215224e+01 4.000000e+00
      vertex 5.888861e+00 -2.233706e+01 4.000000e+00
    endloop
  endfacet
  facet normal 4.713978e-01 -8.819207e-01 5.400207e-17
    outer loop
      vertex 5.888861e+00 -2.233706e+01 3.143488e-15
      vertex 6.234632e+00 -2.215224e+01 3.132171e-15
      vertex 5.888861e+00 -2.233706e+01 4.000000e+00
    endloop
  endfacet
  facet normal 2.902860e-01 -9.569399e-01 5.859567e-17
    outer loop
      vertex 6.609819e+00 -2.203843e+01 3.125202e-15
      vertex 6.609819e+00 -2.203843e+01 4.000000e+00
      vertex 6.234632e+00 -2.215224e+01 4.000000e+00
    endloop
  endfacet
  facet normal 2.902860e-01 -9.569399e-01 5.859567e-17
    outer loop
      vertex 6.234632e+00 -2.215224e+01 3.132171e-15
      vertex 6.609819e+00 -2.203843e+01 3.125202e-15
      vertex 6.234632e+00 -2.215224e+01 4.000000e+00
    endloop
  endfacet
  facet normal 9.801599e-02 -9.951848e-01 6.093750e-17
    outer loop
      vertex 7.000000e+00 -2.200000e+01 3.122849e-15
      vertex 7.000000e+00 -2.200000e+01 4.000000e+00
      vertex 6.609819e+00 -2.203843e+01 4.000000e+00
    endloop
  endfacet
  facet normal 9.801599e-02 -9.951848e-01 6.093750e-17
    outer loop
      vertex 6.609819e+00 -2.203843e+01 3.125202e-15
      vertex 7.000000e+00 -2.200000e+01 3.122849e-15
      vertex 6.609819e+00 -2.203843e+01 4.000000e+00
    endloop
  endfacet
  facet normal -9.801599e-02 -9.951848e-01 6.093750e-17
    outer loop
      vertex 7.390181e+00 -2.203843e+01 3.125202e-15
      vertex 7.390181e+00 -2.203843e+01 4.000000e+00
      vertex 7.000000e+00 -2.200000e+01 4.000000e+00
    endloop
  endfacet
  facet normal -9.801599e-02 -9.951848e-01 6.093750e-17
    outer loop
      vertex 7.000000e+00 -2.200000e+01 3.122849e-15
      vertex 7.390181e+00 -2.203843e+01 3.125202e-15
      vertex 7.000000e+00 -2.200000e+01 4.000000e+00
    endloop
  endfacet
  facet normal -2.902860e-01 -9.569399e-01 5.859567e-17
    outer loop
      vertex 7.765368e+00 -2.215224e+01 3.132171e-15
      vertex 7.765368e+00 -2.215224e+01 4.000000e+00
      vertex 7.390181e+00 -2.203843e+01 4.000000e+00
    endloop
  endfacet
  facet normal -2.902860e-01 -9.569399e-01 5.859567e-17
    outer loop
      vertex 7.390181e+00 -2.203843e+01 3.125202e-15
      vertex 7.765368e+00 -2.215224e+01 3.132171e-15
      vertex 7.390181e+00 -2.203843e+01 4.000000e+00
    endloop
  endfacet
  facet normal -4.713978e-01 -8.819207e-01 5.400207e-17
    outer loop
      vertex 8.111139e+00 -2.233706e+01 3.143488e-15
      vertex 8.111139e+00 -2.233706e+01 4.000000e+00
      vertex 7.765368e+00 -2.215224e+01 4.000000e+00
    endloop
  endfacet
  facet normal -4.713978e-01 -8.819207e-01 5.400207e-17
    outer loop
      vertex 7.765368e+00 -2.215224e+01 3.132171e-15
      vertex 8.111139e+00 -2.233706e+01 3.143488e-15
      vertex 7.765368e+00 -2.215224e+01 4.000000e+00
    endloop
  endfacet
  facet normal -6.343912e-01 -7.730122e-01 4.733334e-17
    outer loop
      vertex 8.414213e+00 -2.258579e+01 3.158718e-15
      vertex 8.414213e+00 -2.258579e+01 4.000000e+00
      vertex 8.111139e+00 -2.233706e+01 4.000000e+00
    endloop
  endfacet
  facet normal -6.343912e-01 -7.730122e-01 4.733334e-17
    outer loop
      vertex 8.111139e+00 -2.233706e+01 3.143488e-15
      vertex 8.414213e+00 -2.258579e+01 3.158718e-15
      vertex 8.111139e+00 -2.233706e+01 4.000000e+00
    endloop
  endfacet
  facet normal -7.730122e-01 -6.343912e-01 3.884526e-17
    outer loop
      vertex 8.662939e+00 -2.288886e+01 4.000000e+00
      vertex 8.414213e+00 -2.258579e+01 4.000000e+00
      vertex 8.662939e+00 -2.288886e+01 3.177276e-15
    endloop
  endfacet
  facet normal -7.730122e-01 -6.343912e-01 3.884526e-17
    outer loop
      vertex 8.662939e+00 -2.288886e+01 3.177276e-15
      vertex 8.414213e+00 -2.258579e+01 4.000000e+00
      vertex 8.414213e+00 -2.258579e+01 3.158718e-15
    endloop
  endfacet
  facet normal -8.819207e-01 -4.713978e-01 2.886479e-17
    outer loop
      vertex 8.847759e+00 -2.323463e+01 4.000000e+00
      vertex 8.662939e+00 -2.288886e+01 4.000000e+00
      vertex 8.847759e+00 -2.323463e+01 3.198449e-15
    endloop
  endfacet
  facet normal -8.819207e-01 -4.713978e-01 2.886479e-17
    outer loop
      vertex 8.847759e+00 -2.323463e+01 3.198449e-15
      vertex 8.662939e+00 -2.288886e+01 4.000000e+00
      vertex 8.662939e+00 -2.288886e+01 3.177276e-15
    endloop
  endfacet
  facet normal -9.569399e-01 -2.902860e-01 1.777489e-17
    outer loop
      vertex 8.961571e+00 -2.360982e+01 4.000000e+00
      vertex 8.847759e+00 -2.323463e+01 4.000000e+00
      vertex 8.961571e+00 -2.360982e+01 3.221422e-15
    endloop
  endfacet
  facet normal -9.569399e-01 -2.902860e-01 1.777489e-17
    outer loop
      vertex 8.961571e+00 -2.360982e+01 3.221422e-15
      vertex 8.847759e+00 -2.323463e+01 4.000000e+00
      vertex 8.847759e+00 -2.323463e+01 3.198449e-15
    endloop
  endfacet
  facet normal -9.951848e-01 -9.801599e-02 6.001748e-18
    outer loop
      vertex 9.000000e+00 -2.400000e+01 4.000000e+00
      vertex 8.961571e+00 -2.360982e+01 4.000000e+00
      vertex 9.000000e+00 -2.400000e+01 3.245314e-15
    endloop
  endfacet
  facet normal -9.951848e-01 -9.801599e-02 6.001748e-18
    outer loop
      vertex 9.000000e+00 -2.400000e+01 3.245314e-15
      vertex 8.961571e+00 -2.360982e+01 4.000000e+00
      vertex 8.961571e+00 -2.360982e+01 3.221422e-15
    endloop
  endfacet
  facet normal -9.951848e-01 9.801599e-02 -6.001748e-18
    outer loop
      vertex 9.000000e+00 -2.400000e+01 4.000000e+00
      vertex 9.000000e+00 -2.400000e+01 3.245314e-15
      vertex 8.961571e+00 -2.439018e+01 4.000000e+00
    endloop
  endfacet
  facet normal -9.951848e-01 9.801599e-02 -6.001748e-18
    outer loop
      vertex 8.961571e+00 -2.439018e+01 4.000000e+00
      vertex 9.000000e+00 -2.400000e+01 3.245314e-15
      vertex 8.961571e+00 -2.439018e+01 3.269206e-15
    endloop
  endfacet
  facet normal -9.569399e-01 2.902860e-01 -1.777489e-17
    outer loop
      vertex 8.961571e+00 -2.439018e+01 4.000000e+00
      vertex 8.961571e+00 -2.439018e+01 3.269206e-15
      vertex 8.847759e+00 -2.476537e+01 4.000000e+00
    endloop
  endfacet
  facet normal -9.569399e-01 2.902860e-01 -1.777489e-17
    outer loop
      vertex 8.847759e+00 -2.476537e+01 4.000000e+00
      vertex 8.961571e+00 -2.439018e+01 3.269206e-15
      vertex 8.847759e+00 -2.476537e+01 3.292179e-15
    endloop
  endfacet
  facet normal -8.819207e-01 4.713978e-01 -2.886479e-17
    outer loop
      vertex 8.847759e+00 -2.476537e+01 4.000000e+00
      vertex 8.847759e+00 -2.476537e+01 3.292179e-15
      vertex 8.662939e+00 -2.511114e+01 4.000000e+00
    endloop
  endfacet
  facet normal -8.819207e-01 4.713978e-01 -2.886479e-17
    outer loop
      vertex 8.662939e+00 -2.511114e+01 4.000000e+00
      vertex 8.847759e+00 -2.476537e+01 3.292179e-15
      vertex 8.662939e+00 -2.511114e+01 3.313352e-15
    endloop
  endfacet
  facet normal -7.730122e-01 6.343912e-01 -3.884526e-17
    outer loop
      vertex 8.662939e+00 -2.511114e+01 4.000000e+00
      vertex 8.662939e+00 -2.511114e+01 3.313352e-15
      vertex 8.414213e+00 -2.541421e+01 4.000000e+00
    endloop
  endfacet
  facet normal -7.730122e-01 6.343912e-01 -3.884526e-17
    outer loop
      vertex 8.414213e+00 -2.541421e+01 4.000000e+00
      vertex 8.662939e+00 -2.511114e+01 3.313352e-15
      vertex 8.414213e+00 -2.541421e+01 3.331910e-15
    endloop
  endfacet
  facet normal -6.343912e-01 7.730122e-01 -4.733334e-17
    outer loop
      vertex 8.414213e+00 -2.541421e+01 4.000000e+00
      vertex 8.414213e+00 -2.541421e+01 3.331910e-15
      vertex 8.111139e+00 -2.566294e+01 4.000000e+00
    endloop
  endfacet
  facet normal -6.343912e-01 7.730122e-01 -4.733334e-17
    outer loop
      vertex 8.111139e+00 -2.566294e+01 4.000000e+00
      vertex 8.414213e+00 -2.541421e+01 3.331910e-15
      vertex 8.111139e+00 -2.566294e+01 3.347140e-15
    endloop
  endfacet
  facet normal -4.713978e-01 8.819207e-01 -5.400207e-17
    outer loop
      vertex 8.111139e+00 -2.566294e+01 4.000000e+00
      vertex 8.111139e+00 -2.566294e+01 3.347140e-15
      vertex 7.765368e+00 -2.584776e+01 4.000000e+00
    endloop
  endfacet
  facet normal -4.713978e-01 8.819207e-01 -5.400207e-17
    outer loop
      vertex 7.765368e+00 -2.584776e+01 4.000000e+00
      vertex 8.111139e+00 -2.566294e+01 3.347140e-15
      vertex 7.765368e+00 -2.584776e+01 3.358457e-15
    endloop
  endfacet
  facet normal -2.902860e-01 9.569399e-01 -5.859567e-17
    outer loop
      vertex 7.765368e+00 -2.584776e+01 4.000000e+00
      vertex 7.765368e+00 -2.584776e+01 3.358457e-15
      vertex 7.390181e+00 -2.596157e+01 4.000000e+00
    endloop
  endfacet
  facet normal -2.902860e-01 9.569399e-01 -5.859567e-17
    outer loop
      vertex 7.390181e+00 -2.596157e+01 4.000000e+00
      vertex 7.765368e+00 -2.584776e+01 3.358457e-15
      vertex 7.390181e+00 -2.596157e+01 3.365426e-15
    endloop
  endfacet
  facet normal -9.801599e-02 9.951848e-01 -6.093750e-17
    outer loop
      vertex 7.390181e+00 -2.596157e+01 4.000000e+00
      vertex 7.390181e+00 -2.596157e+01 3.365426e-15
      vertex 7.000000e+00 -2.600000e+01 4.000000e+00
    endloop
  endfacet
  facet normal -9.801599e-02 9.951848e-01 -6.093750e-17
    outer loop
      vertex 7.000000e+00 -2.600000e+01 4.000000e+00
      vertex 7.390181e+00 -2.596157e+01 3.365426e-15
      vertex 7.000000e+00 -2.600000e+01 3.367779e-15
    endloop
  endfacet
  facet normal 9.801599e-02 9.951848e-01 -6.093750e-17
    outer loop
      vertex 7.000000e+00 -2.600000e+01 4.000000e+00
      vertex 7.000000e+00 -2.600000e+01 3.367779e-15
      vertex 6.609819e+00 -2.596157e+01 4.000000e+00
    endloop
  endfacet
  facet normal 9.801599e-02 9.951848e-01 -6.093750e-17
    outer loop
      vertex 6.609819e+00 -2.596157e+01 4.000000e+00
      vertex 7.000000e+00 -2.600000e+01 3.367779e-15
      vertex 6.609819e+00 -2.596157e+01 3.365426e-15
    endloop
  endfacet
  facet normal 2.902860e-01 9.569399e-01 -5.859567e-17
    outer loop
      vertex 6.609819e+00 -2.596157e+01 4.000000e+00
      vertex 6.609819e+00 -2.596157e+01 3.365426e-15
      vertex 6.234632e+00 -2.584776e+01 4.000000e+00
    endloop
  endfacet
  facet normal 2.902860e-01 9.569399e-01 -5.859567e-17
    outer loop
      vertex 6.234632e+00 -2.584776e+01 4.000000e+00
      vertex 6.609819e+00 -2.596157e+01 3.365426e-15
      vertex 6.234632e+00 -2.584776e+01 3.358457e-15
    endloop
  endfacet
  facet normal 4.713978e-01 8.819207e-01 -5.400207e-17
    outer loop
      vertex 6.234632e+00 -2.584776e+01 4.000000e+00
      vertex 6.234632e+00 -2.584776e+01 3.358457e-15
      vertex 5.888861e+00 -2.566294e+01 4.000000e+00
    endloop
  endfacet
  facet normal 4.713978e-01 8.819207e-01 -5.400207e-17
    outer loop
      vertex 5.888861e+00 -2.566294e+01 4.000000e+00
      vertex 6.234632e+00 -2.584776e+01 3.358457e-15
      vertex 5.888861e+00 -2.566294e+01 3.347140e-15
    endloop
  endfacet
  facet normal 6.343912e-01 7.730122e-01 -4.733334e-17
    outer loop
      vertex 5.888861e+00 -2.566294e+01 4.000000e+00
      vertex 5.888861e+00 -2.566294e+01 3.347140e-15
      vertex 5.585787e+00 -2.541421e+01 4.000000e+00
    endloop
  endfacet
  facet normal 6.343912e-01 7.730122e-01 -4.733334e-17
    outer loop
      vertex 5.585787e+00 -2.541421e+01 4.000000e+00
      vertex 5.888861e+00 -2.566294e+01 3.347140e-15
      vertex 5.585787e+00 -2.541421e+01 3.331910e-15
    endloop
  endfacet
  facet normal 7.730122e-01 6.343912e-01 -3.884526e-17
    outer loop
      vertex 5.337061e+00 -2.511114e+01 4.000000e+00
      vertex 5.585787e+00 -2.541421e+01 4.000000e+00
      vertex 5.585787e+00 -2.541421e+01 3.331910e-15
    endloop
  endfacet
  facet normal 7.730122e-01 6.343912e-01 -3.884526e-17
    outer loop
      vertex 5.337061e+00 -2.511114e+01 3.313352e-15
      vertex 5.337061e+00 -2.511114e+01 4.000000e+00
      vertex 5.585787e+00 -2.541421e+01 3.331910e-15
    endloop
  endfacet
  facet normal 8.819207e-01 4.713978e-01 -2.886479e-17
    outer loop
      vertex 5.152241e+00 -2.476537e+01 4.000000e+00
      vertex 5.337061e+00 -2.511114e+01 4.000000e+00
      vertex 5.337061e+00 -2.511114e+01 3.313352e-15
    endloop
  endfacet
  facet normal 8.819207e-01 4.713978e-01 -2.886479e-17
    outer loop
      vertex 5.152241e+00 -2.476537e+01 3.292179e-15
      vertex 5.152241e+00 -2.476537e+01 4.000000e+00
      vertex 5.337061e+00 -2.511114e+01 3.313352e-15
    endloop
  endfacet
  facet normal 9.569399e-01 2.902860e-01 -1.777489e-17
    outer loop
      vertex 5.038429e+00 -2.439018e+01 4.000000e+00
      vertex 5.152241e+00 -2.476537e+01 4.000000e+00
      vertex 5.152241e+00 -2.476537e+01 3.292179e-15
    endloop
  endfacet
  facet normal 9.569399e-01 2.902860e-01 -1.777489e-17
    outer loop
      vertex 5.038429e+00 -2.439018e+01 3.269206e-15
      vertex 5.038429e+00 -2.439018e+01 4.000000e+00
      vertex 5.152241e+00 -2.476537e+01 3.292179e-15
    endloop
  endfacet
  facet normal 9.951848e-01 9.801599e-02 -6.001748e-18
    outer loop
      vertex 5.000000e+00 -2.400000e+01 4.000000e+00
      vertex 5.038429e+00 -2.439018e+01 4.000000e+00
      vertex 5.038429e+00 -2.439018e+01 3.269206e-15
    endloop
  endfacet
  facet normal 9.951848e-01 9.801599e-02 -6.001748e-18
    outer loop
      vertex 5.000000e+00 -2.400000e+01 3.245314e-15
      vertex 5.000000e+00 -2.400000e+01 4.000000e+00
      vertex 5.038429e+00 -2.439018e+01 3.269206e-15
    endloop
  endfacet
  facet normal 0.000000e+00 1.000000e+00 -6.123234e-17
    outer loop
      vertex 1.900000e+01 1.500000e+00 8.000000e+00
      vertex 1.605714e+01 1.500000e+00 8.000000e+00
      vertex 1.900000e+01 1.500000e+00 1.100000e+01
    endloop
  endfacet
  facet normal 0.000000e+00 1.000000e+00 -6.123234e-17
    outer loop
      vertex 1.900000e+01 1.500000e+00 1.100000e+01
      vertex 1.605714e+01 1.500000e+00 8.000000e+00
      vertex 1.520000e+01 1.500000e+00 1.100000e+01
    endloop
  endfacet
  facet normal -9.615240e-01 -1.682181e-17 -2.747210e-01
    outer loop
      vertex 1.520000e+01 1.500000e+00 1.100000e+01
      vertex 1.605714e+01 1.500000e+00 8.000000e+00
      vertex 1.520000e+01 -2.900000e+01 1.100000e+01
    endloop
  endfacet
  facet normal -9.615240e-01 -1.682181e-17 -2.747210e-01
    outer loop
      vertex 1.720000e+01 3.500000e+00 4.000000e+00
      vertex 1.605714e+01 1.500000e+00 8.000000e+00
      vertex 1.605714e+01 3.500000e+00 8.000000e+00
    endloop
  endfacet
  facet normal -9.615240e-01 -1.682181e-17 -2.747210e-01
    outer loop
      vertex 1.520000e+01 -2.900000e+01 1.100000e+01
      vertex 1.605714e+01 1.500000e+00 8.000000e+00
      vertex 1.720000e+01 3.500000e+00 4.000000e+00
    endloop
  endfacet
  facet normal -9.615240e-01 -1.682181e-17 -2.747210e-01
    outer loop
      vertex 1.520000e+01 -2.900000e+01 1.100000e+01
      vertex 1.720000e+01 3.500000e+00 4.000000e+00
      vertex 1.720000e+01 -2.900000e+01 4.000000e+00
    endloop
  endfacet
  facet normal 0.000000e+00 -1.000000e+00 6.123234e-17
    outer loop
      vertex -1.605714e+01 3.500000e+00 8.000000e+00
      vertex -1.720000e+01 3.500000e+00 4.000000e+00
      vertex 1.720000e+01 3.500000e+00 4.000000e+00
    endloop
  endfacet
  facet normal 0.000000e+00 -1.000000e+00 6.123234e-17
    outer loop
      vertex 1.605714e+01 3.500000e+00 8.000000e+00
      vertex -1.605714e+01 3.500000e+00 8.000000e+00
      vertex 1.720000e+01 3.500000e+00 4.000000e+00
    endloop
  endfacet
  facet normal 9.615240e-01 -1.682181e-17 -2.747210e-01
    outer loop
      vertex -1.720000e+01 -2.900000e+01 4.000000e+00
      vertex -1.720000e+01 3.500000e+00 4.000000e+00
      vertex -1.605714e+01 3.500000e+00 8.000000e+00
    endloop
  endfacet
  facet normal 9.615240e-01 -1.682181e-17 -2.747210e-01
    outer loop
      vertex -1.520000e+01 1.500000e+00 1.100000e+01
      vertex -1.720000e+01 -2.900000e+01 4.000000e+00
      vertex -1.605714e+01 1.500000e+00 8.000000e+00
    endloop
  endfacet
  facet normal 9.615240e-01 -1.682181e-17 -2.747210e-01
    outer loop
      vertex -1.605714e+01 1.500000e+00 8.000000e+00
      vertex -1.720000e+01 -2.900000e+01 4.000000e+00
      vertex -1.605714e+01 3.500000e+00 8.000000e+00
    endloop
  endfacet
  facet normal 9.615240e-01 -1.682181e-17 -2.747210e-01
    outer loop
      vertex -1.520000e+01 -2.900000e+01 1.100000e+01
      vertex -1.720000e+01 -2.900000e+01 4.000000e+00
      vertex -1.520000e+01 1.500000e+00 1.100000e+01
    endloop
  endfacet
  facet normal 0.000000e+00 6.123234e-17 1.000000e+00
    outer loop
      vertex -1.720000e+01 3.500000e+00 4.000000e+00
      vertex -1.720000e+01 -2.900000e+01 4.000000e+00
      vertex 1.720000e+01 3.500000e+00 4.000000e+00
    endloop
  endfacet
  facet normal 0.000000e+00 6.123234e-17 1.000000e+00
    outer loop
      vertex -6.609819e+00 -2.596157e+01 4.000000e+00
      vertex -1.720000e+01 -2.900000e+01 4.000000e+00
      vertex 1.720000e+01 -2.900000e+01 4.000000e+00
    endloop
  endfacet
  facet normal 0.000000e+00 6.123234e-17 1.000000e+00
    outer loop
      vertex -8.961571e+00 -2.360982e+01 4.000000e+00
      vertex -1.720000e+01 -2.900000e+01 4.000000e+00
      vertex -9.000000e+00 -2.400000e+01 4.000000e+00
    endloop
  endfacet
  facet normal 0.000000e+00 6.123234e-17 1.000000e+00
    outer loop
      vertex -8.847759e+00 -2.323463e+01 4.000000e+00
      vertex -1.720000e+01 -2.900000e+01 4.000000e+00
      vertex -8.961571e+00 -2.360982e+01 4.000000e+00
    endloop
  endfacet
  facet normal 0.000000e+00 6.123234e-17 1.000000e+00
    outer loop
      vertex -8.662939e+00 -2.288886e+01 4.000000e+00
      vertex -1.720000e+01 -2.900000e+01 4.000000e+00
      vertex -8.847759e+00 -2.323463e+01 4.000000e+00
    endloop
  endfacet
  facet normal 0.000000e+00 6.123234e-17 1.000000e+00
    outer loop
      vertex -8.414214e+00 -2.258579e+01 4.000000e+00
      vertex -1.720000e+01 -2.900000e+01 4.000000e+00
      vertex -8.662939e+00 -2.288886e+01 4.000000e+00
    endloop
  endfacet
  facet normal 0.000000e+00 6.123234e-17 1.000000e+00
    outer loop
      vertex 1.720000e+01 3.500000e+00 4.000000e+00
      vertex -1.720000e+01 -2.900000e+01 4.000000e+00
      vertex -8.414214e+00 -2.258579e+01 4.000000e+00
    endloop
  endfacet
  facet normal 0.000000e+00 6.123234e-17 1.000000e+00
    outer loop
      vertex -7.765367e+00 -2.215224e+01 4.000000e+00
      vertex 1.720000e+01 3.500000e+00 4.000000e+00
      vertex -8.111140e+00 -2.233706e+01 4.000000e+00
    endloop
  endfacet
  facet normal 0.000000e+00 6.123234e-17 1.000000e+00
    outer loop
      vertex -7.390181e+00 -2.203843e+01 4.000000e+00
      vertex 1.720000e+01 3.500000e+00 4.000000e+00
      vertex -7.765367e+00 -2.215224e+01 4.000000e+00
    endloop
  endfacet
  facet normal 0.000000e+00 6.123234e-17 1.000000e+00
    outer loop
      vertex -7.000000e+00 -2.200000e+01 4.000000e+00
      vertex 1.720000e+01 3.500000e+00 4.000000e+00
      vertex -7.390181e+00 -2.203843e+01 4.000000e+00
    endloop
  endfacet
  facet normal 0.000000e+00 6.123234e-17 1.000000e+00
    outer loop
      vertex 5.888861e+00 -2.566294e+01 4.000000e+00
      vertex -5.888860e+00 -2.233706e+01 4.000000e+00
      vertex 6.234632e+00 -2.584776e+01 4.000000e+00
    endloop
  endfacet
  facet normal 0.000000e+00 6.123234e-17 1.000000e+00
    outer loop
      vertex 1.720000e+01 3.500000e+00 4.000000e+00
      vertex -7.000000e+00 -2.200000e+01 4.000000e+00
      vertex -6.609819e+00 -2.203843e+01 4.000000e+00
    endloop
  endfacet
  facet normal 0.000000e+00 6.123234e-17 1.000000e+00
    outer loop
      vertex -5.152241e+00 -2.476537e+01 4.000000e+00
      vertex 1.720000e+01 -2.900000e+01 4.000000e+00
      vertex -5.038429e+00 -2.439018e+01 4.000000e+00
    endloop
  endfacet
  facet normal 0.000000e+00 6.123234e-17 1.000000e+00
    outer loop
      vertex 6.609819e+00 -2.596157e+01 4.000000e+00
      vertex -5.585786e+00 -2.258579e+01 4.000000e+00
      vertex 1.720000e+01 -2.900000e+01 4.000000e+00
    endloop
  endfacet
  facet normal 0.000000e+00 6.123234e-17 1.000000e+00
    outer loop
      vertex -5.585786e+00 -2.258579e+01 4.000000e+00
      vertex -5.337061e+00 -2.288886e+01 4.000000e+00
      vertex 1.720000e+01 -2.900000e+01 4.000000e+00
    endloop
  endfacet
  facet normal 0.000000e+00 6.123234e-17 1.000000e+00
    outer loop
      vertex -5.337061e+00 -2.288886e+01 4.000000e+00
      vertex -5.152241e+00 -2.323463e+01 4.000000e+00
      vertex 1.720000e+01 -2.900000e+01 4.000000e+00
    endloop
  endfacet
  facet normal 0.000000e+00 6.123234e-17 1.000000e+00
    outer loop
      vertex -5.152241e+00 -2.323463e+01 4.000000e+00
      vertex -5.038429e+00 -2.360982e+01 4.000000e+00
      vertex 1.720000e+01 -2.900000e+01 4.000000e+00
    endloop
  endfacet
  facet normal 0.000000e+00 6.123234e-17 1.000000e+00
    outer loop
      vertex -5.038429e+00 -2.360982e+01 4.000000e+00
      vertex -5.000000e+00 -2.400000e+01 4.000000e+00
      vertex 1.720000e+01 -2.900000e+01 4.000000e+00
    endloop
  endfacet
  facet normal 0.000000e+00 6.123234e-17 1.000000e+00
    outer loop
      vertex -5.000000e+00 -2.400000e+01 4.000000e+00
      vertex -5.038429e+00 -2.439018e+01 4.000000e+00
      vertex 1.720000e+01 -2.900000e+01 4.000000e+00
    endloop
  endfacet
  facet normal 0.000000e+00 6.123234e-17 1.000000e+00
    outer loop
      vertex 5.585787e+00 -2.258579e+01 4.000000e+00
      vertex 1.720000e+01 3.500000e+00 4.000000e+00
      vertex 5.337061e+00 -2.288886e+01 4.000000e+00
    endloop
  endfacet
  facet normal 0.000000e+00 6.123234e-17 1.000000e+00
    outer loop
      vertex -7.000000e+00 -2.600000e+01 4.000000e+00
      vertex -1.720000e+01 -2.900000e+01 4.000000e+00
      vertex -6.609819e+00 -2.596157e+01 4.000000e+00
    endloop
  endfacet
  facet normal 0.000000e+00 6.123234e-17 1.000000e+00
    outer loop
      vertex -8.111140e+00 -2.566294e+01 4.000000e+00
      vertex -1.720000e+01 -2.900000e+01 4.000000e+00
      vertex -7.765367e+00 -2.584776e+01 4.000000e+00
    endloop
  endfacet
  facet normal 0.000000e+00 6.123234e-17 1.000000e+00
    outer loop
      vertex -5.152241e+00 -2.476537e+01 4.000000e+00
      vertex -5.337061e+00 -2.511114e+01 4.000000e+00
      vertex 1.720000e+01 -2.900000e+01 4.000000e+00
    endloop
  endfacet
  facet normal 0.000000e+00 6.123234e-17 1.000000e+00
    outer loop
      vertex -7.765367e+00 -2.584776e+01 4.000000e+00
      vertex -1.720000e+01 -2.900000e+01 4.000000e+00
      vertex -7.390181e+00 -2.596157e+01 4.000000e+00
    endloop
  endfacet
  facet normal 0.000000e+00 6.123234e-17 1.000000e+00
    outer loop
      vertex -5.337061e+00 -2.511114e+01 4.000000e+00
      vertex -5.585786e+00 -2.541421e+01 4.000000e+00
      vertex 1.720000e+01 -2.900000e+01 4.000000e+00
    endloop
  endfacet
  facet normal 0.000000e+00 6.123234e-17 1.000000e+00
    outer loop
      vertex -5.585786e+00 -2.541421e+01 4.000000e+00
      vertex -5.888860e+00 -2.566294e+01 4.000000e+00
      vertex 1.720000e+01 -2.900000e+01 4.000000e+00
    endloop
  endfacet
  facet normal 0.000000e+00 6.123234e-17 1.000000e+00
    outer loop
      vertex -7.390181e+00 -2.596157e+01 4.000000e+00
      vertex -1.720000e+01 -2.900000e+01 4.000000e+00
      vertex -7.000000e+00 -2.600000e+01 4.000000e+00
    endloop
  endfacet
  facet normal 0.000000e+00 6.123234e-17 1.000000e+00
    outer loop
      vertex -5.888860e+00 -2.566294e+01 4.000000e+00
      vertex -6.234633e+00 -2.584776e+01 4.000000e+00
      vertex 1.720000e+01 -2.900000e+01 4.000000e+00
    endloop
  endfacet
  facet normal 0.000000e+00 6.123234e-17 1.000000e+00
    outer loop
      vertex -6.234633e+00 -2.584776e+01 4.000000e+00
      vertex -6.609819e+00 -2.596157e+01 4.000000e+00
      vertex 1.720000e+01 -2.900000e+01 4.000000e+00
    endloop
  endfacet
  facet normal 0.000000e+00 6.123234e-17 1.000000e+00
    outer loop
      vertex -8.414214e+00 -2.541421e+01 4.000000e+00
      vertex -1.720000e+01 -2.900000e+01 4.000000e+00
      vertex -8.111140e+00 -2.566294e+01 4.000000e+00
    endloop
  endfacet
  facet normal 0.000000e+00 6.123234e-17 1.000000e+00
    outer loop
      vertex -8.662939e+00 -2.511114e+01 4.000000e+00
      vertex -1.720000e+01 -2.900000e+01 4.000000e+00
      vertex -8.414214e+00 -2.541421e+01 4.000000e+00
    endloop
  endfacet
  facet normal 0.000000e+00 6.123234e-17 1.000000e+00
    outer loop
      vertex -8.847759e+00 -2.476537e+01 4.000000e+00
      vertex -1.720000e+01 -2.900000e+01 4.000000e+00
      vertex -8.662939e+00 -2.511114e+01 4.000000e+00
    endloop
  endfacet
  facet normal 0.000000e+00 6.123234e-17 1.000000e+00
    outer loop
      vertex -8.961571e+00 -2.439018e+01 4.000000e+00
      vertex -1.720000e+01 -2.900000e+01 4.000000e+00
      vertex -8.847759e+00 -2.476537e+01 4.000000e+00
    endloop
  endfacet
  facet normal 0.000000e+00 6.123234e-17 1.000000e+00
    outer loop
      vertex -9.000000e+00 -2.400000e+01 4.000000e+00
      vertex -1.720000e+01 -2.900000e+01 4.000000e+00
      vertex -8.961571e+00 -2.439018e+01 4.000000e+00
    endloop
  endfacet
  facet normal 0.000000e+00 6.123234e-17 1.000000e+00
    outer loop
      vertex 5.038429e+00 -2.360982e+01 4.000000e+00
      vertex -6.609819e+00 -2.203843e+01 4.000000e+00
      vertex 5.000000e+00 -2.400000e+01 4.000000e+00
    endloop
  endfacet
  facet normal 0.000000e+00 6.123234e-17 1.000000e+00
    outer loop
      vertex 5.152241e+00 -2.323463e+01 4.000000e+00
      vertex -6.609819e+00 -2.203843e+01 4.000000e+00
      vertex 5.038429e+00 -2.360982e+01 4.000000e+00
    endloop
  endfacet
  facet normal 0.000000e+00 6.123234e-17 1.000000e+00
    outer loop
      vertex 1.720000e+01 3.500000e+00 4.000000e+00
      vertex -6.609819e+00 -2.203843e+01 4.000000e+00
      vertex 5.152241e+00 -2.323463e+01 4.000000e+00
    endloop
  endfacet
  facet normal 0.000000e+00 6.123234e-17 1.000000e+00
    outer loop
      vertex 1.720000e+01 3.500000e+00 4.000000e+00
      vertex 5.152241e+00 -2.323463e+01 4.000000e+00
      vertex 5.337061e+00 -2.288886e+01 4.000000e+00
    endloop
  endfacet
  facet normal 0.000000e+00 6.123234e-17 1.000000e+00
    outer loop
      vertex 5.888861e+00 -2.233706e+01 4.000000e+00
      vertex 1.720000e+01 3.500000e+00 4.000000e+00
      vertex 5.585787e+00 -2.258579e+01 4.000000e+00
    endloop
  endfacet
  facet normal 0.000000e+00 6.123234e-17 1.000000e+00
    outer loop
      vertex 8.662939e+00 -2.288886e+01 4.000000e+00
      vertex 1.720000e+01 -2.900000e+01 4.000000e+00
      vertex 8.414213e+00 -2.258579e+01 4.000000e+00
    endloop
  endfacet
  facet normal 0.000000e+00 6.123234e-17 1.000000e+00
    outer loop
      vertex 1.720000e+01 3.500000e+00 4.000000e+00
      vertex 5.888861e+00 -2.233706e+01 4.000000e+00
      vertex 6.234632e+00 -2.215224e+01 4.000000e+00
    endloop
  endfacet
  facet normal 0.000000e+00 6.123234e-17 1.000000e+00
    outer loop
      vertex 1.720000e+01 3.500000e+00 4.000000e+00
      vertex 6.234632e+00 -2.215224e+01 4.000000e+00
      vertex 6.609819e+00 -2.203843e+01 4.000000e+00
    endloop
  endfacet
  facet normal 0.000000e+00 6.123234e-17 1.000000e+00
    outer loop
      vertex 1.720000e+01 3.500000e+00 4.000000e+00
      vertex 6.609819e+00 -2.203843e+01 4.000000e+00
      vertex 7.000000e+00 -2.200000e+01 4.000000e+00
    endloop
  endfacet
  facet normal 0.000000e+00 6.123234e-17 1.000000e+00
    outer loop
      vertex 1.720000e+01 3.500000e+00 4.000000e+00
      vertex 7.000000e+00 -2.200000e+01 4.000000e+00
      vertex 7.390181e+00 -2.203843e+01 4.000000e+00
    endloop
  endfacet
  facet normal 0.000000e+00 6.123234e-17 1.000000e+00
    outer loop
      vertex 1.720000e+01 3.500000e+00 4.000000e+00
      vertex 7.390181e+00 -2.203843e+01 4.000000e+00
      vertex 7.765368e+00 -2.215224e+01 4.000000e+00
    endloop
  endfacet
  facet normal 0.000000e+00 6.123234e-17 1.000000e+00
    outer loop
      vertex 1.720000e+01 3.500000e+00 4.000000e+00
      vertex 7.765368e+00 -2.215224e+01 4.000000e+00
      vertex 8.111139e+00 -2.233706e+01 4.000000e+00
    endloop
  endfacet
  facet normal 0.000000e+00 6.123234e-17 1.000000e+00
    outer loop
      vertex 1.720000e+01 3.500000e+00 4.000000e+00
      vertex 8.111139e+00 -2.233706e+01 4.000000e+00
      vertex 1.720000e+01 -2.900000e+01 4.000000e+00
    endloop
  endfacet
  facet normal 0.000000e+00 6.123234e-17 1.000000e+00
    outer loop
      vertex 8.111139e+00 -2.233706e+01 4.000000e+00
      vertex 8.414213e+00 -2.258579e+01 4.000000e+00
      vertex 1.720000e+01 -2.900000e+01 4.000000e+00
    endloop
  endfacet
  facet normal 0.000000e+00 6.123234e-17 1.000000e+00
    outer loop
      vertex 8.847759e+00 -2.323463e+01 4.000000e+00
      vertex 1.720000e+01 -2.900000e+01 4.000000e+00
      vertex 8.662939e+00 -2.288886e+01 4.000000e+00
    endloop
  endfacet
  facet normal 0.000000e+00 6.123234e-17 1.000000e+00
    outer loop
      vertex 8.961571e+00 -2.360982e+01 4.000000e+00
      vertex 1.720000e+01 -2.900000e+01 4.000000e+00
      vertex 8.847759e+00 -2.323463e+01 4.000000e+00
    endloop
  endfacet
  facet normal 0.000000e+00 6.123234e-17 1.000000e+00
    outer loop
      vertex 9.000000e+00 -2.400000e+01 4.000000e+00
      vertex 1.720000e+01 -2.900000e+01 4.000000e+00
      vertex 8.961571e+00 -2.360982e+01 4.000000e+00
    endloop
  endfacet
  facet normal 0.000000e+00 6.123234e-17 1.000000e+00
    outer loop
      vertex 8.961571e+00 -2.439018e+01 4.000000e+00
      vertex 1.720000e+01 -2.900000e+01 4.000000e+00
      vertex 9.000000e+00 -2.400000e+01 4.000000e+00
    endloop
  endfacet
  facet normal 0.000000e+00 6.123234e-17 1.000000e+00
    outer loop
      vertex 8.414213e+00 -2.541421e+01 4.000000e+00
      vertex 1.720000e+01 -2.900000e+01 4.000000e+00
      vertex 8.662939e+00 -2.511114e+01 4.000000e+00
    endloop
  endfacet
  facet normal 0.000000e+00 6.123234e-17 1.000000e+00
    outer loop
      vertex 8.961571e+00 -2.439018e+01 4.000000e+00
      vertex 8.847759e+00 -2.476537e+01 4.000000e+00
      vertex 1.720000e+01 -2.900000e+01 4.000000e+00
    endloop
  endfacet
  facet normal 0.000000e+00 6.123234e-17 1.000000e+00
    outer loop
      vertex 8.847759e+00 -2.476537e+01 4.000000e+00
      vertex 8.662939e+00 -2.511114e+01 4.000000e+00
      vertex 1.720000e+01 -2.900000e+01 4.000000e+00
    endloop
  endfacet
  facet normal 0.000000e+00 6.123234e-17 1.000000e+00
    outer loop
      vertex 6.609819e+00 -2.596157e+01 4.000000e+00
      vertex 1.720000e+01 -2.900000e+01 4.000000e+00
      vertex 7.000000e+00 -2.600000e+01 4.000000e+00
    endloop
  endfacet
  facet normal 0.000000e+00 6.123234e-17 1.000000e+00
    outer loop
      vertex 5.038429e+00 -2.439018e+01 4.000000e+00
      vertex -6.609819e+00 -2.203843e+01 4.000000e+00
      vertex 5.152241e+00 -2.476537e+01 4.000000e+00
    endloop
  endfacet
  facet normal 0.000000e+00 6.123234e-17 1.000000e+00
    outer loop
      vertex 8.414213e+00 -2.541421e+01 4.000000e+00
      vertex 8.111139e+00 -2.566294e+01 4.000000e+00
      vertex 1.720000e+01 -2.900000e+01 4.000000e+00
    endloop
  endfacet
  facet normal 0.000000e+00 6.123234e-17 1.000000e+00
    outer loop
      vertex 5.152241e+00 -2.476537e+01 4.000000e+00
      vertex -6.609819e+00 -2.203843e+01 4.000000e+00
      vertex 5.337061e+00 -2.511114e+01 4.000000e+00
    endloop
  endfacet
  facet normal 0.000000e+00 6.123234e-17 1.000000e+00
    outer loop
      vertex 8.111139e+00 -2.566294e+01 4.000000e+00
      vertex 7.765368e+00 -2.584776e+01 4.000000e+00
      vertex 1.720000e+01 -2.900000e+01 4.000000e+00
    endloop
  endfacet
  facet normal 0.000000e+00 6.123234e-17 1.000000e+00
    outer loop
      vertex 5.337061e+00 -2.511114e+01 4.000000e+00
      vertex -6.609819e+00 -2.203843e+01 4.000000e+00
      vertex 5.585787e+00 -2.541421e+01 4.000000e+00
    endloop
  endfacet
  facet normal 0.000000e+00 6.123234e-17 1.000000e+00
    outer loop
      vertex 7.765368e+00 -2.584776e+01 4.000000e+00
      vertex 7.390181e+00 -2.596157e+01 4.000000e+00
      vertex 1.720000e+01 -2.900000e+01 4.000000e+00
    endloop
  endfacet
  facet normal 0.000000e+00 6.123234e-17 1.000000e+00
    outer loop
      vertex 5.585787e+00 -2.541421e+01 4.000000e+00
      vertex -6.609819e+00 -2.203843e+01 4.000000e+00
      vertex 5.888861e+00 -2.566294e+01 4.000000e+00
    endloop
  endfacet
  facet normal 0.000000e+00 6.123234e-17 1.000000e+00
    outer loop
      vertex 7.390181e+00 -2.596157e+01 4.000000e+00
      vertex 7.000000e+00 -2.600000e+01 4.000000e+00
      vertex 1.720000e+01 -2.900000e+01 4.000000e+00
    endloop
  endfacet
  facet normal 0.000000e+00 6.123234e-17 1.000000e+00
    outer loop
      vertex -5.888860e+00 -2.233706e+01 4.000000e+00
      vertex -5.585786e+00 -2.258579e+01 4.000000e+00
      vertex 6.609819e+00 -2.596157e+01 4.000000e+00
    endloop
  endfacet
  facet normal 0.000000e+00 6.123234e-17 1.000000e+00
    outer loop
      vertex 5.888861e+00 -2.566294e+01 4.000000e+00
      vertex -6.609819e+00 -2.203843e+01 4.000000e+00
      vertex -6.234633e+00 -2.215224e+01 4.000000e+00
    endloop
  endfacet
  facet normal 0.000000e+00 6.123234e-17 1.000000e+00
    outer loop
      vertex -5.888860e+00 -2.233706e+01 4.000000e+00
      vertex 6.609819e+00 -2.596157e+01 4.000000e+00
      vertex 6.234632e+00 -2.584776e+01 4.000000e+00
    endloop
  endfacet
  facet normal 0.000000e+00 6.123234e-17 1.000000e+00
    outer loop
      vertex 5.888861e+00 -2.566294e+01 4.000000e+00
      vertex -6.234633e+00 -2.215224e+01 4.000000e+00
      vertex -5.888860e+00 -2.233706e+01 4.000000e+00
    endloop
  endfacet
  facet normal 0.000000e+00 6.123234e-17 1.000000e+00
    outer loop
      vertex 5.000000e+00 -2.400000e+01 4.000000e+00
      vertex -6.609819e+00 -2.203843e+01 4.000000e+00
      vertex 5.038429e+00 -2.439018e+01 4.000000e+00
    endloop
  endfacet
  facet normal 0.000000e+00 6.123234e-17 1.000000e+00
    outer loop
      vertex -8.111140e+00 -2.233706e+01 4.000000e+00
      vertex 1.720000e+01 3.500000e+00 4.000000e+00
      vertex -8.414214e+00 -2.258579e+01 4.000000e+00
    endloop
  endfacet
  facet normal 0.000000e+00 6.123234e-17 1.000000e+00
    outer loop
      vertex 1.520000e+01 1.500000e+00 1.100000e+01
      vertex 1.520000e+01 -2.900000e+01 1.100000e+01
      vertex 1.900000e+01 1.500000e+00 1.100000e+01
    endloop
  endfacet
  facet normal 0.000000e+00 6.123234e-17 1.000000e+00
    outer loop
      vertex 1.900000e+01 1.500000e+00 1.100000e+01
      vertex 1.520000e+01 -2.900000e+01 1.100000e+01
      vertex 1.900000e+01 -2.900000e+01 1.100000e+01
    endloop
  endfacet
endsolid Default
