solid OpenSCAD_Model
  facet normal 1.000000 0.000000 0.000000
    outer loop
      vertex 15.500000 0.000000 0.000000
      vertex 15.500000 9.600000 0.000000
      vertex 15.500000 9.600000 13.250000
    endloop
  endfacet
  facet normal 1.000000 0.000000 -0.000000
    outer loop
      vertex 15.500000 0.000000 13.250000
      vertex 15.500000 0.000000 0.000000
      vertex 15.500000 9.600000 13.250000
    endloop
  endfacet
  facet normal -0.247250 0.968952 0.000000
    outer loop
      vertex 8.250000 7.750000 13.250000
      vertex 15.500000 9.600000 13.250000
      vertex 8.250000 7.750000 0.000000
    endloop
  endfacet
  facet normal -0.247250 0.968952 0.000000
    outer loop
      vertex 8.250000 7.750000 0.000000
      vertex 15.500000 9.600000 13.250000
      vertex 15.500000 9.600000 0.000000
    endloop
  endfacet
  facet normal 0.000000 0.000000 -1.000000
    outer loop
      vertex 0.000000 9.600000 0.000000
      vertex 8.250000 7.750000 0.000000
      vertex 0.000000 0.000000 0.000000
    endloop
  endfacet
  facet normal 0.000000 0.000000 -1.000000
    outer loop
      vertex 0.000000 0.000000 0.000000
      vertex 8.250000 7.750000 0.000000
      vertex 15.500000 9.600000 0.000000
    endloop
  endfacet
  facet normal -0.000000 0.000000 -1.000000
    outer loop
      vertex 8.250000 1.750000 0.000000
      vertex 15.500000 9.600000 0.000000
      vertex 15.500000 0.000000 0.000000
    endloop
  endfacet
  facet normal 0.000000 0.000000 -1.000000
    outer loop
      vertex 0.000000 0.000000 0.000000
      vertex 15.500000 9.600000 0.000000
      vertex 8.250000 1.750000 0.000000
    endloop
  endfacet
  facet normal -0.234641 -0.972082 0.000000
    outer loop
      vertex 8.250000 1.750000 0.000000
      vertex 15.500000 0.000000 0.000000
      vertex 15.500000 0.000000 13.250000
    endloop
  endfacet
  facet normal -0.234641 -0.972082 0.000000
    outer loop
      vertex 8.250000 1.750000 13.250000
      vertex 8.250000 1.750000 0.000000
      vertex 15.500000 0.000000 13.250000
    endloop
  endfacet
  facet normal 0.000000 0.000000 1.000000
    outer loop
      vertex 0.000000 0.000000 13.250000
      vertex 8.250000 1.750000 13.250000
      vertex 15.500000 9.600000 13.250000
    endloop
  endfacet
  facet normal 0.000000 0.000000 1.000000
    outer loop
      vertex 15.500000 9.600000 13.250000
      vertex 8.250000 1.750000 13.250000
      vertex 15.500000 0.000000 13.250000
    endloop
  endfacet
  facet normal 0.000000 0.000000 1.000000
    outer loop
      vertex 0.000000 0.000000 13.250000
      vertex 8.250000 7.750000 13.250000
      vertex 0.000000 9.600000 13.250000
    endloop
  endfacet
  facet normal 0.000000 0.000000 1.000000
    outer loop
      vertex 0.000000 0.000000 13.250000
      vertex 15.500000 9.600000 13.250000
      vertex 8.250000 7.750000 13.250000
    endloop
  endfacet
  facet normal 0.218809 0.975768 -0.000000
    outer loop
      vertex 0.000000 9.600000 13.250000
      vertex 8.250000 7.750000 13.250000
      vertex 0.000000 9.600000 0.000000
    endloop
  endfacet
  facet normal 0.218809 0.975768 0.000000
    outer loop
      vertex 0.000000 9.600000 0.000000
      vertex 8.250000 7.750000 13.250000
      vertex 8.250000 7.750000 0.000000
    endloop
  endfacet
  facet normal 0.207504 -0.978234 0.000000
    outer loop
      vertex 0.000000 0.000000 0.000000
      vertex 8.250000 1.750000 0.000000
      vertex 8.250000 1.750000 13.250000
    endloop
  endfacet
  facet normal 0.207504 -0.978234 0.000000
    outer loop
      vertex 0.000000 0.000000 13.250000
      vertex 0.000000 0.000000 0.000000
      vertex 8.250000 1.750000 13.250000
    endloop
  endfacet
  facet normal -1.000000 0.000000 0.000000
    outer loop
      vertex 0.000000 0.000000 13.250000
      vertex 0.000000 9.600000 13.250000
      vertex 0.000000 0.000000 0.000000
    endloop
  endfacet
  facet normal -1.000000 -0.000000 0.000000
    outer loop
      vertex 0.000000 0.000000 0.000000
      vertex 0.000000 9.600000 13.250000
      vertex 0.000000 9.600000 0.000000
    endloop
  endfacet
endsolid OpenSCAD_Model
